<svg width="264" height="332" viewBox="0 0 264 332" fill="none" xmlns="http://www.w3.org/2000/svg">
<path d="M252.971 331.489H182.975L182.744 330.719C182.219 328.729 182.146 326.651 182.512 324.624L180.073 331.482H121.5C121.323 328.322 121.214 325.2 121.177 322.127C120.811 294.25 125.641 270.139 130.106 254.014C133.795 240.647 137.229 232.769 137.229 232.769H231.467C234.058 241.486 242.859 282.673 252.977 331.489H252.971Z" fill="#393E53"/>
<path d="M184.793 318.836L184.195 318.698L188.964 297.059L199.161 287.917L199.564 288.386L189.513 297.397L184.793 318.836Z" stroke="#272525" stroke-miterlimit="10"/>
<path d="M223.725 102.524L239.381 107.243C252.999 112.086 262.788 128.155 261.891 138.462L263.154 195.399L221.005 172.227L223.725 102.518V102.524Z" fill="#272525"/>
<path d="M242.083 275.978L236.167 234.803C235.082 227.238 234.588 219.597 234.697 211.957L236.179 106.285L172.228 89.9153L118.016 93.9076L57.151 106.729L65.7624 165.113L119.742 156.684L122.944 275.991H242.077L242.083 275.978Z" fill="#272525"/>
<path d="M203.747 97.9736L203.063 97.7984C203.076 98.0737 203.082 98.3615 203.082 98.6494C203.082 110.37 191.5 119.9 177.266 119.9C163.031 119.9 151.45 110.37 151.45 98.6494C151.45 96.0775 152.005 93.6121 153.029 91.3218L152.261 91.3781C151.297 93.6496 150.773 96.0963 150.773 98.6494C150.773 110.752 162.659 120.595 177.266 120.595C191.872 120.595 203.759 110.752 203.759 98.6494C203.759 98.4179 203.753 98.1989 203.747 97.9736Z" fill="#4E596F"/>
<path d="M252.077 214.959C242.752 218.389 232.58 212.807 230.189 202.945L212.46 135.663L232.043 128.48L261.506 191.368C265.806 200.548 261.421 211.53 252.077 214.966V214.959Z" fill="#FFB9A3"/>
<path d="M195.322 106.86L198.243 110.314C202.177 127.873 213.508 136.552 213.508 136.552L232.603 130.557C232.603 130.557 222.797 99.5635 220.083 90.9969C219.631 89.5701 218.82 88.2811 217.735 87.2799C214.405 84.1886 206.873 77.2615 202.671 73.8699C201.171 72.6684 200.103 71.905 199.792 71.93C199.109 71.9801 198.743 72.756 198.713 73.7385C198.676 74.8774 199.085 76.2853 199.951 77.1739C201.134 78.3941 208.873 89.8017 213.368 94.6075L213.027 94.9642L210.685 92.1921C209.489 90.7779 207.397 90.6277 206.013 91.8542C204.635 93.0806 204.488 95.227 205.684 96.6349L208.361 99.8013L207.934 100.252L205.598 97.4922C204.421 96.0968 202.36 95.9466 201.006 97.1543L200.927 97.2294C199.567 98.4371 199.426 100.552 200.603 101.941L203.269 105.095L202.909 105.464L200.323 102.411C199.146 101.015 197.084 100.865 195.731 102.073L195.651 102.148C194.291 103.356 194.151 105.471 195.328 106.86H195.322Z" fill="#FFB9A3"/>
<path d="M183.095 3.41593C183.095 3.41593 174.307 6.80753 161.695 4.71124C149.089 2.61496 135.129 9.90503 137.843 20.0611C140.557 30.2171 139.727 32.1319 137.233 35.4735C134.732 38.815 134.86 51.981 142.301 54.4465C149.741 56.9119 161.304 71.5422 161.304 71.5422C161.304 71.5422 183.077 52.3377 183.827 51.6493C184.577 50.961 189.914 7.21427 189.914 7.21427L183.095 3.40967V3.41593Z" fill="#5D3D34"/>
<path d="M197.382 101.484C197.145 101.972 191.363 113.305 178.604 114.406C169.164 115.219 159.948 110.069 155.661 101.484C155.807 86.9351 155.954 72.38 156.1 57.8311L168.804 57.6809L194.388 70.9219L196.358 91.0401L197.382 101.484Z" fill="#FFC0AB"/>
<path d="M196.355 91.0401C191.018 91.9537 184.682 91.1527 178.595 88.4119C166.294 82.8802 159.665 71.5414 163.782 63.0875C164.873 60.8472 166.605 59.0325 168.807 57.6809L194.391 70.9219L196.361 91.0401H196.355Z" fill="#F58873"/>
<path d="M208.029 22.7025C209.846 29.517 208.01 35.9686 203.924 37.12C199.838 38.2714 195.051 33.6783 193.233 26.8638C191.416 20.0493 193.251 13.5977 197.338 12.4463C201.424 11.2949 206.211 15.888 208.029 22.7025Z" fill="#3D1811"/>
<path d="M202.781 9.65535C204.616 16.5262 201.018 23.5347 194.736 25.2993C188.461 27.0639 181.88 22.9214 180.044 16.0506C178.209 9.17977 181.807 2.17129 188.089 0.406649C194.364 -1.35799 200.945 2.78453 202.781 9.65535Z" fill="#5D3D34"/>
<path d="M202.49 25.3866L208.449 52.0752C209.333 56.0362 209.455 60.135 208.815 64.1461L207.18 74.3271C206.717 77.2056 204.667 79.5397 201.929 80.3094L190.598 83.4945C188.939 83.9576 187.182 83.8074 185.621 83.069C179.693 80.2531 164.812 72.8942 162.165 68.6578C158.842 63.3451 151.108 36.2936 151.108 36.2936C151.108 36.2936 175.101 10.7126 198.367 20.3993C200.447 21.2629 201.978 23.1402 202.478 25.3866H202.49Z" fill="#FFB9A3"/>
<path d="M173.301 21.1392C177.723 40.2435 164.507 48.5974 164.507 48.5974L165.501 55.049L156.835 57.6897L146.095 31.946L173.308 21.1392H173.301Z" fill="#5D3D34"/>
<path d="M161.151 22.6211C161.151 22.6211 162.469 30.6809 147.252 37.001" stroke="#A15C52" stroke-miterlimit="10"/>
<path d="M167.843 20.7378C167.843 20.7378 171.307 32.4457 155.286 39.523" stroke="#A15C52" stroke-miterlimit="10"/>
<path d="M182.165 48.3337C181.75 47.0947 180.433 46.4377 179.225 46.8632C178.018 47.2887 177.377 48.6403 177.792 49.8793C178.207 51.1183 179.524 51.7754 180.731 51.3499C181.939 50.9243 182.579 49.5727 182.165 48.3337Z" fill="black"/>
<path d="M203.289 42.3952C202.874 41.1562 201.557 40.4992 200.349 40.9247C199.142 41.3502 198.502 42.7018 198.916 43.9408C199.331 45.1798 200.648 45.8369 201.856 45.4114C203.063 44.9859 203.704 43.6342 203.289 42.3952Z" fill="black"/>
<path d="M194.282 55.3922L196.782 52.5575C197.27 52.0069 197.203 51.087 196.642 50.5801L191.928 44.5291" stroke="#CB6B5D" stroke-width="2.13" stroke-miterlimit="10"/>
<path d="M194.911 37.7646C194.911 37.7646 200.772 37.896 202.998 36.269L194.911 37.7646Z" fill="#5D3D34"/>
<path d="M194.911 37.7646C194.911 37.7646 200.772 37.896 202.998 36.269" stroke="#612C1E" stroke-width="2.13" stroke-miterlimit="10" stroke-linecap="round"/>
<path d="M181.669 41.5445C181.669 41.5445 177.747 40.7623 173.283 44.9361L181.669 41.5445Z" fill="#5D3D34"/>
<path d="M181.669 41.5445C181.669 41.5445 177.747 40.7623 173.283 44.9361" stroke="#612C1E" stroke-width="2.13" stroke-miterlimit="10" stroke-linecap="round"/>
<path d="M189.178 65.8162C189.769 65.009 191.367 63.0691 194.185 62.0304C196.71 61.1042 198.893 61.3858 199.869 61.5736" stroke="#CB6B5D" stroke-width="2.13" stroke-miterlimit="10"/>
<path d="M158.178 66.6325C161.777 65.6202 163.848 61.6301 162.804 57.7205C161.759 53.8109 157.995 51.4622 154.395 52.4746C150.796 53.4869 148.725 57.477 149.77 61.3866C150.814 65.2962 154.579 67.6449 158.178 66.6325Z" fill="#FFB9A3"/>
<path d="M152.415 58.9206C152.415 58.9206 156.825 57.6816 158.965 60.46" stroke="#CB6B5D" stroke-width="2.13" stroke-miterlimit="10"/>
<path d="M40.2353 213.928H115.957L122.672 112.73L81.4322 97.6555L39.0582 108.719L40.2353 213.928Z" fill="#517875"/>
<path d="M39.0573 108.718L34.2515 110.157C33.9039 110.264 33.5563 110.377 33.2086 110.489C22.6456 114.119 16.0041 124.869 16.7725 136.27L20.505 191.625H50.6632L41.6432 148.053L39.0573 108.718Z" fill="#517875"/>
<path d="M114.799 110.17L119.605 111.61C119.953 111.716 120.3 111.829 120.648 111.941C130.711 115.402 137.487 125.101 137.981 135.977L139.463 182.126C139.743 190.843 133.437 198.315 124.984 199.272L113.104 200.624L112.213 149.506L114.799 110.17Z" fill="#517875"/>
<path d="M89.6776 90.8604L89.5191 88.9018C89.3544 86.8744 90.8181 85.091 92.7941 84.922C93.4406 84.8657 94.0626 84.9908 94.6054 85.2537C94.8311 83.5829 96.1545 82.2375 97.856 82.0936C98.6001 82.031 99.3076 82.2 99.9113 82.5504L99.8564 81.8433C99.6918 79.8158 101.155 78.0324 103.131 77.8635C104.711 77.7258 106.138 78.6644 106.73 80.0849C107.462 79.3966 108.468 79.0149 109.541 79.1338C111.511 79.3465 112.938 81.1675 112.731 83.1887L112.45 85.8857C112.45 85.8857 112.45 85.942 112.45 85.967L111.456 105.979C111.456 105.979 100.765 112.524 95.5995 108.813C91.5012 105.866 89.9765 96.1731 89.5252 92.2997C89.4703 91.8053 89.5252 91.3173 89.6776 90.8604Z" fill="#F58873"/>
<path d="M48.8335 94.8587L57.6584 94.9275L95.6047 95.2279L123.769 95.4531C123.769 95.4531 141.986 28.86 96.8976 22.9654L96.861 22.9529C81.2605 19.1608 65.8124 28.1904 62.3666 43.1273L48.8396 94.8587H48.8335Z" fill="#5D3D34"/>
<path d="M57.6586 94.9277L95.6049 95.2281C98.331 92.2057 100.405 88.4949 101.563 84.2648L106.192 67.4006C108.766 58.0143 103.436 48.2775 94.2998 45.6368L81.8035 42.0324C72.6615 39.3917 63.1657 44.8546 60.5921 54.2347L54.4323 76.7057C52.6515 83.1822 54.0542 89.8528 57.6647 94.9277H57.6586Z" fill="#3D1811"/>
<path d="M68.5779 62.3252C67.6387 65.7481 64.1746 67.738 60.8447 66.7744C57.5148 65.8107 55.5693 62.2564 56.5085 58.8397C57.4477 55.4231 60.9118 53.4269 64.2417 54.3906C67.5777 55.3543 69.5171 58.9086 68.5779 62.3252Z" fill="#FFC0AB"/>
<path d="M60.0776 56.5239C60.0776 56.5239 63.31 58.9769 63.621 61.7678" stroke="#CB6B5D" stroke-width="2.13" stroke-miterlimit="10"/>
<path d="M66.0229 77.8507L63.2723 109.952C66.0046 117.48 72.7803 122.649 80.4159 123.049C88.7407 123.487 96.5531 118.187 99.5659 109.952C98.1754 101.329 96.7849 92.7125 95.3883 84.0895L66.0229 77.8445V77.8507Z" fill="#FFC0AB"/>
<path d="M65.4368 84.6846C69.035 106.542 99.3213 108.47 99.3213 108.47L95.3876 84.0964L65.4368 84.6846Z" fill="#F58873"/>
<path d="M72.3278 96.0413C61.3745 92.8812 54.9403 81.0982 58.0202 69.8596L64.3385 46.8192C66.9182 37.4203 76.4322 31.945 85.5864 34.5919L97.7168 38.0962C106.877 40.7431 112.214 50.5049 109.634 59.8976L104.852 77.3186C100.906 91.7048 86.3427 100.084 72.3217 96.0351L72.3278 96.0413Z" fill="#FFC0AB"/>
<path d="M84.5957 34.1153C87.9744 41.7496 91.4995 47.5316 94.2134 51.5239C99.9401 59.9654 107.911 69.1202 108.234 69.527C108.234 69.527 117.163 55.5288 110.832 44.3715C101.715 28.3146 84.6018 34.1153 84.6018 34.1153H84.5957Z" fill="#5D3D34"/>
<path d="M114.312 76.2668C113.373 79.6897 109.909 81.6796 106.579 80.716C103.243 79.7523 101.303 76.198 102.243 72.7814C103.182 69.3585 106.646 67.3686 109.976 68.3322C113.312 69.2959 115.251 72.8502 114.312 76.2668Z" fill="#FFC0AB"/>
<path d="M111.219 73.8145L104.821 74.8219" stroke="#CB6B5D" stroke-width="2.13" stroke-miterlimit="10"/>
<path d="M62.78 51.3125C67.1345 42.8773 73.2272 35.8188 83.3572 34.1167L82.2411 31.6763L65.0244 36.8012L62.78 51.3063V51.3125Z" fill="#5D3D34"/>
<path d="M90.0971 68.5334C90.6216 67.3069 92.0121 66.7437 93.2135 67.2756C94.4089 67.8138 94.9578 69.2405 94.4394 70.4733C93.921 71.706 92.5244 72.2629 91.3229 71.731C90.1276 71.1929 89.5787 69.7661 90.0971 68.5334Z" fill="black"/>
<path d="M68.5028 59.2404C69.0273 58.0139 70.4178 57.4508 71.6193 57.9827C72.8147 58.5208 73.3635 59.9475 72.8451 61.1803C72.3207 62.4068 70.9301 62.97 69.7287 62.4381C68.5333 61.8999 67.9845 60.4732 68.5028 59.2404Z" fill="black"/>
<path d="M95.3927 78.6088C94.8865 80.0418 92.5995 80.5111 90.2758 79.6476C87.9522 78.7903 86.4824 76.9318 86.9825 75.4926C87.4826 74.0533 89.7757 73.5903 92.0994 74.4538C94.423 75.3111 95.8928 77.1696 95.3927 78.6088Z" fill="#F48773"/>
<path d="M70.7481 70.3301C70.242 71.763 67.9549 72.2324 65.6313 71.3688C63.3077 70.5115 61.8379 68.653 62.338 67.2138C62.8442 65.7808 65.1312 65.3115 67.4548 66.175C69.7784 67.0386 71.2482 68.8908 70.7481 70.3301Z" fill="#F48773"/>
<path d="M77.8332 73.0264L75.4424 70.0854C74.9728 69.5097 75.0887 68.6461 75.6925 68.2206L79.6872 64.5161" stroke="#CB6B5D" stroke-width="2.13" stroke-miterlimit="10"/>
<path d="M77.4259 55.2114C77.4259 55.2114 71.4308 54.861 69.2841 53.0212L77.4259 55.2114Z" fill="#5D3D34"/>
<path d="M77.4259 55.2114C77.4259 55.2114 71.4308 54.861 69.2841 53.0212" stroke="#612C1E" stroke-width="2.13" stroke-miterlimit="10" stroke-linecap="round"/>
<path d="M91.8716 59.5532C91.8716 59.5532 97.147 59.3718 99.0559 62.5005L91.8716 59.5532Z" fill="#5D3D34"/>
<path d="M91.8716 59.5532C91.8716 59.5532 97.147 59.3718 99.0559 62.5005" stroke="#612C1E" stroke-width="2.13" stroke-miterlimit="10" stroke-linecap="round"/>
<path d="M70.9116 79.2465C70.9116 79.2465 76.1138 76.5808 80.4683 81.5243" stroke="#CB6B5D" stroke-width="2.13" stroke-miterlimit="10"/>
<path d="M102.164 171.358L32.7242 173.348C24.5031 173.836 18.5568 182.177 20.1425 190.994C21.594 199.054 28.7844 204.241 36.1517 202.539L101.134 188.679L102.164 171.352V171.358Z" fill="#FFC0AB"/>
<path d="M102.167 171.358C102.167 171.358 106.399 159.474 111.443 157.679C116.487 155.883 124.397 159.374 124.397 159.374C124.397 159.374 123.384 162.803 121.122 163.36L118.859 163.917C118.859 163.917 129.349 167.046 129.209 169.167C129.068 171.289 127.257 172.528 127.257 172.528C127.257 172.528 130.05 172.859 130.227 174.48C130.404 176.101 127.861 178.041 127.861 178.041C127.861 178.041 130.587 178.829 130.508 180.387C130.428 181.952 128.763 182.828 128.763 182.828C128.763 182.828 129.453 181.895 129.849 184.035C130.251 186.176 128.501 187.734 128.501 187.734C128.501 187.734 114.681 195.337 101.148 188.672L102.179 171.345L102.167 171.358Z" fill="#FFC0AB"/>
<path d="M122.669 64.5156C122.669 64.5156 121.437 85.7914 118.119 95.2341" stroke="#A15C52" stroke-miterlimit="10"/>
<path d="M94.6252 37.208C94.6252 37.208 103.871 56.0183 111.214 63.227" stroke="#A15C52" stroke-miterlimit="10"/>
<path d="M103.139 43.5718C105.377 47.1824 107.615 50.7868 109.853 54.3974" stroke="#A15C52" stroke-miterlimit="10"/>
<path d="M32.1416 122.443C30.3486 122.443 28.8788 121.072 28.8178 119.351L28.3482 109.546C28.2506 107.468 29.9765 105.729 32.1355 105.729C34.3005 105.729 36.0265 107.468 35.9228 109.546L35.4532 119.351C35.3922 121.072 33.9224 122.443 32.1294 122.443H32.1416Z" fill="#FFC0AB"/>
<path d="M38.6182 119.239C36.8251 119.239 35.3553 117.868 35.2943 116.148L34.8247 106.342C34.7272 104.265 36.4531 102.525 38.6121 102.525C40.7771 102.525 42.503 104.265 42.3994 106.342L41.9298 116.148C41.8688 117.868 40.399 119.239 38.606 119.239H38.6182Z" fill="#FFC0AB"/>
<path d="M44.9941 116.716C43.2011 116.716 41.7313 115.346 41.6703 113.625L41.2007 103.819C41.1031 101.742 42.8291 100.002 44.988 100.002C47.1531 100.002 48.879 101.742 48.7754 103.819L48.3057 113.625C48.2448 115.346 46.775 116.716 44.9819 116.716H44.9941Z" fill="#FFC0AB"/>
<path d="M51.1016 115.459C49.3085 115.459 47.8387 114.089 47.7777 112.368L47.3081 102.562C47.2106 100.485 48.9365 98.7451 51.0955 98.7451C53.2605 98.7451 54.9864 100.485 54.8828 102.562L54.4132 112.368C54.3522 114.089 52.8824 115.459 51.0894 115.459H51.1016Z" fill="#FFC0AB"/>
<path d="M129.263 277.618L121.17 322.134L119.474 331.489H73.2092L70.6721 297.06L60.6214 331.489H0L40.2272 213.928H115.949C115.949 213.928 125.488 224.791 129.171 246.712C129.58 249.14 129.885 251.574 130.098 254.021C130.781 261.874 130.47 269.808 129.263 277.618Z" fill="#8D7A76"/>
<path d="M120.825 221.418H37.6628L37.9068 220.723H120.441C120.563 220.948 120.691 221.174 120.819 221.418H120.825Z" stroke="#393E53" stroke-miterlimit="10"/>
<path d="M71.0179 281.334H70.3349V261.842L63.0591 255.866L63.4799 255.322L71.0179 261.51V281.334Z" stroke="#393E53" stroke-miterlimit="10"/>
<path d="M41.4008 162.867L40.8092 162.723L43.1511 152.285L42.0229 135.064L42.6327 135.027L43.7671 152.335L41.4008 162.867Z" fill="#252223"/>
<path d="M93.6749 181.332C97.2385 181.332 100.127 179.026 100.127 176.182C100.127 173.338 97.2385 171.032 93.6749 171.032C90.1113 171.032 87.2224 173.338 87.2224 176.182C87.2224 179.026 90.1113 181.332 93.6749 181.332Z" fill="#393E53"/>
<path d="M91.5815 180.249C91.5815 180.249 92.3012 190.568 92.4598 190.537C92.6122 190.505 98.3633 189.279 98.3633 189.279L97.6376 179.724L91.5876 180.249H91.5815Z" fill="#393E53"/>
<path d="M98.7719 175.906C98.7719 178.153 96.491 179.974 93.6734 179.974C90.8558 179.974 88.5748 178.153 88.5748 175.906C88.5748 173.66 90.8558 171.839 93.6734 171.839C96.491 171.839 98.7719 173.66 98.7719 175.906Z" fill="white"/>
<path d="M96.7863 110.471L103.373 188.61C104.08 197.033 112.375 202.89 120.925 201.012C128.731 199.298 133.586 191.77 131.714 184.267L112.643 107.643L96.7863 110.478V110.471Z" fill="#FFC0AB"/>
<path d="M90.6973 90.5661C90.5327 88.5387 91.9964 86.7553 93.9723 86.5863C94.6188 86.53 95.2409 86.6551 95.7837 86.918C96.0093 85.2472 97.3328 83.9018 99.0343 83.7579C99.7783 83.6953 100.486 83.8643 101.09 84.2147L101.035 83.5076C100.87 81.4801 102.334 79.6967 104.31 79.5278C105.889 79.3901 107.316 80.3287 107.908 81.7492C108.64 81.0609 109.646 80.6792 110.719 80.7981C112.689 81.0108 114.116 82.8318 113.909 84.853L113.629 87.55C113.629 87.55 113.629 87.6063 113.629 87.6313L112.634 107.643C112.634 107.643 101.943 114.188 96.7778 110.478C92.6794 107.53 91.1547 97.8374 90.7034 93.964C90.6485 93.4697 90.6912 90.5724 90.6912 90.5724L90.6973 90.5661Z" fill="#FFB9A3"/>
</svg>
