<svg width="345" height="239" viewBox="0 0 345 239" fill="none" xmlns="http://www.w3.org/2000/svg">
<path d="M107.442 108.816C107.442 108.667 107.47 108.517 107.526 108.368C107.6 108.219 107.722 108.097 107.89 108.004C108.02 107.967 108.151 107.92 108.282 107.864C108.394 107.827 108.506 107.799 108.618 107.78C108.73 107.743 108.832 107.705 108.926 107.668C109.243 107.575 109.532 107.491 109.794 107.416C110.055 107.323 110.344 107.239 110.662 107.164C111.222 107.033 111.763 106.921 112.286 106.828C112.827 106.716 113.368 106.613 113.91 106.52C114.283 106.464 114.619 106.455 114.918 106.492C115.235 106.529 115.412 106.679 115.45 106.94C115.487 107.201 115.44 107.379 115.31 107.472C115.179 107.547 115.048 107.603 114.918 107.64C114.152 107.789 113.415 107.957 112.706 108.144C111.996 108.331 111.278 108.527 110.55 108.732C110.158 108.844 109.738 109.021 109.29 109.264C108.86 109.507 108.44 109.628 108.03 109.628C107.824 109.628 107.675 109.544 107.582 109.376C107.488 109.208 107.442 109.021 107.442 108.816ZM117.158 114.948C117.12 114.537 117.055 114.061 116.962 113.52C116.868 112.96 116.803 112.437 116.766 111.952C116.71 111.112 116.691 110.356 116.71 109.684C116.728 108.993 116.756 108.284 116.794 107.556C116.831 107.108 116.878 106.697 116.934 106.324C116.99 105.932 117.092 105.456 117.242 104.896C117.279 104.691 117.419 104.551 117.662 104.476C117.904 104.401 118.166 104.42 118.446 104.532C118.651 104.625 118.81 104.747 118.922 104.896C119.034 105.045 119.08 105.204 119.062 105.372C119.024 105.689 118.95 106.007 118.838 106.324C118.726 106.641 118.651 106.949 118.614 107.248C118.502 107.976 118.436 108.732 118.418 109.516C118.399 110.3 118.418 111.103 118.474 111.924C119.146 111.383 119.864 110.916 120.63 110.524C121.414 110.132 122.254 109.871 123.15 109.74C123.262 109.385 123.364 109.049 123.458 108.732C123.551 108.415 123.635 108.097 123.71 107.78C123.803 107.463 123.896 107.136 123.99 106.8C124.083 106.464 124.186 106.091 124.298 105.68C124.335 105.568 124.41 105.475 124.522 105.4C124.652 105.325 124.858 105.288 125.138 105.288C125.343 105.288 125.548 105.335 125.754 105.428C125.978 105.503 126.09 105.671 126.09 105.932C126.09 106.193 126.052 106.436 125.978 106.66C125.903 106.865 125.819 107.108 125.726 107.388C125.464 108.321 125.194 109.245 124.914 110.16C124.634 111.056 124.41 111.999 124.242 112.988C124.223 113.025 124.195 113.137 124.158 113.324C124.139 113.492 124.111 113.688 124.074 113.912C124.036 114.117 123.999 114.313 123.962 114.5C123.943 114.687 123.934 114.817 123.934 114.892C123.878 115.321 123.644 115.517 123.234 115.48C122.842 115.443 122.618 115.321 122.562 115.116C122.524 114.892 122.524 114.528 122.562 114.024C122.599 113.483 122.646 112.941 122.702 112.4C122.776 111.859 122.86 111.42 122.954 111.084C122.767 111.103 122.44 111.233 121.974 111.476C121.507 111.7 121.031 111.971 120.546 112.288C120.079 112.587 119.659 112.885 119.286 113.184C118.912 113.483 118.726 113.697 118.726 113.828C118.744 114.033 118.754 114.239 118.754 114.444C118.772 114.649 118.791 114.855 118.81 115.06C118.828 115.265 118.726 115.424 118.502 115.536C118.296 115.629 118.119 115.676 117.97 115.676C117.708 115.676 117.512 115.611 117.382 115.48C117.27 115.349 117.195 115.172 117.158 114.948ZM109.654 103.552C109.654 103.141 109.691 102.693 109.766 102.208C109.84 101.723 109.934 101.237 110.046 100.752C110.158 100.267 110.279 99.8 110.41 99.352C110.54 98.904 110.671 98.4933 110.802 98.12C110.932 97.7653 111.231 97.588 111.698 97.588C111.772 97.588 111.894 97.6253 112.062 97.7C112.23 97.756 112.314 97.868 112.314 98.036C112.314 98.26 112.304 98.456 112.286 98.624C112.267 98.792 112.211 98.9973 112.118 99.24C112.062 99.4453 111.996 99.66 111.922 99.884C111.866 100.089 111.791 100.295 111.698 100.5C111.586 100.743 111.492 101.032 111.418 101.368C111.343 101.704 111.278 102.059 111.222 102.432C111.166 102.787 111.119 103.141 111.082 103.496C111.044 103.832 111.016 104.131 110.998 104.392C110.96 104.84 110.923 105.232 110.886 105.568C110.848 105.904 110.69 106.072 110.41 106.072C110.316 106.072 110.214 106.007 110.102 105.876C109.99 105.745 109.915 105.615 109.878 105.484C109.784 105.167 109.719 104.849 109.682 104.532C109.663 104.196 109.654 103.869 109.654 103.552ZM109.99 114.584C110.008 114.323 110.036 114.089 110.074 113.884C110.13 113.66 110.204 113.417 110.298 113.156C110.391 112.951 110.512 112.689 110.662 112.372C110.811 112.036 110.923 111.812 110.998 111.7C111.054 111.625 111.119 111.523 111.194 111.392C111.268 111.261 111.352 111.131 111.446 111C111.539 110.869 111.632 110.748 111.726 110.636C111.838 110.524 111.94 110.449 112.034 110.412C112.108 110.393 112.183 110.393 112.258 110.412C112.332 110.412 112.388 110.412 112.426 110.412C112.575 110.449 112.743 110.533 112.93 110.664C113.135 110.776 113.2 110.935 113.126 111.14C113.07 111.271 113.014 111.401 112.958 111.532C112.92 111.644 112.874 111.775 112.818 111.924C112.93 111.98 113.06 112.083 113.21 112.232C113.396 112.381 113.536 112.568 113.63 112.792C113.723 112.997 113.751 113.333 113.714 113.8C113.676 114.323 113.518 114.808 113.238 115.256C112.976 115.685 112.584 116.031 112.062 116.292C111.856 116.385 111.632 116.441 111.39 116.46C111.147 116.46 110.951 116.441 110.802 116.404C110.634 116.348 110.494 116.255 110.382 116.124C110.27 115.975 110.186 115.816 110.13 115.648C110.074 115.461 110.036 115.275 110.018 115.088C109.999 114.901 109.99 114.733 109.99 114.584ZM111.502 114.64C111.502 114.677 111.492 114.743 111.474 114.836C111.474 114.929 111.492 115.004 111.53 115.06C111.623 115.06 111.744 115.004 111.894 114.892C112.099 114.743 112.239 114.565 112.314 114.36C112.407 114.136 112.454 113.884 112.454 113.604C112.454 113.268 112.407 113.016 112.314 112.848C112.146 112.997 111.978 113.249 111.81 113.604C111.642 113.94 111.539 114.285 111.502 114.64ZM140.02 117.16C140.002 117.048 140.011 116.917 140.048 116.768C140.104 116.6 140.17 116.469 140.244 116.376C140.226 115.536 140.207 114.78 140.188 114.108C140.17 113.417 140.198 112.68 140.272 111.896C140.31 111.653 140.356 111.373 140.412 111.056C140.468 110.72 140.571 110.393 140.72 110.076C140.776 109.945 140.888 109.861 141.056 109.824C141.224 109.768 141.392 109.749 141.56 109.768C141.747 109.787 141.906 109.843 142.036 109.936C142.167 110.029 142.232 110.16 142.232 110.328C142.232 110.477 142.204 110.655 142.148 110.86C142.092 111.047 142.055 111.215 142.036 111.364C141.943 111.793 141.878 112.232 141.84 112.68C141.803 113.128 141.766 113.567 141.728 113.996C141.71 114.351 141.7 114.668 141.7 114.948C141.719 115.228 141.738 115.555 141.756 115.928C141.868 115.872 142.036 115.797 142.26 115.704C142.503 115.611 142.755 115.517 143.016 115.424C143.296 115.331 143.567 115.247 143.828 115.172C144.09 115.079 144.304 115.013 144.472 114.976C144.566 114.715 144.612 114.528 144.612 114.416C144.612 114.285 144.631 114.117 144.668 113.912C144.743 113.595 144.799 113.287 144.836 112.988C144.892 112.689 144.958 112.381 145.032 112.064C145.2 111.243 145.564 110.86 146.124 110.916C146.274 110.916 146.414 110.963 146.544 111.056C146.694 111.131 146.759 111.252 146.74 111.42V111.504C146.722 111.653 146.656 111.849 146.544 112.092C146.451 112.335 146.376 112.587 146.32 112.848C146.283 112.96 146.246 113.109 146.208 113.296C146.19 113.483 146.162 113.669 146.124 113.856C146.106 114.024 146.078 114.183 146.04 114.332C146.022 114.463 146.012 114.556 146.012 114.612C146.423 114.537 146.824 114.481 147.216 114.444C147.608 114.388 148.028 114.341 148.476 114.304C148.551 114.304 148.616 114.341 148.672 114.416C148.747 114.491 148.794 114.575 148.812 114.668C148.831 114.761 148.822 114.864 148.784 114.976C148.766 115.069 148.71 115.125 148.616 115.144C148.094 115.293 147.59 115.424 147.104 115.536C146.638 115.629 146.246 115.779 145.928 115.984C145.816 116.059 145.742 116.199 145.704 116.404C145.686 116.591 145.667 116.759 145.648 116.908C145.63 117.039 145.592 117.253 145.536 117.552C145.499 117.851 145.471 118.047 145.452 118.14L145.368 118.784L145.228 119.848C145.21 119.923 145.163 119.988 145.088 120.044C145.032 120.119 144.948 120.165 144.836 120.184C144.743 120.221 144.64 120.221 144.528 120.184C144.435 120.165 144.351 120.109 144.276 120.016C144.183 119.885 144.127 119.689 144.108 119.428C144.09 119.185 144.09 118.943 144.108 118.7C144.127 118.551 144.146 118.364 144.164 118.14C144.183 117.935 144.202 117.729 144.22 117.524C144.239 117.3 144.258 117.095 144.276 116.908C144.295 116.703 144.314 116.544 144.332 116.432C144.108 116.525 143.81 116.637 143.436 116.768C143.082 116.88 142.792 116.992 142.568 117.104C142.419 117.179 142.288 117.244 142.176 117.3C142.083 117.356 141.98 117.431 141.868 117.524C141.887 117.617 141.896 117.72 141.896 117.832C141.915 117.944 141.934 118.075 141.952 118.224C141.99 118.373 142.027 118.56 142.064 118.784C142.12 119.027 142.186 119.316 142.26 119.652C142.335 119.988 142.41 120.305 142.484 120.604C142.578 120.921 142.718 121.201 142.904 121.444C142.998 121.388 143.1 121.313 143.212 121.22C143.343 121.127 143.427 121.061 143.464 121.024C143.67 120.837 143.819 120.716 143.912 120.66C144.024 120.604 144.118 120.576 144.192 120.576C144.286 120.595 144.37 120.651 144.444 120.744C144.538 120.856 144.566 120.987 144.528 121.136C144.51 121.155 144.5 121.183 144.5 121.22C144.482 121.257 144.472 121.285 144.472 121.304C144.472 121.323 144.454 121.351 144.416 121.388C144.416 121.407 144.388 121.444 144.332 121.5C144.276 121.575 144.211 121.659 144.136 121.752C144.08 121.845 144.015 121.939 143.94 122.032C143.884 122.125 143.828 122.2 143.772 122.256C143.642 122.405 143.483 122.499 143.296 122.536C143.128 122.592 142.96 122.611 142.792 122.592C142.68 122.592 142.531 122.564 142.344 122.508C142.158 122.471 141.971 122.368 141.784 122.2C141.467 121.883 141.252 121.509 141.14 121.08C141.028 120.669 140.916 120.277 140.804 119.904C140.73 119.643 140.664 119.4 140.608 119.176C140.571 118.952 140.534 118.7 140.496 118.42C140.459 118.159 140.394 117.944 140.3 117.776C140.244 117.72 140.188 117.645 140.132 117.552C140.076 117.44 140.039 117.309 140.02 117.16ZM134.336 108.172C134.243 108.228 134.15 108.34 134.056 108.508C133.963 108.657 133.87 108.835 133.776 109.04C133.683 109.227 133.599 109.423 133.524 109.628C133.45 109.815 133.394 109.983 133.356 110.132C133.3 110.337 133.235 110.487 133.16 110.58C133.086 110.673 133.011 110.739 132.936 110.776C132.694 110.925 132.442 110.944 132.18 110.832C131.938 110.701 131.816 110.459 131.816 110.104C131.816 110.029 131.835 109.927 131.872 109.796C131.91 109.665 131.956 109.525 132.012 109.376C132.068 109.227 132.115 109.087 132.152 108.956C132.208 108.825 132.246 108.723 132.264 108.648C132.115 108.331 131.947 107.995 131.76 107.64C131.592 107.285 131.396 106.94 131.172 106.604C131.079 106.436 130.939 106.259 130.752 106.072C130.566 106.221 130.398 106.436 130.248 106.716C130.099 106.977 129.978 107.192 129.884 107.36C129.754 107.584 129.623 107.855 129.492 108.172C129.362 108.471 129.259 108.751 129.184 109.012C129.147 109.199 129.11 109.376 129.072 109.544C129.035 109.693 129.007 109.861 128.988 110.048C128.951 110.347 128.895 110.552 128.82 110.664C128.746 110.757 128.662 110.823 128.568 110.86C128.27 110.972 128.018 110.953 127.812 110.804C127.607 110.655 127.514 110.449 127.532 110.188C127.57 109.628 127.635 109.143 127.728 108.732C127.84 108.303 127.962 107.929 128.092 107.612C128.279 107.164 128.494 106.725 128.736 106.296C128.998 105.867 129.268 105.428 129.548 104.98C129.772 104.625 129.996 104.289 130.22 103.972C130.444 103.636 130.659 103.291 130.864 102.936C131.07 102.619 131.275 102.283 131.48 101.928C131.686 101.573 131.891 101.228 132.096 100.892C132.246 100.668 132.442 100.388 132.684 100.052C132.946 99.716 133.216 99.5107 133.496 99.436C133.814 99.3427 134.075 99.38 134.28 99.548C134.504 99.6973 134.616 99.884 134.616 100.108C134.616 100.164 134.57 100.257 134.476 100.388C134.234 100.668 134 100.976 133.776 101.312C133.552 101.648 133.338 101.975 133.132 102.292C132.89 102.665 132.656 103.029 132.432 103.384C132.227 103.739 131.994 104.131 131.732 104.56C131.956 104.877 132.19 105.269 132.432 105.736C132.675 106.203 132.908 106.651 133.132 107.08C133.468 106.595 133.73 106.24 133.916 106.016C134.122 105.773 134.308 105.531 134.476 105.288C134.626 105.064 134.794 104.831 134.98 104.588C135.186 104.345 135.363 104.121 135.512 103.916C135.718 103.599 135.951 103.263 136.212 102.908C136.492 102.535 136.791 102.161 137.108 101.788C137.239 101.676 137.388 101.62 137.556 101.62C137.743 101.601 137.911 101.629 138.06 101.704C138.21 101.76 138.322 101.853 138.396 101.984C138.49 102.096 138.527 102.227 138.508 102.376C138.452 102.675 138.266 103.029 137.948 103.44C137.65 103.851 137.342 104.271 137.024 104.7C136.744 105.073 136.492 105.409 136.268 105.708C136.044 105.988 135.82 106.333 135.596 106.744C135.839 107.341 136.138 107.901 136.492 108.424C136.866 108.947 137.267 109.395 137.696 109.768C137.846 109.899 138.023 110.039 138.228 110.188C138.434 110.319 138.583 110.403 138.676 110.44C138.9 110.552 139.068 110.683 139.18 110.832C139.311 110.981 139.33 111.187 139.236 111.448C139.199 111.597 139.106 111.709 138.956 111.784C138.807 111.84 138.63 111.849 138.424 111.812C137.79 111.681 137.211 111.392 136.688 110.944C136.184 110.496 135.736 110.029 135.344 109.544C135.158 109.32 134.98 109.096 134.812 108.872C134.663 108.629 134.504 108.396 134.336 108.172ZM144.836 109.32C144.724 109.003 144.678 108.695 144.696 108.396C144.715 108.097 144.724 107.705 144.724 107.22C144.724 107.052 144.734 106.791 144.752 106.436C144.771 106.063 144.79 105.773 144.808 105.568C144.659 105.661 144.444 105.783 144.164 105.932C143.903 106.063 143.651 106.193 143.408 106.324C142.755 106.679 142.046 106.977 141.28 107.22C140.534 107.444 139.759 107.556 138.956 107.556C138.527 107.556 138.294 107.323 138.256 106.856C138.219 106.389 138.368 106.128 138.704 106.072C138.928 106.035 139.19 105.997 139.488 105.96C139.787 105.904 140.039 105.848 140.244 105.792C140.748 105.661 141.196 105.531 141.588 105.4C141.999 105.251 142.382 105.092 142.736 104.924C143.11 104.756 143.464 104.569 143.8 104.364C144.136 104.14 144.5 103.869 144.892 103.552C144.967 103.496 145.032 103.365 145.088 103.16C145.163 102.955 145.228 102.731 145.284 102.488C145.34 102.227 145.387 101.975 145.424 101.732C145.48 101.471 145.527 101.265 145.564 101.116C145.676 100.724 145.826 100.435 146.012 100.248C146.199 100.043 146.451 99.94 146.768 99.94C147.067 99.94 147.272 99.996 147.384 100.108C147.496 100.22 147.552 100.407 147.552 100.668C147.552 100.948 147.506 101.172 147.412 101.34C147.338 101.508 147.254 101.713 147.16 101.956C146.936 102.46 146.768 103.067 146.656 103.776C146.544 104.467 146.47 105.083 146.432 105.624C146.395 106.016 146.367 106.445 146.348 106.912C146.33 107.36 146.32 107.789 146.32 108.2C146.32 108.517 146.255 108.816 146.124 109.096C146.012 109.357 145.816 109.507 145.536 109.544C145.443 109.563 145.312 109.553 145.144 109.516C144.976 109.479 144.874 109.413 144.836 109.32ZM162.712 116.656C162.712 116.245 162.759 115.872 162.852 115.536C162.964 115.181 163.104 114.808 163.272 114.416C163.347 114.285 163.45 114.052 163.58 113.716C163.73 113.38 163.898 113.044 164.084 112.708C164.271 112.372 164.458 112.073 164.644 111.812C164.831 111.551 165.008 111.411 165.176 111.392C165.363 111.373 165.578 111.411 165.82 111.504C166.082 111.579 166.222 111.719 166.24 111.924C166.259 112.111 166.175 112.325 165.988 112.568C165.82 112.792 165.671 113.016 165.54 113.24C165.279 113.669 165.064 114.061 164.896 114.416C164.728 114.752 164.598 115.191 164.504 115.732C164.486 115.807 164.476 115.891 164.476 115.984C164.476 116.077 164.514 116.152 164.588 116.208C164.644 116.264 164.728 116.292 164.84 116.292C164.971 116.292 165.092 116.283 165.204 116.264C165.335 116.227 165.447 116.189 165.54 116.152C165.652 116.115 165.727 116.087 165.764 116.068C166.492 115.751 167.342 115.461 168.312 115.2C169.302 114.92 170.3 114.705 171.308 114.556C171.57 114.5 171.794 114.481 171.98 114.5C172.186 114.519 172.382 114.565 172.568 114.64C172.624 114.659 172.662 114.724 172.68 114.836C172.718 114.929 172.727 115.041 172.708 115.172C172.708 115.284 172.68 115.396 172.624 115.508C172.587 115.601 172.512 115.657 172.4 115.676C172.288 115.713 172.055 115.76 171.7 115.816C171.364 115.872 171.066 115.928 170.804 115.984C170.263 116.133 169.619 116.311 168.872 116.516C168.144 116.721 167.444 116.964 166.772 117.244C166.362 117.412 165.923 117.599 165.456 117.804C165.008 117.991 164.439 118.037 163.748 117.944C163.45 117.907 163.198 117.757 162.992 117.496C162.806 117.235 162.712 116.955 162.712 116.656ZM167.5 110.02C167.519 109.628 167.538 109.236 167.556 108.844C167.594 108.433 167.64 108.023 167.696 107.612C167.79 106.884 167.883 106.1 167.976 105.26C168.088 104.401 168.266 103.589 168.508 102.824C168.62 102.507 168.714 102.217 168.788 101.956C168.882 101.695 168.984 101.471 169.096 101.284C169.19 101.135 169.367 101.06 169.628 101.06C169.89 101.041 170.095 101.079 170.244 101.172C170.319 101.228 170.384 101.303 170.44 101.396C170.515 101.471 170.552 101.545 170.552 101.62C170.571 101.881 170.524 102.115 170.412 102.32C170.3 102.525 170.207 102.74 170.132 102.964C169.89 103.823 169.684 104.784 169.516 105.848C169.367 106.912 169.208 107.929 169.04 108.9C169.003 109.199 168.956 109.497 168.9 109.796C168.844 110.095 168.798 110.375 168.76 110.636C168.742 110.823 168.676 111.019 168.564 111.224C168.452 111.429 168.322 111.513 168.172 111.476C168.004 111.439 167.874 111.364 167.78 111.252C167.687 111.14 167.612 111.009 167.556 110.86C167.519 110.711 167.5 110.561 167.5 110.412C167.5 110.263 167.5 110.132 167.5 110.02ZM157.392 108.928C157.374 108.629 157.411 108.303 157.504 107.948C157.598 107.593 157.719 107.239 157.868 106.884C158.036 106.529 158.204 106.184 158.372 105.848C158.559 105.493 158.736 105.176 158.904 104.896C159.11 104.579 159.296 104.271 159.464 103.972C159.651 103.655 159.828 103.375 159.996 103.132C160.146 102.908 160.36 102.796 160.64 102.796C160.939 102.777 161.172 102.871 161.34 103.076C161.396 103.132 161.434 103.253 161.452 103.44C161.49 103.627 161.443 103.841 161.312 104.084C161.238 104.196 161.154 104.364 161.06 104.588C161.247 104.663 161.471 104.859 161.732 105.176C162.012 105.493 162.134 105.96 162.096 106.576C162.078 106.856 162.003 107.201 161.872 107.612C161.742 108.023 161.471 108.471 161.06 108.956C160.706 109.385 160.342 109.684 159.968 109.852C159.595 110.02 159.194 110.123 158.764 110.16C158.522 110.179 158.242 110.104 157.924 109.936C157.607 109.749 157.43 109.413 157.392 108.928ZM160.472 105.512C160.379 105.568 160.248 105.727 160.08 105.988C159.931 106.249 159.772 106.548 159.604 106.884C159.455 107.201 159.315 107.528 159.184 107.864C159.072 108.181 159.007 108.443 158.988 108.648C159.399 108.648 159.8 108.433 160.192 108.004C160.584 107.556 160.808 107.015 160.864 106.38C160.883 106.231 160.855 106.063 160.78 105.876C160.724 105.671 160.622 105.549 160.472 105.512ZM179.498 118.196C179.498 117.991 179.526 117.748 179.582 117.468C179.638 117.169 179.712 116.917 179.806 116.712C179.843 116.6 179.899 116.46 179.974 116.292C180.067 116.105 180.16 115.928 180.254 115.76C180.347 115.573 180.431 115.405 180.506 115.256C180.599 115.088 180.674 114.967 180.73 114.892C180.972 114.519 181.234 114.155 181.514 113.8C181.812 113.445 182.12 113.268 182.438 113.268C182.718 113.268 182.932 113.361 183.082 113.548C183.231 113.716 183.231 113.959 183.082 114.276C183.063 114.313 183.035 114.369 182.998 114.444C182.96 114.519 182.914 114.612 182.858 114.724C183.082 114.836 183.25 115.041 183.362 115.34C183.492 115.62 183.567 115.9 183.586 116.18C183.623 116.703 183.539 117.188 183.334 117.636C183.128 118.065 182.848 118.439 182.494 118.756C182.4 118.849 182.279 118.943 182.13 119.036C181.98 119.129 181.812 119.213 181.626 119.288C181.439 119.381 181.234 119.447 181.01 119.484C180.804 119.521 180.58 119.521 180.338 119.484C179.983 119.428 179.75 119.26 179.638 118.98C179.544 118.719 179.498 118.457 179.498 118.196ZM182.158 115.564C182.064 115.62 181.943 115.76 181.794 115.984C181.644 116.189 181.495 116.423 181.346 116.684C181.215 116.945 181.103 117.216 181.01 117.496C180.916 117.776 180.879 118 180.898 118.168C181.234 118.131 181.56 117.935 181.878 117.58C182.214 117.207 182.391 116.777 182.41 116.292C182.41 116.161 182.391 116.031 182.354 115.9C182.335 115.769 182.27 115.657 182.158 115.564ZM174.094 112.008C174.094 111.859 174.15 111.737 174.262 111.644C174.374 111.532 174.467 111.457 174.542 111.42C175.83 110.879 177.239 110.44 178.77 110.104C180.319 109.749 181.822 109.535 183.278 109.46C184.342 109.404 185.303 109.376 186.162 109.376C187.039 109.357 187.655 109.376 188.01 109.432C188.327 109.469 188.626 109.563 188.906 109.712C189.186 109.861 189.279 110.095 189.186 110.412C189.167 110.487 189.111 110.533 189.018 110.552C188.943 110.571 188.859 110.58 188.766 110.58C188.542 110.617 188.206 110.645 187.758 110.664C187.328 110.664 186.927 110.664 186.554 110.664C185.844 110.664 185.088 110.701 184.286 110.776C183.483 110.832 182.662 110.925 181.822 111.056C181 111.187 180.17 111.345 179.33 111.532C178.508 111.7 177.724 111.896 176.978 112.12C176.679 112.213 176.324 112.363 175.914 112.568C175.503 112.755 175.167 112.867 174.906 112.904C174.607 112.941 174.392 112.857 174.262 112.652C174.15 112.447 174.094 112.232 174.094 112.008ZM173.954 108.788C174.084 108.489 174.224 108.237 174.374 108.032C174.43 107.957 174.504 107.855 174.598 107.724C174.691 107.593 174.794 107.463 174.906 107.332C175.018 107.183 175.12 107.043 175.214 106.912C175.326 106.781 175.41 106.679 175.466 106.604C175.746 106.249 176.016 105.904 176.278 105.568C176.558 105.213 176.81 104.812 177.034 104.364C177.071 104.252 177.146 104.065 177.258 103.804C177.37 103.524 177.444 103.263 177.482 103.02C177.538 102.74 177.538 102.525 177.482 102.376C177.426 102.208 177.267 102.133 177.006 102.152C176.744 102.171 176.455 102.217 176.138 102.292C175.839 102.367 175.568 102.469 175.326 102.6C175.288 102.619 175.223 102.656 175.13 102.712C175.036 102.768 174.934 102.833 174.822 102.908C174.728 102.964 174.635 103.02 174.542 103.076C174.448 103.132 174.392 103.169 174.374 103.188C174.299 103.244 174.215 103.281 174.122 103.3C174.047 103.319 174 103.328 173.982 103.328C173.739 103.347 173.552 103.281 173.422 103.132C173.31 102.964 173.282 102.749 173.338 102.488C173.375 102.339 173.478 102.18 173.646 102.012C173.832 101.844 173.991 101.723 174.122 101.648C174.57 101.387 175.083 101.181 175.662 101.032C176.24 100.883 176.819 100.827 177.398 100.864C177.771 100.883 178.098 100.976 178.378 101.144C178.658 101.293 178.854 101.573 178.966 101.984C179.003 102.096 179.022 102.292 179.022 102.572C179.022 102.871 178.984 103.16 178.91 103.44C178.835 103.701 178.751 103.953 178.658 104.196C178.975 104.159 179.246 104.121 179.47 104.084C179.712 104.047 180.002 104.009 180.338 103.972C180.879 103.935 181.411 103.907 181.934 103.888C182.475 103.851 183.007 103.832 183.53 103.832C183.959 103.832 184.388 103.86 184.818 103.916C185.266 103.953 185.76 104.056 186.302 104.224C186.563 104.317 186.666 104.523 186.61 104.84C186.591 104.952 186.535 105.017 186.442 105.036C186.348 105.055 186.218 105.073 186.05 105.092C185.639 105.111 185.238 105.111 184.846 105.092C184.454 105.055 184.043 105.036 183.614 105.036C183.24 105.036 182.839 105.064 182.41 105.12C181.999 105.157 181.635 105.195 181.318 105.232C180.776 105.269 180.319 105.335 179.946 105.428C179.572 105.521 179.124 105.652 178.602 105.82C178.378 105.895 178.182 105.988 178.014 106.1C177.846 106.212 177.668 106.361 177.482 106.548C177.314 106.735 177.127 106.959 176.922 107.22C176.716 107.463 176.474 107.761 176.194 108.116C176.026 108.321 175.839 108.555 175.634 108.816C175.428 109.059 175.176 109.283 174.878 109.488C174.56 109.712 174.29 109.749 174.066 109.6C173.842 109.432 173.804 109.161 173.954 108.788ZM197.488 113.156C197.488 112.745 197.544 112.344 197.656 111.952C197.768 111.541 197.899 111.159 198.048 110.804C198.216 110.449 198.384 110.132 198.552 109.852C198.739 109.553 198.888 109.301 199 109.096C199.336 108.555 199.793 107.929 200.372 107.22C200.951 106.492 201.492 105.745 201.996 104.98C202.108 104.793 202.211 104.607 202.304 104.42C202.416 104.215 202.584 104.093 202.808 104.056C203.107 104.037 203.368 104.112 203.592 104.28C203.835 104.448 203.956 104.681 203.956 104.98C203.956 105.241 203.9 105.437 203.788 105.568C203.732 105.624 203.639 105.717 203.508 105.848C203.377 105.979 203.256 106.109 203.144 106.24C203.032 106.371 202.939 106.492 202.864 106.604C202.789 106.697 202.715 106.8 202.64 106.912C202.584 107.005 202.537 107.071 202.5 107.108C202.183 107.5 201.893 107.911 201.632 108.34C201.371 108.751 201.091 109.189 200.792 109.656C201.053 109.787 201.361 109.936 201.716 110.104C202.089 110.253 202.472 110.412 202.864 110.58C203.275 110.729 203.695 110.888 204.124 111.056C204.572 111.205 204.992 111.355 205.384 111.504C205.589 111.579 205.729 111.691 205.804 111.84C205.879 111.971 205.888 112.101 205.832 112.232C205.795 112.344 205.711 112.437 205.58 112.512C205.449 112.587 205.291 112.605 205.104 112.568C204.675 112.475 204.208 112.363 203.704 112.232C203.2 112.083 202.705 111.933 202.22 111.784C201.735 111.616 201.277 111.457 200.848 111.308C200.437 111.14 200.111 111 199.868 110.888C199.663 111.093 199.485 111.373 199.336 111.728C199.205 112.064 199.093 112.353 199 112.596C198.963 112.689 198.916 112.811 198.86 112.96C198.823 113.091 198.767 113.221 198.692 113.352C198.636 113.483 198.571 113.604 198.496 113.716C198.421 113.809 198.337 113.856 198.244 113.856C197.964 113.856 197.768 113.8 197.656 113.688C197.544 113.557 197.488 113.38 197.488 113.156ZM208.268 111C208.249 110.067 208.296 109.143 208.408 108.228C208.539 107.295 208.735 106.343 208.996 105.372C209.089 105.167 209.173 104.952 209.248 104.728C209.323 104.485 209.463 104.364 209.668 104.364H210.172C210.377 104.401 210.517 104.504 210.592 104.672C210.685 104.821 210.723 104.989 210.704 105.176C210.704 105.213 210.695 105.269 210.676 105.344C210.657 105.419 210.639 105.475 210.62 105.512C210.396 106.371 210.191 107.313 210.004 108.34C209.836 109.367 209.752 110.375 209.752 111.364C209.752 111.663 209.761 111.952 209.78 112.232C209.799 112.512 209.808 112.811 209.808 113.128C209.808 113.557 209.621 113.772 209.248 113.772C209.043 113.772 208.875 113.679 208.744 113.492C208.632 113.305 208.557 113.137 208.52 112.988C208.427 112.615 208.361 112.288 208.324 112.008C208.287 111.709 208.268 111.373 208.268 111ZM213.486 112.848C213.411 112.661 213.411 112.475 213.486 112.288C213.561 112.083 213.617 111.924 213.654 111.812C213.803 111.495 214.009 111.159 214.27 110.804C214.531 110.431 214.727 110.123 214.858 109.88C215.175 109.32 215.53 108.769 215.922 108.228C216.314 107.687 216.631 107.201 216.874 106.772C217.023 106.529 217.182 106.268 217.35 105.988C217.537 105.708 217.705 105.428 217.854 105.148C218.022 104.849 218.153 104.56 218.246 104.28C218.358 104 218.414 103.729 218.414 103.468C218.097 103.468 217.714 103.543 217.266 103.692C216.837 103.823 216.435 104.009 216.062 104.252C215.931 104.345 215.773 104.457 215.586 104.588C215.418 104.719 215.166 104.84 214.83 104.952C214.662 105.008 214.513 105.008 214.382 104.952C214.27 104.896 214.177 104.812 214.102 104.7C214.027 104.588 213.981 104.467 213.962 104.336C213.943 104.187 213.962 104.047 214.018 103.916C214.111 103.711 214.261 103.524 214.466 103.356C214.671 103.169 214.858 103.029 215.026 102.936C215.25 102.805 215.502 102.684 215.782 102.572C216.062 102.46 216.342 102.357 216.622 102.264C216.921 102.171 217.219 102.096 217.518 102.04C217.817 101.984 218.087 101.956 218.33 101.956C218.498 101.956 218.685 101.965 218.89 101.984C219.095 102.003 219.291 102.049 219.478 102.124C219.665 102.199 219.814 102.311 219.926 102.46C220.057 102.591 220.122 102.768 220.122 102.992C220.122 103.44 220.057 103.869 219.926 104.28C219.814 104.672 219.665 105.064 219.478 105.456C219.291 105.848 219.086 106.231 218.862 106.604C218.638 106.977 218.423 107.351 218.218 107.724C218.125 107.892 217.957 108.135 217.714 108.452C217.49 108.751 217.303 109.077 217.154 109.432C217.266 109.488 217.406 109.553 217.574 109.628C217.742 109.684 217.91 109.74 218.078 109.796C218.246 109.852 218.395 109.899 218.526 109.936C218.675 109.973 218.778 110.001 218.834 110.02C218.965 110.057 219.123 110.095 219.31 110.132C219.497 110.169 219.683 110.207 219.87 110.244C220.057 110.281 220.225 110.319 220.374 110.356C220.542 110.375 220.663 110.384 220.738 110.384C220.943 110.421 221.093 110.477 221.186 110.552C221.298 110.627 221.354 110.776 221.354 111C221.354 111.336 221.205 111.541 220.906 111.616C220.626 111.672 220.355 111.681 220.094 111.644C219.422 111.569 218.806 111.476 218.246 111.364C217.686 111.252 217.014 111.084 216.23 110.86C216.118 111.028 216.015 111.187 215.922 111.336C215.829 111.467 215.745 111.597 215.67 111.728C215.614 111.859 215.567 111.943 215.53 111.98C215.381 112.204 215.203 112.465 214.998 112.764C214.811 113.044 214.578 113.203 214.298 113.24C214.111 113.259 213.943 113.24 213.794 113.184C213.645 113.109 213.542 112.997 213.486 112.848ZM225.33 106.156C225.386 105.783 225.442 105.447 225.498 105.148C225.554 104.831 225.61 104.523 225.666 104.224C225.741 103.925 225.815 103.608 225.89 103.272C225.965 102.917 226.049 102.516 226.142 102.068C226.179 101.863 226.226 101.601 226.282 101.284C226.357 100.967 226.441 100.705 226.534 100.5C226.571 100.407 226.655 100.341 226.786 100.304C226.935 100.267 227.047 100.248 227.122 100.248C227.365 100.248 227.57 100.323 227.738 100.472C227.906 100.603 227.99 100.78 227.99 101.004C227.99 101.34 227.943 101.676 227.85 102.012C227.757 102.348 227.673 102.712 227.598 103.104C227.523 103.496 227.449 103.897 227.374 104.308C227.299 104.719 227.225 105.12 227.15 105.512C227.075 105.885 227.01 106.221 226.954 106.52C227.402 106.371 227.878 106.221 228.382 106.072C228.905 105.923 229.297 105.829 229.558 105.792C229.875 105.699 230.221 105.633 230.594 105.596C230.986 105.559 231.425 105.559 231.91 105.596C232.059 105.615 232.153 105.689 232.19 105.82C232.246 105.951 232.255 106.072 232.218 106.184C232.162 106.277 232.097 106.352 232.022 106.408C231.761 106.501 231.509 106.576 231.266 106.632C231.042 106.669 230.771 106.735 230.454 106.828C230.099 106.94 229.773 107.043 229.474 107.136C229.194 107.211 228.914 107.304 228.634 107.416C228.354 107.509 228.065 107.621 227.766 107.752C227.467 107.883 227.15 108.032 226.814 108.2C226.777 108.76 226.749 109.311 226.73 109.852C226.711 110.393 226.73 110.879 226.786 111.308C226.805 111.439 226.823 111.588 226.842 111.756C226.879 111.924 226.907 112.064 226.926 112.176V112.26C226.926 112.447 226.823 112.577 226.618 112.652C226.413 112.727 226.273 112.764 226.198 112.764C226.049 112.783 225.909 112.727 225.778 112.596C225.666 112.465 225.573 112.307 225.498 112.12C225.386 111.859 225.302 111.513 225.246 111.084C225.209 110.823 225.181 110.561 225.162 110.3C225.143 110.02 225.134 109.731 225.134 109.432C225.134 109.395 225.134 109.245 225.134 108.984C225.153 108.704 225.171 108.396 225.19 108.06C225.209 107.705 225.227 107.36 225.246 107.024C225.265 106.669 225.293 106.38 225.33 106.156ZM221.914 119.176C221.914 118.989 221.923 118.803 221.942 118.616C221.961 118.448 221.998 118.271 222.054 118.084C222.278 117.524 222.567 116.936 222.922 116.32C223.295 115.704 223.697 115.153 224.126 114.668C224.387 114.369 224.63 114.127 224.854 113.94C225.003 113.809 225.209 113.744 225.47 113.744C225.731 113.744 225.927 113.809 226.058 113.94C226.189 114.052 226.263 114.173 226.282 114.304C226.319 114.416 226.329 114.537 226.31 114.668C226.291 114.817 226.151 115.013 225.89 115.256C225.629 115.48 225.367 115.779 225.106 116.152C225.423 116.357 225.638 116.572 225.75 116.796C225.881 117.02 225.946 117.291 225.946 117.608C225.946 117.907 225.862 118.233 225.694 118.588C225.545 118.943 225.349 119.269 225.106 119.568C224.863 119.885 224.583 120.147 224.266 120.352C223.967 120.557 223.669 120.66 223.37 120.66C222.941 120.66 222.586 120.52 222.306 120.24C222.045 119.96 221.914 119.605 221.914 119.176ZM224.49 117.16C224.378 117.16 224.257 117.253 224.126 117.44C223.995 117.608 223.874 117.804 223.762 118.028C223.65 118.252 223.557 118.476 223.482 118.7C223.407 118.924 223.37 119.083 223.37 119.176C223.557 119.157 223.734 119.092 223.902 118.98C224.07 118.868 224.21 118.728 224.322 118.56C224.453 118.392 224.555 118.215 224.63 118.028C224.705 117.841 224.742 117.673 224.742 117.524C224.742 117.468 224.733 117.393 224.714 117.3C224.695 117.207 224.621 117.16 224.49 117.16ZM233.211 119.988C233.155 119.652 233.173 119.279 233.267 118.868C233.36 118.457 233.453 118.112 233.547 117.832C233.584 117.664 233.64 117.468 233.715 117.244C233.808 117.02 233.892 116.796 233.967 116.572C234.06 116.329 234.144 116.115 234.219 115.928C234.293 115.723 234.359 115.564 234.415 115.452C234.564 115.135 234.713 114.901 234.863 114.752C235.031 114.603 235.292 114.565 235.647 114.64C235.777 114.677 235.899 114.761 236.011 114.892C236.123 115.004 236.179 115.153 236.179 115.34C236.179 115.583 236.141 115.797 236.067 115.984C235.992 116.152 235.908 116.329 235.815 116.516C235.609 116.927 235.385 117.347 235.143 117.776C234.919 118.205 234.704 118.635 234.499 119.064C234.368 119.325 234.247 119.559 234.135 119.764C234.023 119.988 233.883 120.147 233.715 120.24C233.603 120.315 233.5 120.333 233.407 120.296C233.313 120.277 233.248 120.175 233.211 119.988Z" fill="#8995A1"/>
<path d="M80.0088 145.828C79.9714 145.417 79.9528 145.016 79.9528 144.624C79.9528 144.213 79.9714 143.803 80.0088 143.392C80.0648 142.589 80.1488 141.805 80.2608 141.04C80.3914 140.275 80.5408 139.5 80.7088 138.716C80.7461 138.529 80.7928 138.287 80.8488 137.988C80.9048 137.689 80.9701 137.4 81.0448 137.12C81.1381 136.84 81.2408 136.597 81.3528 136.392C81.4834 136.187 81.6514 136.084 81.8568 136.084C82.0621 136.084 82.2674 136.149 82.4728 136.28C82.6968 136.411 82.7994 136.579 82.7808 136.784C82.7434 137.101 82.6781 137.409 82.5848 137.708C82.4914 137.988 82.4168 138.259 82.3608 138.52C82.1554 139.509 81.9968 140.293 81.8848 140.872C81.7728 141.432 81.6888 141.871 81.6328 142.188C81.5768 142.487 81.5394 142.701 81.5208 142.832C81.5021 142.963 81.4834 143.084 81.4648 143.196C81.3714 143.793 81.3061 144.381 81.2688 144.96C81.2501 145.539 81.2128 146.136 81.1568 146.752C81.1381 146.901 81.0634 146.985 80.9328 147.004C80.8021 147.023 80.7088 147.032 80.6528 147.032C80.4288 147.032 80.2701 146.911 80.1768 146.668C80.1021 146.407 80.0461 146.127 80.0088 145.828ZM70.2088 144.54C70.1901 144.241 70.2181 143.933 70.2928 143.616C70.3861 143.299 70.4981 142.991 70.6288 142.692C70.7781 142.375 70.9368 142.067 71.1048 141.768C71.2728 141.469 71.4408 141.18 71.6088 140.9C71.8141 140.583 72.0101 140.256 72.1968 139.92C72.4021 139.584 72.5888 139.295 72.7568 139.052C72.9061 138.847 73.1301 138.716 73.4288 138.66C73.7274 138.585 73.9794 138.651 74.1848 138.856C74.3341 139.005 74.3808 139.192 74.3248 139.416C74.2688 139.621 74.1941 139.827 74.1008 140.032C74.1941 140.088 74.3154 140.172 74.4648 140.284C74.6141 140.396 74.7541 140.555 74.8848 140.76C75.0341 140.947 75.1554 141.18 75.2488 141.46C75.3421 141.721 75.3701 142.02 75.3328 142.356C75.2768 142.897 75.1274 143.364 74.8848 143.756C74.6608 144.148 74.3528 144.503 73.9608 144.82C73.6621 145.063 73.2981 145.277 72.8688 145.464C72.4394 145.632 72.0101 145.735 71.5808 145.772C71.3381 145.791 71.0581 145.716 70.7408 145.548C70.4234 145.361 70.2461 145.025 70.2088 144.54ZM73.5128 140.956C73.4194 141.012 73.2794 141.18 73.0928 141.46C72.9061 141.721 72.7194 142.029 72.5328 142.384C72.3461 142.739 72.1781 143.093 72.0288 143.448C71.8981 143.784 71.8234 144.055 71.8048 144.26C71.9168 144.279 72.0848 144.26 72.3088 144.204C72.5328 144.148 72.7568 144.045 72.9808 143.896C73.2048 143.747 73.4101 143.541 73.5968 143.28C73.8021 143.019 73.9328 142.692 73.9888 142.3C74.0448 141.964 74.0168 141.684 73.9048 141.46C73.7928 141.217 73.6621 141.049 73.5128 140.956ZM88.1019 144.848C87.9525 145.053 87.7752 145.324 87.5699 145.66C87.3832 145.996 87.1872 146.285 86.9819 146.528C86.6645 146.901 86.3285 147.041 85.9739 146.948C85.6752 146.855 85.4885 146.705 85.4139 146.5C85.3392 146.276 85.3672 146.061 85.4979 145.856C85.6285 145.632 85.7872 145.371 85.9739 145.072C86.1792 144.773 86.3752 144.475 86.5619 144.176C86.7672 143.859 86.9539 143.56 87.1219 143.28C87.3085 142.981 87.4579 142.729 87.5699 142.524C88.0179 141.759 88.4099 141.049 88.7459 140.396C89.0819 139.724 89.3245 139.061 89.4739 138.408C89.4925 138.333 89.5019 138.24 89.5019 138.128C89.5205 137.997 89.5299 137.895 89.5299 137.82C89.4739 137.783 89.3712 137.755 89.2219 137.736C89.0725 137.717 88.9512 137.717 88.8579 137.736C88.6339 137.773 88.4099 137.839 88.1859 137.932C87.9805 138.025 87.7752 138.137 87.5699 138.268C87.3645 138.38 87.1592 138.492 86.9539 138.604C86.7485 138.716 86.5525 138.791 86.3659 138.828C86.1605 138.865 86.0019 138.781 85.8899 138.576C85.7779 138.352 85.7219 138.165 85.7219 138.016C85.7219 137.885 85.7312 137.745 85.7499 137.596C85.7872 137.447 85.8899 137.316 86.0579 137.204C86.4872 136.924 86.9539 136.681 87.4579 136.476C87.9805 136.252 88.4939 136.121 88.9979 136.084C89.7819 136.009 90.3325 136.14 90.6499 136.476C90.9859 136.812 91.1539 137.26 91.1539 137.82C91.1539 138.455 91.0699 139.033 90.9019 139.556C90.7339 140.079 90.5192 140.611 90.2579 141.152C90.1085 141.469 89.9312 141.815 89.7259 142.188C89.5392 142.561 89.3619 142.935 89.1939 143.308C89.2872 143.551 89.4179 143.84 89.5859 144.176C89.7539 144.493 89.9312 144.811 90.1179 145.128C90.3232 145.445 90.5379 145.753 90.7619 146.052C91.0045 146.332 91.2379 146.556 91.4619 146.724C91.6672 146.892 91.8445 147.041 91.9939 147.172C92.1619 147.284 92.3485 147.415 92.5539 147.564C92.6659 147.639 92.7125 147.732 92.6939 147.844C92.6939 147.956 92.6752 148.059 92.6379 148.152C92.5445 148.376 92.3952 148.497 92.1899 148.516C91.9845 148.535 91.7979 148.516 91.6299 148.46C91.2379 148.329 90.8552 148.115 90.4819 147.816C90.1085 147.499 89.7632 147.163 89.4459 146.808C89.1472 146.435 88.8765 146.071 88.6339 145.716C88.4099 145.361 88.2325 145.072 88.1019 144.848ZM97.6779 146.22C97.5845 145.996 97.4912 145.613 97.3979 145.072C97.3232 144.531 97.2952 144.027 97.3139 143.56C97.3139 143.467 97.3139 143.317 97.3139 143.112C97.3325 142.907 97.3512 142.683 97.3699 142.44C97.3885 142.179 97.3979 141.927 97.3979 141.684C97.3979 141.423 97.3885 141.199 97.3699 141.012C96.8845 141.497 96.3805 141.917 95.8579 142.272C95.3539 142.608 94.8219 142.972 94.2619 143.364C94.2059 143.401 94.1125 143.467 93.9819 143.56C93.8512 143.635 93.7112 143.719 93.5619 143.812C93.4312 143.905 93.3005 143.999 93.1699 144.092C93.0579 144.167 92.9832 144.213 92.9459 144.232C92.6845 144.456 92.4605 144.624 92.2739 144.736C92.0872 144.829 91.8725 144.829 91.6299 144.736C91.3685 144.643 91.2005 144.484 91.1259 144.26C91.0699 144.017 91.0885 143.765 91.1819 143.504C91.2939 143.187 91.4992 142.963 91.7979 142.832C92.0965 142.683 92.3765 142.533 92.6379 142.384C93.4032 141.899 94.1032 141.451 94.7379 141.04C95.3725 140.629 96.0165 140.135 96.6699 139.556C96.9125 139.351 97.1365 139.099 97.3419 138.8C97.5659 138.483 97.7339 138.165 97.8459 137.848C97.8645 137.773 97.8925 137.671 97.9299 137.54C97.9672 137.409 98.0139 137.279 98.0699 137.148C98.1445 137.017 98.2285 136.905 98.3219 136.812C98.4339 136.7 98.5832 136.644 98.7699 136.644C98.9752 136.644 99.1899 136.747 99.4139 136.952C99.6565 137.157 99.7779 137.4 99.7779 137.68C99.7779 137.811 99.7405 137.941 99.6659 138.072C99.6099 138.184 99.5632 138.296 99.5259 138.408C99.4512 138.595 99.3952 138.847 99.3579 139.164C99.3392 139.463 99.3205 139.705 99.3019 139.892C99.2459 140.601 99.1712 141.339 99.0779 142.104C98.9845 142.869 98.9379 143.607 98.9379 144.316C98.9379 144.988 99.0219 145.576 99.1899 146.08C99.3579 146.565 99.6192 147.097 99.9739 147.676C100.067 147.844 100.03 147.993 99.8619 148.124C99.7125 148.236 99.5352 148.273 99.3299 148.236C99.1059 148.217 98.9005 148.143 98.7139 148.012C98.5459 147.863 98.3965 147.695 98.2659 147.508C98.1352 147.303 98.0232 147.088 97.9299 146.864C97.8365 146.64 97.7525 146.425 97.6779 146.22ZM101.878 144.232C101.878 143.672 101.925 143.112 102.018 142.552C102.111 141.973 102.205 141.376 102.298 140.76C102.41 140.032 102.531 139.323 102.662 138.632C102.793 137.941 102.886 137.195 102.942 136.392C102.942 136.28 102.942 136.14 102.942 135.972C102.961 135.785 102.989 135.599 103.026 135.412C103.063 135.225 103.119 135.067 103.194 134.936C103.287 134.805 103.418 134.74 103.586 134.74C103.698 134.74 103.829 134.759 103.978 134.796C104.146 134.815 104.295 134.871 104.426 134.964C104.557 135.039 104.659 135.151 104.734 135.3C104.827 135.449 104.865 135.636 104.846 135.86C104.846 135.991 104.818 136.224 104.762 136.56C104.725 136.896 104.678 137.26 104.622 137.652C104.585 138.025 104.538 138.38 104.482 138.716C104.445 139.052 104.417 139.285 104.398 139.416C104.305 140.2 104.165 141.021 103.978 141.88C103.81 142.72 103.661 143.429 103.53 144.008C103.511 144.064 103.483 144.176 103.446 144.344C103.427 144.512 103.399 144.699 103.362 144.904C103.325 145.091 103.287 145.268 103.25 145.436C103.231 145.604 103.213 145.716 103.194 145.772C103.157 145.921 103.063 146.024 102.914 146.08C102.765 146.117 102.653 146.136 102.578 146.136C102.261 146.136 102.065 146.033 101.99 145.828C101.934 145.623 101.897 145.38 101.878 145.1V144.232ZM111.994 148.096C111.994 147.237 112.162 146.472 112.498 145.8C112.852 145.128 113.226 144.428 113.618 143.7C113.655 143.644 113.72 143.579 113.814 143.504C113.907 143.429 114 143.383 114.094 143.364C114.243 143.327 114.448 143.317 114.71 143.336C114.99 143.355 115.158 143.448 115.214 143.616C115.288 143.803 115.251 144.008 115.102 144.232C114.971 144.437 114.859 144.615 114.766 144.764C114.71 144.857 114.644 144.951 114.57 145.044C114.495 145.137 114.42 145.268 114.346 145.436C114.271 145.604 114.178 145.791 114.066 145.996C113.954 146.201 113.851 146.435 113.758 146.696C113.702 146.845 113.646 146.995 113.59 147.144C113.552 147.293 113.534 147.452 113.534 147.62C113.534 147.844 113.608 147.984 113.758 148.04C113.907 148.077 114.103 148.077 114.346 148.04C114.812 147.947 115.251 147.835 115.662 147.704C116.091 147.573 116.511 147.443 116.922 147.312C117.351 147.163 117.771 147.032 118.182 146.92C118.611 146.808 119.05 146.724 119.498 146.668C119.647 146.649 119.759 146.696 119.834 146.808C119.927 146.901 119.974 147.023 119.974 147.172C119.974 147.321 119.927 147.461 119.834 147.592C119.74 147.723 119.61 147.807 119.442 147.844C119.274 147.881 118.938 147.984 118.434 148.152C117.93 148.32 117.398 148.507 116.838 148.712C116.278 148.917 115.746 149.104 115.242 149.272C114.756 149.44 114.43 149.543 114.262 149.58C114.187 149.599 114.066 149.627 113.898 149.664C113.73 149.683 113.59 149.692 113.478 149.692H113.338C112.89 149.692 112.554 149.533 112.33 149.216C112.106 148.88 111.994 148.507 111.994 148.096ZM108.634 137.26C108.634 136.887 108.68 136.495 108.774 136.084C108.867 135.673 108.96 135.319 109.054 135.02C109.091 134.908 109.156 134.721 109.25 134.46C109.362 134.199 109.474 133.928 109.586 133.648C109.716 133.349 109.838 133.079 109.95 132.836C110.08 132.575 110.174 132.388 110.23 132.276C110.323 132.127 110.454 132.043 110.622 132.024C110.79 131.987 110.939 131.968 111.07 131.968C111.312 131.968 111.48 132.024 111.574 132.136C111.686 132.248 111.742 132.379 111.742 132.528C111.742 132.603 111.723 132.696 111.686 132.808L111.63 132.976C111.294 133.629 110.976 134.32 110.678 135.048C110.379 135.776 110.202 136.411 110.146 136.952C110.388 136.915 110.64 136.868 110.902 136.812C111.182 136.756 111.452 136.7 111.714 136.644C112.199 136.532 112.638 136.429 113.03 136.336C113.422 136.224 113.814 136.121 114.206 136.028C114.486 135.972 114.7 136 114.85 136.112C114.999 136.224 115.092 136.355 115.13 136.504C115.167 136.709 115.139 136.859 115.046 136.952C114.971 137.027 114.887 137.092 114.794 137.148C114.719 137.185 114.607 137.232 114.458 137.288C114.327 137.344 114.178 137.409 114.01 137.484C113.842 137.54 113.674 137.596 113.506 137.652C113.356 137.708 113.226 137.755 113.114 137.792C112.554 137.96 111.966 138.137 111.35 138.324C110.752 138.492 110.239 138.576 109.81 138.576C109.287 138.576 108.96 138.455 108.83 138.212C108.699 137.951 108.634 137.633 108.634 137.26ZM106.814 142.356C106.814 142.207 106.87 142.085 106.982 141.992C107.094 141.88 107.187 141.805 107.262 141.768C108.55 141.227 109.922 140.872 111.378 140.704C112.852 140.517 114.318 140.424 115.774 140.424H117.258C117.874 140.424 118.415 140.452 118.882 140.508C119.367 140.564 119.787 140.639 120.142 140.732C120.459 140.807 120.748 140.928 121.01 141.096C121.29 141.245 121.364 141.479 121.234 141.796C121.196 141.871 121.131 141.917 121.038 141.936C120.963 141.936 120.879 141.936 120.786 141.936C120.562 141.936 120.226 141.917 119.778 141.88C119.348 141.824 118.947 141.777 118.574 141.74C118.032 141.684 117.5 141.656 116.978 141.656C116.436 141.656 115.848 141.675 115.214 141.712C114.579 141.731 113.935 141.777 113.282 141.852C112.628 141.908 111.994 141.992 111.378 142.104C110.762 142.197 110.202 142.319 109.698 142.468C109.399 142.561 109.044 142.711 108.634 142.916C108.223 143.103 107.887 143.215 107.626 143.252C107.327 143.289 107.112 143.205 106.982 143C106.87 142.795 106.814 142.58 106.814 142.356ZM139.922 154.872C139.941 154.667 140.025 154.443 140.174 154.2C140.324 153.976 140.492 153.752 140.678 153.528C140.884 153.304 141.089 153.089 141.294 152.884C141.5 152.697 141.677 152.539 141.826 152.408C141.957 152.277 142.125 152.1 142.33 151.876C142.554 151.671 142.769 151.456 142.974 151.232C143.18 151.027 143.366 150.84 143.534 150.672C143.702 150.504 143.814 150.392 143.87 150.336C143.964 150.243 144.048 150.14 144.122 150.028C144.216 149.916 144.281 149.795 144.318 149.664C144.113 149.627 143.768 149.608 143.282 149.608C142.816 149.589 142.396 149.561 142.022 149.524C141.649 149.487 141.332 149.356 141.07 149.132C140.809 148.889 140.697 148.535 140.734 148.068C140.772 147.62 140.912 147.209 141.154 146.836C141.416 146.463 141.677 146.089 141.938 145.716C142.274 145.231 142.648 144.783 143.058 144.372C143.469 143.943 143.796 143.513 144.038 143.084C144.113 142.991 144.16 142.897 144.178 142.804C144.216 142.711 144.244 142.636 144.262 142.58C143.366 142.58 142.573 142.739 141.882 143.056C141.21 143.373 140.492 143.877 139.726 144.568C139.521 144.755 139.278 144.764 138.998 144.596C138.737 144.409 138.606 144.129 138.606 143.756C138.606 143.495 138.737 143.252 138.998 143.028C139.26 142.804 139.502 142.617 139.726 142.468C141.014 141.591 142.442 141.152 144.01 141.152C144.16 141.152 144.337 141.171 144.542 141.208C144.766 141.227 144.972 141.273 145.158 141.348C145.345 141.423 145.504 141.535 145.634 141.684C145.765 141.815 145.83 142.001 145.83 142.244C145.83 142.543 145.709 142.897 145.466 143.308C145.242 143.719 144.972 144.139 144.654 144.568C144.337 144.997 144.01 145.417 143.674 145.828C143.338 146.239 143.068 146.584 142.862 146.864C142.769 147.032 142.676 147.2 142.582 147.368C142.489 147.517 142.424 147.667 142.386 147.816C142.349 147.947 142.34 148.059 142.358 148.152C142.377 148.245 142.48 148.301 142.666 148.32C143.189 148.376 143.674 148.423 144.122 148.46C144.57 148.479 145.009 148.507 145.438 148.544C145.756 148.581 145.97 148.703 146.082 148.908C146.194 149.095 146.241 149.319 146.222 149.58C146.222 149.748 146.148 149.935 145.998 150.14C145.849 150.345 145.672 150.56 145.466 150.784C145.261 151.008 145.037 151.232 144.794 151.456C144.552 151.68 144.328 151.895 144.122 152.1C143.768 152.455 143.394 152.828 143.002 153.22C142.61 153.631 142.209 154.069 141.798 154.536C142.06 154.536 142.33 154.508 142.61 154.452C143.749 154.247 144.841 154.013 145.886 153.752C146.017 153.715 146.129 153.724 146.222 153.78C146.334 153.836 146.409 153.911 146.446 154.004C146.502 154.116 146.521 154.228 146.502 154.34C146.502 154.471 146.465 154.583 146.39 154.676C146.26 154.844 145.961 155.012 145.494 155.18C145.028 155.348 144.514 155.497 143.954 155.628C143.413 155.759 142.881 155.871 142.358 155.964C141.836 156.057 141.462 156.104 141.238 156.104C140.902 156.123 140.585 156.039 140.286 155.852C139.988 155.684 139.866 155.357 139.922 154.872ZM131.494 137.624C131.513 137.549 131.532 137.437 131.55 137.288C131.588 137.12 131.634 136.961 131.69 136.812C131.746 136.644 131.812 136.495 131.886 136.364C131.98 136.215 132.092 136.112 132.222 136.056C132.316 136.019 132.409 136.009 132.502 136.028C132.596 136.028 132.661 136.028 132.698 136.028C132.885 136.084 133.034 136.177 133.146 136.308C133.258 136.42 133.296 136.607 133.258 136.868C133.24 136.961 133.221 137.101 133.202 137.288C133.184 137.456 133.165 137.643 133.146 137.848C133.146 138.035 133.137 138.221 133.118 138.408C133.118 138.576 133.118 138.707 133.118 138.8C133.137 138.968 133.184 139.089 133.258 139.164C133.333 139.22 133.426 139.257 133.538 139.276C133.949 139.313 134.294 139.323 134.574 139.304C134.873 139.267 135.237 139.211 135.666 139.136C136.245 139.024 136.833 138.884 137.43 138.716C138.028 138.548 138.597 138.417 139.138 138.324C139.344 138.287 139.502 138.361 139.614 138.548C139.726 138.716 139.698 138.931 139.53 139.192C139.456 139.304 139.288 139.425 139.026 139.556C138.784 139.687 138.504 139.817 138.186 139.948C137.869 140.06 137.561 140.172 137.262 140.284C136.964 140.377 136.73 140.443 136.562 140.48C136.002 140.629 135.424 140.76 134.826 140.872C134.229 140.965 133.613 140.984 132.978 140.928C132.586 140.909 132.269 140.788 132.026 140.564C131.802 140.321 131.644 140.041 131.55 139.724C131.457 139.407 131.41 139.061 131.41 138.688C131.41 138.315 131.438 137.96 131.494 137.624ZM129.954 134.012C129.992 133.807 130.104 133.639 130.29 133.508C130.477 133.377 130.701 133.265 130.962 133.172C131.802 132.817 132.68 132.575 133.594 132.444C134.509 132.295 135.414 132.267 136.31 132.36C136.609 132.397 136.889 132.463 137.15 132.556C137.43 132.631 137.561 132.78 137.542 133.004C137.486 133.415 137.281 133.629 136.926 133.648C136.329 133.741 135.732 133.816 135.134 133.872C134.537 133.928 133.912 134.021 133.258 134.152C133.109 134.189 132.932 134.227 132.726 134.264C132.521 134.301 132.325 134.367 132.138 134.46C131.84 134.591 131.578 134.74 131.354 134.908C131.13 135.057 130.897 135.113 130.654 135.076C130.281 135.039 130.057 134.908 129.982 134.684C129.926 134.46 129.917 134.236 129.954 134.012ZM142.134 138.66C142.19 138.044 142.246 137.503 142.302 137.036C142.377 136.569 142.452 136.112 142.526 135.664C142.62 135.197 142.713 134.721 142.806 134.236C142.918 133.751 143.049 133.191 143.198 132.556C143.273 132.257 143.357 131.959 143.45 131.66C143.544 131.361 143.768 131.212 144.122 131.212C144.421 131.212 144.636 131.305 144.766 131.492C144.897 131.679 144.925 131.987 144.85 132.416C144.757 132.92 144.626 133.471 144.458 134.068C144.309 134.647 144.188 135.188 144.094 135.692C144.412 135.561 144.776 135.44 145.186 135.328C145.597 135.197 146.017 135.085 146.446 134.992C146.876 134.899 147.296 134.824 147.706 134.768C148.136 134.712 148.518 134.684 148.854 134.684C149.06 134.684 149.218 134.74 149.33 134.852C149.461 134.945 149.526 135.095 149.526 135.3C149.526 135.393 149.48 135.477 149.386 135.552C149.312 135.627 149.209 135.692 149.078 135.748C148.948 135.804 148.817 135.851 148.686 135.888C148.556 135.925 148.453 135.953 148.378 135.972C147.986 136.065 147.65 136.149 147.37 136.224C147.09 136.299 146.829 136.383 146.586 136.476C146.362 136.551 146.12 136.635 145.858 136.728C145.597 136.821 145.289 136.943 144.934 137.092C144.86 137.129 144.757 137.185 144.626 137.26C144.514 137.316 144.393 137.391 144.262 137.484C144.15 137.577 144.048 137.68 143.954 137.792C143.861 137.885 143.805 137.979 143.786 138.072C143.693 138.483 143.618 138.847 143.562 139.164C143.525 139.463 143.469 139.789 143.394 140.144C143.357 140.275 143.31 140.387 143.254 140.48C143.217 140.555 143.133 140.592 143.002 140.592C142.76 140.592 142.573 140.527 142.442 140.396C142.33 140.247 142.246 140.079 142.19 139.892C142.134 139.687 142.106 139.472 142.106 139.248C142.106 139.024 142.116 138.828 142.134 138.66ZM161.049 141.992C161.049 141.861 161.049 141.693 161.049 141.488C161.049 141.264 161.049 141.049 161.049 140.844C161.067 140.639 161.077 140.452 161.077 140.284C161.077 140.116 161.077 140.023 161.077 140.004C161.095 138.903 161.17 137.801 161.301 136.7C161.431 135.58 161.674 134.469 162.029 133.368C162.066 133.275 162.15 133.219 162.281 133.2C162.411 133.163 162.57 133.144 162.757 133.144C162.981 133.144 163.158 133.209 163.289 133.34C163.438 133.471 163.513 133.648 163.513 133.872C163.513 134.021 163.494 134.18 163.457 134.348C163.438 134.516 163.41 134.675 163.373 134.824C163.242 135.328 163.139 135.804 163.065 136.252C162.99 136.681 162.925 137.12 162.869 137.568C162.813 137.997 162.766 138.445 162.729 138.912C162.691 139.36 162.654 139.855 162.617 140.396V141.348C163.121 141.143 163.643 140.965 164.185 140.816C164.745 140.667 165.155 140.555 165.417 140.48C165.715 140.387 166.023 140.303 166.341 140.228C166.658 140.153 167.078 140.097 167.601 140.06C167.918 140.023 168.105 140.088 168.161 140.256C168.217 140.405 168.198 140.555 168.105 140.704C168.067 140.76 168.011 140.807 167.937 140.844C167.881 140.881 167.834 140.919 167.797 140.956C167.554 141.068 167.33 141.171 167.125 141.264C166.919 141.357 166.686 141.46 166.425 141.572C166.126 141.703 165.827 141.824 165.529 141.936C165.249 142.048 164.969 142.179 164.689 142.328C164.558 142.384 164.39 142.449 164.185 142.524C163.998 142.599 163.802 142.673 163.597 142.748C163.41 142.823 163.223 142.907 163.037 143C162.869 143.075 162.729 143.149 162.617 143.224C162.617 143.317 162.607 143.513 162.589 143.812C162.57 144.092 162.561 144.279 162.561 144.372V145.1C162.561 145.156 162.561 145.249 162.561 145.38C162.561 145.511 162.561 145.651 162.561 145.8C162.579 145.931 162.589 146.061 162.589 146.192C162.607 146.304 162.617 146.369 162.617 146.388C162.635 146.5 162.654 146.631 162.673 146.78C162.71 146.911 162.729 147.041 162.729 147.172C162.729 147.284 162.701 147.387 162.645 147.48C162.607 147.573 162.514 147.629 162.365 147.648C162.215 147.685 162.038 147.676 161.833 147.62C161.646 147.564 161.506 147.405 161.413 147.144C161.319 146.883 161.245 146.565 161.189 146.192C161.151 145.931 161.123 145.669 161.105 145.408C161.086 145.147 161.077 144.867 161.077 144.568C161.077 144.531 161.077 144.409 161.077 144.204C161.077 143.98 161.067 143.737 161.049 143.476C161.049 143.196 161.049 142.925 161.049 142.664C161.049 142.384 161.049 142.16 161.049 141.992ZM150.997 148.208C150.978 148.077 150.959 147.947 150.941 147.816C150.941 147.667 150.95 147.517 150.969 147.368C151.006 147.125 151.053 146.901 151.109 146.696C151.165 146.491 151.239 146.267 151.333 146.024C151.426 145.763 151.557 145.464 151.725 145.128C151.893 144.773 152.07 144.419 152.257 144.064C152.462 143.691 152.658 143.336 152.845 143C153.05 142.645 153.227 142.337 153.377 142.076C153.638 141.647 153.862 141.292 154.049 141.012C154.235 140.732 154.338 140.508 154.357 140.34C154.357 140.228 154.245 140.125 154.021 140.032C153.927 139.995 153.787 139.957 153.601 139.92C153.433 139.883 153.265 139.817 153.097 139.724C152.929 139.612 152.77 139.463 152.621 139.276C152.471 139.089 152.397 138.781 152.397 138.352C152.397 137.997 152.434 137.717 152.509 137.512C152.583 137.307 152.677 137.073 152.789 136.812C152.938 136.439 153.115 136.009 153.321 135.524C153.545 135.02 153.731 134.581 153.881 134.208C153.918 134.059 153.946 133.928 153.965 133.816C153.983 133.685 154.002 133.517 154.021 133.312C154.039 133.2 154.011 133.116 153.937 133.06C153.881 132.985 153.815 132.948 153.741 132.948C153.554 132.948 153.339 132.957 153.097 132.976C152.854 132.976 152.611 133.023 152.369 133.116C152.163 133.172 151.939 133.247 151.697 133.34C151.473 133.433 151.239 133.48 150.997 133.48C150.829 133.48 150.679 133.424 150.549 133.312C150.437 133.181 150.381 133.004 150.381 132.78C150.381 132.631 150.418 132.519 150.493 132.444C150.567 132.351 150.633 132.285 150.689 132.248C150.782 132.155 150.959 132.052 151.221 131.94C151.501 131.828 151.753 131.744 151.977 131.688C152.145 131.632 152.331 131.595 152.537 131.576C152.742 131.557 152.947 131.539 153.153 131.52C153.377 131.501 153.573 131.501 153.741 131.52C153.927 131.52 154.067 131.52 154.161 131.52C154.534 131.557 154.889 131.688 155.225 131.912C155.579 132.136 155.757 132.491 155.757 132.976C155.757 133.405 155.682 133.788 155.533 134.124C155.383 134.46 155.225 134.843 155.057 135.272C155.001 135.459 154.907 135.683 154.777 135.944C154.665 136.205 154.543 136.476 154.413 136.756C154.282 137.017 154.161 137.279 154.049 137.54C153.955 137.783 153.899 137.979 153.881 138.128C153.862 138.296 153.871 138.427 153.909 138.52C153.946 138.613 154.039 138.679 154.189 138.716C154.394 138.791 154.59 138.847 154.777 138.884C154.963 138.921 155.113 138.959 155.225 138.996C155.71 139.145 155.953 139.463 155.953 139.948C155.953 140.377 155.841 140.797 155.617 141.208C155.523 141.376 155.402 141.581 155.253 141.824C155.103 142.067 154.954 142.309 154.805 142.552C154.674 142.795 154.543 143.019 154.413 143.224C154.301 143.429 154.226 143.56 154.189 143.616C154.114 143.765 154.002 143.952 153.853 144.176C153.722 144.381 153.582 144.605 153.433 144.848C153.302 145.091 153.181 145.333 153.069 145.576C152.957 145.8 152.873 146.005 152.817 146.192C152.723 146.435 152.639 146.705 152.565 147.004C152.49 147.303 152.471 147.555 152.509 147.76C152.546 147.984 152.658 148.059 152.845 147.984C153.237 147.853 153.601 147.704 153.937 147.536C154.291 147.368 154.655 147.172 155.029 146.948C155.197 146.855 155.43 146.743 155.729 146.612C156.027 146.463 156.251 146.36 156.401 146.304C156.494 146.267 156.578 146.248 156.653 146.248C156.746 146.229 156.839 146.211 156.933 146.192C157.082 146.192 157.175 146.276 157.213 146.444C157.269 146.612 157.213 146.789 157.045 146.976C156.989 147.051 156.905 147.135 156.793 147.228C156.681 147.303 156.587 147.359 156.513 147.396C156.27 147.601 156.027 147.788 155.785 147.956C155.561 148.124 155.299 148.283 155.001 148.432C154.833 148.563 154.618 148.703 154.357 148.852C154.095 149.001 153.89 149.123 153.741 149.216C153.573 149.272 153.433 149.328 153.321 149.384C153.209 149.421 153.078 149.459 152.929 149.496C152.723 149.533 152.518 149.552 152.313 149.552C152.107 149.533 151.911 149.477 151.725 149.384C151.557 149.291 151.407 149.151 151.277 148.964C151.146 148.777 151.053 148.525 150.997 148.208ZM171.352 144.848C171.278 144.997 171.184 145.184 171.072 145.408C170.96 145.613 170.802 145.903 170.596 146.276C170.503 146.425 170.372 146.528 170.204 146.584C170.036 146.621 169.859 146.593 169.672 146.5C169.616 146.463 169.542 146.416 169.448 146.36C169.355 146.285 169.308 146.155 169.308 145.968C169.308 145.819 169.327 145.679 169.364 145.548C169.42 145.399 169.476 145.259 169.532 145.128C169.551 145.072 169.598 144.969 169.672 144.82C169.766 144.652 169.859 144.475 169.952 144.288C170.064 144.101 170.158 143.924 170.232 143.756C170.326 143.569 170.391 143.448 170.428 143.392C170.615 142.981 170.82 142.552 171.044 142.104C171.287 141.656 171.52 141.189 171.744 140.704C172.024 140.107 172.286 139.435 172.528 138.688C172.79 137.923 172.939 137.204 172.976 136.532C172.472 136.532 171.968 136.709 171.464 137.064C171.315 137.176 171.147 137.297 170.96 137.428C170.792 137.54 170.559 137.755 170.26 138.072C170.167 138.184 170.064 138.296 169.952 138.408C169.859 138.52 169.738 138.576 169.588 138.576C169.383 138.576 169.224 138.483 169.112 138.296C169 138.091 168.944 137.913 168.944 137.764C168.944 137.559 169.01 137.391 169.14 137.26C169.271 137.111 169.392 136.961 169.504 136.812C169.878 136.42 170.279 136.093 170.708 135.832C171.156 135.552 171.679 135.337 172.276 135.188C172.444 135.151 172.678 135.132 172.976 135.132C173.294 135.132 173.499 135.141 173.592 135.16C174.059 135.253 174.348 135.44 174.46 135.72C174.591 135.981 174.628 136.299 174.572 136.672C174.46 137.475 174.292 138.24 174.068 138.968C173.844 139.696 173.527 140.48 173.116 141.32C173.023 141.525 172.892 141.777 172.724 142.076C172.575 142.356 172.454 142.599 172.36 142.804C172.416 142.879 172.575 142.991 172.836 143.14C173.116 143.271 173.424 143.42 173.76 143.588C174.096 143.737 174.442 143.887 174.796 144.036C175.151 144.185 175.44 144.307 175.664 144.4C175.683 144.419 175.748 144.447 175.86 144.484C175.991 144.521 176.122 144.568 176.252 144.624C176.383 144.661 176.504 144.708 176.616 144.764C176.728 144.801 176.803 144.82 176.84 144.82C177.4 144.988 177.624 145.305 177.512 145.772C177.438 146.071 177.251 146.22 176.952 146.22C176.84 146.239 176.682 146.229 176.476 146.192C176.29 146.155 176.15 146.117 176.056 146.08C175.87 146.024 175.599 145.931 175.244 145.8C174.908 145.669 174.554 145.539 174.18 145.408C173.826 145.259 173.48 145.109 173.144 144.96C172.808 144.811 172.556 144.689 172.388 144.596C172.276 144.54 172.174 144.493 172.08 144.456C171.987 144.4 171.912 144.353 171.856 144.316C171.782 144.279 171.716 144.241 171.66 144.204C171.623 144.26 171.586 144.325 171.548 144.4C171.492 144.512 171.427 144.661 171.352 144.848ZM183.448 146.164C183.262 145.735 183.15 145.315 183.112 144.904C183.094 144.475 183.084 144.027 183.084 143.56C183.084 143.28 183.084 142.907 183.084 142.44C183.103 141.955 183.14 141.563 183.196 141.264C183.234 141.021 183.271 140.807 183.308 140.62C183.346 140.433 183.383 140.191 183.42 139.892C183.29 140.041 183.122 140.209 182.916 140.396C182.73 140.583 182.515 140.76 182.272 140.928C181.899 141.189 181.554 141.423 181.236 141.628C180.938 141.833 180.63 142.02 180.312 142.188C179.995 142.356 179.65 142.515 179.276 142.664C178.922 142.813 178.52 142.972 178.072 143.14C177.811 143.233 177.484 143.327 177.092 143.42C176.7 143.513 176.318 143.551 175.944 143.532C175.739 143.513 175.571 143.401 175.44 143.196C175.31 142.972 175.282 142.739 175.356 142.496C175.375 142.459 175.403 142.412 175.44 142.356C175.478 142.281 175.571 142.225 175.72 142.188C176.15 142.095 176.542 142.011 176.896 141.936C177.251 141.843 177.587 141.74 177.904 141.628C178.24 141.516 178.567 141.395 178.884 141.264C179.22 141.115 179.575 140.937 179.948 140.732C180.21 140.583 180.499 140.415 180.816 140.228C181.134 140.041 181.414 139.845 181.656 139.64C182.198 139.211 182.664 138.763 183.056 138.296C183.448 137.829 183.831 137.279 184.204 136.644C184.298 136.457 184.382 136.224 184.456 135.944C184.531 135.645 184.596 135.393 184.652 135.188C184.671 135.113 184.718 135.048 184.792 134.992C184.867 134.936 184.951 134.908 185.044 134.908C185.455 134.908 185.726 135.011 185.856 135.216C186.006 135.403 186.062 135.627 186.024 135.888C185.987 136.075 185.95 136.261 185.912 136.448C185.894 136.635 185.856 136.831 185.8 137.036C185.726 137.279 185.632 137.521 185.52 137.764C185.427 138.007 185.343 138.249 185.268 138.492C185.156 138.865 185.063 139.239 184.988 139.612C184.932 139.985 184.858 140.377 184.764 140.788C184.727 140.937 184.68 141.143 184.624 141.404C184.587 141.665 184.568 141.871 184.568 142.02C184.531 142.636 184.503 143.317 184.484 144.064C184.466 144.811 184.41 145.483 184.316 146.08C184.298 146.173 184.242 146.248 184.148 146.304C184.074 146.36 183.99 146.388 183.896 146.388C183.803 146.388 183.71 146.379 183.616 146.36C183.542 146.323 183.486 146.257 183.448 146.164ZM175.916 139.472C175.655 139.211 175.58 138.968 175.692 138.744C175.767 138.557 175.926 138.371 176.168 138.184C176.411 137.979 176.682 137.783 176.98 137.596C177.279 137.409 177.568 137.251 177.848 137.12C178.147 136.971 178.39 136.859 178.576 136.784C178.95 136.635 179.286 136.523 179.584 136.448C179.902 136.355 180.256 136.289 180.648 136.252C180.891 136.233 181.05 136.261 181.124 136.336C181.199 136.411 181.246 136.467 181.264 136.504C181.32 136.765 181.264 136.971 181.096 137.12C180.928 137.251 180.695 137.372 180.396 137.484C179.967 137.633 179.538 137.801 179.108 137.988C178.679 138.156 178.268 138.371 177.876 138.632C177.764 138.707 177.643 138.8 177.512 138.912C177.4 139.024 177.279 139.136 177.148 139.248C177.018 139.36 176.887 139.453 176.756 139.528C176.626 139.603 176.495 139.64 176.364 139.64C176.234 139.64 176.131 139.621 176.056 139.584C176 139.547 175.954 139.509 175.916 139.472ZM198.102 142.72C198.102 141.693 198.149 140.844 198.242 140.172C198.354 139.481 198.419 139.052 198.438 138.884C198.531 138.175 198.634 137.521 198.746 136.924C198.877 136.308 199.017 135.673 199.166 135.02C199.241 134.703 199.325 134.367 199.418 134.012C199.511 133.639 199.605 133.303 199.698 133.004C199.735 132.873 199.773 132.771 199.81 132.696C199.847 132.603 199.941 132.528 200.09 132.472C200.258 132.416 200.473 132.435 200.734 132.528C201.014 132.621 201.154 132.78 201.154 133.004V133.06C201.005 133.881 200.846 134.656 200.678 135.384C200.51 136.112 200.333 136.933 200.146 137.848C200.034 138.445 199.922 139.08 199.81 139.752C199.717 140.405 199.642 141.18 199.586 142.076C199.885 141.908 200.146 141.768 200.37 141.656C200.613 141.544 200.837 141.451 201.042 141.376C201.266 141.283 201.49 141.199 201.714 141.124C201.957 141.049 202.237 140.965 202.554 140.872C202.759 140.816 203.049 140.751 203.422 140.676C203.795 140.601 204.113 140.555 204.374 140.536C204.561 140.517 204.822 140.508 205.158 140.508C205.513 140.489 205.961 140.48 206.502 140.48C206.651 140.48 206.81 140.489 206.978 140.508C207.146 140.508 207.286 140.517 207.398 140.536C207.79 140.592 207.986 140.788 207.986 141.124C207.986 141.385 207.818 141.525 207.482 141.544C207.165 141.581 206.829 141.619 206.474 141.656C206.138 141.675 205.783 141.703 205.41 141.74C205.018 141.777 204.663 141.824 204.346 141.88C204.047 141.936 203.665 142.011 203.198 142.104C203.142 142.123 203.058 142.151 202.946 142.188C202.834 142.207 202.713 142.235 202.582 142.272C202.451 142.309 202.33 142.347 202.218 142.384C202.106 142.421 202.022 142.449 201.966 142.468C201.723 142.561 201.434 142.692 201.098 142.86C200.762 143.009 200.519 143.131 200.37 143.224C200.221 143.317 200.09 143.42 199.978 143.532C199.885 143.625 199.801 143.719 199.726 143.812C199.651 143.905 199.605 144.055 199.586 144.26C199.567 144.353 199.549 144.549 199.53 144.848C199.53 145.128 199.53 145.315 199.53 145.408C199.53 145.893 199.539 146.341 199.558 146.752C199.577 147.144 199.595 147.368 199.614 147.424C199.651 147.573 199.689 147.723 199.726 147.872C199.782 148.021 199.819 148.171 199.838 148.32C199.838 148.469 199.745 148.581 199.558 148.656C199.371 148.731 199.194 148.74 199.026 148.684C198.933 148.647 198.83 148.591 198.718 148.516C198.625 148.441 198.531 148.329 198.438 148.18C198.363 148.068 198.317 147.937 198.298 147.788C198.279 147.62 198.251 147.433 198.214 147.228C198.195 147.116 198.177 146.92 198.158 146.64C198.158 146.36 198.149 146.061 198.13 145.744C198.13 145.408 198.121 145.081 198.102 144.764C198.102 144.447 198.102 144.195 198.102 144.008V142.72ZM201.126 138.1C201.145 137.82 201.257 137.559 201.462 137.316C201.667 137.073 201.901 136.859 202.162 136.672C202.423 136.467 202.685 136.299 202.946 136.168C203.226 136.019 203.45 135.907 203.618 135.832C203.973 135.683 204.318 135.561 204.654 135.468C204.99 135.375 205.345 135.291 205.718 135.216C205.979 135.179 206.241 135.151 206.502 135.132C206.763 135.095 207.034 135.076 207.314 135.076C207.93 135.076 208.35 135.132 208.574 135.244C208.798 135.356 208.91 135.524 208.91 135.748C208.91 136.009 208.835 136.168 208.686 136.224C208.537 136.28 208.219 136.308 207.734 136.308C207.025 136.308 206.315 136.401 205.606 136.588C204.897 136.775 204.215 137.036 203.562 137.372C203.077 137.596 202.61 137.913 202.162 138.324C201.882 138.585 201.63 138.679 201.406 138.604C201.182 138.529 201.089 138.361 201.126 138.1ZM188.498 143.532C188.479 143.233 188.507 142.925 188.582 142.608C188.675 142.291 188.787 141.983 188.918 141.684C189.067 141.367 189.226 141.059 189.394 140.76C189.562 140.461 189.73 140.172 189.898 139.892C190.103 139.575 190.299 139.248 190.486 138.912C190.691 138.576 190.878 138.287 191.046 138.044C191.195 137.839 191.419 137.708 191.718 137.652C192.017 137.577 192.269 137.643 192.474 137.848C192.623 137.997 192.67 138.184 192.614 138.408C192.558 138.613 192.483 138.819 192.39 139.024C192.483 139.08 192.605 139.164 192.754 139.276C192.903 139.388 193.043 139.547 193.174 139.752C193.323 139.939 193.445 140.172 193.538 140.452C193.631 140.713 193.659 141.012 193.622 141.348C193.566 141.889 193.417 142.356 193.174 142.748C192.95 143.14 192.642 143.495 192.25 143.812C191.951 144.055 191.587 144.269 191.158 144.456C190.729 144.624 190.299 144.727 189.87 144.764C189.627 144.783 189.347 144.708 189.03 144.54C188.713 144.353 188.535 144.017 188.498 143.532ZM191.802 139.948C191.709 140.004 191.569 140.172 191.382 140.452C191.195 140.713 191.009 141.021 190.822 141.376C190.635 141.731 190.467 142.085 190.318 142.44C190.187 142.776 190.113 143.047 190.094 143.252C190.206 143.271 190.374 143.252 190.598 143.196C190.822 143.14 191.046 143.037 191.27 142.888C191.494 142.739 191.699 142.533 191.886 142.272C192.091 142.011 192.222 141.684 192.278 141.292C192.334 140.956 192.306 140.676 192.194 140.452C192.082 140.209 191.951 140.041 191.802 139.948ZM227.452 135.916C227.564 135.151 227.676 134.507 227.788 133.984C227.918 133.461 228.03 132.929 228.124 132.388C228.161 132.183 228.208 131.931 228.264 131.632C228.338 131.315 228.422 131.044 228.516 130.82C228.553 130.727 228.637 130.661 228.768 130.624C228.917 130.587 229.029 130.568 229.104 130.568C229.346 130.568 229.542 130.643 229.692 130.792C229.841 130.923 229.916 131.1 229.916 131.324C229.916 131.492 229.897 131.669 229.86 131.856C229.841 132.024 229.813 132.183 229.776 132.332C229.738 132.537 229.692 132.808 229.636 133.144C229.58 133.461 229.514 133.816 229.44 134.208C229.365 134.6 229.29 134.992 229.216 135.384C229.141 135.776 229.076 136.121 229.02 136.42C229.244 136.345 229.496 136.261 229.776 136.168C230.074 136.075 230.364 135.991 230.644 135.916C230.942 135.823 231.213 135.748 231.456 135.692C231.717 135.617 231.913 135.571 232.044 135.552C232.361 135.459 232.706 135.393 233.08 135.356C233.472 135.319 233.91 135.319 234.396 135.356C234.545 135.375 234.638 135.449 234.676 135.58C234.732 135.711 234.741 135.832 234.704 135.944C234.648 136.037 234.582 136.112 234.508 136.168C234.246 136.261 233.994 136.336 233.752 136.392C233.528 136.429 233.257 136.495 232.94 136.588C232.23 136.793 231.549 137.008 230.896 137.232C230.242 137.456 229.57 137.745 228.88 138.1C228.842 138.473 228.814 138.828 228.796 139.164C228.796 139.5 228.814 139.827 228.852 140.144C228.87 140.275 228.889 140.424 228.908 140.592C228.945 140.76 228.973 140.9 228.992 141.012V141.096C228.992 141.283 228.898 141.413 228.712 141.488C228.525 141.563 228.394 141.6 228.32 141.6C228.17 141.619 228.03 141.563 227.9 141.432C227.788 141.301 227.694 141.143 227.62 140.956C227.508 140.695 227.424 140.349 227.368 139.92C227.293 139.285 227.265 138.632 227.284 137.96C227.302 137.269 227.358 136.588 227.452 135.916ZM223.308 149.692C223.289 149.58 223.298 149.449 223.336 149.3C223.392 149.132 223.457 149.001 223.532 148.908C223.513 148.068 223.494 147.312 223.476 146.64C223.457 145.949 223.485 145.212 223.56 144.428C223.597 144.185 223.644 143.905 223.7 143.588C223.756 143.252 223.858 142.925 224.008 142.608C224.064 142.477 224.176 142.393 224.344 142.356C224.512 142.3 224.68 142.281 224.848 142.3C225.034 142.319 225.193 142.375 225.324 142.468C225.454 142.561 225.52 142.692 225.52 142.86C225.52 143.009 225.492 143.187 225.436 143.392C225.38 143.579 225.342 143.747 225.324 143.896C225.23 144.325 225.165 144.764 225.128 145.212C225.09 145.66 225.053 146.099 225.016 146.528C224.997 146.883 224.988 147.2 224.988 147.48C225.006 147.76 225.025 148.087 225.044 148.46C225.156 148.404 225.324 148.329 225.548 148.236C225.79 148.143 226.042 148.049 226.304 147.956C226.584 147.863 226.854 147.779 227.116 147.704C227.377 147.611 227.592 147.545 227.76 147.508C227.853 147.247 227.9 147.06 227.9 146.948C227.9 146.817 227.918 146.649 227.956 146.444C228.03 146.127 228.086 145.819 228.124 145.52C228.18 145.221 228.245 144.913 228.32 144.596C228.488 143.775 228.852 143.392 229.412 143.448C229.561 143.448 229.701 143.495 229.832 143.588C229.981 143.663 230.046 143.784 230.028 143.952V144.036C230.009 144.185 229.944 144.381 229.832 144.624C229.738 144.867 229.664 145.119 229.608 145.38C229.57 145.492 229.533 145.641 229.496 145.828C229.477 146.015 229.449 146.201 229.412 146.388C229.393 146.556 229.365 146.715 229.328 146.864C229.309 146.995 229.3 147.088 229.3 147.144C229.71 147.069 230.112 147.013 230.504 146.976C230.896 146.92 231.316 146.873 231.764 146.836C231.838 146.836 231.904 146.873 231.96 146.948C232.034 147.023 232.081 147.107 232.1 147.2C232.118 147.293 232.109 147.396 232.072 147.508C232.053 147.601 231.997 147.657 231.904 147.676C231.381 147.825 230.877 147.956 230.392 148.068C229.925 148.161 229.533 148.311 229.216 148.516C229.104 148.591 229.029 148.731 228.992 148.936C228.973 149.123 228.954 149.291 228.936 149.44C228.917 149.571 228.88 149.785 228.824 150.084C228.786 150.383 228.758 150.579 228.74 150.672L228.656 151.316L228.516 152.38C228.497 152.455 228.45 152.52 228.376 152.576C228.32 152.651 228.236 152.697 228.124 152.716C228.03 152.753 227.928 152.753 227.816 152.716C227.722 152.697 227.638 152.641 227.564 152.548C227.47 152.417 227.414 152.221 227.396 151.96C227.377 151.717 227.377 151.475 227.396 151.232C227.414 151.083 227.433 150.896 227.452 150.672C227.47 150.467 227.489 150.252 227.508 150.028C227.526 149.823 227.545 149.627 227.564 149.44C227.582 149.235 227.601 149.076 227.62 148.964C227.396 149.057 227.097 149.169 226.724 149.3C226.369 149.412 226.08 149.524 225.856 149.636C225.706 149.711 225.576 149.776 225.464 149.832C225.37 149.888 225.268 149.963 225.156 150.056C225.174 150.149 225.184 150.252 225.184 150.364C225.202 150.476 225.221 150.607 225.24 150.756C225.277 150.905 225.314 151.092 225.352 151.316C225.408 151.559 225.473 151.848 225.548 152.184C225.622 152.52 225.697 152.837 225.772 153.136C225.865 153.453 226.005 153.733 226.192 153.976C226.285 153.92 226.388 153.845 226.5 153.752C226.63 153.659 226.714 153.593 226.752 153.556C226.957 153.369 227.106 153.248 227.2 153.192C227.312 153.136 227.405 153.108 227.48 153.108C227.573 153.127 227.657 153.183 227.732 153.276C227.825 153.388 227.853 153.519 227.816 153.668C227.797 153.687 227.788 153.715 227.788 153.752C227.769 153.789 227.76 153.817 227.76 153.836C227.76 153.855 227.741 153.883 227.704 153.92C227.704 153.939 227.676 153.976 227.62 154.032C227.564 154.107 227.498 154.191 227.424 154.284C227.368 154.377 227.302 154.471 227.228 154.564C227.172 154.657 227.116 154.732 227.06 154.788C226.929 154.937 226.77 155.031 226.584 155.068C226.416 155.124 226.248 155.143 226.08 155.124C225.968 155.124 225.818 155.096 225.632 155.04C225.445 155.003 225.258 154.9 225.072 154.732C224.754 154.415 224.54 154.041 224.428 153.612C224.316 153.201 224.204 152.809 224.092 152.436C224.017 152.175 223.952 151.932 223.896 151.708C223.858 151.484 223.821 151.232 223.784 150.952C223.746 150.691 223.681 150.476 223.588 150.308C223.532 150.252 223.476 150.168 223.42 150.056C223.364 149.963 223.326 149.841 223.308 149.692ZM219.892 134.768C219.892 135.029 219.826 135.235 219.696 135.384C219.565 135.533 219.416 135.627 219.248 135.664C219.08 135.683 218.921 135.655 218.772 135.58C218.622 135.487 218.538 135.337 218.52 135.132C218.482 134.815 218.482 134.46 218.52 134.068C218.557 133.657 218.604 133.265 218.66 132.892C218.716 132.519 218.762 132.229 218.8 132.024C218.856 131.819 218.902 131.641 218.94 131.492C219.052 131.1 219.182 130.68 219.332 130.232C219.481 129.765 219.658 129.345 219.864 128.972C220.013 128.692 220.209 128.505 220.452 128.412C220.713 128.319 220.974 128.347 221.236 128.496C221.478 128.608 221.572 128.832 221.516 129.168C221.478 129.317 221.422 129.457 221.348 129.588C221.273 129.719 221.208 129.859 221.152 130.008C220.909 130.643 220.694 131.212 220.508 131.716C220.34 132.201 220.181 132.771 220.032 133.424C219.994 133.611 219.957 133.835 219.92 134.096C219.901 134.339 219.892 134.563 219.892 134.768ZM217.904 137.036C218.184 136.961 218.492 136.887 218.828 136.812C219.182 136.737 219.546 136.672 219.92 136.616C220.312 136.541 220.694 136.485 221.068 136.448C221.46 136.411 221.842 136.401 222.216 136.42C222.514 136.439 222.776 136.467 223 136.504C223.242 136.541 223.494 136.607 223.756 136.7C224.166 136.831 224.353 137.083 224.316 137.456C224.297 137.68 224.064 137.773 223.616 137.736C222.44 137.661 221.282 137.745 220.144 137.988C219.005 138.231 217.941 138.595 216.952 139.08C216.578 139.267 216.289 139.313 216.084 139.22C215.897 139.108 215.785 138.931 215.748 138.688C215.71 138.501 215.738 138.333 215.832 138.184C215.925 138.016 216.037 137.885 216.168 137.792C216.41 137.624 216.69 137.475 217.008 137.344C217.344 137.213 217.642 137.111 217.904 137.036ZM217.624 144.764C217.549 144.633 217.493 144.475 217.456 144.288C217.418 144.083 217.428 143.775 217.484 143.364C217.521 143.14 217.596 142.879 217.708 142.58C217.82 142.281 217.96 141.973 218.128 141.656C218.24 141.451 218.37 141.217 218.52 140.956C218.688 140.695 218.856 140.443 219.024 140.2C219.21 139.957 219.388 139.752 219.556 139.584C219.742 139.416 219.91 139.323 220.06 139.304C220.302 139.267 220.526 139.313 220.732 139.444C220.956 139.556 221.058 139.724 221.04 139.948C221.021 140.097 220.984 140.219 220.928 140.312C220.872 140.405 220.797 140.527 220.704 140.676C220.89 140.769 221.068 140.909 221.236 141.096C221.404 141.283 221.525 141.516 221.6 141.796C221.674 142.113 221.693 142.384 221.656 142.608C221.637 142.813 221.581 143.047 221.488 143.308C221.189 144.073 220.685 144.652 219.976 145.044C219.826 145.137 219.63 145.212 219.388 145.268C219.145 145.324 218.921 145.352 218.716 145.352C218.529 145.352 218.324 145.305 218.1 145.212C217.876 145.1 217.717 144.951 217.624 144.764ZM220.228 141.656C219.873 141.843 219.556 142.225 219.276 142.804C219.182 142.991 219.108 143.168 219.052 143.336C219.014 143.504 218.996 143.681 218.996 143.868C219.257 143.812 219.509 143.7 219.752 143.532C219.994 143.345 220.172 143.084 220.284 142.748C220.358 142.543 220.377 142.347 220.34 142.16C220.321 141.973 220.284 141.805 220.228 141.656ZM235.868 143.868C235.83 143.607 235.812 143.205 235.812 142.664C235.83 142.104 235.858 141.497 235.896 140.844C235.952 140.191 236.026 139.528 236.12 138.856C236.213 138.184 236.316 137.587 236.428 137.064C236.446 136.971 236.465 136.868 236.484 136.756C236.521 136.625 236.568 136.513 236.624 136.42C236.68 136.308 236.764 136.215 236.876 136.14C236.988 136.065 237.146 136.028 237.352 136.028C237.52 136.028 237.678 136.112 237.828 136.28C237.996 136.429 238.061 136.616 238.024 136.84C237.986 137.027 237.949 137.251 237.912 137.512C237.874 137.773 237.837 138.044 237.8 138.324C237.762 138.585 237.725 138.847 237.688 139.108C237.65 139.369 237.613 139.584 237.576 139.752C237.538 139.92 237.501 140.125 237.464 140.368C237.445 140.592 237.417 140.844 237.38 141.124C237.361 141.385 237.342 141.656 237.324 141.936C237.305 142.197 237.296 142.44 237.296 142.664C237.277 142.925 237.333 143.103 237.464 143.196C237.594 143.289 237.734 143.308 237.884 143.252C238.276 143.121 238.714 142.963 239.2 142.776C239.685 142.571 240.161 142.365 240.628 142.16C241.113 141.955 241.561 141.768 241.972 141.6C242.382 141.413 242.718 141.292 242.98 141.236C243.185 141.199 243.344 141.283 243.456 141.488C243.493 141.6 243.493 141.74 243.456 141.908C243.418 142.057 243.325 142.197 243.176 142.328C243.026 142.477 242.858 142.608 242.672 142.72C242.504 142.832 242.326 142.944 242.14 143.056C241.99 143.149 241.72 143.299 241.328 143.504C240.954 143.691 240.534 143.896 240.068 144.12C239.62 144.325 239.162 144.521 238.696 144.708C238.248 144.876 237.865 144.988 237.548 145.044C237.193 145.119 236.838 145.053 236.484 144.848C236.148 144.624 235.942 144.297 235.868 143.868ZM245.948 146.752C245.929 146.547 245.92 146.229 245.92 145.8C245.92 145.371 245.929 144.913 245.948 144.428C245.966 143.943 245.985 143.485 246.004 143.056C246.022 142.627 246.041 142.309 246.06 142.104C246.078 141.712 246.116 141.264 246.172 140.76C246.228 140.237 246.284 139.715 246.34 139.192C246.396 138.669 246.461 138.156 246.536 137.652C246.61 137.148 246.694 136.7 246.788 136.308C246.825 136.121 246.872 135.879 246.928 135.58C246.984 135.281 247.049 134.992 247.124 134.712C247.217 134.432 247.32 134.189 247.432 133.984C247.562 133.779 247.73 133.676 247.936 133.676C248.141 133.676 248.346 133.741 248.552 133.872C248.776 134.003 248.878 134.171 248.86 134.376C248.822 134.693 248.757 135.001 248.664 135.3C248.57 135.58 248.496 135.851 248.44 136.112C248.253 137.083 248.104 137.913 247.992 138.604C247.88 139.295 247.786 139.864 247.712 140.312C247.656 140.76 247.609 141.115 247.572 141.376C247.553 141.619 247.534 141.796 247.516 141.908C247.478 142.207 247.441 142.617 247.404 143.14C247.366 143.663 247.329 144.213 247.292 144.792C247.254 145.352 247.217 145.903 247.18 146.444C247.142 146.967 247.114 147.377 247.096 147.676C247.077 147.825 247.002 147.909 246.872 147.928C246.741 147.947 246.648 147.956 246.592 147.956C246.368 147.956 246.209 147.835 246.116 147.592C246.041 147.331 245.985 147.051 245.948 146.752ZM262.723 149.272C262.723 149.216 262.713 149.001 262.695 148.628C262.676 148.236 262.648 147.825 262.611 147.396C262.592 146.948 262.573 146.537 262.555 146.164C262.536 145.791 262.527 145.576 262.527 145.52C262.489 145.315 262.443 145.128 262.387 144.96C262.349 144.773 262.331 144.559 262.331 144.316C262.331 144.223 262.34 144.12 262.359 144.008C262.396 143.877 262.415 143.775 262.415 143.7C262.415 143.569 262.424 143.336 262.443 143C262.48 142.645 262.517 142.281 262.555 141.908C262.592 141.516 262.629 141.152 262.667 140.816C262.704 140.461 262.732 140.209 262.751 140.06C262.9 139.089 263.04 138.109 263.171 137.12C263.32 136.131 263.469 135.141 263.619 134.152C263.656 133.947 263.787 133.807 264.011 133.732C264.235 133.639 264.44 133.592 264.627 133.592C264.832 133.592 264.972 133.648 265.047 133.76C265.14 133.853 265.187 133.975 265.187 134.124C265.187 134.553 265.149 135.029 265.075 135.552C265 136.056 264.916 136.523 264.823 136.952C264.655 137.755 264.487 138.66 264.319 139.668C264.169 140.657 264.095 141.591 264.095 142.468V143.084C264.207 143.065 264.384 143.019 264.627 142.944C264.888 142.851 265.159 142.757 265.439 142.664C265.737 142.552 266.017 142.449 266.279 142.356C266.54 142.263 266.745 142.197 266.895 142.16C267.361 142.067 267.772 141.964 268.127 141.852C268.481 141.74 268.883 141.656 269.331 141.6C269.592 141.563 269.797 141.581 269.947 141.656C270.096 141.731 270.171 141.824 270.171 141.936C270.171 142.123 270.068 142.272 269.863 142.384C269.657 142.477 269.48 142.543 269.331 142.58C268.491 142.916 267.595 143.252 266.643 143.588C265.709 143.905 264.86 144.335 264.095 144.876C264.095 145.025 264.095 145.296 264.095 145.688C264.113 146.08 264.123 146.491 264.123 146.92C264.141 147.349 264.151 147.76 264.151 148.152C264.169 148.544 264.188 148.815 264.207 148.964C264.244 149.225 264.225 149.449 264.151 149.636C264.095 149.804 263.955 149.907 263.731 149.944C263.488 149.981 263.264 149.935 263.059 149.804C262.853 149.655 262.741 149.477 262.723 149.272ZM251.663 137.008C251.663 136.747 251.831 136.523 252.167 136.336C252.521 136.131 252.923 135.972 253.371 135.86C253.819 135.729 254.267 135.636 254.715 135.58C255.163 135.505 255.499 135.468 255.723 135.468C255.909 135.468 256.115 135.477 256.339 135.496C256.581 135.496 256.796 135.524 256.983 135.58C257.188 135.617 257.356 135.683 257.487 135.776C257.617 135.869 257.683 136 257.683 136.168C257.683 136.317 257.645 136.485 257.571 136.672C257.496 136.859 257.384 136.943 257.235 136.924C256.693 136.849 256.105 136.868 255.471 136.98C254.855 137.073 254.276 137.204 253.735 137.372C253.511 137.447 253.296 137.531 253.091 137.624C252.904 137.717 252.68 137.829 252.419 137.96C252.307 138.016 252.204 138.016 252.111 137.96C252.017 137.904 251.933 137.829 251.859 137.736C251.803 137.624 251.756 137.503 251.719 137.372C251.681 137.241 251.663 137.12 251.663 137.008ZM251.999 143.42C251.999 143.233 252.027 142.944 252.083 142.552C252.139 142.16 252.204 141.759 252.279 141.348C252.353 140.919 252.437 140.536 252.531 140.2C252.643 139.845 252.745 139.64 252.839 139.584C252.895 139.528 252.988 139.472 253.119 139.416C253.268 139.36 253.455 139.379 253.679 139.472C254.033 139.603 254.183 139.836 254.127 140.172C254.089 140.433 254.033 140.76 253.959 141.152C253.884 141.544 253.819 141.88 253.763 142.16C253.688 142.515 253.651 142.888 253.651 143.28C253.651 143.523 253.716 143.672 253.847 143.728C253.977 143.784 254.089 143.803 254.183 143.784C255.247 143.653 256.217 143.42 257.095 143.084C257.281 143.009 257.543 142.897 257.879 142.748C258.233 142.599 258.588 142.44 258.943 142.272C259.316 142.104 259.652 141.955 259.951 141.824C260.249 141.693 260.455 141.609 260.567 141.572C260.679 141.535 260.781 141.553 260.875 141.628C260.968 141.703 261.033 141.805 261.071 141.936C261.108 142.16 261.089 142.337 261.015 142.468C260.959 142.58 260.884 142.673 260.791 142.748C260.716 142.804 260.576 142.897 260.371 143.028C260.165 143.14 259.941 143.271 259.699 143.42C259.456 143.551 259.213 143.681 258.971 143.812C258.728 143.943 258.532 144.036 258.383 144.092C257.86 144.316 257.328 144.54 256.787 144.764C256.245 144.988 255.732 145.156 255.247 145.268C255.135 145.305 254.911 145.371 254.575 145.464C254.257 145.539 253.921 145.576 253.567 145.576C253.343 145.576 253.109 145.539 252.867 145.464C252.624 145.389 252.437 145.249 252.307 145.044C252.045 144.671 251.943 144.129 251.999 143.42ZM271.608 148.544C271.533 148.301 271.561 148.04 271.692 147.76C271.823 147.48 272.028 147.312 272.308 147.256C272.775 147.163 273.167 147.237 273.484 147.48C273.801 147.723 274.007 148.049 274.1 148.46C274.193 148.815 274.175 149.113 274.044 149.356C273.932 149.58 273.717 149.72 273.4 149.776C272.896 149.888 272.504 149.823 272.224 149.58C271.944 149.319 271.739 148.973 271.608 148.544Z" fill="#0283FD"/>
<path d="M50.7426 84.931C51.1116 85.218 50.9476 85.874 50.6196 86.612C50.4146 87.145 50.1686 87.555 50.1686 88.252C50.1686 88.867 50.3736 89.482 50.9886 89.359C52.5056 89.031 52.9566 90.425 52.8336 91.45C52.6696 92.762 51.4806 93.172 50.5786 93.049C49.1436 92.885 48.3646 91.696 48.2006 90.179C48.0776 89.113 48.2006 87.637 48.7336 86.571C49.5126 84.972 50.3326 84.603 50.7426 84.931ZM44.5926 84.931C44.9616 85.218 44.7976 85.874 44.4696 86.612C44.2646 87.145 44.0186 87.555 44.0186 88.252C44.0186 88.867 44.2236 89.482 44.8386 89.359C46.3556 89.031 46.8066 90.425 46.6836 91.45C46.5196 92.762 45.3306 93.172 44.4286 93.049C42.9936 92.885 42.2146 91.696 42.0506 90.179C41.9276 89.113 42.0506 87.637 42.5836 86.571C43.3626 84.972 44.1826 84.603 44.5926 84.931Z" fill="#D4DCE5"/>
<path d="M297.101 92.844C296.732 92.557 296.896 91.901 297.224 91.163C297.429 90.63 297.675 90.22 297.675 89.523C297.675 88.908 297.47 88.293 296.855 88.416C295.338 88.744 294.887 87.35 295.01 86.325C295.174 85.013 296.363 84.603 297.265 84.726C298.7 84.89 299.479 86.079 299.643 87.596C299.766 88.662 299.643 90.138 299.11 91.204C298.331 92.803 297.511 93.172 297.101 92.844ZM303.251 92.844C302.882 92.557 303.046 91.901 303.374 91.163C303.579 90.63 303.825 90.22 303.825 89.523C303.825 88.908 303.62 88.293 303.005 88.416C301.488 88.744 301.037 87.35 301.16 86.325C301.324 85.013 302.513 84.603 303.415 84.726C304.85 84.89 305.629 86.079 305.793 87.596C305.916 88.662 305.793 90.138 305.26 91.204C304.481 92.803 303.661 93.172 303.251 92.844Z" fill="#D4DCE5"/>
<g opacity="0.2" filter="url(#filter0_f_8882_11942)">
<rect x="108" y="53" width="127" height="133" rx="63.5" fill="#89C6FF"/>
</g>
<defs>
<filter id="filter0_f_8882_11942" x="55.8" y="0.799999" width="231.4" height="237.4" filterUnits="userSpaceOnUse" color-interpolation-filters="sRGB">
<feFlood flood-opacity="0" result="BackgroundImageFix"/>
<feBlend mode="normal" in="SourceGraphic" in2="BackgroundImageFix" result="shape"/>
<feGaussianBlur stdDeviation="26.1" result="effect1_foregroundBlur_8882_11942"/>
</filter>
</defs>
</svg>
