<svg width="63" height="63" viewBox="0 0 63 63" fill="none" xmlns="http://www.w3.org/2000/svg">
<circle cx="31.5" cy="31.5" r="31.5" fill="white"/>
<path d="M22.5 27C22.5 29.2091 24.2909 31 26.5 31C28.7091 31 30.5 29.2091 30.5 27C30.5 24.7909 28.7091 23 26.5 23C24.2909 23 22.5 24.7909 22.5 27ZM22 41V36.5C22 34.0147 24.0147 32 26.5 32C28.9853 32 31 34.0147 31 36.5V41H22ZM37.5 31C35.2909 31 33.5 29.2091 33.5 27C33.5 24.7909 35.2909 23 37.5 23C39.7091 23 41.5 24.7909 41.5 27C41.5 29.2091 39.7091 31 37.5 31ZM33 41V36.5C33 34.0147 35.0147 32 37.5 32C39.9853 32 42 34.0147 42 36.5V41H33Z" fill="#0283FD"/>
</svg>
