<svg width="484" height="413" viewBox="0 0 484 413" fill="none" xmlns="http://www.w3.org/2000/svg">
<path d="M49.1524 6.78906V8.5C49.1524 10.1641 49.1524 12.0156 48.6602 14.4531H51.4727V16.8672H31.9492V14.4531H45.6367C46.1055 12.3203 46.1641 10.668 46.1758 9.17969H34.3399V6.78906H49.1524ZM49.0821 19.1172V26.9219H34.2696V19.1172H49.0821ZM37.1992 21.4609V24.5312H46.1055V21.4609H37.1992ZM72.1446 16.2109V18.6016H52.6914V16.2109H60.918V13.375H63.8711V16.2109H72.1446ZM63.918 6.88281C63.918 9.36719 66.3086 11.7344 71.1133 12.3203L69.9649 14.6406C66.3672 14.1016 63.7188 12.5898 62.3711 10.4453C61 12.5898 58.3516 14.1133 54.7539 14.6406L53.6992 12.3203C58.4102 11.7344 60.8711 9.29688 60.8711 6.88281V6.17969H63.918V6.88281ZM69.7774 20.1016V27.1562H66.8008V22.4219H54.8477V20.1016H69.7774ZM84.4961 7.07031C84.4961 12.6484 80.9805 16.5156 74.7227 18.25L73.5508 15.9297C78.1446 14.6875 80.793 12.3438 81.3086 9.46094H74.6992V7.07031H84.4961ZM91.4102 5.85156V17.7812H88.4336V13.3516H84.6367V10.9141H88.4336V5.85156H91.4102ZM91.4102 18.625V26.8984H77.2774V18.625H91.4102ZM80.2071 20.9688V24.5547H88.4571V20.9688H80.2071ZM113.582 14.9219V17.1016H105.379V18.4375H111.262V23.6406H99.3789V24.8125H111.824V27.0156H96.4492V21.625H108.309V20.5703H96.4258V18.4375H102.402V17.1016H94.2227V14.9219H113.582ZM105.355 5.80469V7.49219H111.754V9.69531H105.73C106.316 10.9375 108.496 11.957 112.809 12.1328L111.941 14.3359C107.98 14.1484 105.238 13.1406 103.879 11.5234C102.531 13.1406 99.7774 14.1484 95.793 14.3359L94.9727 12.1328C99.25 11.957 101.418 10.9375 102.027 9.69531H96.0508V7.49219H102.402V5.80469H105.355ZM132.848 5.82812V27.1562H129.824V5.82812H132.848ZM126.449 8.05469C126.449 14.5234 124.176 19.8906 116.559 23.5L114.988 21.1094C120.496 18.5078 122.922 15.1328 123.402 10.3984H116.137V8.05469H126.449ZM152.582 5.85156V11.9688H155.465V14.4766H152.582V21.5547H149.582V5.85156H152.582ZM153.402 24.3906V26.7812H138.824V20.2891H141.848V24.3906H153.402ZM146.207 7.14062V13.8203H139.41V16.0703C142.938 16.0586 145.328 15.9062 148.035 15.4141L148.363 17.8281C145.293 18.3906 142.551 18.4844 138.238 18.4844H136.434V11.5703H143.301V9.53125H136.41V7.14062H146.207ZM160.129 19.6562C160.152 16.75 160.926 15.8359 162.332 14.9688C163.34 14.3125 164.113 13.5859 164.113 12.5078C164.113 11.3359 163.199 10.5625 162.074 10.5625C160.973 10.5625 159.965 11.2891 159.918 12.6719H156.59C156.66 9.36719 159.098 7.79688 162.098 7.79688C165.355 7.79688 167.676 9.50781 167.676 12.3906C167.676 14.3125 166.691 15.5547 165.145 16.4688C163.832 17.2656 163.246 18.0156 163.223 19.6562V19.9141H160.129V19.6562ZM161.746 25.2109C160.645 25.2109 159.754 24.3203 159.777 23.2422C159.754 22.1641 160.645 21.2969 161.746 21.2969C162.777 21.2969 163.691 22.1641 163.691 23.2422C163.691 24.3203 162.777 25.2109 161.746 25.2109Z" fill="#22272B"/>
<path d="M37.5156 128.016C40.3984 128.016 42.543 130.395 42.9766 134.227H46.6797V126.516H49.6328V147.891H46.6797V136.617H43C42.6836 140.719 40.4922 143.227 37.5156 143.227C34.2812 143.227 31.9609 140.297 31.9844 135.609C31.9609 130.969 34.2812 128.016 37.5156 128.016ZM37.5156 130.711C35.9219 130.711 34.8203 132.445 34.8438 135.609C34.8203 138.797 35.9219 140.508 37.5156 140.508C39.1328 140.508 40.1875 138.797 40.1875 135.609C40.1875 132.445 39.1328 130.711 37.5156 130.711ZM70.2344 126.516V147.891H67.2109V126.516H70.2344ZM64.0469 128.391V130.828H56.6641V140.273C60.4844 140.262 62.8281 140.18 65.5234 139.688L65.8047 142.148C62.8516 142.711 60.1328 142.805 55.5156 142.805H53.6641V128.391H64.0469ZM81.1797 131.344C81.1797 135.352 82.7969 139.242 86.3594 140.789L84.5312 143.18C82.1641 142.02 80.582 139.898 79.7031 137.273C78.7656 140.062 77.125 142.348 74.6875 143.555L72.8125 141.117C76.4688 139.477 78.1328 135.352 78.1562 131.344V128.156H81.1797V131.344ZM91.1172 126.516V147.891H88.1641V135.633H83.9688V133.219H88.1641V126.516H91.1172ZM107.242 131.344C107.219 135.164 108.859 139.031 112.281 140.672L110.477 143.062C108.191 141.938 106.656 139.828 105.766 137.25C104.84 140.016 103.188 142.277 100.773 143.461L98.9219 141.047C102.531 139.383 104.242 135.305 104.242 131.344V128.156H107.242V131.344ZM116.219 126.516V134.742H119.359V137.273H116.219V147.844H113.219V126.516H116.219ZM139.586 136.617V139.008H120.133V136.617H124.516V134.062C122.957 133.371 122.078 132.316 122.078 130.945C122.078 128.367 125.102 126.82 129.859 126.82C134.57 126.82 137.594 128.367 137.617 130.945C137.605 132.328 136.691 133.406 135.109 134.086V136.617H139.586ZM129.836 140.133C134.453 140.133 137.242 141.492 137.266 143.953C137.242 146.461 134.453 147.82 129.836 147.82C125.148 147.82 122.359 146.461 122.359 143.953C122.359 141.492 125.148 140.133 129.836 140.133ZM129.836 142.383C126.883 142.383 125.383 142.898 125.406 143.953C125.383 145.055 126.883 145.594 129.836 145.594C132.719 145.594 134.242 145.055 134.266 143.953C134.242 142.898 132.719 142.383 129.836 142.383ZM129.859 129.117C126.836 129.117 125.172 129.75 125.195 130.945C125.172 132.117 126.836 132.703 129.859 132.703C132.836 132.703 134.523 132.117 134.523 130.945C134.523 129.75 132.836 129.117 129.859 129.117ZM127.539 136.617H132.133V134.836C131.43 134.918 130.668 134.953 129.859 134.953C129.027 134.953 128.254 134.918 127.539 134.812V136.617ZM153.578 135.188V137.578H149.43V141.07C151.188 141.012 152.945 140.895 154.609 140.719L154.844 142.898C150.18 143.625 145.328 143.648 141.32 143.648L140.969 141.211C142.668 141.223 144.52 141.223 146.43 141.164V137.578H142.375V128.414H153.461V130.781H145.352V135.188H153.578ZM158.805 126.516V147.891H155.828V126.516H158.805ZM181.469 134.602V137.039H178.445V147.797H175.445V126.516H178.445V134.602H181.469ZM165.273 128.555V140.109C168.004 140.074 170.934 139.816 174.016 139.195L174.32 141.68C170.758 142.406 167.289 142.594 164.148 142.594H162.297V128.555H165.273ZM201.883 142.898V145.359H182.359V142.898H186.719V137.672C185.066 136.688 184.07 135.176 184.07 133.289C184.07 129.844 187.445 127.547 192.086 127.547C196.703 127.547 200.102 129.844 200.125 133.289C200.113 135.129 199.141 136.629 197.547 137.625V142.898H201.883ZM192.086 129.914C189.039 129.914 187.023 131.133 187.023 133.289C187.023 135.375 189.039 136.664 192.086 136.664C195.109 136.664 197.148 135.375 197.172 133.289C197.148 131.133 195.109 129.914 192.086 129.914ZM189.672 142.898H194.523V138.75C193.762 138.902 192.941 138.984 192.086 138.984C191.23 138.984 190.422 138.914 189.672 138.75V142.898ZM206.828 140.344C206.852 137.438 207.625 136.523 209.031 135.656C210.039 135 210.812 134.273 210.812 133.195C210.812 132.023 209.898 131.25 208.773 131.25C207.672 131.25 206.664 131.977 206.617 133.359H203.289C203.359 130.055 205.797 128.484 208.797 128.484C212.055 128.484 214.375 130.195 214.375 133.078C214.375 135 213.391 136.242 211.844 137.156C210.531 137.953 209.945 138.703 209.922 140.344V140.602H206.828V140.344ZM208.445 145.898C207.344 145.898 206.453 145.008 206.477 143.93C206.453 142.852 207.344 141.984 208.445 141.984C209.477 141.984 210.391 142.852 210.391 143.93C210.391 145.008 209.477 145.898 208.445 145.898Z" fill="#22272B"/>
<path d="M43.4375 48.2588V62.1494H42.2656V48.2588H43.4375ZM40.625 48.6025V61.4307H39.4688V54.2744H37.125V53.2744H39.4688V48.6025H40.625ZM35.6406 52.2275C35.6406 54.6338 36.7188 57.0244 38.6406 58.1338L37.8906 59.04C36.5234 58.2197 35.5547 56.7197 35.0781 54.9463C34.5703 56.8604 33.5625 58.4932 32.1719 59.3682L31.3906 58.4463C33.3281 57.29 34.4531 54.7588 34.4531 52.2275V50.915H31.7812V49.8994H38.1875V50.915H35.6406V52.2275ZM58.0469 54.9775V55.9932H52.3125V57.6338H56.5V61.9619H46.9375V57.6338H51.1094V55.9932H45.3906V54.9775H58.0469ZM56.8438 48.7119V49.7275H54.7031V52.6494H56.7969V53.665H46.625V52.6494H48.7188V49.7275H46.5781V48.7119H56.8438ZM48.1562 58.6025V60.9619H55.2969V58.6025H48.1562ZM49.9375 52.6494H53.4844V49.7275H49.9375V52.6494ZM60.0781 56.5713C60.0938 53.6182 60.8906 51.165 62.3281 49.0869H63.5156C62.4531 50.6338 61.4688 53.79 61.4688 56.5713C61.4688 59.3525 62.4531 62.5244 63.5156 64.0713H62.3281C60.8906 61.9775 60.0938 59.5244 60.0781 56.5713ZM69.5938 50.2744C69.5781 52.3057 71.0469 54.1025 73.1094 54.8213L72.4844 55.79C70.875 55.2041 69.6016 54.001 68.9844 52.4619C68.3672 54.1104 67.0781 55.4072 65.4531 56.04L64.8125 55.0713C66.8906 54.3057 68.3438 52.3682 68.3438 50.2744V48.9463H69.5938V50.2744ZM76.1406 57.3213V62.1494H74.9219V58.3369H66.7969V57.3213H76.1406ZM76.1406 48.2588V56.6338H74.9219V48.2588H76.1406ZM91.1562 54.9775V55.9932H85.4219V57.6338H89.6094V61.9619H80.0469V57.6338H84.2188V55.9932H78.5V54.9775H91.1562ZM89.9531 48.7119V49.7275H87.8125V52.6494H89.9062V53.665H79.7344V52.6494H81.8281V49.7275H79.6875V48.7119H89.9531ZM81.2656 58.6025V60.9619H88.4062V58.6025H81.2656ZM83.0469 52.6494H86.5938V49.7275H83.0469V52.6494ZM95.7969 56.5713C95.7812 59.5244 94.9844 61.9775 93.5469 64.0713H92.3594C93.4219 62.5244 94.4062 59.3525 94.4062 56.5713C94.4062 53.79 93.4219 50.6338 92.3594 49.0869H93.5469C94.9844 51.165 95.7812 53.6182 95.7969 56.5713ZM109.688 48.2588V62.1494H108.5V48.2588H109.688ZM106.891 48.5557V61.4463H105.719V54.6963H103.938C103.805 57.3994 102.656 59.0869 100.938 59.0869C99.125 59.0869 97.9531 57.2119 97.9531 54.2588C97.9531 51.3057 99.125 49.4307 100.938 49.4307C102.625 49.4307 103.766 51.0635 103.922 53.6807H105.719V48.5557H106.891ZM100.938 50.5869C99.8125 50.5869 99.0938 51.9932 99.1094 54.2588C99.0938 56.5088 99.8125 57.9307 100.938 57.915C102.062 57.9307 102.781 56.5088 102.781 54.2588C102.781 51.9932 102.062 50.5869 100.938 50.5869ZM126.672 49.0088V50.04C126.672 51.1182 126.672 52.3838 126.312 54.1182H128.344V55.1338H115.625V54.1182H125.078C125.453 52.376 125.453 51.1182 125.453 50.04V50.0244H117.234V49.0088H126.672ZM126.734 57.0557V61.9619H117.188V57.0557H126.734ZM118.406 58.0244V60.9619H125.516V58.0244H118.406ZM142.156 55.2432V56.2588H129.453V55.2432H135.172V53.1025H136.375V55.2432H142.156ZM136.391 49.1338C136.391 50.9775 138.891 52.5244 141.344 52.8682L140.844 53.8525C138.734 53.4854 136.648 52.3682 135.781 50.7588C134.906 52.376 132.812 53.4854 130.688 53.8525L130.219 52.8682C132.672 52.5244 135.156 50.9775 135.156 49.1338V48.4775H136.391V49.1338ZM140.547 57.6182V62.1494H139.312V58.6025H130.859V57.6182H140.547ZM158.75 48.2588V62.1807H157.516V48.2588H158.75ZM151.359 49.3369C153.422 49.3525 154.906 51.2275 154.906 54.1807C154.906 57.1338 153.422 59.0088 151.359 59.0088C149.281 59.0088 147.812 57.1338 147.812 54.1807C147.812 51.2275 149.281 49.3525 151.359 49.3369ZM151.359 50.4307C149.969 50.4463 149 51.915 149 54.1807C149 56.4463 149.969 57.915 151.359 57.915C152.75 57.915 153.719 56.4463 153.719 54.1807C153.719 51.915 152.75 50.4463 151.359 50.4307ZM173.781 54.1338V55.1338H168.047V56.5088H172.156V59.6182H163.906V61.0244H172.578V61.9932H162.688V58.6963H170.953V57.4619H162.656V56.5088H166.828V55.1338H161.125V54.1338H173.781ZM172.141 48.7275V52.9619H162.766V48.7275H172.141ZM163.984 49.7119V51.9775H170.922V49.7119H163.984ZM186.406 48.2588V55.4775H185.203V48.2588H186.406ZM186.422 56.1494V59.4619H178.625V61.0088H186.922V61.9932H177.422V58.54H185.203V57.1182H177.391V56.1494H186.422ZM179.953 50.2275C179.953 52.04 181.438 53.6182 183.531 54.2432L182.922 55.1963C181.281 54.6807 179.977 53.5791 179.359 52.1494C178.758 53.7119 177.43 54.9307 175.734 55.4932L175.156 54.5244C177.234 53.8369 178.719 52.1338 178.719 50.2275V50.0713H175.469V49.0557H183.156V50.0713H179.953V50.2275ZM200.234 48.2588V62.1807H199V48.2588H200.234ZM192.844 49.3369C194.906 49.3525 196.391 51.2275 196.391 54.1807C196.391 57.1338 194.906 59.0088 192.844 59.0088C190.766 59.0088 189.297 57.1338 189.297 54.1807C189.297 51.2275 190.766 49.3525 192.844 49.3369ZM192.844 50.4307C191.453 50.4463 190.484 51.915 190.484 54.1807C190.484 56.4463 191.453 57.915 192.844 57.915C194.234 57.915 195.203 56.4463 195.203 54.1807C195.203 51.915 194.234 50.4463 192.844 50.4307ZM219.297 54.1025V55.0869H206.625V54.1025H219.297ZM217.781 51.9619V52.9619H208.312V48.7432H217.641V49.7275H209.547V51.9619H217.781ZM217.656 56.3369V59.5557H209.406V60.9932H218.078V61.9932H208.188V58.6338H216.453V57.29H208.156V56.3369H217.656ZM224.188 49.3369C226.078 49.3525 227.438 50.9697 227.641 53.5713H230.75V48.2588H231.969V62.1807H230.75V54.5869H227.656C227.508 57.3057 226.125 59.0088 224.188 59.0088C222.141 59.0088 220.703 57.1338 220.703 54.1807C220.703 51.2275 222.141 49.3525 224.188 49.3369ZM224.188 50.4307C222.812 50.4463 221.875 51.915 221.875 54.1807C221.875 56.4463 222.812 57.915 224.188 57.915C225.547 57.915 226.5 56.4463 226.5 54.1807C226.5 51.915 225.547 50.4463 224.188 50.4307ZM245.141 48.2432V51.7432H247.234V52.7588H245.141V56.04H243.922V48.2432H245.141ZM241.359 49.1494C241.359 52.665 238.875 55.2119 234.766 56.3057L234.297 55.3213C237.703 54.3838 239.781 52.5244 240.031 50.165H234.922V49.1494H241.359ZM238.859 57.6025C238.859 58.8447 239.508 60.1572 240.828 60.9307C242.172 60.0869 242.828 58.6729 242.844 57.6025V56.5713H244.047V57.6025C244.047 59.0557 245.078 60.4932 246.875 61.0869L246.25 61.9932C244.867 61.5088 243.906 60.5322 243.438 59.3525C243.008 60.4932 242.172 61.5635 240.859 62.1182C239.492 61.6025 238.656 60.5713 238.25 59.3838C237.758 60.5244 236.805 61.4932 235.5 61.9932L234.875 61.0869C236.609 60.4463 237.703 58.9463 237.703 57.6025V56.5713H238.859V57.6025ZM259.344 52.4775V53.4619H249.828V48.7744H251.047V52.4775H259.344ZM260.812 55.3525V56.3525H248.094V55.3525H260.812ZM259.422 60.79V61.8057H249.75V57.7744H250.969V60.79H259.422ZM266.906 52.5244C266.906 54.8838 268.625 57.2744 270.672 58.165L269.984 59.1338C268.359 58.3916 266.953 56.79 266.312 54.8682C265.656 56.9072 264.258 58.6807 262.672 59.4775L261.938 58.5088C263.922 57.5557 265.656 54.9307 265.672 52.5244V50.7119H262.391V49.6963H270.219V50.7119H266.906V52.5244ZM273.391 48.2588V62.1494H272.156V48.2588H273.391ZM38.7344 71.165C38.7188 74.6494 36.2344 77.1494 32.2344 78.29L31.7188 77.3213C35.0391 76.3838 37.1562 74.54 37.4219 72.1807H32.4375V71.165H38.7344ZM43.0781 70.2744V78.1963H41.8438V74.8838H38.7656V73.8525H41.8438V70.2744H43.0781ZM43.0781 78.79V83.9619H34.0625V78.79H43.0781ZM35.25 79.7744V82.9619H41.8594V79.7744H35.25ZM58.0469 76.4463V77.3994H52.3125V78.6963H56.4219V81.6963H48.1719V83.0557H56.8438V83.9932H46.9531V80.8213H55.2188V79.6182H46.9219V78.6963H51.1094V77.3994H45.4062V76.4463H58.0469ZM52.3125 70.1807V71.4775H56.7656V72.4463H52.4062C52.6328 73.8291 54.8047 74.7041 57.3594 74.8682L56.9844 75.8057C54.6641 75.6104 52.5703 74.8916 51.7188 73.5713C50.8672 74.8916 48.7734 75.6104 46.4375 75.8057L46.0781 74.8682C48.6172 74.7041 50.7891 73.8291 51.0312 72.4463H46.7031V71.4775H51.1094V70.1807H52.3125ZM70.4844 71.165V76.8213H63.9688V71.165H70.4844ZM65.1719 72.165V75.8525H69.2812V72.165H65.1719ZM74.6875 70.2588V78.2432H73.4844V70.2588H74.6875ZM70.9219 80.1494C70.9219 81.5088 73.1406 82.8525 75.5312 83.1494L75.1094 84.1025C73.0156 83.8213 71.1094 82.8369 70.2969 81.54C69.4531 82.8604 67.5 83.8213 65.4062 84.1025L64.9688 83.1494C67.3594 82.8838 69.6562 81.54 69.6562 80.1494H65.5469V79.1963H69.6719V77.8369H70.8906V79.1963H75.0469V80.1494H70.9219ZM92.5469 70.2588V84.1807H91.3281V70.2588H92.5469ZM88.3281 71.5557V76.4932H83.1406V79.7744C85.4453 79.7744 87.5 79.6729 89.9844 79.2744L90.1094 80.3057C87.5469 80.7119 85.4375 80.8057 83.0469 80.8057H81.8906V75.4932H87.0938V72.5713H81.8594V71.5557H88.3281ZM104 70.5713V78.6338H102.812V74.8682H100.688V73.8525H102.812V70.5713H104ZM99.0156 73.2432C99.0156 74.7588 100.031 76.3994 101.797 77.1338L101.156 78.0713C99.8516 77.5244 98.9375 76.4854 98.4688 75.29C97.9766 76.6416 97.0078 77.8057 95.625 78.415L94.9688 77.4463C96.7812 76.6807 97.8281 74.8994 97.8281 73.2432V72.415H95.2344V71.3994H101.469V72.415H99.0156V73.2432ZM106.703 70.2588V78.7588H105.531V70.2588H106.703ZM106.703 79.3682V84.1494H105.5V80.3682H97.3438V79.3682H106.703ZM119.984 77.7744V78.7744H110.375V71.4619H119.828V72.4932H111.625V74.5557H119.531V75.54H111.625V77.7744H119.984ZM121.453 81.3213V82.3369H108.734V81.3213H121.453ZM137.328 70.2588V75.9932H139.656V77.0088H137.328V84.1494H136.109V70.2588H137.328ZM134.766 72.4932V73.5088H126.5V72.4932H130.078V70.4307H131.297V72.4932H134.766ZM130.703 74.665C132.672 74.665 134.094 75.9775 134.109 77.8525C134.094 79.7275 132.672 81.04 130.703 81.04C128.719 81.04 127.281 79.7275 127.297 77.8525C127.281 75.9775 128.719 74.665 130.703 74.665ZM130.703 75.6963C129.406 75.6963 128.453 76.6025 128.469 77.8525C128.453 79.1182 129.406 80.0088 130.703 79.9932C131.984 80.0088 132.922 79.1182 132.938 77.8525C132.922 76.6025 131.984 75.6963 130.703 75.6963ZM151.641 74.4775V75.4619H142.125V70.7744H143.344V74.4775H151.641ZM153.109 77.3525V78.3525H140.391V77.3525H153.109ZM151.719 82.79V83.8057H142.047V79.7744H143.266V82.79H151.719ZM165.188 72.665V73.665H158.219V72.665H161.109V70.6807H162.328V72.665H165.188ZM161.703 74.6025C163.453 74.6025 164.703 75.915 164.719 77.7588C164.703 79.6182 163.453 80.9463 161.703 80.9463C159.969 80.9463 158.719 79.6182 158.719 77.7588C158.719 75.915 159.969 74.6025 161.703 74.6025ZM161.703 75.6338C160.609 75.6494 159.812 76.54 159.812 77.7588C159.812 78.9932 160.609 79.8838 161.703 79.8682C162.812 79.8838 163.625 78.9932 163.625 77.7588C163.625 76.54 162.812 75.6494 161.703 75.6338ZM170.078 70.2588V84.1494H168.906V77.1338H167.062V83.4619H165.906V70.6025H167.062V76.1182H168.906V70.2588H170.078ZM183.797 70.2588V77.7744H182.562V74.1494H180.359V73.165H182.562V70.2588H183.797ZM175.766 78.4463V80.1807H182.578V78.4463H183.797V83.9619H174.547V78.4463H175.766ZM175.766 82.9619H182.578V81.1963H175.766V82.9619ZM175.312 72.2275C175.312 73.2822 175.586 74.9619 176.672 76.0869C177.734 74.9854 178 73.3604 178 72.2275V70.9463H179.156V72.2275C179.156 73.7588 179.766 75.5869 181.375 76.4932L180.672 77.3838C179.609 76.7588 178.953 75.7432 178.609 74.6025C178.297 75.751 177.711 76.8525 176.672 77.5088C175.602 76.8369 175.008 75.6885 174.719 74.5244C174.352 75.6729 173.711 76.751 172.656 77.3838L171.969 76.4932C173.562 75.54 174.141 73.5869 174.156 72.2275V70.9463H175.312V72.2275ZM201.391 70.2744V80.4307H200.172V70.2744H201.391ZM201.828 82.8213V83.8525H192.422V79.3994H193.641V82.8213H201.828ZM193.891 71.2432C195.969 71.2432 197.531 72.6494 197.531 74.6494C197.531 76.6807 195.969 78.0713 193.891 78.0713C191.812 78.0713 190.25 76.6807 190.25 74.6494C190.25 72.6494 191.812 71.2432 193.891 71.2432ZM193.891 72.3213C192.484 72.3213 191.438 73.29 191.453 74.6494C191.438 76.04 192.484 76.9932 193.891 76.9932C195.266 76.9932 196.328 76.04 196.328 74.6494C196.328 73.29 195.266 72.3213 193.891 72.3213ZM216.406 76.8682V77.8838H203.75V76.8682H216.406ZM210.078 79.1025C213.062 79.1025 214.844 80.0244 214.859 81.6182C214.844 83.2275 213.062 84.1182 210.078 84.1182C207.078 84.1182 205.281 83.2275 205.281 81.6182C205.281 80.0244 207.078 79.1025 210.078 79.1025ZM210.078 80.0713C207.844 80.0869 206.516 80.6338 206.531 81.6182C206.516 82.5869 207.844 83.1338 210.078 83.1338C212.281 83.1338 213.625 82.5869 213.625 81.6182C213.625 80.6338 212.281 80.0869 210.078 80.0713ZM215.281 70.9775V71.9932H210.875C210.922 73.5713 213.234 74.7744 215.703 75.0557L215.25 76.04C212.977 75.751 210.844 74.7354 210.078 73.1807C209.32 74.7354 207.195 75.751 204.906 76.04L204.469 75.0557C206.891 74.7744 209.219 73.5713 209.281 71.9932H204.906V70.9775H215.281ZM233.078 70.2588V77.4775H231.844V70.2588H233.078ZM233.078 78.1494V81.4619H225.234V82.9932H233.609V83.9932H224.031V80.54H231.859V79.1338H223.984V78.1494H233.078ZM229.734 71.2119V72.1963H228.328V75.7432C229.047 75.7041 229.758 75.6338 230.422 75.5557L230.484 76.4619C227.703 76.8682 224.438 76.9775 221.984 76.9775L221.828 75.9619L223.609 75.9463V72.1963H222.219V71.2119H229.734ZM224.797 75.915C225.562 75.8994 226.352 75.876 227.141 75.8213V72.1963H224.797V75.915ZM242.391 71.5557C242.391 73.5088 244.953 75.2119 247.453 75.5557L246.953 76.5557C244.797 76.1963 242.664 75.001 241.766 73.29C240.875 75.0088 238.734 76.1963 236.578 76.5557L236.078 75.5557C238.578 75.2119 241.125 73.54 241.125 71.5557V70.7588H242.391V71.5557ZM248.078 78.0869V79.1182H242.328V84.1494H241.125V79.1182H235.422V78.0869H248.078ZM257.969 72.8994C257.969 74.7119 259.328 76.3369 261.375 77.0088L260.797 77.9775C259.195 77.4541 257.984 76.3447 257.391 74.9463C256.789 76.54 255.508 77.7822 253.844 78.3838L253.219 77.3994C255.297 76.6963 256.75 74.8994 256.766 72.8994V72.3057H253.594V71.29H261.094V72.3057H257.969V72.8994ZM264.125 70.2588V73.8057H266.219V74.8369H264.125V78.6494H262.906V70.2588H264.125ZM259.672 79.0244C262.531 79.0244 264.25 79.9619 264.25 81.5557C264.25 83.1807 262.531 84.1182 259.672 84.1182C256.812 84.1182 255.062 83.1807 255.062 81.5557C255.062 79.9619 256.812 79.0244 259.672 79.0244ZM259.672 80.0088C257.578 80.0088 256.281 80.5869 256.297 81.5557C256.281 82.5557 257.578 83.1338 259.672 83.1338C261.781 83.1338 263.062 82.5557 263.062 81.5557C263.062 80.5869 261.781 80.0088 259.672 80.0088ZM278.547 70.2588V84.1494H277.312V70.2588H278.547ZM272.219 74.79C272.219 77.1182 273.844 79.3682 275.938 80.2588L275.25 81.2119C273.648 80.501 272.289 78.9932 271.641 77.1494C271.016 79.1025 269.664 80.7041 268.062 81.4619L267.375 80.5088C269.438 79.5713 271.016 77.2275 271.016 74.79V73.6807H267.75V72.6807H271V70.5244H272.219V72.6807H275.453V73.6807H272.219V74.79ZM292.391 70.2588V77.7119H291.172V70.2588H292.391ZM284.609 78.415V80.1025H291.172V78.415H292.391V83.9619H283.391V78.415H284.609ZM284.609 82.9619H291.172V81.0869H284.609V82.9619ZM284.891 70.9463C287 70.9307 288.531 72.2275 288.531 74.1338C288.531 76.0244 287 77.3213 284.891 77.3213C282.781 77.3213 281.25 76.0244 281.25 74.1338C281.25 72.2275 282.781 70.9307 284.891 70.9463ZM284.891 71.9775C283.469 71.9619 282.438 72.8682 282.453 74.1338C282.438 75.3994 283.469 76.3057 284.891 76.3057C286.297 76.3057 287.328 75.3994 287.328 74.1338C287.328 72.8682 286.297 71.9619 284.891 71.9775ZM306.203 70.2588V84.1494H304.984V70.2588H306.203ZM296.859 71.6338V79.5088C298.977 79.501 301.172 79.3291 303.5 78.8369L303.672 79.8838C301.203 80.3994 299 80.5713 296.781 80.5713H295.656V71.6338H296.859ZM319.328 70.2588V75.7588H321.656V76.79H319.328V84.1807H318.109V70.2588H319.328ZM315.672 71.6182V72.6338H310.406V79.665C312.922 79.665 314.703 79.5479 316.766 79.165L316.922 80.2275C314.75 80.6182 312.922 80.6963 310.281 80.6963H309.188V71.6182H315.672ZM323.875 82.9775C323.328 82.9775 322.859 82.5244 322.875 81.9619C322.859 81.415 323.328 80.9619 323.875 80.9619C324.422 80.9619 324.875 81.415 324.875 81.9619C324.875 82.5244 324.422 82.9775 323.875 82.9775Z" fill="#687481"/>
<path d="M42.8906 169.431V170.571C42.8906 171.681 42.8906 172.915 42.5625 174.54H44.4375V176.149H31.4219V174.54H40.5469C40.8594 173.118 40.8984 172.017 40.9062 171.024H33.0156V169.431H42.8906ZM42.8438 177.649V182.853H32.9688V177.649H42.8438ZM34.9219 179.212V181.259H40.8594V179.212H34.9219ZM58.2188 175.712V177.306H45.25V175.712H50.7344V173.821H52.7031V175.712H58.2188ZM52.7344 169.493C52.7344 171.149 54.3281 172.728 57.5312 173.118L56.7656 174.665C54.3672 174.306 52.6016 173.298 51.7031 171.868C50.7891 173.298 49.0234 174.313 46.625 174.665L45.9219 173.118C49.0625 172.728 50.7031 171.103 50.7031 169.493V169.024H52.7344V169.493ZM56.6406 178.306V183.009H54.6562V179.853H46.6875V178.306H56.6406ZM66.4531 169.618C66.4531 173.337 64.1094 175.915 59.9375 177.071L59.1562 175.524C62.2188 174.696 63.9844 173.134 64.3281 171.212H59.9219V169.618H66.4531ZM71.0625 168.806V176.759H69.0781V173.806H66.5469V172.181H69.0781V168.806H71.0625ZM71.0625 177.321V182.837H61.6406V177.321H71.0625ZM63.5938 178.884V181.274H69.0938V178.884H63.5938ZM85.8438 174.853V176.306H80.375V177.196H84.2969V180.665H76.375V181.446H84.6719V182.915H74.4219V179.321H82.3281V178.618H74.4062V177.196H78.3906V176.306H72.9375V174.853H85.8438ZM80.3594 168.774V169.899H84.625V171.368H80.6094C81 172.196 82.4531 172.876 85.3281 172.993L84.75 174.462C82.1094 174.337 80.2812 173.665 79.375 172.587C78.4766 173.665 76.6406 174.337 73.9844 174.462L73.4375 172.993C76.2891 172.876 77.7344 172.196 78.1406 171.368H74.1562V169.899H78.3906V168.774H80.3594ZM98.6875 168.79V183.009H96.6719V168.79H98.6875ZM94.4219 170.274C94.4219 174.587 92.9062 178.165 87.8281 180.571L86.7812 178.978C90.4531 177.243 92.0703 174.993 92.3906 171.837H87.5469V170.274H94.4219Z" fill="#22272B"/>
<path d="M126.5 171.353V172.353H119.531V171.353H122.422V169.368H123.641V171.353H126.5ZM123.016 173.29C124.766 173.29 126.016 174.603 126.031 176.446C126.016 178.306 124.766 179.634 123.016 179.634C121.281 179.634 120.031 178.306 120.031 176.446C120.031 174.603 121.281 173.29 123.016 173.29ZM123.016 174.321C121.922 174.337 121.125 175.228 121.125 176.446C121.125 177.681 121.922 178.571 123.016 178.556C124.125 178.571 124.938 177.681 124.938 176.446C124.938 175.228 124.125 174.337 123.016 174.321ZM131.391 168.946V182.837H130.219V175.821H128.375V182.149H127.219V169.29H128.375V174.806H130.219V168.946H131.391ZM145.109 168.946V176.462H143.875V172.837H141.672V171.853H143.875V168.946H145.109ZM137.078 177.134V178.868H143.891V177.134H145.109V182.649H135.859V177.134H137.078ZM137.078 181.649H143.891V179.884H137.078V181.649ZM136.625 170.915C136.625 171.97 136.898 173.649 137.984 174.774C139.047 173.673 139.312 172.048 139.312 170.915V169.634H140.469V170.915C140.469 172.446 141.078 174.274 142.688 175.181L141.984 176.071C140.922 175.446 140.266 174.431 139.922 173.29C139.609 174.438 139.023 175.54 137.984 176.196C136.914 175.524 136.32 174.376 136.031 173.212C135.664 174.36 135.023 175.438 133.969 176.071L133.281 175.181C134.875 174.228 135.453 172.274 135.469 170.915V169.634H136.625V170.915ZM162.703 168.962V179.118H161.484V168.962H162.703ZM163.141 181.509V182.54H153.734V178.087H154.953V181.509H163.141ZM155.203 169.931C157.281 169.931 158.844 171.337 158.844 173.337C158.844 175.368 157.281 176.759 155.203 176.759C153.125 176.759 151.562 175.368 151.562 173.337C151.562 171.337 153.125 169.931 155.203 169.931ZM155.203 171.009C153.797 171.009 152.75 171.978 152.766 173.337C152.75 174.728 153.797 175.681 155.203 175.681C156.578 175.681 157.641 174.728 157.641 173.337C157.641 171.978 156.578 171.009 155.203 171.009ZM177.719 175.556V176.571H165.062V175.556H177.719ZM171.391 177.79C174.375 177.79 176.156 178.712 176.172 180.306C176.156 181.915 174.375 182.806 171.391 182.806C168.391 182.806 166.594 181.915 166.594 180.306C166.594 178.712 168.391 177.79 171.391 177.79ZM171.391 178.759C169.156 178.774 167.828 179.321 167.844 180.306C167.828 181.274 169.156 181.821 171.391 181.821C173.594 181.821 174.938 181.274 174.938 180.306C174.938 179.321 173.594 178.774 171.391 178.759ZM176.594 169.665V170.681H172.188C172.234 172.259 174.547 173.462 177.016 173.743L176.562 174.728C174.289 174.438 172.156 173.423 171.391 171.868C170.633 173.423 168.508 174.438 166.219 174.728L165.781 173.743C168.203 173.462 170.531 172.259 170.594 170.681H166.219V169.665H176.594ZM185.219 169.196C188.312 169.196 190.125 170.04 190.125 171.587C190.125 173.165 188.312 174.009 185.219 174.024C182.125 174.009 180.297 173.165 180.297 171.587C180.297 170.04 182.125 169.196 185.219 169.196ZM185.219 170.118C182.906 170.118 181.562 170.681 181.578 171.587C181.562 172.556 182.906 173.087 185.219 173.087C187.516 173.087 188.875 172.556 188.875 171.587C188.875 170.681 187.516 170.118 185.219 170.118ZM191.547 174.962V175.962H178.891V174.962H191.547ZM189.922 177.165V180.274H181.672V181.712H190.344V182.681H180.453V179.368H188.719V178.103H180.422V177.165H189.922ZM207.594 168.946V172.306H209.688V173.337H207.594V177.071H206.375V168.946H207.594ZM198.531 169.743V171.868H202.578V169.743H203.797V176.196H197.328V169.743H198.531ZM198.531 175.212H202.578V172.853H198.531V175.212ZM207.703 177.853V178.837H200.094V181.649H207.969V182.649H198.875V177.853H207.703ZM221.797 173.165V174.149H212.281V169.462H213.5V173.165H221.797ZM223.266 176.04V177.04H210.547V176.04H223.266ZM221.875 181.478V182.493H212.203V178.462H213.422V181.478H221.875ZM241.062 175.946V176.946H235.328V178.54H239.5V182.79H238.266V179.54H229.812V178.54H234.125V176.946H228.406V175.946H241.062ZM235.328 168.884V170.321H239.781V171.306H235.406C235.492 172.884 237.688 173.97 240.312 174.228L239.906 175.165C237.617 174.915 235.57 174.079 234.734 172.665C233.891 174.079 231.844 174.915 229.562 175.165L229.156 174.228C231.766 173.97 233.961 172.884 234.062 171.306H229.719V170.321H234.125V168.884H235.328ZM246.906 171.571C246.891 173.478 248.344 175.243 250.391 175.962L249.766 176.946C248.188 176.376 246.961 175.196 246.344 173.712C245.758 175.376 244.5 176.657 242.859 177.29L242.188 176.306C244.297 175.556 245.688 173.681 245.703 171.524V169.806H246.906V171.571ZM253.094 168.946V173.212H255.188V174.259H253.094V179.212H251.875V168.946H253.094ZM253.734 181.509V182.54H244.422V178.228H245.672V181.509H253.734ZM268.719 174.821V175.821H262.984V177.196H267.094V180.306H258.844V181.712H267.516V182.681H257.625V179.384H265.891V178.149H257.594V177.196H261.766V175.821H256.062V174.821H268.719ZM267.078 169.415V173.649H257.703V169.415H267.078ZM258.922 170.399V172.665H265.859V170.399H258.922ZM277.594 170.493V171.212C277.578 172.306 277.578 174.149 277.188 176.728L275.953 176.618C276.328 174.29 276.359 172.603 276.359 171.493H270.531V170.493H277.594ZM273.953 174.462V178.681C275.492 178.626 277.07 178.524 278.516 178.353L278.578 179.274C275.656 179.728 272.391 179.79 269.906 179.774L269.75 178.759C270.664 178.751 271.68 178.743 272.75 178.712V174.462H273.953ZM280.609 168.946V174.759H282.859V175.821H280.609V182.837H279.391V168.946H280.609ZM292.656 170.962C292.641 172.993 294.109 174.79 296.172 175.509L295.547 176.478C293.938 175.892 292.664 174.688 292.047 173.149C291.43 174.798 290.141 176.095 288.516 176.728L287.875 175.759C289.953 174.993 291.406 173.056 291.406 170.962V169.634H292.656V170.962ZM299.203 178.009V182.837H297.984V179.024H289.859V178.009H299.203ZM299.203 168.946V177.321H297.984V168.946H299.203ZM314.219 175.665V176.681H308.484V178.321H312.672V182.649H303.109V178.321H307.281V176.681H301.562V175.665H314.219ZM313.016 169.399V170.415H310.875V173.337H312.969V174.353H302.797V173.337H304.891V170.415H302.75V169.399H313.016ZM304.328 179.29V181.649H311.469V179.29H304.328ZM306.109 173.337H309.656V170.415H306.109V173.337ZM331.281 168.946V182.837H330.109V168.946H331.281ZM328.469 169.29V182.118H327.312V174.962H324.969V173.962H327.312V169.29H328.469ZM323.484 172.915C323.484 175.321 324.562 177.712 326.484 178.821L325.734 179.728C324.367 178.907 323.398 177.407 322.922 175.634C322.414 177.548 321.406 179.181 320.016 180.056L319.234 179.134C321.172 177.978 322.297 175.446 322.297 172.915V171.603H319.625V170.587H326.031V171.603H323.484V172.915ZM345.953 180.024V181.056H333.234V180.024H338.969V176.649H340.203V180.024H345.953ZM340.203 171.587C340.203 173.806 342.953 175.712 345.344 176.103L344.844 177.071C342.719 176.657 340.477 175.306 339.594 173.368C338.695 175.313 336.461 176.696 334.375 177.134L333.859 176.149C336.203 175.743 338.938 173.806 338.938 171.587V171.243H334.281V170.212H344.859V171.243H340.203V171.587ZM348.531 177.634C347.984 177.634 347.516 177.181 347.531 176.618C347.516 176.071 347.984 175.618 348.531 175.618C349.078 175.618 349.531 176.071 349.531 176.618C349.531 177.181 349.078 177.634 348.531 177.634ZM361.875 168.946V174.603H364.125V175.634H361.875V182.837H360.656V168.946H361.875ZM358.281 170.446C358.281 174.384 356.438 177.962 351.906 180.196L351.219 179.228C354.812 177.438 356.766 174.767 357.047 171.478H351.859V170.446H358.281ZM371.234 177.728C374.219 177.728 376.109 178.665 376.109 180.274C376.109 181.868 374.219 182.806 371.234 182.806C368.266 182.806 366.375 181.868 366.375 180.274C366.375 178.665 368.266 177.728 371.234 177.728ZM371.234 178.665C369.016 178.681 367.578 179.29 367.594 180.274C367.578 181.243 369.016 181.837 371.234 181.837C373.453 181.837 374.875 181.243 374.891 180.274C374.875 179.29 373.453 178.681 371.234 178.665ZM376 169.665V170.837C376 171.962 376 173.087 375.609 174.524L374.406 174.384C374.781 172.946 374.781 171.931 374.781 170.837V170.665H366.469V169.665H376ZM377.609 175.431V176.431H364.969V175.431H370.203V172.743H371.406V175.431H377.609ZM386.625 169.603C388.492 169.587 389.906 170.673 390.172 172.274H393.078V168.946H394.312V176.399H393.078V173.29H390.188C389.938 174.931 388.508 176.024 386.625 176.024C384.516 176.024 383.016 174.712 383.016 172.806C383.016 170.915 384.516 169.587 386.625 169.603ZM386.625 170.649C385.203 170.634 384.188 171.524 384.188 172.806C384.188 174.071 385.203 174.993 386.625 174.993C388.031 174.993 389.031 174.071 389.031 172.806C389.031 171.524 388.031 170.634 386.625 170.649ZM386.594 177.103V178.868H393.078V177.103H394.312V182.649H385.359V177.103H386.594ZM386.594 181.649H393.078V179.853H386.594V181.649ZM400.688 173.228C400.688 175.462 401.828 177.743 403.719 178.759L403.016 179.681C401.633 178.931 400.633 177.493 400.125 175.821C399.625 177.603 398.633 179.149 397.25 179.993L396.516 179.056C398.406 177.962 399.516 175.524 399.531 173.228V172.54H396.891V171.524H399.531V169.462H400.703V171.524H403.297V172.54H400.688V173.228ZM408.5 168.946V182.837H407.328V168.946H408.5ZM405.688 169.29V182.118H404.531V175.478H402.344V174.431H404.531V169.29H405.688Z" fill="#687481"/>
<path d="M42.7031 198.79V201.54H44.625V203.181H42.7031V205.899H40.7031V198.79H42.7031ZM42.7031 206.462V210.337H35.25V211.29H43.1094V212.853H33.2969V208.899H40.7188V207.993H33.2656V206.462H42.7031ZM35.3438 199.212C37.5312 199.228 39.1562 200.54 39.1562 202.431C39.1562 204.306 37.5312 205.649 35.3438 205.649C33.1562 205.649 31.5156 204.306 31.5156 202.431C31.5156 200.54 33.1562 199.228 35.3438 199.212ZM35.3438 200.837C34.25 200.837 33.4531 201.431 33.4688 202.431C33.4531 203.446 34.25 204.071 35.3438 204.071C36.4375 204.071 37.2188 203.446 37.2188 202.431C37.2188 201.431 36.4375 200.837 35.3438 200.837ZM56.75 199.228V203.462H48.7969V204.649H57.0781V206.243H46.7812V201.962H54.7031V200.837H46.7344V199.228H56.75ZM58.25 207.306V208.899H52.7188V213.04H50.7188V208.899H45.2344V207.306H58.25ZM66.5625 200.665C66.5625 202.743 68.4062 204.978 71.625 205.524L70.75 207.181C68.2734 206.688 66.4297 205.298 65.5156 203.462C64.5703 205.282 62.7266 206.681 60.2656 207.181L59.4062 205.524C62.5625 204.962 64.4219 202.728 64.4375 200.665V199.634H66.5625V200.665ZM72.0938 209.618V211.259H59.0781V209.618H72.0938ZM85.125 198.806V209.493H83.2344V204.571H81.9531V209.071H80.0781V199.056H81.9531V202.946H83.2344V198.806H85.125ZM85.5156 211.165V212.759H75.4219V208.228H77.4219V211.165H85.5156ZM79.1875 199.978C79.1875 203.696 77.75 206.353 73.7812 208.04L72.8281 206.634C74.4688 205.946 75.5781 205.126 76.2812 204.134L73.2188 204.478L72.9844 202.868L77 202.665C77.1094 202.321 77.1797 201.954 77.2344 201.571H73.5781V199.978H79.1875Z" fill="#22272B"/>
<path d="M131.438 198.946V212.837H130.266V198.946H131.438ZM128.625 199.29V212.118H127.469V204.962H125.125V203.962H127.469V199.29H128.625ZM123.641 202.915C123.641 205.321 124.719 207.712 126.641 208.821L125.891 209.728C124.523 208.907 123.555 207.407 123.078 205.634C122.57 207.548 121.562 209.181 120.172 210.056L119.391 209.134C121.328 207.978 122.453 205.446 122.453 202.915V201.603H119.781V200.587H126.188V201.603H123.641V202.915ZM146.047 205.665V206.681H140.312V208.321H144.5V212.649H134.938V208.321H139.109V206.681H133.391V205.665H146.047ZM144.844 199.399V200.415H142.703V203.337H144.797V204.353H134.625V203.337H136.719V200.415H134.578V199.399H144.844ZM136.156 209.29V211.649H143.297V209.29H136.156ZM137.938 203.337H141.484V200.415H137.938V203.337ZM163.953 210.071V211.118H151.234V210.071H156.938V206.868H152.391V205.884H154.562V201.321H152.359V200.306H162.734V201.321H160.531V205.884H162.703V206.868H158.141V210.071H163.953ZM155.781 205.884H159.328V201.321H155.781V205.884ZM169.766 201.587C169.766 203.399 171.125 205.024 173.172 205.696L172.594 206.665C170.992 206.142 169.781 205.032 169.188 203.634C168.586 205.228 167.305 206.47 165.641 207.071L165.016 206.087C167.094 205.384 168.547 203.587 168.562 201.587V200.993H165.391V199.978H172.891V200.993H169.766V201.587ZM175.922 198.946V202.493H178.016V203.524H175.922V207.337H174.703V198.946H175.922ZM171.469 207.712C174.328 207.712 176.047 208.649 176.047 210.243C176.047 211.868 174.328 212.806 171.469 212.806C168.609 212.806 166.859 211.868 166.859 210.243C166.859 208.649 168.609 207.712 171.469 207.712ZM171.469 208.696C169.375 208.696 168.078 209.274 168.094 210.243C168.078 211.243 169.375 211.821 171.469 211.821C173.578 211.821 174.859 211.243 174.859 210.243C174.859 209.274 173.578 208.696 171.469 208.696ZM187.844 202.681C187.828 205.212 189.562 207.774 191.609 208.696L190.859 209.665C189.281 208.892 187.914 207.259 187.25 205.274C186.602 207.376 185.234 209.126 183.609 209.946L182.828 208.915C184.891 207.962 186.609 205.321 186.625 202.681V200.149H187.844V202.681ZM194.359 198.946V212.868H193.125V198.946H194.359ZM211.609 198.946V201.962H213.703V202.993H211.609V206.024H210.391V198.946H211.609ZM211.609 206.681V210.071H203.984V211.665H212.125V212.649H202.781V209.134H210.391V207.665H202.75V206.681H211.609ZM204.625 199.462C206.719 199.478 208.234 200.728 208.234 202.54C208.234 204.368 206.719 205.634 204.625 205.634C202.547 205.634 201 204.368 201.016 202.54C201 200.728 202.547 199.478 204.625 199.462ZM204.625 200.493C203.234 200.478 202.203 201.337 202.219 202.54C202.203 203.759 203.234 204.634 204.625 204.634C206.016 204.634 207.031 203.759 207.031 202.54C207.031 201.337 206.016 200.478 204.625 200.493ZM225.734 199.509V203.118H217.359V204.915H226.031V205.931H216.125V202.149H224.484V200.509H216.094V199.509H225.734ZM227.281 207.399V208.384H221.5V212.868H220.281V208.384H214.562V207.399H227.281ZM235.641 200.321V209.353H229.219V200.321H235.641ZM230.422 201.306V208.353H234.438V201.306H230.422ZM239.859 198.946V212.868H238.625V198.946H239.859ZM253.453 202.603V203.603H243.969V199.29H245.188V202.603H253.453ZM254.906 205.118V206.103H251.469V207.978H253.359V212.649H243.812V207.978H245.672V206.103H242.234V205.118H254.906ZM245.016 208.962V211.649H252.156V208.962H245.016ZM246.875 207.978H250.266V206.103H246.875V207.978ZM262.391 199.196C265.484 199.196 267.297 200.04 267.297 201.587C267.297 203.165 265.484 204.009 262.391 204.024C259.297 204.009 257.469 203.165 257.469 201.587C257.469 200.04 259.297 199.196 262.391 199.196ZM262.391 200.118C260.078 200.118 258.734 200.681 258.75 201.587C258.734 202.556 260.078 203.087 262.391 203.087C264.688 203.087 266.047 202.556 266.047 201.587C266.047 200.681 264.688 200.118 262.391 200.118ZM268.719 204.962V205.962H256.062V204.962H268.719ZM267.094 207.165V210.274H258.844V211.712H267.516V212.681H257.625V209.368H265.891V208.103H257.594V207.165H267.094ZM278.562 202.681C278.562 205.134 280.188 207.649 282.156 208.618L281.406 209.603C279.875 208.798 278.594 207.157 277.984 205.228C277.359 207.282 276.047 209.032 274.484 209.868L273.703 208.884C275.734 207.884 277.344 205.212 277.359 202.681V200.149H278.562V202.681ZM284.656 198.946V204.587H286.984V205.649H284.656V212.837H283.438V198.946H284.656ZM300.391 205.821V206.837H287.734V205.821H290.875V203.868C289.766 203.438 289.141 202.728 289.141 201.79C289.141 200.149 291.016 199.212 294.062 199.212C297.078 199.212 298.969 200.149 298.969 201.79C298.969 202.72 298.352 203.431 297.25 203.853V205.821H300.391ZM294.062 207.899C297.047 207.899 298.828 208.759 298.844 210.353C298.828 211.931 297.047 212.806 294.062 212.806C291.047 212.806 289.266 211.931 289.266 210.353C289.266 208.759 291.047 207.899 294.062 207.899ZM294.062 208.837C291.828 208.853 290.5 209.399 290.516 210.353C290.5 211.29 291.828 211.853 294.062 211.853C296.266 211.853 297.609 211.29 297.609 210.353C297.609 209.399 296.266 208.853 294.062 208.837ZM294.062 200.181C291.797 200.181 290.391 200.79 290.406 201.79C290.391 202.806 291.797 203.399 294.062 203.399C296.312 203.399 297.719 202.806 297.719 201.79C297.719 200.79 296.312 200.181 294.062 200.181ZM292.094 205.821H296.031V204.196C295.445 204.298 294.789 204.353 294.062 204.353C293.336 204.353 292.68 204.298 292.094 204.196V205.821ZM312.312 198.946V204.681H314.641V205.696H312.312V212.837H311.094V198.946H312.312ZM309.75 201.181V202.196H301.484V201.181H305.062V199.118H306.281V201.181H309.75ZM305.688 203.353C307.656 203.353 309.078 204.665 309.094 206.54C309.078 208.415 307.656 209.728 305.688 209.728C303.703 209.728 302.266 208.415 302.281 206.54C302.266 204.665 303.703 203.353 305.688 203.353ZM305.688 204.384C304.391 204.384 303.438 205.29 303.453 206.54C303.438 207.806 304.391 208.696 305.688 208.681C306.969 208.696 307.906 207.806 307.922 206.54C307.906 205.29 306.969 204.384 305.688 204.384ZM326.625 203.165V204.149H317.109V199.462H318.328V203.165H326.625ZM328.094 206.04V207.04H315.375V206.04H328.094ZM326.703 211.478V212.493H317.031V208.462H318.25V211.478H326.703ZM345.109 198.946V212.837H343.938V198.946H345.109ZM342.297 199.29V212.118H341.141V204.962H338.797V203.962H341.141V199.29H342.297ZM337.312 202.915C337.312 205.321 338.391 207.712 340.312 208.821L339.562 209.728C338.195 208.907 337.227 207.407 336.75 205.634C336.242 207.548 335.234 209.181 333.844 210.056L333.062 209.134C335 207.978 336.125 205.446 336.125 202.915V201.603H333.453V200.587H339.859V201.603H337.312V202.915ZM359.781 210.024V211.056H347.062V210.024H352.797V206.649H354.031V210.024H359.781ZM354.031 201.587C354.031 203.806 356.781 205.712 359.172 206.103L358.672 207.071C356.547 206.657 354.305 205.306 353.422 203.368C352.523 205.313 350.289 206.696 348.203 207.134L347.688 206.149C350.031 205.743 352.766 203.806 352.766 201.587V201.243H348.109V200.212H358.688V201.243H354.031V201.587ZM362.359 207.634C361.812 207.634 361.344 207.181 361.359 206.618C361.344 206.071 361.812 205.618 362.359 205.618C362.906 205.618 363.359 206.071 363.359 206.618C363.359 207.181 362.906 207.634 362.359 207.634ZM375.703 198.946V204.603H377.953V205.634H375.703V212.837H374.484V198.946H375.703ZM372.109 200.446C372.109 204.384 370.266 207.962 365.734 210.196L365.047 209.228C368.641 207.438 370.594 204.767 370.875 201.478H365.688V200.446H372.109ZM385.062 207.728C388.047 207.728 389.938 208.665 389.938 210.274C389.938 211.868 388.047 212.806 385.062 212.806C382.094 212.806 380.203 211.868 380.203 210.274C380.203 208.665 382.094 207.728 385.062 207.728ZM385.062 208.665C382.844 208.681 381.406 209.29 381.422 210.274C381.406 211.243 382.844 211.837 385.062 211.837C387.281 211.837 388.703 211.243 388.719 210.274C388.703 209.29 387.281 208.681 385.062 208.665ZM389.828 199.665V200.837C389.828 201.962 389.828 203.087 389.438 204.524L388.234 204.384C388.609 202.946 388.609 201.931 388.609 200.837V200.665H380.297V199.665H389.828ZM391.438 205.431V206.431H378.797V205.431H384.031V202.743H385.234V205.431H391.438ZM400.453 199.603C402.32 199.587 403.734 200.673 404 202.274H406.906V198.946H408.141V206.399H406.906V203.29H404.016C403.766 204.931 402.336 206.024 400.453 206.024C398.344 206.024 396.844 204.712 396.844 202.806C396.844 200.915 398.344 199.587 400.453 199.603ZM400.453 200.649C399.031 200.634 398.016 201.524 398.016 202.806C398.016 204.071 399.031 204.993 400.453 204.993C401.859 204.993 402.859 204.071 402.859 202.806C402.859 201.524 401.859 200.634 400.453 200.649ZM400.422 207.103V208.868H406.906V207.103H408.141V212.649H399.188V207.103H400.422ZM400.422 211.649H406.906V209.853H400.422V211.649ZM414.516 203.228C414.516 205.462 415.656 207.743 417.547 208.759L416.844 209.681C415.461 208.931 414.461 207.493 413.953 205.821C413.453 207.603 412.461 209.149 411.078 209.993L410.344 209.056C412.234 207.962 413.344 205.524 413.359 203.228V202.54H410.719V201.524H413.359V199.462H414.531V201.524H417.125V202.54H414.516V203.228ZM422.328 198.946V212.837H421.156V198.946H422.328ZM419.516 199.29V212.118H418.359V205.478H416.172V204.431H418.359V199.29H419.516Z" fill="#687481"/>
<path d="M42.9375 229.134V230.321C42.9219 231.524 42.9219 232.931 42.5938 234.743L40.5938 234.649C40.6953 234.071 40.7734 233.548 40.8281 233.056L32.7656 233.415L32.5156 231.79L40.9219 231.618C40.9219 231.306 40.9297 231.001 40.9375 230.712H32.9062V229.134H42.9375ZM44.3594 235.384V236.962H31.4531V235.384H36.2812V233.853H38.2812V235.384H44.3594ZM42.8125 237.946V242.853H32.9375V237.946H42.8125ZM34.8906 239.493V241.259H40.8438V239.493H34.8906ZM57.1562 228.79V243.04H55.1406V228.79H57.1562ZM47.9531 229.915V233.384H51.0156V229.915H52.9844V239.712H45.9531V229.915H47.9531ZM47.9531 238.103H51.0156V234.931H47.9531V238.103ZM66.4531 229.618C66.4531 233.337 64.1094 235.915 59.9375 237.071L59.1562 235.524C62.2188 234.696 63.9844 233.134 64.3281 231.212H59.9219V229.618H66.4531ZM71.0625 228.806V236.759H69.0781V233.806H66.5469V232.181H69.0781V228.806H71.0625ZM71.0625 237.321V242.837H61.6406V237.321H71.0625ZM63.5938 238.884V241.274H69.0938V238.884H63.5938ZM85.8438 234.853V236.306H80.375V237.196H84.2969V240.665H76.375V241.446H84.6719V242.915H74.4219V239.321H82.3281V238.618H74.4062V237.196H78.3906V236.306H72.9375V234.853H85.8438ZM80.3594 228.774V229.899H84.625V231.368H80.6094C81 232.196 82.4531 232.876 85.3281 232.993L84.75 234.462C82.1094 234.337 80.2812 233.665 79.375 232.587C78.4766 233.665 76.6406 234.337 73.9844 234.462L73.4375 232.993C76.2891 232.876 77.7344 232.196 78.1406 231.368H74.1562V229.899H78.3906V228.774H80.3594ZM98.6875 228.79V243.009H96.6719V228.79H98.6875ZM94.4219 230.274C94.4219 234.587 92.9062 238.165 87.8281 240.571L86.7812 238.978C90.4531 237.243 92.0703 234.993 92.3906 231.837H87.5469V230.274H94.4219Z" fill="#22272B"/>
<path d="M130.609 229.696V230.728C130.609 231.806 130.609 233.071 130.25 234.806H132.281V235.821H119.562V234.806H129.016C129.391 233.063 129.391 231.806 129.391 230.728V230.712H121.172V229.696H130.609ZM130.672 237.743V242.649H121.125V237.743H130.672ZM122.344 238.712V241.649H129.453V238.712H122.344ZM146.094 235.931V236.946H133.391V235.931H139.109V233.79H140.312V235.931H146.094ZM140.328 229.821C140.328 231.665 142.828 233.212 145.281 233.556L144.781 234.54C142.672 234.173 140.586 233.056 139.719 231.446C138.844 233.063 136.75 234.173 134.625 234.54L134.156 233.556C136.609 233.212 139.094 231.665 139.094 229.821V229.165H140.328V229.821ZM144.484 238.306V242.837H143.25V239.29H134.797V238.306H144.484ZM158.406 229.853C158.391 233.337 155.906 235.837 151.906 236.978L151.391 236.009C154.711 235.071 156.828 233.228 157.094 230.868H152.109V229.853H158.406ZM162.75 228.962V236.884H161.516V233.571H158.438V232.54H161.516V228.962H162.75ZM162.75 237.478V242.649H153.734V237.478H162.75ZM154.922 238.462V241.649H161.531V238.462H154.922ZM177.719 235.134V236.087H171.984V237.384H176.094V240.384H167.844V241.743H176.516V242.681H166.625V239.509H174.891V238.306H166.594V237.384H170.781V236.087H165.078V235.134H177.719ZM171.984 228.868V230.165H176.438V231.134H172.078C172.305 232.517 174.477 233.392 177.031 233.556L176.656 234.493C174.336 234.298 172.242 233.579 171.391 232.259C170.539 233.579 168.445 234.298 166.109 234.493L165.75 233.556C168.289 233.392 170.461 232.517 170.703 231.134H166.375V230.165H170.781V228.868H171.984ZM186.594 230.493V231.212C186.578 232.306 186.578 234.149 186.188 236.728L184.953 236.618C185.328 234.29 185.359 232.603 185.359 231.493H179.531V230.493H186.594ZM182.953 234.462V238.681C184.492 238.626 186.07 238.524 187.516 238.353L187.578 239.274C184.656 239.728 181.391 239.79 178.906 239.774L178.75 238.759C179.664 238.751 180.68 238.743 181.75 238.712V234.462H182.953ZM189.609 228.946V234.759H191.859V235.821H189.609V242.837H188.391V228.946H189.609ZM209.391 235.446V236.462H203.656V237.946C206.281 238.056 207.828 238.915 207.844 240.384C207.828 241.931 206.047 242.806 203.062 242.806C200.047 242.806 198.266 241.931 198.266 240.384C198.266 238.915 199.805 238.056 202.453 237.946V236.462H196.734V235.446H209.391ZM203.062 238.884C200.828 238.899 199.5 239.446 199.516 240.384C199.5 241.306 200.828 241.853 203.062 241.853C205.266 241.853 206.609 241.306 206.609 240.384C206.609 239.446 205.266 238.899 203.062 238.884ZM208.266 229.603V230.603H203.859C203.938 232.165 206.234 233.376 208.688 233.634L208.234 234.603C205.961 234.329 203.828 233.313 203.062 231.759C202.305 233.313 200.18 234.329 197.891 234.603L197.453 233.634C199.859 233.376 202.172 232.165 202.266 230.603H197.891V229.603H208.266ZM223.531 231.134V232.165H221.422V234.056H223.531V235.103H221.422V237.368H220.203V228.962H221.422V231.134H223.531ZM217.453 229.821V233.571H212.391V235.509C214.859 235.509 216.648 235.423 218.812 235.056L218.938 236.087C216.703 236.462 214.844 236.54 212.266 236.54H211.188V232.603H216.25V230.837H211.156V229.821H217.453ZM216.969 237.774C219.797 237.774 221.547 238.712 221.547 240.306C221.547 241.899 219.797 242.806 216.969 242.806C214.094 242.806 212.359 241.899 212.359 240.306C212.359 238.712 214.094 237.774 216.969 237.774ZM216.969 238.743C214.844 238.743 213.547 239.321 213.562 240.306C213.547 241.274 214.844 241.853 216.969 241.853C219.078 241.853 220.359 241.274 220.359 240.306C220.359 239.321 219.078 238.743 216.969 238.743ZM233.156 231.571C233.156 233.509 234.562 235.337 236.594 236.071L235.906 237.024C234.383 236.415 233.172 235.204 232.578 233.696C231.984 235.376 230.719 236.712 229.078 237.368L228.422 236.368C230.5 235.603 231.938 233.665 231.953 231.524V229.806H233.156V231.571ZM239.922 228.962V239.368H238.688V233.259H235.594V232.228H238.688V228.962H239.922ZM240.234 241.509V242.54H230.938V238.181H232.172V241.509H240.234ZM253.734 228.946V236.212H252.516V234.431H249.234V235.649H242.938V229.603H244.156V231.603H248.031V229.603H249.234V230.946H252.516V228.946H253.734ZM253.734 236.884V240.149H245.984V241.665H254.266V242.649H244.766V239.212H252.516V237.868H244.734V236.884H253.734ZM244.156 234.649H248.031V232.571H244.156V234.649ZM249.234 233.462H252.516V231.899H249.234V233.462ZM262.391 229.196C265.484 229.196 267.297 230.04 267.297 231.587C267.297 233.165 265.484 234.009 262.391 234.024C259.297 234.009 257.469 233.165 257.469 231.587C257.469 230.04 259.297 229.196 262.391 229.196ZM262.391 230.118C260.078 230.118 258.734 230.681 258.75 231.587C258.734 232.556 260.078 233.087 262.391 233.087C264.688 233.087 266.047 232.556 266.047 231.587C266.047 230.681 264.688 230.118 262.391 230.118ZM268.719 234.962V235.962H256.062V234.962H268.719ZM267.094 237.165V240.274H258.844V241.712H267.516V242.681H257.625V239.368H265.891V238.103H257.594V237.165H267.094ZM286.578 235.821V236.806H273.906V235.821H279.641V234.196H275.516V229.603H285V230.587H276.719V233.196H285.094V234.196H280.828V235.821H286.578ZM280.234 237.821C283.219 237.821 285 238.728 285.016 240.321C285 241.931 283.219 242.821 280.234 242.837C277.234 242.821 275.438 241.931 275.438 240.321C275.438 238.728 277.234 237.821 280.234 237.821ZM280.234 238.79C278 238.79 276.672 239.368 276.688 240.321C276.672 241.29 278 241.853 280.234 241.853C282.438 241.853 283.781 241.29 283.781 240.321C283.781 239.368 282.438 238.79 280.234 238.79ZM292.672 232.681C292.656 235.212 294.391 237.774 296.438 238.696L295.688 239.665C294.109 238.892 292.742 237.259 292.078 235.274C291.43 237.376 290.062 239.126 288.438 239.946L287.656 238.915C289.719 237.962 291.438 235.321 291.453 232.681V230.149H292.672V232.681ZM299.188 228.946V242.868H297.953V228.946H299.188ZM313.469 228.946V242.837H312.281V228.946H313.469ZM310.672 229.243V242.134H309.5V235.384H307.719C307.586 238.087 306.438 239.774 304.719 239.774C302.906 239.774 301.734 237.899 301.734 234.946C301.734 231.993 302.906 230.118 304.719 230.118C306.406 230.118 307.547 231.751 307.703 234.368H309.5V229.243H310.672ZM304.719 231.274C303.594 231.274 302.875 232.681 302.891 234.946C302.875 237.196 303.594 238.618 304.719 238.603C305.844 238.618 306.562 237.196 306.562 234.946C306.562 232.681 305.844 231.274 304.719 231.274ZM326.578 229.853C326.562 233.337 324.078 235.837 320.078 236.978L319.562 236.009C322.883 235.071 325 233.228 325.266 230.868H320.281V229.853H326.578ZM330.922 228.962V236.884H329.688V233.571H326.609V232.54H329.688V228.962H330.922ZM330.922 237.478V242.649H321.906V237.478H330.922ZM323.094 238.462V241.649H329.703V238.462H323.094ZM337.891 232.681C337.891 235.134 339.516 237.649 341.484 238.618L340.734 239.603C339.203 238.798 337.922 237.157 337.312 235.228C336.688 237.282 335.375 239.032 333.812 239.868L333.031 238.884C335.062 237.884 336.672 235.212 336.688 232.681V230.149H337.891V232.681ZM343.984 228.946V234.587H346.312V235.649H343.984V242.837H342.766V228.946H343.984ZM357.812 228.946V234.681H360.141V235.696H357.812V242.837H356.594V228.946H357.812ZM355.25 231.181V232.196H346.984V231.181H350.562V229.118H351.781V231.181H355.25ZM351.188 233.353C353.156 233.353 354.578 234.665 354.594 236.54C354.578 238.415 353.156 239.728 351.188 239.728C349.203 239.728 347.766 238.415 347.781 236.54C347.766 234.665 349.203 233.353 351.188 233.353ZM351.188 234.384C349.891 234.384 348.938 235.29 348.953 236.54C348.938 237.806 349.891 238.696 351.188 238.681C352.469 238.696 353.406 237.806 353.422 236.54C353.406 235.29 352.469 234.384 351.188 234.384ZM372.391 228.946V242.868H371.172V236.946H368.281V235.915H371.172V233.149H368.391V232.118H371.172V228.946H372.391ZM367.484 230.212V235.149H362.641V238.571C364.727 238.563 366.453 238.485 368.562 238.165L368.672 239.196C366.453 239.54 364.672 239.618 362.453 239.618H361.422V234.149H366.281V231.228H361.375V230.212H367.484ZM385.953 233.165V234.149H376.438V229.462H377.656V233.165H385.953ZM387.422 236.04V237.04H374.703V236.04H387.422ZM386.031 241.478V242.493H376.359V238.462H377.578V241.478H386.031ZM404.438 228.946V242.837H403.266V228.946H404.438ZM401.625 229.29V242.118H400.469V234.962H398.125V233.962H400.469V229.29H401.625ZM396.641 232.915C396.641 235.321 397.719 237.712 399.641 238.821L398.891 239.728C397.523 238.907 396.555 237.407 396.078 235.634C395.57 237.548 394.562 239.181 393.172 240.056L392.391 239.134C394.328 237.978 395.453 235.446 395.453 232.915V231.603H392.781V230.587H399.188V231.603H396.641V232.915ZM419.109 240.024V241.056H406.391V240.024H412.125V236.649H413.359V240.024H419.109ZM413.359 231.587C413.359 233.806 416.109 235.712 418.5 236.103L418 237.071C415.875 236.657 413.633 235.306 412.75 233.368C411.852 235.313 409.617 236.696 407.531 237.134L407.016 236.149C409.359 235.743 412.094 233.806 412.094 231.587V231.243H407.438V230.212H418.016V231.243H413.359V231.587ZM421.688 237.634C421.141 237.634 420.672 237.181 420.688 236.618C420.672 236.071 421.141 235.618 421.688 235.618C422.234 235.618 422.688 236.071 422.688 236.618C422.688 237.181 422.234 237.634 421.688 237.634ZM435.031 228.946V234.603H437.281V235.634H435.031V242.837H433.812V228.946H435.031ZM431.438 230.446C431.438 234.384 429.594 237.962 425.062 240.196L424.375 239.228C427.969 237.438 429.922 234.767 430.203 231.478H425.016V230.446H431.438ZM444.391 237.728C447.375 237.728 449.266 238.665 449.266 240.274C449.266 241.868 447.375 242.806 444.391 242.806C441.422 242.806 439.531 241.868 439.531 240.274C439.531 238.665 441.422 237.728 444.391 237.728ZM444.391 238.665C442.172 238.681 440.734 239.29 440.75 240.274C440.734 241.243 442.172 241.837 444.391 241.837C446.609 241.837 448.031 241.243 448.047 240.274C448.031 239.29 446.609 238.681 444.391 238.665ZM449.156 229.665V230.837C449.156 231.962 449.156 233.087 448.766 234.524L447.562 234.384C447.938 232.946 447.938 231.931 447.938 230.837V230.665H439.625V229.665H449.156ZM450.766 235.431V236.431H438.125V235.431H443.359V232.743H444.562V235.431H450.766ZM459.781 229.603C461.648 229.587 463.062 230.673 463.328 232.274H466.234V228.946H467.469V236.399H466.234V233.29H463.344C463.094 234.931 461.664 236.024 459.781 236.024C457.672 236.024 456.172 234.712 456.172 232.806C456.172 230.915 457.672 229.587 459.781 229.603ZM459.781 230.649C458.359 230.634 457.344 231.524 457.344 232.806C457.344 234.071 458.359 234.993 459.781 234.993C461.188 234.993 462.188 234.071 462.188 232.806C462.188 231.524 461.188 230.634 459.781 230.649ZM459.75 237.103V238.868H466.234V237.103H467.469V242.649H458.516V237.103H459.75ZM459.75 241.649H466.234V239.853H459.75V241.649ZM473.844 233.228C473.844 235.462 474.984 237.743 476.875 238.759L476.172 239.681C474.789 238.931 473.789 237.493 473.281 235.821C472.781 237.603 471.789 239.149 470.406 239.993L469.672 239.056C471.562 237.962 472.672 235.524 472.688 233.228V232.54H470.047V231.524H472.688V229.462H473.859V231.524H476.453V232.54H473.844V233.228ZM481.656 228.946V242.837H480.484V228.946H481.656ZM478.844 229.29V242.118H477.688V235.478H475.5V234.431H477.688V229.29H478.844Z" fill="#687481"/>
<path d="M35.25 270.946V268.024H32.3281V266.071H35.25V263.149H37.2031V266.071H40.125V268.024H37.2031V270.946H35.25Z" fill="#22272B"/>
<path d="M62.5156 260.431V261.821C62.5156 263.571 62.5156 265.556 62 268.571L60.75 268.446C61.3125 265.603 61.3125 263.524 61.3125 261.821V261.446H52.9375V260.431H62.5156ZM64.2188 269.774V270.79H51.5625V269.774H64.2188ZM73.9531 259.853C76.1406 259.868 77.6875 261.181 77.6875 263.118C77.6875 264.868 76.4219 266.11 74.5625 266.321V268.696C75.9375 268.626 77.3359 268.509 78.6562 268.306L78.75 269.212C75.5781 269.806 72.1562 269.821 69.6562 269.821L69.4844 268.79C70.6172 268.79 71.9375 268.79 73.3281 268.743V266.321C71.4688 266.103 70.1875 264.868 70.2031 263.118C70.1875 261.181 71.7656 259.868 73.9531 259.853ZM73.9531 260.931C72.4688 260.931 71.3906 261.821 71.4062 263.118C71.3906 264.415 72.4688 265.321 73.9531 265.306C75.4219 265.321 76.4844 264.415 76.4844 263.118C76.4844 261.821 75.4219 260.931 73.9531 260.931ZM80.7969 258.946V272.868H79.5781V258.946H80.7969ZM98.2969 259.696V260.728C98.2969 261.806 98.2969 263.071 97.9375 264.806H99.9688V265.821H87.25V264.806H96.7031C97.0781 263.063 97.0781 261.806 97.0781 260.728V260.712H88.8594V259.696H98.2969ZM98.3594 267.743V272.649H88.8125V267.743H98.3594ZM90.0312 268.712V271.649H97.1406V268.712H90.0312ZM113.781 265.931V266.946H101.078V265.931H106.797V263.79H108V265.931H113.781ZM108.016 259.821C108.016 261.665 110.516 263.212 112.969 263.556L112.469 264.54C110.359 264.173 108.273 263.056 107.406 261.446C106.531 263.063 104.438 264.173 102.312 264.54L101.844 263.556C104.297 263.212 106.781 261.665 106.781 259.821V259.165H108.016V259.821ZM112.172 268.306V272.837H110.938V269.29H102.484V268.306H112.172ZM126.094 259.853C126.078 263.337 123.594 265.837 119.594 266.978L119.078 266.009C122.398 265.071 124.516 263.228 124.781 260.868H119.797V259.853H126.094ZM130.438 258.962V266.884H129.203V263.571H126.125V262.54H129.203V258.962H130.438ZM130.438 267.478V272.649H121.422V267.478H130.438ZM122.609 268.462V271.649H129.219V268.462H122.609ZM145.406 265.134V266.087H139.672V267.384H143.781V270.384H135.531V271.743H144.203V272.681H134.312V269.509H142.578V268.306H134.281V267.384H138.469V266.087H132.766V265.134H145.406ZM139.672 258.868V260.165H144.125V261.134H139.766C139.992 262.517 142.164 263.392 144.719 263.556L144.344 264.493C142.023 264.298 139.93 263.579 139.078 262.259C138.227 263.579 136.133 264.298 133.797 264.493L133.438 263.556C135.977 263.392 138.148 262.517 138.391 261.134H134.062V260.165H138.469V258.868H139.672ZM158.031 258.946V272.868H156.797V258.946H158.031ZM150.641 260.024C152.703 260.04 154.188 261.915 154.188 264.868C154.188 267.821 152.703 269.696 150.641 269.696C148.562 269.696 147.094 267.821 147.094 264.868C147.094 261.915 148.562 260.04 150.641 260.024ZM150.641 261.118C149.25 261.134 148.281 262.603 148.281 264.868C148.281 267.134 149.25 268.603 150.641 268.603C152.031 268.603 153 267.134 153 264.868C153 262.603 152.031 261.134 150.641 261.118ZM175.906 258.946V266.165H174.672V258.946H175.906ZM175.906 266.837V270.149H168.062V271.681H176.438V272.681H166.859V269.228H174.688V267.821H166.812V266.837H175.906ZM172.562 259.899V260.884H171.156V264.431C171.875 264.392 172.586 264.321 173.25 264.243L173.312 265.149C170.531 265.556 167.266 265.665 164.812 265.665L164.656 264.649L166.438 264.634V260.884H165.047V259.899H172.562ZM167.625 264.603C168.391 264.587 169.18 264.563 169.969 264.509V260.884H167.625V264.603ZM190.969 270.024V271.056H178.25V270.024H181.406V266.274C180.219 265.657 179.5 264.657 179.5 263.399C179.5 261.243 181.609 259.837 184.578 259.821C187.547 259.837 189.656 261.243 189.656 263.399C189.656 264.634 188.961 265.626 187.812 266.243V270.024H190.969ZM184.578 260.837C182.297 260.821 180.688 261.853 180.688 263.399C180.688 264.946 182.297 265.993 184.578 265.993C186.844 265.993 188.469 264.946 188.469 263.399C188.469 261.853 186.844 260.821 184.578 260.837ZM182.609 270.024H186.578V266.712C185.977 266.876 185.305 266.962 184.578 266.962C183.867 266.962 183.203 266.884 182.609 266.728V270.024ZM202.938 258.962V263.54H205.031V264.571H202.938V269.368H201.719V258.962H202.938ZM200.391 260.665V261.665H192.109V260.665H195.641V258.962H196.859V260.665H200.391ZM196.25 262.431C198.234 262.431 199.578 263.446 199.594 265.024C199.578 266.587 198.234 267.587 196.25 267.587C194.25 267.587 192.891 266.587 192.906 265.024C192.891 263.446 194.25 262.431 196.25 262.431ZM196.25 263.399C194.938 263.399 194.062 264.04 194.078 265.024C194.062 266.009 194.938 266.634 196.25 266.618C197.547 266.634 198.422 266.009 198.438 265.024C198.422 264.04 197.547 263.399 196.25 263.399ZM203.578 271.509V272.54H194.25V268.54H195.453V271.509H203.578ZM220.781 258.946V262.478H222.875V263.524H220.781V267.103H219.562V258.946H220.781ZM216.969 259.837C216.969 263.353 214.516 265.853 210.406 266.946L209.906 265.993C213.312 265.071 215.414 263.212 215.672 260.853H210.531V259.837H216.969ZM220.781 267.743V272.837H219.562V268.743H211.688V267.743H220.781ZM230.672 263.884V265.868H236.406V266.884H223.75V265.868H229.469V263.884H230.672ZM230.078 268.024C233.062 268.024 234.844 268.868 234.859 270.415C234.844 271.962 233.062 272.806 230.078 272.806C227.062 272.806 225.281 271.962 225.281 270.415C225.281 268.868 227.062 268.024 230.078 268.024ZM230.078 268.993C227.828 268.993 226.516 269.509 226.531 270.415C226.516 271.321 227.828 271.853 230.078 271.853C232.297 271.853 233.625 271.321 233.625 270.415C233.625 269.509 232.297 268.993 230.078 268.993ZM235.281 259.603V260.603H230.875C230.953 262.149 233.281 263.345 235.703 263.603L235.25 264.571C232.977 264.298 230.844 263.306 230.078 261.759C229.32 263.306 227.195 264.298 224.906 264.571L224.453 263.603C226.875 263.345 229.188 262.165 229.281 260.603H224.906V259.603H235.281ZM253.469 258.946V272.837H252.297V258.946H253.469ZM250.656 259.29V272.118H249.5V264.962H247.156V263.962H249.5V259.29H250.656ZM245.672 262.915C245.672 265.321 246.75 267.712 248.672 268.821L247.922 269.728C246.555 268.907 245.586 267.407 245.109 265.634C244.602 267.548 243.594 269.181 242.203 270.056L241.422 269.134C243.359 267.978 244.484 265.446 244.484 262.915V261.603H241.812V260.587H248.219V261.603H245.672V262.915ZM268.141 270.024V271.056H255.422V270.024H261.156V266.649H262.391V270.024H268.141ZM262.391 261.587C262.391 263.806 265.141 265.712 267.531 266.103L267.031 267.071C264.906 266.657 262.664 265.306 261.781 263.368C260.883 265.313 258.648 266.696 256.562 267.134L256.047 266.149C258.391 265.743 261.125 263.806 261.125 261.587V261.243H256.469V260.212H267.047V261.243H262.391V261.587ZM270.719 267.634C270.172 267.634 269.703 267.181 269.719 266.618C269.703 266.071 270.172 265.618 270.719 265.618C271.266 265.618 271.719 266.071 271.719 266.618C271.719 267.181 271.266 267.634 270.719 267.634ZM284.062 258.946V264.603H286.312V265.634H284.062V272.837H282.844V258.946H284.062ZM280.469 260.446C280.469 264.384 278.625 267.962 274.094 270.196L273.406 269.228C277 267.438 278.953 264.767 279.234 261.478H274.047V260.446H280.469ZM293.422 267.728C296.406 267.728 298.297 268.665 298.297 270.274C298.297 271.868 296.406 272.806 293.422 272.806C290.453 272.806 288.562 271.868 288.562 270.274C288.562 268.665 290.453 267.728 293.422 267.728ZM293.422 268.665C291.203 268.681 289.766 269.29 289.781 270.274C289.766 271.243 291.203 271.837 293.422 271.837C295.641 271.837 297.062 271.243 297.078 270.274C297.062 269.29 295.641 268.681 293.422 268.665ZM298.188 259.665V260.837C298.188 261.962 298.188 263.087 297.797 264.524L296.594 264.384C296.969 262.946 296.969 261.931 296.969 260.837V260.665H288.656V259.665H298.188ZM299.797 265.431V266.431H287.156V265.431H292.391V262.743H293.594V265.431H299.797ZM308.812 259.603C310.68 259.587 312.094 260.673 312.359 262.274H315.266V258.946H316.5V266.399H315.266V263.29H312.375C312.125 264.931 310.695 266.024 308.812 266.024C306.703 266.024 305.203 264.712 305.203 262.806C305.203 260.915 306.703 259.587 308.812 259.603ZM308.812 260.649C307.391 260.634 306.375 261.524 306.375 262.806C306.375 264.071 307.391 264.993 308.812 264.993C310.219 264.993 311.219 264.071 311.219 262.806C311.219 261.524 310.219 260.634 308.812 260.649ZM308.781 267.103V268.868H315.266V267.103H316.5V272.649H307.547V267.103H308.781ZM308.781 271.649H315.266V269.853H308.781V271.649ZM322.875 263.228C322.875 265.462 324.016 267.743 325.906 268.759L325.203 269.681C323.82 268.931 322.82 267.493 322.312 265.821C321.812 267.603 320.82 269.149 319.438 269.993L318.703 269.056C320.594 267.962 321.703 265.524 321.719 263.228V262.54H319.078V261.524H321.719V259.462H322.891V261.524H325.484V262.54H322.875V263.228ZM330.688 258.946V272.837H329.516V258.946H330.688ZM327.875 259.29V272.118H326.719V265.478H324.531V264.431H326.719V259.29H327.875ZM334.891 260.259L334.781 268.384H333.469L333.359 260.259H334.891ZM334.125 271.665C333.578 271.665 333.109 271.212 333.125 270.649C333.109 270.103 333.578 269.649 334.125 269.649C334.672 269.649 335.125 270.103 335.125 270.649C335.125 271.212 334.672 271.665 334.125 271.665Z" fill="#687481"/>
<path d="M8.25784 19.1172H11.2813L12.5703 20.7812C13.3789 19.832 13.836 18.4023 13.836 16.5156C13.836 12.8828 12.125 10.9141 9.50003 10.9141C6.87503 10.9141 5.14066 12.8828 5.14066 16.5156C5.14066 20.1484 6.87503 22.1172 9.50003 22.1172C9.83987 22.1172 10.168 22.082 10.4844 22.0234L8.25784 19.1172ZM17.4219 16.5156C17.4219 19.5391 16.3907 21.8711 14.7266 23.3359L17.1407 26.4062H13.836L12.4766 24.6953C11.5625 25.0586 10.5547 25.2344 9.50003 25.2344C4.97659 25.2344 1.55472 22.0234 1.55472 16.5156C1.55472 10.9844 4.97659 7.79688 9.50003 7.79688C13.9766 7.79688 17.4219 10.9844 17.4219 16.5156Z" fill="#0283FD"/>
<path d="M8.25781 139.805H11.2812L12.5703 141.469C13.3789 140.52 13.8359 139.09 13.8359 137.203C13.8359 133.57 12.125 131.602 9.5 131.602C6.875 131.602 5.14062 133.57 5.14062 137.203C5.14062 140.836 6.875 142.805 9.5 142.805C9.83984 142.805 10.168 142.77 10.4844 142.711L8.25781 139.805ZM17.4219 137.203C17.4219 140.227 16.3906 142.559 14.7266 144.023L17.1406 147.094H13.8359L12.4766 145.383C11.5625 145.746 10.5547 145.922 9.5 145.922C4.97656 145.922 1.55469 142.711 1.55469 137.203C1.55469 131.672 4.97656 128.484 9.5 128.484C13.9766 128.484 17.4219 131.672 17.4219 137.203Z" fill="#0283FD"/>
<rect y="345.107" width="424" height="67.8245" rx="16" fill="#F6F8FB"/>
<path d="M58.8828 373.011V385.166H57.8574V373.011H58.8828ZM56.4219 373.312V384.537H55.4102V378.275H53.3594V377.4H55.4102V373.312H56.4219ZM52.0605 376.484C52.0605 378.589 53.0039 380.681 54.6855 381.652L54.0293 382.445C52.833 381.727 51.9854 380.415 51.5684 378.863C51.124 380.538 50.2422 381.966 49.0254 382.732L48.3418 381.925C50.0371 380.914 51.0215 378.699 51.0215 376.484V375.335H48.6836V374.447H54.2891V375.335H52.0605V376.484ZM71.7207 382.705V383.607H60.5918V382.705H65.6094V379.751H66.6895V382.705H71.7207ZM66.6895 375.322C66.6895 377.263 69.0957 378.931 71.1875 379.273L70.75 380.121C68.8906 379.758 66.9287 378.576 66.1562 376.88C65.3701 378.583 63.415 379.792 61.5898 380.175L61.1387 379.314C63.1895 378.958 65.582 377.263 65.582 375.322V375.021H61.5078V374.119H70.7637V375.021H66.6895V375.322ZM80.5117 374.775C80.498 376.552 81.7832 378.125 83.5879 378.753L83.041 379.601C81.6328 379.088 80.5186 378.036 79.9785 376.689C79.4385 378.131 78.3105 379.266 76.8887 379.82L76.3281 378.972C78.1465 378.302 79.418 376.607 79.418 374.775V373.613H80.5117V374.775ZM86.2402 380.941V385.166H85.1738V381.83H78.0645V380.941H86.2402ZM86.2402 373.011V380.339H85.1738V373.011H86.2402ZM99.3789 378.89V379.779H94.3613V381.214H98.0254V385.001H89.6582V381.214H93.3086V379.779H88.3047V378.89H99.3789ZM98.3262 373.408V374.296H96.4531V376.853H98.2852V377.742H89.3848V376.853H91.2168V374.296H89.3438V373.408H98.3262ZM90.7246 382.062V384.126H96.9727V382.062H90.7246ZM92.2832 376.853H95.3867V374.296H92.2832V376.853ZM110.467 373.011V379.369H109.4V377.81H106.529V378.876H101.02V373.585H102.086V375.335H105.477V373.585H106.529V374.761H109.4V373.011H110.467ZM110.467 379.957V382.814H103.686V384.14H110.932V385.001H102.619V381.994H109.4V380.818H102.592V379.957H110.467ZM102.086 378.001H105.477V376.183H102.086V378.001ZM106.529 376.962H109.4V375.595H106.529V376.962ZM126.066 373.011V379.328H124.986V373.011H126.066ZM126.066 379.916V382.814H119.203V384.154H126.531V385.029H118.15V382.007H125V380.777H118.109V379.916H126.066ZM123.141 373.845V374.707H121.91V377.81C122.539 377.776 123.161 377.714 123.742 377.646L123.797 378.439C121.363 378.794 118.506 378.89 116.359 378.89L116.223 378.001L117.781 377.988V374.707H116.564V373.845H123.141ZM118.82 377.96C119.49 377.947 120.181 377.926 120.871 377.878V374.707H118.82V377.96ZM134.215 374.146C134.215 375.855 136.457 377.345 138.645 377.646L138.207 378.521C136.32 378.207 134.454 377.161 133.668 375.664C132.889 377.167 131.016 378.207 129.129 378.521L128.691 377.646C130.879 377.345 133.107 375.882 133.107 374.146V373.449H134.215V374.146ZM139.191 379.861V380.763H134.16V385.166H133.107V380.763H128.117V379.861H139.191ZM153.547 378.712V379.587H149.787V382.732H154.859V383.634H143.73V382.732H148.734V379.587H145.152V374.009H153.424V374.884H146.232V378.712H153.547ZM165.865 373.011V379.533H164.799V373.011H165.865ZM159.057 380.148V381.625H164.799V380.148H165.865V385.001H157.99V380.148H159.057ZM159.057 384.126H164.799V382.486H159.057V384.126ZM159.303 373.613C161.148 373.599 162.488 374.734 162.488 376.402C162.488 378.056 161.148 379.191 159.303 379.191C157.457 379.191 156.117 378.056 156.117 376.402C156.117 374.734 157.457 373.599 159.303 373.613ZM159.303 374.515C158.059 374.501 157.156 375.294 157.17 376.402C157.156 377.509 158.059 378.302 159.303 378.302C160.533 378.302 161.436 377.509 161.436 376.402C161.436 375.294 160.533 374.501 159.303 374.515ZM174.711 373.955C175.825 373.961 176.728 374.611 177.254 375.732H180.453V373.011H181.52V385.193H180.453V380.476H177.336C176.823 381.707 175.887 382.417 174.711 382.417C172.92 382.417 171.662 380.777 171.662 378.193C171.662 375.609 172.92 373.968 174.711 373.955ZM174.711 374.912C173.508 374.925 172.688 376.21 172.688 378.193C172.688 380.175 173.508 381.46 174.711 381.46C175.9 381.46 176.734 380.175 176.734 378.193C176.734 376.21 175.9 374.925 174.711 374.912ZM177.568 376.634C177.678 377.106 177.746 377.625 177.746 378.193C177.746 378.692 177.691 379.164 177.609 379.587H180.453V376.634H177.568ZM194.658 380.23V381.105H189.586V385.166H188.533V381.105H183.529V380.23H194.658ZM186.018 373.517V375.199H192.143V373.517H193.223V378.753H184.951V373.517H186.018ZM186.018 377.878H192.143V376.074H186.018V377.878ZM208.645 373.025V376.703H210.463V377.605H208.645V381.173H207.564V373.025H208.645ZM199.102 379.929C200.072 379.929 201.207 379.929 202.396 379.888V379C200.981 378.876 200.072 378.213 200.072 377.208C200.072 376.101 201.207 375.417 202.916 375.417C204.639 375.417 205.76 376.101 205.773 377.208C205.76 378.207 204.871 378.87 203.463 379V379.847C204.598 379.792 205.746 379.704 206.812 379.546L206.908 380.326C204.27 380.791 201.357 380.804 199.225 380.804L199.102 379.929ZM208.645 381.775V385.166H207.564V382.636H200.592V381.775H208.645ZM206.443 374.132V374.953H199.402V374.132H202.396V372.916H203.463V374.132H206.443ZM202.916 376.183C201.795 376.169 201.098 376.566 201.098 377.208C201.098 377.837 201.795 378.275 202.916 378.261C204.037 378.275 204.748 377.837 204.748 377.208C204.748 376.566 204.037 376.169 202.916 376.183ZM221.291 373.025V381.912H220.225V373.025H221.291ZM221.674 384.003V384.906H213.443V381.009H214.51V384.003H221.674ZM214.729 373.873C216.547 373.873 217.914 375.103 217.914 376.853C217.914 378.63 216.547 379.847 214.729 379.847C212.91 379.847 211.543 378.63 211.543 376.853C211.543 375.103 212.91 373.873 214.729 373.873ZM214.729 374.816C213.498 374.816 212.582 375.664 212.596 376.853C212.582 378.07 213.498 378.904 214.729 378.904C215.932 378.904 216.861 378.07 216.861 376.853C216.861 375.664 215.932 374.816 214.729 374.816ZM234.43 379.423V380.298H223.355V379.423H234.43ZM233.199 384.003V384.906H224.791V381.365H225.871V384.003H233.199ZM228.893 373.449C231.504 373.435 233.186 374.337 233.186 375.855C233.186 377.373 231.504 378.275 228.893 378.275C226.254 378.275 224.586 377.373 224.586 375.855C224.586 374.337 226.254 373.435 228.893 373.449ZM228.893 374.31C226.938 374.31 225.68 374.898 225.693 375.855C225.68 376.812 226.938 377.4 228.893 377.4C230.834 377.4 232.092 376.812 232.092 375.855C232.092 374.898 230.834 374.31 228.893 374.31ZM248.717 374.242V375.458C248.703 376.949 248.703 378.617 248.266 381.064L247.172 380.941C247.637 378.617 247.637 376.908 247.637 375.458V375.13H240.145V374.242H248.717ZM250.043 382.554V383.443H238.969V382.554H243.316V378.207H244.369V382.554H250.043ZM261.391 373.025V380.189H260.365V376.976H258.711V380.107H257.686V373.257H258.711V376.087H260.365V373.025H261.391ZM261.391 380.75V385.166H260.338V381.625H253.188V380.75H261.391ZM256.4 373.914C256.4 376.812 254.76 379.013 251.67 380.326L251.137 379.519C253.659 378.487 255.088 376.846 255.293 374.802H251.629V373.914H256.4ZM273.49 373.011V382.13H272.465V373.011H273.49ZM271.098 373.257V381.789H270.059V376.99H268.145V376.101H270.059V373.257H271.098ZM273.859 384.003V384.906H265.52V381.009H266.586V384.003H273.859ZM266.764 375.691C266.764 377.113 267.652 378.576 269.197 379.232L268.596 380.08C267.475 379.56 266.675 378.63 266.271 377.523C265.827 378.74 264.979 379.82 263.811 380.38L263.209 379.546C264.768 378.808 265.725 377.126 265.725 375.691V373.873H266.764V375.691ZM285.344 373.011V385.193H284.277V378.494H281.707V377.605H284.277V373.011H285.344ZM281.502 374.132V375.021H276.908V377.55H280.969V378.425H276.908V381.365C279.144 381.365 280.565 381.29 282.24 380.996L282.363 381.884C280.6 382.171 279.109 382.253 276.758 382.253H275.828V374.132H281.502ZM298.496 382.759V383.662H287.367V382.759H292.371V380.462H288.762V376.716H296.035V374.802H288.734V373.914H297.088V377.591H289.828V379.574H297.375V380.462H293.424V382.759H298.496ZM314.096 379.232V380.121H309.146V382.609H308.08V380.121H302.967V379.232H314.096ZM312.646 373.613V377.837H304.416V373.613H312.646ZM305.469 374.46V376.976H311.58V374.46H305.469ZM312.852 384.003V384.906H304.389V381.406H305.469V384.003H312.852ZM319.059 373.9C320.973 373.9 322.326 375.062 322.326 376.757C322.326 378.453 320.973 379.615 319.059 379.615C317.145 379.615 315.764 378.453 315.777 376.757C315.764 375.062 317.145 373.9 319.059 373.9ZM319.059 374.843C317.76 374.843 316.816 375.623 316.83 376.757C316.816 377.892 317.76 378.671 319.059 378.671C320.344 378.671 321.273 377.892 321.273 376.757C321.273 375.623 320.344 374.843 319.059 374.843ZM325.047 373.011V385.193H323.98V373.011H325.047ZM315.148 381.597C317.391 381.597 320.48 381.583 323.174 381.187L323.256 381.98C320.48 382.5 317.486 382.513 315.299 382.513L315.148 381.597ZM333.25 375.117V375.992H327.152V375.117H329.682V373.38H330.748V375.117H333.25ZM330.201 376.812C331.732 376.812 332.826 377.96 332.84 379.574C332.826 381.201 331.732 382.363 330.201 382.363C328.684 382.363 327.59 381.201 327.59 379.574C327.59 377.96 328.684 376.812 330.201 376.812ZM330.201 377.714C329.244 377.728 328.547 378.507 328.547 379.574C328.547 380.654 329.244 381.433 330.201 381.419C331.172 381.433 331.883 380.654 331.883 379.574C331.883 378.507 331.172 377.728 330.201 377.714ZM337.529 373.011V385.166H336.504V379.027H334.891V384.564H333.879V373.312H334.891V378.138H336.504V373.011H337.529ZM348.932 374.734C348.918 376.361 351.092 377.742 353.211 378.056L352.814 378.904C350.914 378.583 349.068 377.571 348.33 376.101C347.592 377.571 345.739 378.583 343.873 378.904L343.449 378.056C345.555 377.742 347.729 376.361 347.729 374.734V374.652H343.832V373.777H352.814V374.652H348.932V374.734ZM353.867 379.943V380.832H348.836V385.166H347.783V380.832H342.793V379.943H353.867ZM358.502 376.47C358.502 378.398 359.445 380.49 361.059 381.447L360.443 382.281C359.274 381.57 358.434 380.271 358.01 378.794C357.559 380.408 356.656 381.795 355.439 382.541L354.756 381.734C356.438 380.75 357.463 378.589 357.463 376.511V374.16H358.502V376.47ZM365.311 373.011V385.166H364.271V373.011H365.311ZM362.795 373.271V384.55H361.783V378.289H359.719V377.373H361.783V373.271H362.795ZM378.121 382.705V383.607H366.992V382.705H369.754V379.423C368.715 378.883 368.086 378.008 368.086 376.908C368.086 375.021 369.932 373.791 372.529 373.777C375.127 373.791 376.973 375.021 376.973 376.908C376.973 377.988 376.364 378.856 375.359 379.396V382.705H378.121ZM372.529 374.666C370.533 374.652 369.125 375.554 369.125 376.908C369.125 378.261 370.533 379.177 372.529 379.177C374.512 379.177 375.934 378.261 375.934 376.908C375.934 375.554 374.512 374.652 372.529 374.666ZM370.807 382.705H374.279V379.806C373.753 379.95 373.165 380.025 372.529 380.025C371.907 380.025 371.326 379.957 370.807 379.82V382.705ZM381.061 374.16L380.965 381.269H379.816L379.721 374.16H381.061ZM380.391 384.14C379.912 384.14 379.502 383.744 379.516 383.251C379.502 382.773 379.912 382.376 380.391 382.376C380.869 382.376 381.266 382.773 381.266 383.251C381.266 383.744 380.869 384.14 380.391 384.14Z" fill="#687481"/>
<path d="M34.5 374.032V384.006" stroke="#0283FD" stroke-width="1.5" stroke-linecap="round"/>
<path d="M30.1699 376.526L38.8302 381.513" stroke="#0283FD" stroke-width="1.5" stroke-linecap="round"/>
<path d="M30.1699 381.513L38.8302 376.526" stroke="#0283FD" stroke-width="1.5" stroke-linecap="round"/>
</svg>
