<svg width="406" height="327" viewBox="0 0 406 327" fill="none" xmlns="http://www.w3.org/2000/svg">
<g filter="url(#filter0_d_542_15372)">
<rect x="21" y="17" width="364" height="285" rx="29.1498" fill="url(#paint0_linear_542_15372)"/>
</g>
<rect x="50.2998" y="233.692" width="305.031" height="46.8478" rx="23.4239" fill="#0283FD"/>
<path d="M81.4834 266.679L105.577 225.194C106.122 224.255 105.349 223.099 104.272 223.245L88.2461 225.424L92.0753 205.32C92.2044 204.643 91.3306 204.254 90.9141 204.804L67.225 236.074C66.535 236.985 67.2656 238.28 68.4019 238.16L86.0709 236.3L80.2785 266.228C80.1388 266.949 81.1141 267.315 81.4834 266.679Z" fill="#FFDC64"/>
<path d="M74.633 233.858C74.1906 233.893 73.8967 233.409 74.1319 233.033L91.8436 204.694C91.5801 204.486 91.1653 204.472 90.9141 204.804L67.225 236.074C66.535 236.984 67.2656 238.279 68.4019 238.16L86.0709 236.3L80.2785 266.227C80.2004 266.631 80.4727 266.915 80.791 266.983L90.7167 235.575C91.182 234.102 90.0082 232.628 88.4691 232.751L74.633 233.858Z" fill="#FFC850"/>
<path d="M138.762 252.992V254.166H131.975V252.992H134.659V251.131H136.093V252.992H138.762ZM135.376 254.99C137.115 254.99 138.335 256.286 138.35 258.131C138.335 259.992 137.115 261.303 135.376 261.303C133.668 261.303 132.402 259.992 132.418 258.131C132.402 256.286 133.668 254.99 135.376 254.99ZM135.376 256.194C134.385 256.194 133.699 257.003 133.699 258.131C133.699 259.29 134.385 260.068 135.376 260.068C136.352 260.068 137.069 259.29 137.069 258.131C137.069 257.003 136.352 256.194 135.376 256.194ZM143.703 250.735V264.399H142.33V257.613H140.759V263.758H139.387V251.04H140.759V256.423H142.33V250.735H143.703ZM156.147 250.735V256.027H158.343V257.216H156.147V264.429H154.698V250.735H156.147ZM152.471 252.046V253.221H147.53V259.824C149.825 259.816 151.549 259.717 153.493 259.366L153.676 260.586C151.541 260.968 149.726 261.044 147.18 261.029H146.082V252.046H152.471ZM171.488 257.582V258.756H166.074V261.41H164.61V258.756H158.983V257.582H171.488ZM170.1 262.92V264.109H160.554V260.098H162.003V262.92H170.1ZM165.22 251.055C168.164 251.055 170.07 252.123 170.07 253.831C170.07 255.539 168.164 256.591 165.22 256.591C162.292 256.591 160.356 255.539 160.356 253.831C160.356 252.123 162.292 251.055 165.22 251.055ZM165.22 252.214C163.223 252.214 161.896 252.824 161.911 253.831C161.896 254.822 163.223 255.417 165.22 255.417C167.233 255.417 168.545 254.822 168.545 253.831C168.545 252.824 167.233 252.214 165.22 252.214ZM186.951 250.735V256.027H189.147V257.216H186.951V264.429H185.503V250.735H186.951ZM183.276 252.046V253.221H178.335V259.824C180.63 259.816 182.354 259.717 184.298 259.366L184.481 260.586C182.346 260.968 180.531 261.044 177.985 261.029H176.887V252.046H183.276ZM201.119 250.735V264.429H199.67V250.735H201.119ZM193.814 251.757C195.842 251.757 197.337 253.617 197.337 256.545C197.337 259.488 195.842 261.349 193.814 261.349C191.755 261.349 190.276 259.488 190.276 256.545C190.276 253.617 191.755 251.757 193.814 251.757ZM193.814 253.053C192.548 253.053 191.679 254.395 191.679 256.545C191.679 258.711 192.548 260.053 193.814 260.053C195.064 260.053 195.934 258.711 195.934 256.545C195.934 254.395 195.064 253.053 193.814 253.053ZM214.95 259.885V264.399H213.517V261.044H205.678V259.885H214.95ZM208.744 251.772V255.676H205.312V257.491C206.99 257.475 208.248 257.399 209.75 257.094L209.903 258.268C208.21 258.589 206.807 258.665 204.809 258.65H203.909V254.608H207.356V252.916H203.879V251.772H208.744ZM214.95 250.75V259.244H213.578V250.75H214.95ZM212.221 251.009V259.168H210.833V255.34H209.262V254.166H210.833V251.009H212.221ZM227.882 258.009V259.168H218.366V251.863H227.745V253.038H219.83V254.883H227.455V256.027H219.83V258.009H227.882ZM229.301 261.486V262.676H216.796V261.486H229.301ZM238.557 251.711C240.723 251.696 242.263 253.038 242.278 254.959C242.263 256.881 240.723 258.223 238.557 258.223C236.407 258.223 234.821 256.881 234.836 254.959C234.821 253.038 236.407 251.696 238.557 251.711ZM238.557 252.961C237.231 252.961 236.255 253.754 236.27 254.959C236.255 256.164 237.231 256.957 238.557 256.957C239.884 256.957 240.86 256.164 240.86 254.959C240.86 253.754 239.884 252.961 238.557 252.961ZM245.405 250.735V264.429H243.956V250.735H245.405ZM234.181 260.281C236.666 260.281 240.113 260.251 243.102 259.824L243.209 260.876C240.113 261.471 236.804 261.486 234.364 261.486L234.181 260.281ZM255.591 251.97V255.737H250.101V257.277H255.942V258.421H252.892V260.51C254.15 260.464 255.408 260.38 256.598 260.251L256.705 261.318C253.7 261.776 250.452 261.837 247.86 261.806L247.677 260.602C248.843 260.602 250.132 260.594 251.459 260.556V258.421H248.653V254.654H254.158V253.129H248.637V251.97H255.591ZM258.901 250.735V264.429H257.452V250.735H258.901ZM272.488 250.75V260.815H271.04V256.072H268.203V254.868H271.04V250.75H272.488ZM268.295 251.772C268.279 255.34 265.824 258.024 261.905 259.29L261.295 258.131C264.337 257.147 266.404 255.287 266.709 252.977H261.996V251.772H268.295ZM272.839 262.935V264.109H263.689V259.778H265.153V262.935H272.839Z" fill="white"/>
<path d="M56.5045 109.813C56.4872 111.957 57.9563 113.91 60.3414 114.705L59.5118 116.001C57.723 115.37 56.3749 114.108 55.6749 112.492C54.9836 114.229 53.6268 115.603 51.7862 116.26L50.9566 114.981C53.3762 114.117 54.828 112.026 54.828 109.813V108.327H56.5045V109.813ZM63.7116 117.625V123.07H62.0697V118.956H53.2207V117.625H63.7116ZM63.7116 107.584V116.882H62.0697V107.584H63.7116ZM80.2863 114.998V116.312H74.0297V117.971H78.558V122.88H67.8596V117.971H72.4051V116.312H66.1658V114.998H80.2863ZM78.9555 108.068V109.399H76.7086V112.354H78.8863V113.685H67.5312V112.354H69.7262V109.399H67.4621V108.068H78.9555ZM69.4842 119.267V121.549H76.9679V119.267H69.4842ZM71.3508 112.354H75.0667V109.399H71.3508V112.354ZM94.7524 107.584V123.07H93.1796V107.584H94.7524ZM91.6068 107.912V122.292H90.0513V114.411H87.649V113.063H90.0513V107.912H91.6068ZM86.128 111.905C86.128 114.549 87.1996 117.193 89.3773 118.455L88.3921 119.665C86.9144 118.783 85.8947 117.219 85.3676 115.344C84.8059 117.366 83.7516 119.086 82.2393 120.028L81.2369 118.801C83.4318 117.47 84.5552 114.653 84.5552 111.905V110.66H81.7035V109.329H88.7896V110.66H86.128V111.905ZM110.93 119.786V121.134H96.7572V119.786H103.014V116.122H104.656V119.786H110.93ZM104.673 110.401C104.673 112.769 107.352 114.877 110.307 115.344L109.651 116.64C107.153 116.165 104.846 114.713 103.843 112.682C102.832 114.739 100.542 116.234 98.088 116.709L97.414 115.413C100.3 114.929 102.962 112.769 102.962 110.401V110.263H97.9325V108.915H109.702V110.263H104.673V110.401ZM113.816 117.349C113.142 117.349 112.571 116.796 112.589 116.122C112.571 115.448 113.142 114.895 113.816 114.895C114.473 114.895 115.043 115.448 115.043 116.122C115.043 116.796 114.473 117.349 113.816 117.349ZM128.783 107.584V113.754H131.186V115.119H128.783V123.052H127.141V107.584H128.783ZM124.739 109.208C124.722 113.685 122.751 117.677 117.653 120.201L116.737 118.922C120.617 116.986 122.725 114.186 123.062 110.574H117.514V109.208H124.739ZM138.998 117.314C142.351 117.314 144.459 118.369 144.476 120.183C144.459 121.981 142.351 123.052 138.998 123.035C135.679 123.052 133.553 121.981 133.553 120.183C133.553 118.369 135.679 117.314 138.998 117.314ZM138.998 118.559C136.647 118.559 135.178 119.164 135.195 120.183C135.178 121.186 136.647 121.773 138.998 121.773C141.365 121.773 142.834 121.186 142.852 120.183C142.834 119.164 141.365 118.559 138.998 118.559ZM144.355 108.344V109.641C144.355 110.885 144.355 112.164 143.923 113.754L142.316 113.581C142.731 112 142.731 110.859 142.731 109.658H133.674V108.344H144.355ZM146.118 114.705V116.035H132.032V114.705H137.684V111.801H139.291V114.705H146.118ZM151.597 108.292C153.636 108.275 155.209 109.459 155.555 111.196H158.579V107.584H160.221V115.897H158.579V112.544H155.572C155.235 114.324 153.654 115.517 151.597 115.517C149.229 115.517 147.535 114.031 147.535 111.887C147.535 109.779 149.229 108.275 151.597 108.292ZM151.597 109.658C150.128 109.658 149.108 110.557 149.108 111.887C149.108 113.218 150.128 114.134 151.597 114.134C153.032 114.134 154.051 113.218 154.051 111.887C154.051 110.557 153.032 109.658 151.597 109.658ZM151.753 116.64V118.438H158.579V116.64H160.221V122.88H150.128V116.64H151.753ZM151.753 121.531H158.579V119.734H151.753V121.531Z" fill="black"/>
<path d="M51.2758 96.7383V87.9055H52.3738V91.8339H57.0464V87.9055H58.1566V96.7383H57.0464V92.7977H52.3738V96.7383H51.2758ZM60.4868 96.7383H59.34L62.573 87.9055H63.732L66.9649 96.7383H65.8059L64.9276 94.2495H61.3774L60.4868 96.7383ZM61.7068 93.2857H64.586L63.183 89.3329H63.1098L61.7068 93.2857ZM73.7725 90.6871C73.5163 89.4671 72.4671 88.8083 71.3081 88.8083C69.7099 88.8083 68.4655 90.0405 68.4655 92.3219C68.4655 94.6033 69.7099 95.8355 71.3081 95.8355C72.4671 95.8355 73.5041 95.1767 73.7725 93.9689H74.8705C74.5533 95.7745 73.1015 96.8603 71.3081 96.8603C69.0389 96.8603 67.4041 95.1157 67.4041 92.3219C67.4041 89.5281 69.0389 87.7835 71.3081 87.7835C73.0893 87.7835 74.5411 88.8571 74.8705 90.6871H73.7725ZM82.4345 90.6871C82.1783 89.4671 81.1291 88.8083 79.9701 88.8083C78.3719 88.8083 77.1275 90.0405 77.1275 92.3219C77.1275 94.6033 78.3719 95.8355 79.9701 95.8355C81.1291 95.8355 82.1661 95.1767 82.4345 93.9689H83.5325C83.2153 95.7745 81.7635 96.8603 79.9701 96.8603C77.7009 96.8603 76.0661 95.1157 76.0661 92.3219C76.0661 89.5281 77.7009 87.7835 79.9701 87.7835C81.7513 87.7835 83.2031 88.8571 83.5325 90.6871H82.4345ZM85.0697 96.7383V87.9055H88.0709C90.1449 87.9055 91.0843 89.1377 91.0843 90.7115C91.0843 92.2731 90.1449 93.5297 88.0831 93.5297H86.1677V96.7383H85.0697ZM86.1677 92.5537H88.0343C89.4373 92.5537 89.9985 91.7607 89.9985 90.7115C89.9985 89.6501 89.4373 88.8815 88.0221 88.8815H86.1677V92.5537ZM104.175 86.8929V94.8229H103.223V86.8929H104.175ZM104.516 96.6895V97.4947H97.172V94.0177H98.1236V96.6895H104.516ZM98.3188 87.6493C99.9414 87.6493 101.161 88.7473 101.161 90.3089C101.161 91.8949 99.9414 92.9807 98.3188 92.9807C96.6962 92.9807 95.4762 91.8949 95.4762 90.3089C95.4762 88.7473 96.6962 87.6493 98.3188 87.6493ZM98.3188 88.4911C97.2208 88.4911 96.4034 89.2475 96.4156 90.3089C96.4034 91.3947 97.2208 92.1389 98.3188 92.1389C99.3924 92.1389 100.222 91.3947 100.222 90.3089C100.222 89.2475 99.3924 88.4911 98.3188 88.4911ZM115.899 92.0413V92.8343H106.017V92.0413H115.899ZM110.958 93.7859C113.288 93.7859 114.679 94.5057 114.691 95.7501C114.679 97.0067 113.288 97.7021 110.958 97.7021C108.616 97.7021 107.213 97.0067 107.213 95.7501C107.213 94.5057 108.616 93.7859 110.958 93.7859ZM110.958 94.5423C109.213 94.5545 108.176 94.9815 108.189 95.7501C108.176 96.5065 109.213 96.9335 110.958 96.9335C112.678 96.9335 113.727 96.5065 113.727 95.7501C113.727 94.9815 112.678 94.5545 110.958 94.5423ZM115.021 87.4419V88.2349H111.58C111.617 89.4671 113.422 90.4065 115.35 90.6261L114.996 91.3947C113.221 91.169 111.556 90.376 110.958 89.1621C110.366 90.376 108.707 91.169 106.92 91.3947L106.578 90.6261C108.469 90.4065 110.287 89.4671 110.336 88.2349H106.92V87.4419H115.021ZM125.586 87.7591C125.574 90.5651 124.122 92.6635 120.633 93.8347L120.242 93.0661C122.103 92.4561 123.286 91.596 123.951 90.5285L120.352 90.8335L120.181 90.0405L124.293 89.8453C124.445 89.4366 124.543 89.0035 124.585 88.5521H120.73V87.7591H125.586ZM128.941 86.8929V94.9449H127.977V91.1507H125.561V90.3455H127.977V86.8929H128.941ZM129.246 96.6895V97.4947H122.084V94.1397H123.06V96.6895H129.246ZM139.738 86.8807V92.4927H138.774V89.6745H136.358V88.8815H138.774V86.8807H139.738ZM139.738 93.0417V95.6281H133.674V96.8115H140.14V97.5801H132.735V94.8961H138.786V93.8103H132.71V93.0417H139.738ZM134.443 88.2593C134.431 89.6867 135.553 90.9799 137.139 91.5045L136.627 92.2487C135.425 91.8217 134.467 90.9677 133.991 89.8697C133.528 91.108 132.546 92.0535 131.259 92.5171L130.734 91.7485C132.369 91.2117 133.491 89.8453 133.503 88.2593V87.2345H134.443V88.2593ZM147.375 87.6859V88.4667H143.141V89.8331H147.07V90.6139H143.141V92.0413C145.453 92.0413 146.734 91.9986 148.265 91.7485L148.363 92.5293C146.777 92.7855 145.447 92.8343 143.056 92.8343H142.178V87.6859H147.375ZM150.498 86.8929V93.6151H149.546V86.8929H150.498ZM146.899 93.7737C149.156 93.7615 150.547 94.4813 150.547 95.7257C150.547 96.9945 149.156 97.7021 146.899 97.7021C144.593 97.7021 143.227 96.9945 143.227 95.7257C143.227 94.4813 144.593 93.7615 146.899 93.7737ZM146.899 94.5301C145.191 94.5301 144.178 94.9815 144.178 95.7257C144.178 96.4943 145.191 96.9457 146.899 96.9457C148.558 96.9457 149.607 96.4943 149.607 95.7257C149.607 94.9815 148.558 94.5301 146.899 94.5301Z" fill="#687481"/>
<path d="M54.9541 148.585C56.9467 148.585 58.3558 149.795 58.3558 151.56C58.3558 153.325 56.9467 154.534 54.9541 154.534C52.9614 154.534 51.5239 153.325 51.5381 151.56C51.5239 149.795 52.9614 148.585 54.9541 148.585ZM54.9541 149.567C53.6019 149.567 52.6198 150.378 52.6341 151.56C52.6198 152.741 53.6019 153.552 54.9541 153.552C56.292 153.552 57.2599 152.741 57.2599 151.56C57.2599 150.378 56.292 149.567 54.9541 149.567ZM61.1883 147.66V160.342H60.0781V147.66H61.1883ZM50.8834 156.598C53.2176 156.598 56.4343 156.584 59.2383 156.171L59.3237 156.997C56.4343 157.538 53.3173 157.552 51.0399 157.552L50.8834 156.598ZM70.7815 148.841V152.172H65.5294V153.78H71.1373V154.677H68.2053V156.797C69.4365 156.748 70.6676 156.662 71.8348 156.527L71.9202 157.367C69.1162 157.794 66.056 157.851 63.6364 157.836L63.4798 156.883C64.59 156.883 65.8212 156.876 67.0951 156.84V154.677H64.4192V151.332H69.6855V149.752H64.3908V148.841H70.7815ZM73.7847 147.66V160.342H72.6745V147.66H73.7847ZM86.4523 147.674V156.926H85.3421V147.674H86.4523ZM86.8509 159.103V160.043H78.2824V155.986H79.3926V159.103H86.8509ZM79.6204 148.556C81.5134 148.556 82.9367 149.837 82.9367 151.659C82.9367 153.51 81.5134 154.776 79.6204 154.776C77.7273 154.776 76.304 153.51 76.304 151.659C76.304 149.837 77.7273 148.556 79.6204 148.556ZM79.6204 149.538C78.3394 149.538 77.3857 150.421 77.4 151.659C77.3857 152.926 78.3394 153.794 79.6204 153.794C80.8729 153.794 81.8408 152.926 81.8408 151.659C81.8408 150.421 80.8729 149.538 79.6204 149.538Z" fill="#8995A1"/>
<path d="M99.6946 148.343C99.6946 151.688 97.4315 154.008 93.6028 154.99L92.9765 153.766C95.9726 152.99 97.7304 151.474 98.0009 149.595H93.7166V148.343H99.6946ZM103.609 147.574V154.776H102.015V147.574H103.609ZM103.609 155.331V160.256H95.1115V155.331H103.609ZM96.6772 156.584V159.004H102.057V156.584H96.6772ZM115.209 154.008C115.209 157.338 113.188 159.302 110.483 159.302C107.779 159.302 105.758 157.324 105.758 154.008C105.758 150.677 107.779 148.713 110.483 148.713C113.188 148.713 115.209 150.677 115.209 154.008ZM113.344 154.008C113.344 151.659 112.163 150.378 110.483 150.378C108.804 150.378 107.623 151.659 107.623 154.008C107.623 156.356 108.804 157.637 110.483 157.637C112.163 157.637 113.344 156.356 113.344 154.008ZM126.055 154.008C126.055 157.338 124.034 159.302 121.329 159.302C118.625 159.302 116.604 157.324 116.604 154.008C116.604 150.677 118.625 148.713 121.329 148.713C124.034 148.713 126.055 150.677 126.055 154.008ZM124.19 154.008C124.19 151.659 123.009 150.378 121.329 150.378C119.65 150.378 118.468 151.659 118.468 154.008C118.468 156.356 119.65 157.637 121.329 157.637C123.009 157.637 124.19 156.356 124.19 154.008Z" fill="#22272B"/>
<path d="M133.71 147.914L133.71 160.407" stroke="#E8ECF5" stroke-width="1.04106"/>
<path d="M143.956 148.428C145.024 148.421 145.935 148.82 146.518 149.496H149.835V147.66H150.959V155.161H149.835V153.353H146.533C145.935 154.029 145.024 154.428 143.956 154.42C142.063 154.435 140.668 153.196 140.668 151.431C140.668 149.652 142.063 148.414 143.956 148.428ZM143.956 149.396C142.661 149.382 141.736 150.236 141.736 151.431C141.736 152.613 142.661 153.467 143.956 153.467C145.209 153.467 146.148 152.613 146.148 151.431C146.148 150.236 145.209 149.382 143.956 149.396ZM146.76 155.46C149.379 155.46 151.002 156.342 151.002 157.865C151.002 159.402 149.379 160.285 146.76 160.285C144.127 160.285 142.519 159.402 142.519 157.865C142.519 156.342 144.127 155.46 146.76 155.46ZM146.76 156.328C144.825 156.328 143.615 156.911 143.615 157.865C143.615 158.819 144.825 159.388 146.76 159.388C148.71 159.388 149.906 158.819 149.906 157.865C149.906 156.911 148.71 156.328 146.76 156.328ZM147.059 150.407C147.166 150.72 147.23 151.061 147.23 151.431C147.23 151.787 147.166 152.122 147.059 152.428H149.835V150.407H147.059ZM156.553 148.257C158.254 148.243 159.542 149.232 159.784 150.691H162.431V147.66H163.556V154.449H162.431V151.617H159.798C159.57 153.111 158.268 154.107 156.553 154.107C154.631 154.107 153.265 152.912 153.265 151.175C153.265 149.453 154.631 148.243 156.553 148.257ZM156.553 149.211C155.258 149.197 154.332 150.008 154.332 151.175C154.332 152.328 155.258 153.168 156.553 153.168C157.834 153.168 158.745 152.328 158.745 151.175C158.745 150.008 157.834 149.197 156.553 149.211ZM156.524 155.089V156.698H162.431V155.089H163.556V160.142H155.4V155.089H156.524ZM156.524 159.231H162.431V157.594H156.524V159.231ZM173.191 149.695V150.62H165.662V149.695H168.865V147.816H169.975V149.695H173.191ZM169.434 151.673C171.142 151.673 172.394 152.883 172.409 154.577C172.394 156.257 171.142 157.481 169.434 157.481C167.712 157.481 166.445 156.257 166.445 154.577C166.445 152.883 167.712 151.673 169.434 151.673ZM169.434 152.627C168.324 152.641 167.484 153.453 167.498 154.577C167.484 155.716 168.324 156.527 169.434 156.513C170.544 156.527 171.384 155.716 171.384 154.577C171.384 153.453 170.544 152.641 169.434 152.627ZM176.152 147.66V160.313H175.042V153.922H172.921V152.983H175.042V147.66H176.152ZM188.051 147.66V152.812H190.101V153.752H188.051V160.313H186.941V147.66H188.051ZM184.777 149.026C184.777 152.613 183.098 155.872 178.97 157.908L178.344 157.025C181.618 155.395 183.397 152.962 183.653 149.965H178.928V149.026H184.777Z" fill="#8995A1"/>
<path d="M199.434 148.115C201.313 148.115 202.65 149.154 202.665 150.706C202.65 151.979 201.69 152.94 200.259 153.211V154.25C201.327 154.193 202.401 154.093 203.405 153.951L203.533 155.104C200.857 155.588 197.868 155.63 195.69 155.63L195.52 154.364C196.445 154.371 197.527 154.364 198.665 154.321V153.211C197.192 152.969 196.203 152.001 196.217 150.706C196.203 149.154 197.541 148.115 199.434 148.115ZM199.434 149.325C198.409 149.325 197.683 149.837 197.697 150.706C197.683 151.545 198.409 152.072 199.434 152.086C200.459 152.072 201.156 151.545 201.17 150.706C201.156 149.837 200.459 149.325 199.434 149.325ZM205.739 147.574V151.73H207.476V153.04H205.739V157.395H204.159V147.574H205.739ZM206.195 158.875V160.156H197.285V156.527H198.864V158.875H206.195ZM219.901 157.623V158.932H208.145V157.623H211.262V155.502H209.539V151.303H216.941V149.723H209.511V148.442H218.506V152.57H211.119V154.221H218.805V155.502H216.926V157.623H219.901ZM212.799 157.623H215.375V155.502H212.799V157.623Z" fill="#22272B"/>
<path d="M227.367 147.914L227.367 160.407" stroke="#E8ECF5" stroke-width="1.04106"/>
<path d="M238.652 151.545C238.652 153.695 240.218 155.872 242.083 156.684L241.456 157.566C239.976 156.89 238.695 155.431 238.111 153.68C237.514 155.538 236.24 157.153 234.795 157.879L234.126 156.997C235.934 156.128 237.514 153.737 237.528 151.545V149.894H234.539V148.969H241.67V149.894H238.652V151.545ZM244.559 147.66V160.313H243.435V147.66H244.559ZM257.213 155.815V160.313H256.088V156.712H248.701V155.815H257.213ZM257.213 147.66V155.118H256.088V153.296H252.829C252.238 154.015 251.306 154.442 250.21 154.435C248.317 154.449 246.922 153.196 246.922 151.403C246.922 149.638 248.317 148.386 250.21 148.386C251.299 148.386 252.231 148.813 252.829 149.524H256.088V147.66H257.213ZM250.21 149.339C248.915 149.339 247.989 150.207 247.989 151.403C247.989 152.641 248.915 153.495 250.21 153.495C251.448 153.495 252.402 152.641 252.402 151.403C252.402 150.207 251.448 149.339 250.21 149.339ZM253.327 152.371H256.088V150.449H253.327C253.426 150.748 253.483 151.061 253.483 151.403C253.483 151.745 253.426 152.072 253.327 152.371Z" fill="#8995A1"/>
<path d="M274.98 147.574V155.089H273.4V153.666H270.34V152.385H273.4V151.004H270.468C269.649 153.054 267.778 154.485 264.974 155.26L264.333 154.008C267.344 153.189 268.945 151.666 269.201 149.752H265.016V148.471H270.923C270.923 148.919 270.888 149.346 270.809 149.752H273.4V147.574H274.98ZM270.724 155.232C273.329 155.232 275.065 156.214 275.065 157.794C275.065 159.374 273.329 160.356 270.724 160.356C268.091 160.356 266.354 159.374 266.354 157.794C266.354 156.214 268.091 155.232 270.724 155.232ZM270.724 156.47C268.987 156.47 267.934 156.94 267.934 157.794C267.934 158.634 268.987 159.103 270.724 159.103C272.418 159.103 273.485 158.634 273.485 157.794C273.485 156.94 272.418 156.47 270.724 156.47ZM287.548 147.56V160.427H285.954V147.56H287.548ZM283.705 148.926C283.705 152.755 282.224 156.015 277.712 158.15L276.887 156.883C280.253 155.282 281.819 153.104 282.096 150.179H277.542V148.926H283.705ZM299.845 153.41V154.662H296.031V157.609H301.155V158.904H289.398V157.609H294.465V154.662H290.821V148.514H299.746V149.78H292.401V153.41H299.845ZM311.303 148.286C314.064 148.286 316.1 149.667 316.1 151.759C316.1 153.687 314.441 154.976 312.086 155.203V157.566H317.21V158.861H305.453V157.566H310.52V155.203C308.179 154.976 306.521 153.687 306.535 151.759C306.521 149.667 308.556 148.286 311.303 148.286ZM311.303 149.567C309.424 149.553 308.072 150.407 308.086 151.759C308.072 153.154 309.424 153.979 311.303 153.979C313.21 153.979 314.548 153.154 314.548 151.759C314.548 150.407 313.21 149.553 311.303 149.567ZM322.661 149.837C322.647 151.531 323.714 153.139 325.736 153.794L324.91 155.047C323.48 154.563 322.469 153.595 321.907 152.357C321.33 153.723 320.27 154.791 318.775 155.317L317.893 154.065C320.014 153.381 321.067 151.645 321.067 149.823V148.357H322.661V149.837ZM328.198 147.56V151.36H329.991V152.698H328.198V157.011H326.618V147.56H328.198ZM328.71 158.89V160.171H319.957V156.086H321.579V158.89H328.71ZM335.514 150.649C335.5 153.011 336.738 155.374 338.83 156.271L337.891 157.538C336.411 156.854 335.322 155.488 334.731 153.808C334.14 155.623 333.037 157.103 331.472 157.836L330.504 156.513C332.653 155.588 333.905 153.125 333.905 150.649V148.599H335.514V150.649ZM341.349 147.56V160.441H339.755V147.56H341.349Z" fill="#22272B"/>
<path d="M61.3021 174.741V184.093H60.1777V180.677H56.904C56.3205 181.424 55.3811 181.872 54.2994 181.872C52.4063 181.872 51.0115 180.563 51.0115 178.712C51.0115 176.862 52.4063 175.553 54.2994 175.538C55.374 175.545 56.292 175.987 56.8898 176.72H60.1777V174.741H61.3021ZM61.658 186.171V187.11H53.1749V183.11H54.2994V186.171H61.658ZM54.2994 176.535C53.0041 176.549 52.079 177.446 52.079 178.712C52.079 179.979 53.0041 180.876 54.2994 180.876C55.5377 180.876 56.4913 179.979 56.4913 178.712C56.4913 177.446 55.5377 176.549 54.2994 176.535ZM57.4022 177.645C57.509 177.972 57.573 178.328 57.573 178.712C57.573 179.082 57.509 179.431 57.4022 179.751H60.1777V177.645H57.4022ZM74.2544 174.727V187.38H73.1727V180.677H71.4078V186.74H70.3403V174.997H71.4078V179.751H73.1727V174.727H74.2544ZM68.7177 176.207V183.979H63.8784V176.207H68.7177ZM64.9316 177.104V183.082H67.6644V177.104H64.9316ZM87.5341 180.363V181.232H82.3105V182.413H86.0538V185.146H78.5386V186.384H86.4381V187.238H77.4284V184.349H84.9578V183.253H77.4V182.413H81.2145V181.232H76.0193V180.363H87.5341ZM82.3105 174.656V175.837H86.3669V176.72H82.3959C82.6022 177.979 84.5807 178.776 86.9078 178.926L86.5662 179.78C84.4526 179.602 82.5453 178.947 81.7696 177.745C80.9939 178.947 79.0866 179.602 76.9587 179.78L76.6314 178.926C78.9443 178.776 80.9227 177.979 81.1433 176.72H77.2007V175.837H81.2145V174.656H82.3105Z" fill="#8995A1"/>
<path d="M96.9761 186.37C94.9122 186.37 93.4035 185.146 93.3466 183.438H95.1542C95.2111 184.278 95.994 184.875 96.9761 184.875C98.129 184.875 98.9545 184.036 98.9545 182.897C98.9545 181.716 98.1005 180.876 96.9191 180.876C96.1221 180.862 95.5385 181.146 95.2111 181.758H93.4889L94.1152 175.923H100.207V177.474H95.6381L95.325 180.207H95.4246C95.8232 179.751 96.5775 179.424 97.4173 179.424C99.3388 179.424 100.748 180.862 100.748 182.84C100.748 184.904 99.1965 186.37 96.9761 186.37ZM112.661 182.854V187.509H111.081V184.121H103.893V182.854H112.661ZM112.661 174.627V182.228H111.081V179.125H108.761C108.448 180.613 107.124 181.616 105.459 181.616C103.523 181.616 102.057 180.306 102.057 178.456C102.057 176.634 103.523 175.325 105.459 175.339C107.132 175.325 108.455 176.335 108.775 177.816H111.081V174.627H112.661ZM105.459 176.677C104.377 176.677 103.566 177.389 103.566 178.456C103.566 179.566 104.377 180.264 105.459 180.278C106.512 180.264 107.309 179.566 107.324 178.456C107.309 177.389 106.512 176.677 105.459 176.677ZM128.645 174.627V187.509H127.051V174.627H128.645ZM121.714 175.567C123.649 175.567 125.058 177.332 125.073 180.107C125.058 182.911 123.649 184.662 121.714 184.662C119.764 184.662 118.354 182.911 118.354 180.107C118.354 177.332 119.764 175.567 121.714 175.567ZM121.714 176.99C120.618 176.99 119.877 178.143 119.877 180.107C119.877 182.086 120.618 183.239 121.714 183.239C122.795 183.239 123.535 182.086 123.535 180.107C123.535 178.143 122.795 176.99 121.714 176.99ZM135.093 176.677C135.093 178.3 136.146 179.823 138.124 180.449L137.27 181.687C135.883 181.217 134.886 180.278 134.338 179.082C133.769 180.449 132.73 181.523 131.25 182.043L130.396 180.805C132.474 180.079 133.499 178.371 133.513 176.535V175.311H135.093V176.677ZM140.686 174.627V177.759H142.48V179.068H140.686V182.328H139.107V174.627H140.686ZM136.502 182.612C139.164 182.598 140.8 183.509 140.815 185.032C140.8 186.583 139.164 187.48 136.502 187.48C133.812 187.48 132.147 186.583 132.147 185.032C132.147 183.509 133.812 182.598 136.502 182.612ZM136.502 183.851C134.737 183.851 133.726 184.278 133.726 185.032C133.726 185.829 134.737 186.228 136.502 186.228C138.267 186.228 139.249 185.829 139.249 185.032C139.249 184.278 138.267 183.851 136.502 183.851Z" fill="#22272B"/>
<path d="M149.71 174.981L149.71 187.474" stroke="#E8ECF5" stroke-width="1.04106"/>
<path d="M162.775 179.225V181.032H167.998V181.958H156.469V181.032H161.679V179.225H162.775ZM162.234 182.997C164.952 182.997 166.575 183.765 166.589 185.174C166.575 186.583 164.952 187.352 162.234 187.352C159.487 187.352 157.864 186.583 157.864 185.174C157.864 183.765 159.487 182.997 162.234 182.997ZM162.234 183.879C160.184 183.879 158.988 184.349 159.003 185.174C158.988 186 160.184 186.484 162.234 186.484C164.255 186.484 165.465 186 165.465 185.174C165.465 184.349 164.255 183.879 162.234 183.879ZM166.973 175.325V176.236H162.96C163.031 177.645 165.151 178.734 167.358 178.969L166.945 179.851C164.874 179.602 162.931 178.698 162.234 177.289C161.543 178.698 159.608 179.602 157.522 179.851L157.11 178.969C159.316 178.734 161.422 177.659 161.508 176.236H157.522V175.325H166.973ZM172.553 175.325C174.254 175.311 175.542 176.3 175.784 177.759H178.431V174.727H179.556V181.516H178.431V178.684H175.798C175.57 180.178 174.268 181.175 172.553 181.175C170.631 181.175 169.265 179.979 169.265 178.243C169.265 176.52 170.631 175.311 172.553 175.325ZM172.553 176.278C171.258 176.264 170.332 177.076 170.332 178.243C170.332 179.396 171.258 180.235 172.553 180.235C173.834 180.235 174.745 179.396 174.745 178.243C174.745 177.076 173.834 176.264 172.553 176.278ZM172.524 182.157V183.765H178.431V182.157H179.556V187.21H171.4V182.157H172.524ZM172.524 186.299H178.431V184.662H172.524V186.299ZM192.095 174.741V184.349H190.971V183.039H188.352V182.228H190.971V174.741H192.095ZM192.408 186.171V187.11H183.413V183.409H184.537V186.171H192.408ZM181.591 180.605C183.954 180.591 187.113 180.577 189.832 180.235L189.903 181.047C188.772 181.225 187.59 181.338 186.43 181.402V183.908H185.306V181.459C184.025 181.516 182.808 181.523 181.747 181.516L181.591 180.605ZM185.747 175.254C187.597 175.254 188.864 176.136 188.878 177.46C188.864 178.812 187.597 179.652 185.747 179.652C183.882 179.652 182.616 178.812 182.616 177.46C182.616 176.136 183.882 175.254 185.747 175.254ZM185.747 176.108C184.509 176.093 183.669 176.649 183.683 177.46C183.669 178.285 184.509 178.826 185.747 178.826C186.943 178.826 187.797 178.285 187.811 177.46C187.797 176.649 186.943 176.093 185.747 176.108Z" fill="#8995A1"/>
<path d="M203.16 175.923V186.228H201.295V177.73H201.238L198.833 179.267V177.574L201.381 175.923H203.16ZM205.665 186.228V184.89L209.308 181.374C210.347 180.335 210.888 179.723 210.888 178.855C210.888 177.901 210.134 177.289 209.123 177.289C208.056 177.289 207.373 177.958 207.387 178.997H205.622C205.608 177.047 207.074 175.78 209.138 175.78C211.244 175.78 212.668 177.033 212.668 178.769C212.668 179.936 212.098 180.876 210.077 182.783L208.241 184.605V184.676H212.824V186.228H205.665ZM224.794 174.627V182.2H223.214V180.42H220.624V181.417H214.575V175.595H220.624V176.592H223.214V174.627H224.794ZM216.155 176.848V180.15H219.058V176.848H216.155ZM220.439 182.541C223.172 182.541 224.837 183.452 224.837 185.018C224.837 186.583 223.172 187.48 220.439 187.48C217.72 187.48 216.055 186.583 216.069 185.018C216.055 183.452 217.72 182.541 220.439 182.541ZM220.439 183.751C218.645 183.751 217.635 184.192 217.635 185.018C217.635 185.815 218.645 186.256 220.439 186.256C222.232 186.256 223.257 185.815 223.257 185.018C223.257 184.192 222.232 183.751 220.439 183.751ZM220.624 179.139H223.214V177.844H220.624V179.139Z" fill="#22272B"/>
<rect x="50.5208" y="40.8916" width="56.9589" height="25.9589" rx="12.9795" fill="#0283FD" stroke="#0283FD" stroke-width="1.04106"/>
<path d="M73.199 56.9256V57.8894H63.1951V56.9256H65.5863V54.0708C64.6896 53.5767 64.1467 52.7898 64.1467 51.8138C64.1467 50.0936 65.8303 48.959 68.1727 48.959C70.5273 48.959 72.2108 50.0936 72.2108 51.8138C72.2108 52.7776 71.6862 53.5523 70.8079 54.0464V56.9256H73.199ZM68.1727 49.8862C66.4525 49.8862 65.2691 50.6304 65.2691 51.8138C65.2691 52.985 66.4525 53.7536 68.1727 53.7536C69.8807 53.7536 71.0884 52.985 71.0884 51.8138C71.0884 50.6304 69.8807 49.8862 68.1727 49.8862ZM66.7331 56.9256H69.6367V54.4856C69.1914 54.6015 68.6973 54.6564 68.1727 54.6564C67.6603 54.6564 67.1723 54.6015 66.7331 54.4978V56.9256ZM77.8228 50.6548C77.8228 51.9358 78.8842 53.1436 80.5434 53.6072L79.9944 54.51C78.7317 54.1501 77.774 53.3693 77.2738 52.3628C76.798 53.4913 75.8464 54.3819 74.541 54.7906L73.992 53.9C75.6512 53.3632 76.676 52.0578 76.676 50.6548V50.5206H74.297V49.5934H76.676V48.2758H77.835V49.5934H80.2018V50.5206H77.8228V50.6548ZM83.1054 48.3246V54.9492H81.9464V52.3384H79.8602V51.3868H81.9464V48.3246H83.1054ZM79.4454 55.1932C81.7268 55.1932 83.142 55.9252 83.142 57.2062C83.142 58.4993 81.7268 59.2435 79.4454 59.2313C77.1518 59.2435 75.7366 58.4993 75.7488 57.2062C75.7366 55.9252 77.1518 55.1932 79.4454 55.1932ZM79.4454 56.096C77.8472 56.096 76.8956 56.4986 76.8956 57.2062C76.8956 57.9138 77.8472 58.3407 79.4454 58.3407C81.0558 58.3407 81.9952 57.9138 81.9952 57.2062C81.9952 56.4986 81.0558 56.096 79.4454 56.096ZM94.7564 53.3876V54.327H90.34V55.3762C92.3469 55.486 93.5364 56.1631 93.5364 57.3038C93.5364 58.5481 92.1212 59.2435 89.7666 59.2313C87.3876 59.2435 85.9724 58.5481 85.9724 57.3038C85.9724 56.1631 87.1619 55.486 89.1932 55.3762V54.327H84.789V53.3876H94.7564ZM89.7666 56.2546C88.0952 56.2546 87.1436 56.6328 87.1436 57.3038C87.1436 57.9626 88.0952 58.3529 89.7666 58.3407C91.4136 58.3529 92.3774 57.9626 92.3774 57.3038C92.3774 56.6328 91.4136 56.2546 89.7666 56.2546ZM93.8658 48.8248V49.752H90.5474C90.7121 50.8073 92.2493 51.704 94.244 51.8992L93.8292 52.8142C91.9382 52.5946 90.3705 51.7955 89.7788 50.6304C89.1688 51.7955 87.6072 52.5946 85.7162 52.8142L85.3136 51.8992C87.2778 51.704 88.8211 50.8073 88.9858 49.752H85.704V48.8248H93.8658Z" fill="#FDFDFE"/>
<defs>
<filter id="filter0_d_542_15372" x="0.178743" y="0.342995" width="405.643" height="326.643" filterUnits="userSpaceOnUse" color-interpolation-filters="sRGB">
<feFlood flood-opacity="0" result="BackgroundImageFix"/>
<feColorMatrix in="SourceAlpha" type="matrix" values="0 0 0 0 0 0 0 0 0 0 0 0 0 0 0 0 0 0 127 0" result="hardAlpha"/>
<feOffset dy="4.16425"/>
<feGaussianBlur stdDeviation="10.4106"/>
<feColorMatrix type="matrix" values="0 0 0 0 0.137255 0 0 0 0 0.203922 0 0 0 0 0.321569 0 0 0 0.13 0"/>
<feBlend mode="normal" in2="BackgroundImageFix" result="effect1_dropShadow_542_15372"/>
<feBlend mode="normal" in="SourceGraphic" in2="effect1_dropShadow_542_15372" result="shape"/>
</filter>
<linearGradient id="paint0_linear_542_15372" x1="203" y1="17" x2="203" y2="302" gradientUnits="userSpaceOnUse">
<stop stop-color="white"/>
<stop offset="1" stop-color="#F6F8FB"/>
</linearGradient>
</defs>
</svg>
