<svg width="297" height="92" viewBox="0 0 297 92" fill="none" xmlns="http://www.w3.org/2000/svg">
<rect width="297" height="77" rx="38.5" fill="#0283FD"/>
<path d="M91.8574 20.2266V21.4766H83.1465V20.2266H86.7598V17.7461H88.2832V20.2266H91.8574ZM87.502 22.6484C89.6895 22.6484 91.252 24.2891 91.2715 26.5938C91.252 28.918 89.6895 30.5781 87.502 30.5781C85.334 30.5781 83.7715 28.918 83.7715 26.5938C83.7715 24.2891 85.334 22.6484 87.502 22.6484ZM87.502 23.9375C86.1348 23.957 85.1387 25.0703 85.1387 26.5938C85.1387 28.1367 86.1348 29.25 87.502 29.2305C88.8887 29.25 89.9043 28.1367 89.9043 26.5938C89.9043 25.0703 88.8887 23.957 87.502 23.9375ZM97.9707 17.2188V34.582H96.5059V25.8125H94.2012V33.7227H92.7559V17.6484H94.2012V24.543H96.5059V17.2188H97.9707ZM115.119 17.2188V26.6133H113.576V22.082H110.822V20.8516H113.576V17.2188H115.119ZM105.08 27.4531V29.6211H113.596V27.4531H115.119V34.3477H103.557V27.4531H105.08ZM105.08 33.0977H113.596V30.8906H105.08V33.0977ZM104.514 19.6797C104.514 20.998 104.855 23.0977 106.213 24.5039C107.541 23.127 107.873 21.0957 107.873 19.6797V18.0781H109.318V19.6797C109.318 21.5938 110.08 23.8789 112.092 25.0117L111.213 26.125C109.885 25.3438 109.064 24.0742 108.635 22.6484C108.244 24.084 107.512 25.4609 106.213 26.2812C104.875 25.4414 104.133 24.0059 103.771 22.5508C103.312 23.9863 102.512 25.334 101.193 26.125L100.334 25.0117C102.326 23.8203 103.049 21.3789 103.068 19.6797V18.0781H104.514V19.6797ZM137.111 17.2383V29.9336H135.588V17.2383H137.111ZM137.658 32.9219V34.2109H125.9V28.6445H127.424V32.9219H137.658ZM127.736 18.4492C130.334 18.4492 132.287 20.207 132.287 22.707C132.287 25.2461 130.334 26.9844 127.736 26.9844C125.139 26.9844 123.186 25.2461 123.186 22.707C123.186 20.207 125.139 18.4492 127.736 18.4492ZM127.736 19.7969C125.979 19.7969 124.67 21.0078 124.689 22.707C124.67 24.4453 125.979 25.6367 127.736 25.6367C129.455 25.6367 130.783 24.4453 130.783 22.707C130.783 21.0078 129.455 19.7969 127.736 19.7969ZM155.881 25.4805V26.75H140.061V25.4805H155.881ZM147.971 28.2734C151.701 28.2734 153.928 29.4258 153.947 31.418C153.928 33.4297 151.701 34.543 147.971 34.543C144.221 34.543 141.975 33.4297 141.975 31.418C141.975 29.4258 144.221 28.2734 147.971 28.2734ZM147.971 29.4844C145.178 29.5039 143.518 30.1875 143.537 31.418C143.518 32.6289 145.178 33.3125 147.971 33.3125C150.725 33.3125 152.404 32.6289 152.404 31.418C152.404 30.1875 150.725 29.5039 147.971 29.4844ZM154.475 18.1172V19.3867H148.967C149.025 21.3594 151.916 22.8633 155.002 23.2148L154.436 24.4453C151.594 24.084 148.928 22.8145 147.971 20.8711C147.023 22.8145 144.367 24.084 141.506 24.4453L140.959 23.2148C143.986 22.8633 146.896 21.3594 146.975 19.3867H141.506V18.1172H154.475ZM176.682 17.2188V34.6211H175.139V17.2188H176.682ZM164.904 18.7031V23.293H170.08V18.7031H171.584V30.4219H163.381V18.7031H164.904ZM164.904 29.1328H170.08V24.5234H164.904V29.1328ZM195.471 25.8125V27.082H179.65V25.8125H183.576V23.3711C182.189 22.834 181.408 21.9453 181.408 20.7734C181.408 18.7227 183.752 17.5508 187.561 17.5508C191.33 17.5508 193.693 18.7227 193.693 20.7734C193.693 21.9355 192.922 22.8242 191.545 23.3516V25.8125H195.471ZM187.561 28.4102C191.291 28.4102 193.518 29.4844 193.537 31.4766C193.518 33.4492 191.291 34.543 187.561 34.543C183.791 34.543 181.564 33.4492 181.564 31.4766C181.564 29.4844 183.791 28.4102 187.561 28.4102ZM187.561 29.582C184.768 29.6016 183.107 30.2852 183.127 31.4766C183.107 32.6484 184.768 33.3516 187.561 33.3516C190.314 33.3516 191.994 32.6484 191.994 31.4766C191.994 30.2852 190.314 29.6016 187.561 29.582ZM187.561 18.7617C184.729 18.7617 182.971 19.5234 182.99 20.7734C182.971 22.043 184.729 22.7852 187.561 22.7852C190.373 22.7852 192.131 22.043 192.131 20.7734C192.131 19.5234 190.373 18.7617 187.561 18.7617ZM185.1 25.8125H190.021V23.7812C189.289 23.9082 188.469 23.9766 187.561 23.9766C186.652 23.9766 185.832 23.9082 185.1 23.7812V25.8125ZM211.818 17.2188V34.582H210.334V17.2188H211.818ZM208.322 17.5898V33.7031H206.857V25.2656H204.631C204.465 28.6445 203.029 30.7539 200.881 30.7539C198.615 30.7539 197.15 28.4102 197.15 24.7188C197.15 21.0273 198.615 18.6836 200.881 18.6836C202.99 18.6836 204.416 20.7246 204.611 23.9961H206.857V17.5898H208.322ZM200.881 20.1289C199.475 20.1289 198.576 21.8867 198.596 24.7188C198.576 27.5312 199.475 29.3086 200.881 29.2891C202.287 29.3086 203.186 27.5312 203.186 24.7188C203.186 21.8867 202.287 20.1289 200.881 20.1289ZM46.9746 52.5469V58.6016H34.5723V52.5469H39.5332V50.9258H32.6973V48.9141H48.9082V50.9258H42.0332V52.5469H46.9746ZM37.0332 54.5195V56.6094H44.5332V54.5195H37.0332ZM42.0918 41.7852C42.0918 43.6211 44.1426 45.6523 48.1074 46.1016L47.2285 48.0352C44.1621 47.6445 41.9453 46.375 40.8027 44.6367C39.6602 46.375 37.4336 47.6445 34.3965 48.0352L33.498 46.1016C37.4629 45.6328 39.5137 43.6602 39.5332 41.7852V41.1992H42.0918V41.7852ZM59.084 42.8789C59.084 43.8066 59.0156 44.7148 58.8887 45.5938H62.4824V41.0039H64.9629V58.7969H62.4824V52.4102H58.1855V50.418H62.4824V47.5664H58.459C57.4629 50.8672 55.2461 53.6797 51.0762 55.7305L49.7871 53.7578C54.0449 51.5898 56.1348 48.7676 56.5449 44.832H50.6465V42.8789H59.084ZM74.2012 44.5391C74.2012 46.668 75.5098 48.8359 78.4395 49.7148L77.1699 51.668C75.1777 51.043 73.7715 49.7637 72.9707 48.1523C72.1602 49.9004 70.7148 51.3066 68.6348 52L67.3457 50.0469C70.2949 49.0898 71.6621 46.7852 71.6621 44.5391V44.2852H68.0098V42.293H77.7754V44.2852H74.2012V44.5391ZM82.1504 41.043V53.8945H79.6504V41.043H82.1504ZM82.6191 56.4922V58.4844H70.2363V52.7227H72.7559V56.4922H82.6191ZM103.498 41.8242V43.25C103.498 44.6367 103.498 46.1797 103.088 48.2109H105.432V50.2227H89.1621V48.2109H100.568C100.959 46.4336 101.008 45.0566 101.018 43.8164H91.1543V41.8242H103.498ZM103.439 52.0977V58.6016H91.0957V52.0977H103.439ZM93.5371 54.0508V56.6094H100.959V54.0508H93.5371ZM110.607 42.0977C112.971 42.0977 114.709 43.8945 114.729 46.4336C114.709 49.0117 112.971 50.75 110.607 50.75C108.244 50.75 106.525 49.0117 106.525 46.4336C106.525 43.8945 108.244 42.0977 110.607 42.0977ZM110.607 44.207C109.514 44.207 108.752 45.0273 108.752 46.4336C108.752 47.8398 109.514 48.6797 110.607 48.6797C111.682 48.6797 112.443 47.8398 112.463 46.4336C112.443 45.0273 111.682 44.207 110.607 44.207ZM121.721 41.043V51.6484H119.357V47.332H117.893V51.5508H115.588V41.3555H117.893V45.3398H119.357V41.043H121.721ZM121.721 52.4297V58.7969H119.24V54.4219H109.436V52.4297H121.721ZM131.818 41.5312C135.686 41.5312 137.951 42.5859 137.951 44.5195C137.951 46.4922 135.686 47.5469 131.818 47.5664C127.951 47.5469 125.666 46.4922 125.666 44.5195C125.666 42.5859 127.951 41.5312 131.818 41.5312ZM131.818 42.6836C128.928 42.6836 127.248 43.3867 127.268 44.5195C127.248 45.7305 128.928 46.3945 131.818 46.3945C134.689 46.3945 136.389 45.7305 136.389 44.5195C136.389 43.3867 134.689 42.6836 131.818 42.6836ZM139.729 48.7383V49.9883H123.908V48.7383H139.729ZM137.697 51.4922V55.3789H127.385V57.1758H138.225V58.3867H125.861V54.2461H136.193V52.6641H125.822V51.4922H137.697ZM159.787 41.2188V44.9883H162.404V46.2773H159.787V50.0664H158.264V41.2188H159.787ZM159.787 50.8867V55.125H150.256V57.1172H160.432V58.3477H148.752V53.9531H158.264V52.1172H148.713V50.8867H159.787ZM151.057 41.8633C153.674 41.8828 155.568 43.4453 155.568 45.7109C155.568 47.9961 153.674 49.5781 151.057 49.5781C148.459 49.5781 146.525 47.9961 146.545 45.7109C146.525 43.4453 148.459 41.8828 151.057 41.8633ZM151.057 43.1523C149.318 43.1328 148.029 44.207 148.049 45.7109C148.029 47.2344 149.318 48.3281 151.057 48.3281C152.795 48.3281 154.064 47.2344 154.064 45.7109C154.064 44.207 152.795 43.1328 151.057 43.1523ZM177.424 42.9766V44.7148C177.404 46.8438 177.404 49.2266 176.779 52.7227L175.217 52.5469C175.881 49.2266 175.881 46.7852 175.881 44.7148V44.2461H165.178V42.9766H177.424ZM179.318 54.8516V56.1211H163.498V54.8516H169.709V48.6406H171.213V54.8516H179.318ZM200.666 41.2188V58.582H199.201V41.2188H200.666ZM197.15 41.6875V57.7031H195.686V51.6875H192.463V50.418H195.686V47.332H192.756C191.906 50.2715 190.002 52.8691 186.721 54.832L185.783 53.7188C189.562 51.4824 191.457 48.3477 191.76 44.7148H186.564V43.4453H193.283C193.283 44.334 193.205 45.2129 193.049 46.0625H195.686V41.6875H197.15ZM217.424 41.2383V53.9727H215.9V41.2383H217.424ZM217.971 56.9219V58.2109H206.213V52.8008H207.736V56.9219H217.971ZM209.24 43.9531C209.221 46.5898 211.037 48.9727 213.615 49.9102L212.814 51.1406C210.803 50.3691 209.24 48.8066 208.479 46.8047C207.707 48.9336 206.125 50.6426 204.104 51.4531L203.264 50.2617C205.9 49.2461 207.678 46.6875 207.678 43.9531V42.2148H209.24V43.9531ZM233.811 41.2188V48.2891H236.623V49.5781H233.811V58.582H232.287V41.2188H233.811ZM229.318 43.0938C229.318 48.0156 227.014 52.4883 221.35 55.2812L220.49 54.0703C224.982 51.834 227.424 48.4941 227.775 44.3828H221.291V43.0938H229.318ZM253.557 55.0664V56.3555H237.658V55.0664H241.604V50.3789C240.119 49.6074 239.221 48.3574 239.221 46.7852C239.221 44.0898 241.857 42.332 245.568 42.3125C249.279 42.332 251.916 44.0898 251.916 46.7852C251.916 48.3281 251.047 49.5684 249.611 50.3398V55.0664H253.557ZM245.568 43.582C242.717 43.5625 240.705 44.8516 240.705 46.7852C240.705 48.7188 242.717 50.0273 245.568 50.0273C248.4 50.0273 250.432 48.7188 250.432 46.7852C250.432 44.8516 248.4 43.5625 245.568 43.582ZM243.107 55.0664H248.068V50.9258C247.316 51.1309 246.477 51.2383 245.568 51.2383C244.68 51.2383 243.85 51.1406 243.107 50.9453V55.0664ZM257.717 52.918C257.736 50.3008 258.537 49.5 259.885 48.6797C260.686 48.1914 261.311 47.4102 261.311 46.3164C261.311 44.9883 260.275 44.1484 258.986 44.1484C257.873 44.1484 256.76 44.8125 256.643 46.4141H254.865C254.963 44.0508 256.76 42.6641 258.986 42.6641C261.428 42.6641 263.029 44.2461 263.029 46.3945C263.029 47.918 262.307 48.9922 261.096 49.7344C259.885 50.4766 259.436 51.2188 259.396 52.918V53.0156H257.717V52.918ZM258.615 57.1172C257.932 57.1172 257.346 56.5508 257.365 55.8477C257.346 55.1641 257.932 54.5977 258.615 54.5977C259.299 54.5977 259.865 55.1641 259.865 55.8477C259.865 56.5508 259.299 57.1172 258.615 57.1172Z" fill="white"/>
<path d="M136 92C140.787 89.5915 144.777 78.8873 141.585 73H161C160.787 84.3465 142.383 91.4648 136 92Z" fill="#0283FD"/>
</svg>
