<svg width="365" height="243" viewBox="0 0 365 243" fill="none" xmlns="http://www.w3.org/2000/svg">
<rect x="17" y="194" width="330" height="49" rx="24.5" fill="#EBF5FF"/>
<path d="M109.563 210.543L110.328 209.764L112.871 212.266L118.135 207.029L118.914 207.795L112.871 213.824L109.563 210.543ZM46.6514 222.58C46.6377 224.139 47.5264 225.643 49.5772 226.258L48.7022 227.625C47.2871 227.174 46.3096 226.292 45.7491 225.15C45.1885 226.381 44.1768 227.345 42.7139 227.816L41.8389 226.449C43.917 225.779 44.833 224.166 44.833 222.58V221.391H46.6514V222.58ZM52.2979 228.773V233.258H50.5479V230.168H43.7393V228.773H52.2979ZM52.2979 220.816V228.24H50.5479V220.816H52.2979ZM65.3272 226.641V228.021H60.5147V229.088H63.9737V233.121H55.292V229.088H58.7784V228.021H53.9795V226.641H65.3272ZM64.3155 221.158V222.553H62.6885V224.453H64.2334V225.848H55.0596V224.453H56.5909V222.553H54.9776V221.158H64.3155ZM57.0147 230.441V231.727H62.2647V230.441H57.0147ZM58.3409 224.453H60.9385V222.553H58.3409V224.453ZM80.0655 220.816V233.258H78.4112V220.816H80.0655ZM77.5225 221.021V232.684H75.8819V226.49H74.2412V225.082H75.8819V221.021H77.5225ZM73.2432 224.152C73.2432 226.217 73.8858 228.309 75.7041 229.348L74.6787 230.633C73.5713 229.977 72.8399 228.862 72.4229 227.529C71.9922 228.979 71.2403 230.209 70.0987 230.906L69.0459 229.621C70.878 228.5 71.5616 226.258 71.5616 224.152V223.482H69.5244V222.088H75.1299V223.482H73.2432V224.152ZM92.794 230.4V231.809H81.4053V230.4H86.2178V227.625H87.9678V230.4H92.794ZM91.7959 221.76V223.168H88.0088C88.1524 224.809 89.6973 226.333 92.3701 226.723L91.6866 228.104C89.5059 227.721 87.8926 226.654 87.0928 225.178C86.2998 226.682 84.7002 227.775 82.5537 228.172L81.8701 226.791C84.4541 226.374 86.0059 224.815 86.1494 223.168H82.3487V221.76H91.7959ZM107.149 220.83V229.771H105.399V220.83H107.149ZM107.478 231.645V233.039H98.8096V228.869H100.573V231.645H107.478ZM100.327 221.623C102.241 221.623 103.731 222.936 103.731 224.754C103.731 226.613 102.241 227.912 100.327 227.912C98.4131 227.912 96.9229 226.613 96.9229 224.754C96.9229 222.936 98.4131 221.623 100.327 221.623ZM100.327 223.141C99.3565 223.127 98.6182 223.742 98.6319 224.754C98.6182 225.793 99.3565 226.395 100.327 226.395C101.271 226.395 102.009 225.793 102.009 224.754C102.009 223.742 101.271 223.127 100.327 223.141ZM116.173 222.676V224.07H108.858V222.676H111.634V221.008H113.37V222.676H116.173ZM112.509 224.768C114.218 224.768 115.489 226.025 115.503 227.734C115.489 229.43 114.218 230.701 112.509 230.701C110.786 230.701 109.501 229.43 109.501 227.734C109.501 226.025 110.786 224.768 112.509 224.768ZM112.509 226.23C111.716 226.244 111.128 226.805 111.128 227.734C111.128 228.678 111.716 229.225 112.509 229.211C113.302 229.225 113.89 228.678 113.89 227.734C113.89 226.805 113.302 226.244 112.509 226.23ZM119.331 220.816V233.258H117.608V227.146H115.913V225.738H117.608V220.816H119.331ZM130.747 220.816V225.588H132.511V227.023H130.747V233.23H128.997V220.816H130.747ZM127.425 222.088C127.411 225.807 125.962 229.033 121.778 231.084L120.794 229.744C123.74 228.268 125.319 226.285 125.647 223.51H121.505V222.088H127.425ZM141.097 223.633C141.097 225.916 142.136 228.213 144.241 229.102L143.216 230.496C141.794 229.854 140.81 228.616 140.249 227.078C139.682 228.753 138.663 230.106 137.146 230.797L136.093 229.348C138.267 228.432 139.319 226.053 139.333 223.633V221.773H141.097V223.633ZM146.675 220.816V233.285H144.911V220.816H146.675ZM158.843 220.816V227.146H157.106V224.057H154.769V222.676H157.106V220.816H158.843ZM158.843 227.666V230.988H152.308V231.754H159.198V233.121H150.585V229.717H157.12V229.006H150.571V227.666H158.843ZM153.019 222.129C153.005 223.619 153.88 225.055 155.862 225.643L154.946 226.982C153.613 226.552 152.684 225.718 152.144 224.645C151.604 225.841 150.619 226.784 149.163 227.242L148.261 225.861C150.325 225.26 151.241 223.742 151.255 222.129V221.227H153.019V222.129Z" fill="#0283FD"/>
<path d="M130.207 206.059V206.934H124.109V206.059H126.639V204.322H127.705V206.059H130.207ZM127.158 207.754C128.689 207.754 129.783 208.902 129.797 210.516C129.783 212.143 128.689 213.305 127.158 213.305C125.641 213.305 124.547 212.143 124.547 210.516C124.547 208.902 125.641 207.754 127.158 207.754ZM127.158 208.656C126.201 208.67 125.504 209.449 125.504 210.516C125.504 211.596 126.201 212.375 127.158 212.361C128.129 212.375 128.84 211.596 128.84 210.516C128.84 209.449 128.129 208.67 127.158 208.656ZM134.486 203.953V216.107H133.461V209.969H131.848V215.506H130.836V204.254H131.848V209.08H133.461V203.953H134.486ZM146.49 203.953V210.529H145.41V207.357H143.482V206.496H145.41V203.953H146.49ZM139.463 211.117V212.635H145.424V211.117H146.49V215.943H138.397V211.117H139.463ZM139.463 215.068H145.424V213.523H139.463V215.068ZM139.066 205.676C139.066 206.599 139.306 208.068 140.256 209.053C141.186 208.089 141.418 206.667 141.418 205.676V204.555H142.43V205.676C142.43 207.016 142.963 208.615 144.371 209.408L143.756 210.188C142.826 209.641 142.252 208.752 141.951 207.754C141.678 208.759 141.165 209.723 140.256 210.297C139.319 209.709 138.8 208.704 138.547 207.686C138.226 208.69 137.665 209.634 136.742 210.188L136.141 209.408C137.535 208.574 138.041 206.865 138.055 205.676V204.555H139.066V205.676ZM161.885 203.967V212.854H160.818V203.967H161.885ZM162.268 214.945V215.848H154.037V211.951H155.104V214.945H162.268ZM155.322 204.814C157.141 204.814 158.508 206.045 158.508 207.795C158.508 209.572 157.141 210.789 155.322 210.789C153.504 210.789 152.137 209.572 152.137 207.795C152.137 206.045 153.504 204.814 155.322 204.814ZM155.322 205.758C154.092 205.758 153.176 206.605 153.189 207.795C153.176 209.012 154.092 209.846 155.322 209.846C156.525 209.846 157.455 209.012 157.455 207.795C157.455 206.605 156.525 205.758 155.322 205.758ZM175.023 209.736V210.625H163.949V209.736H175.023ZM169.486 211.691C172.098 211.691 173.656 212.498 173.67 213.893C173.656 215.301 172.098 216.08 169.486 216.08C166.861 216.08 165.289 215.301 165.289 213.893C165.289 212.498 166.861 211.691 169.486 211.691ZM169.486 212.539C167.531 212.553 166.369 213.031 166.383 213.893C166.369 214.74 167.531 215.219 169.486 215.219C171.414 215.219 172.59 214.74 172.59 213.893C172.59 213.031 171.414 212.553 169.486 212.539ZM174.039 204.582V205.471H170.184C170.225 206.852 172.248 207.904 174.408 208.15L174.012 209.012C172.022 208.759 170.156 207.87 169.486 206.51C168.823 207.87 166.964 208.759 164.961 209.012L164.578 208.15C166.697 207.904 168.734 206.852 168.789 205.471H164.961V204.582H174.039ZM183.883 207.221C183.869 209.436 185.387 211.678 187.178 212.484L186.522 213.332C185.141 212.655 183.944 211.227 183.363 209.49C182.796 211.329 181.6 212.86 180.178 213.578L179.494 212.676C181.299 211.842 182.803 209.531 182.816 207.221V205.006H183.883V207.221ZM189.584 203.953V216.135H188.504V203.953H189.584ZM197.158 211.637C199.77 211.637 201.424 212.457 201.424 213.865C201.424 215.26 199.77 216.08 197.158 216.08C194.561 216.08 192.906 215.26 192.906 213.865C192.906 212.457 194.561 211.637 197.158 211.637ZM197.158 212.457C195.217 212.471 193.959 213.004 193.973 213.865C193.959 214.713 195.217 215.232 197.158 215.232C199.1 215.232 200.344 214.713 200.357 213.865C200.344 213.004 199.1 212.471 197.158 212.457ZM201.328 204.582V205.607C201.328 206.592 201.328 207.576 200.986 208.834L199.934 208.711C200.262 207.453 200.262 206.564 200.262 205.607V205.457H192.988V204.582H201.328ZM202.736 209.627V210.502H191.676V209.627H196.256V207.275H197.309V209.627H202.736ZM205.826 204.35V205.895H207.809V204.35H208.834V209.217H204.801V204.35H205.826ZM205.826 208.342H207.809V206.729H205.826V208.342ZM210.816 204.35V205.895H212.785V204.35H213.811V209.217H209.777V204.35H210.816ZM210.816 208.342H212.785V206.729H210.816V208.342ZM214.877 210.434V211.309H209.928V213.701H208.861V211.309H203.748V210.434H214.877ZM213.633 215.041V215.916H205.17V212.621H206.236V215.041H213.633ZM222 205.061V210.652H216.381V205.061H222ZM217.434 205.936V209.791H220.961V205.936H217.434ZM225.363 203.953V207.658H227.195V208.561H225.363V212.867H224.297V203.953H225.363ZM225.924 214.945V215.848H217.762V212.02H218.814V214.945H225.924ZM234.729 204.896C236.52 204.91 237.791 206.551 237.805 209.135C237.791 211.719 236.52 213.359 234.729 213.359C232.924 213.359 231.666 211.719 231.666 209.135C231.666 206.551 232.924 204.91 234.729 204.896ZM234.729 205.854C233.525 205.867 232.678 207.152 232.678 209.135C232.678 211.117 233.525 212.402 234.729 212.402C235.945 212.402 236.766 211.117 236.766 209.135C236.766 207.152 235.945 205.867 234.729 205.854ZM240.881 203.953V208.807H242.918V209.736H240.881V216.107H239.814V203.953H240.881ZM253.609 203.967V212.799H252.543V203.967H253.609ZM253.992 214.945V215.848H245.639V211.91H246.719V214.945H253.992ZM245.42 204.869V209.531C247.566 209.545 249.303 209.429 251.189 209.012L251.34 209.914C249.344 210.324 247.553 210.461 245.324 210.461H244.34V204.869H245.42ZM168.522 223.633C168.522 225.916 169.562 228.213 171.667 229.102L170.642 230.496C169.22 229.854 168.235 228.616 167.675 227.078C167.107 228.753 166.089 230.106 164.571 230.797L163.519 229.348C165.692 228.432 166.745 226.053 166.759 223.633V221.773H168.522V223.633ZM174.101 220.816V233.285H172.337V220.816H174.101ZM181.388 228.568C184.108 228.568 185.817 229.43 185.831 230.92C185.817 232.383 184.108 233.258 181.388 233.258C178.694 233.258 176.958 232.383 176.958 230.92C176.958 229.43 178.694 228.568 181.388 228.568ZM181.388 229.867C179.679 229.867 178.694 230.223 178.694 230.92C178.694 231.59 179.679 231.932 181.388 231.932C183.097 231.932 184.095 231.59 184.095 230.92C184.095 230.223 183.097 229.867 181.388 229.867ZM185.763 221.377V222.389C185.763 223.373 185.763 224.439 185.407 225.725L183.698 225.561C183.972 224.433 184.006 223.592 184.026 222.744H177.081V221.377H185.763ZM187.103 226.367V227.775H175.81V226.367H180.048V224.193H181.771V226.367H187.103ZM201.581 220.83V230.004H199.858V227.406H197.015V226.012H199.858V224.617H197.192C196.304 226.511 194.499 227.912 191.997 228.664L191.272 227.311C193.925 226.47 195.593 224.993 195.907 223.154H191.942V221.76H197.808C197.808 222.266 197.753 222.758 197.657 223.223H199.858V220.83H201.581ZM201.909 231.645V233.039H193.392V229.088H195.169V231.645H201.909ZM210.386 221.514V222.895H207.911C207.925 224.364 208.8 225.868 210.769 226.518L209.907 227.857C208.526 227.42 207.583 226.518 207.05 225.396C206.489 226.641 205.498 227.646 204.028 228.117L203.14 226.736C205.184 226.08 206.113 224.446 206.134 222.895H203.632V221.514H210.386ZM213.694 228.773V233.258H211.958V230.168H205.149V228.773H213.694ZM213.694 220.816V228.227H211.958V225.232H210.03V223.811H211.958V220.816H213.694ZM228.952 220.816V233.285H227.189V220.816H228.952ZM220.899 221.801V224.836H223.579V221.801H225.302V230.373H219.149V221.801H220.899ZM220.899 228.965H223.579V226.189H220.899V228.965ZM240.956 221.896V223.113C240.942 224.631 240.942 226.34 240.491 228.842L238.782 228.691C239.192 226.415 239.206 224.72 239.206 223.277H231.755V221.896H240.956ZM241.981 230.318V231.74H230.634V230.318H233.054V226.408H234.79V230.318H236.157V226.408H237.88V230.318H241.981ZM252.673 226.654V227.529H248.913V230.674H253.985V231.576H242.856V230.674H247.86V227.529H244.278V221.951H252.55V222.826H245.358V226.654H252.673ZM267.876 220.953V225.902H269.845V226.805H267.876V233.107H266.81V220.953H267.876ZM264.731 222.266C264.731 225.711 263.118 228.842 259.153 230.797L258.552 229.949C261.696 228.384 263.405 226.046 263.651 223.168H259.112V222.266H264.731ZM280.386 224.357V225.246H272.087V221.199H273.153V224.357H280.386ZM281.657 226.668V227.557H270.569V226.668H281.657ZM276.106 228.65C278.718 228.65 280.276 229.443 280.29 230.852C280.276 232.26 278.718 233.053 276.106 233.053C273.481 233.053 271.909 232.26 271.909 230.852C271.909 229.443 273.481 228.65 276.106 228.65ZM276.106 229.498C274.151 229.512 272.989 229.99 273.003 230.852C272.989 231.699 274.151 232.219 276.106 232.219C278.034 232.219 279.21 231.699 279.21 230.852C279.21 229.99 278.034 229.512 276.106 229.498ZM292.171 220.953V224.07H294.003V224.986H292.171V228.021H291.105V220.953H292.171ZM285.554 228.555V229.854H291.105V228.555H292.171V232.943H284.487V228.555H285.554ZM285.554 232.082H291.105V230.701H285.554V232.082ZM289.942 222.211V223.1H282.696V222.211H285.786V220.844H286.853V222.211H289.942ZM286.319 223.66C288.069 223.66 289.231 224.494 289.245 225.793C289.231 227.092 288.069 227.926 286.319 227.926C284.556 227.926 283.38 227.092 283.394 225.793C283.38 224.494 284.556 223.66 286.319 223.66ZM286.319 224.494C285.171 224.48 284.405 225.014 284.419 225.793C284.405 226.586 285.171 227.105 286.319 227.105C287.454 227.105 288.22 226.586 288.233 225.793C288.22 225.014 287.454 224.48 286.319 224.494ZM304.79 220.953V233.107H303.724V220.953H304.79ZM296.614 222.156V229.047C298.467 229.04 300.388 228.89 302.425 228.459L302.575 229.375C300.415 229.826 298.487 229.977 296.546 229.977H295.562V222.156H296.614ZM316.274 220.953V225.766H318.312V226.668H316.274V233.135H315.208V220.953H316.274ZM313.075 222.143V223.031H308.468V229.184C310.669 229.184 312.228 229.081 314.032 228.746L314.169 229.676C312.269 230.018 310.669 230.086 308.358 230.086H307.401V222.143H313.075ZM320.253 232.082C319.774 232.082 319.364 231.686 319.378 231.193C319.364 230.715 319.774 230.318 320.253 230.318C320.731 230.318 321.128 230.715 321.128 231.193C321.128 231.686 320.731 232.082 320.253 232.082Z" fill="black"/>
<rect width="162.416" height="161.372" rx="30" fill="#F1F4F9"/>
<rect x="177" width="187.484" height="161.372" rx="30" fill="#F1F4F9"/>
<rect x="26.1123" y="60.5796" width="110.714" height="36.0344" rx="18.0172" fill="#0283FD"/>
<path d="M71.1618 74.6132V80.773H70.0051V79.0288H68.0957V78.0925H70.0051V77.1561H68.215C67.6183 78.4275 66.4066 79.3685 64.7266 79.8734L64.2401 78.9646C66.021 78.4 67.141 77.4085 67.3521 76.1738H64.6899V75.2375H68.6281C68.6281 75.5771 68.5914 75.9076 68.5271 76.2197H70.0051V74.6132H71.1618ZM71.3821 81.8746V82.811H65.663V80.1579H66.8564V81.8746H71.3821ZM77.0737 75.0722V75.9994H75.4121C75.4213 76.9863 76.0088 77.9961 77.3307 78.4321L76.7524 79.3318C75.8252 79.038 75.1918 78.4321 74.8338 77.6794C74.4574 78.5147 73.7919 79.1895 72.805 79.5062L72.2083 78.579C73.5807 78.1384 74.205 77.0413 74.2187 75.9994H72.5388V75.0722H77.0737ZM79.2953 79.9468V82.9578H78.1294V80.8832H73.5578V79.9468H79.2953ZM79.2953 74.6041V79.5796H78.1294V77.5692H76.835V76.6145H78.1294V74.6041H79.2953ZM89.1729 74.6041V76.5043H90.302V77.4682H89.1729V79.4786H87.9979V74.6041H89.1729ZM83.9587 75.0906V76.1555H85.6662V75.0906H86.8412V79.0655H82.7928V75.0906H83.9587ZM83.9587 78.1475H85.6662V77.0643H83.9587V78.1475ZM89.2188 79.855V80.7822H84.8767V81.9297H89.3749V82.8477H83.7108V79.855H89.2188ZM97.6919 74.6041V82.9578H96.5077V74.6041H97.6919ZM95.1858 75.4762C95.1858 78.0098 94.2953 80.112 91.3118 81.5258L90.6968 80.5894C92.8541 79.5704 93.8042 78.2485 93.9924 76.3942H91.1466V75.4762H95.1858Z" fill="white"/>
<path d="M133.693 98.8652L115.617 82.2432L115.604 106.8L121.09 101.552L124.312 108.896L129.338 106.691L126.116 99.3467L133.693 98.8652Z" fill="white"/>
<path d="M133.693 98.8652L115.617 82.2432L115.604 106.8L121.09 101.552L124.312 108.896L129.338 106.691L126.116 99.3467L133.693 98.8652ZM127.281 105.888L125.114 106.839L121.623 98.8804L117.168 103.144L117.176 85.7988L129.944 97.5389L123.79 97.93L127.281 105.888Z" fill="black"/>
<circle cx="170.51" cy="78.5968" r="18.0172" fill="#8995A1"/>
<path opacity="0.3" d="M166.071 78.5969L159.413 82.4412L159.413 74.7526L166.071 78.5969Z" fill="white"/>
<path opacity="0.6" d="M174.949 78.5969L168.291 82.4412L168.291 74.7526L174.949 78.5969Z" fill="white"/>
<path opacity="0.9" d="M183.827 78.5969L177.169 82.4412L177.169 74.7526L183.827 78.5969Z" fill="white"/>
<g filter="url(#filter0_d_8890_12762)">
<rect x="189" y="55.3013" width="59.0104" height="78.2621" rx="6.2777" transform="rotate(-18.9971 189 55.3013)" fill="url(#paint0_linear_8890_12762)"/>
<path d="M209.909 63.8184L210.136 64.4788L207.259 65.4694L207.032 64.8089L208.065 64.4532L207.808 63.7078L208.632 63.4241L208.889 64.1696L209.909 63.8184ZM208.803 65.2377C209.562 64.9766 210.307 65.3782 210.597 66.1999C210.877 67.0327 210.536 67.808 209.778 68.0692C209.019 68.3303 208.261 67.9332 207.975 67.1027C207.691 66.2787 208.045 65.4989 208.803 65.2377ZM209.042 65.9309C208.695 66.0502 208.552 66.3993 208.707 66.8505C208.863 67.3017 209.188 67.4823 209.535 67.3629C209.868 67.2481 210.014 66.9055 209.865 66.4521C209.703 66.0031 209.375 65.816 209.042 65.9309ZM211.872 62.126L213.92 68.0767L213.129 68.3491L212.143 65.4849L211.659 65.6515L212.557 68.2606L211.779 68.5285L209.859 62.9506L210.637 62.6827L211.43 64.9845L211.913 64.8179L211.08 62.3984L211.872 62.126ZM217.633 60.1426L218.745 63.373L217.908 63.6611L217.395 62.1702L216.688 62.4133L216.459 61.7463L217.165 61.5032L216.796 60.4308L217.633 60.1426ZM215.537 64.7626L215.728 65.3185L218.194 64.4698L218.002 63.9139L218.833 63.628L219.659 66.0279L215.533 67.4484L214.706 65.0486L215.537 64.7626ZM216.131 66.489L218.597 65.6403L218.421 65.1302L215.956 65.9789L216.131 66.489ZM214.254 61.9495C214.432 62.4661 214.714 63.0528 215.224 63.4075C215.39 62.8274 215.248 62.2033 215.065 61.6703L214.959 61.363L215.744 61.0929L215.85 61.4002C216.108 62.1522 216.559 62.8455 217.401 63.0384L217.148 63.7911C216.658 63.6854 216.276 63.3928 215.977 63.0021C215.985 63.5149 215.881 64.008 215.56 64.4037C215.054 64.2851 214.666 63.9543 214.361 63.5363C214.366 64.0393 214.245 64.5162 213.924 64.9009L213.268 64.4612C213.806 63.7932 213.715 62.9324 213.469 62.2197L213.363 61.9123L214.148 61.6422L214.254 61.9495ZM224.861 57.6615L226.356 62.0035L225.525 62.2895L224.791 60.1577L223.817 60.4931L223.585 59.8196L224.559 59.4841L224.03 57.9474L224.861 57.6615ZM226.785 62.7845L227.015 63.4515L222.922 64.8608L222.275 62.984L223.112 62.6959L223.529 63.9056L226.785 62.7845ZM222.495 59.7778C222.732 60.4644 223.405 61.0592 224.459 61.0401L224.274 61.8424C223.541 61.8573 222.94 61.5778 222.491 61.1251C222.437 61.8167 222.127 62.4573 221.505 62.9347L220.846 62.401C221.721 61.7559 221.898 60.8247 221.643 60.0639L221.612 59.9724L220.415 60.3843L220.185 59.7173L223.416 58.6052L223.645 59.2722L222.462 59.6797L222.495 59.7778ZM232.084 58.4589L232.311 59.1194L230.068 59.8916L230.422 60.9182L229.598 61.2019L229.244 60.1752L226.864 60.9947L226.637 60.3342L232.084 58.4589ZM230.461 56.0187L231.215 58.2094L227.148 59.6096L226.394 57.419L230.461 56.0187ZM227.434 57.785L227.743 58.6809L230.175 57.8434L229.867 56.9475L227.434 57.785ZM232.252 60.9024L232.482 61.5694L228.277 63.017L227.681 61.2841L228.511 60.9982L228.878 62.0641L232.252 60.9024ZM236.113 53.7806L236.898 56.0627L237.742 55.7723L237.978 56.4589L237.135 56.7494L238.157 59.7182L237.32 60.0063L235.276 54.0687L236.113 53.7806ZM234.733 54.9358C235.339 56.7167 235.177 58.4986 233.514 60.1683L232.822 59.6896C233.988 58.4982 234.417 57.29 234.117 55.9085L232.136 56.5906L231.901 55.9106L234.733 54.9358ZM214.489 69.6858L216.538 75.6364L215.74 75.9111L213.691 69.9604L214.489 69.6858ZM213.302 70.1895L215.227 75.7805L214.442 76.0507L213.807 74.2066L213.108 74.4475C213.084 75.1028 212.809 75.5669 212.309 75.7392C211.524 76.0093 210.73 75.361 210.269 74.0204C209.81 72.6864 210.038 71.6934 210.823 71.4233C211.32 71.2522 211.82 71.4419 212.243 71.9364L212.943 71.6956L212.517 70.4596L213.302 70.1895ZM211.093 72.208C210.747 72.3273 210.708 72.8526 211.027 73.7593C211.336 74.677 211.688 75.0607 212.032 74.9348C212.381 74.8221 212.435 74.2988 212.119 73.3833C211.807 72.4744 211.433 72.0909 211.093 72.208ZM212.636 72.5472C212.725 72.7213 212.806 72.9129 212.878 73.1222C212.949 73.3282 213.003 73.5288 213.039 73.7177L213.575 73.5331L213.172 72.3626L212.636 72.5472ZM217.61 69.6573C217.857 70.3766 218.514 70.9257 219.557 70.8958L219.336 71.6963C218.633 71.7042 218.052 71.4508 217.616 71.0154C217.565 71.706 217.266 72.3355 216.665 72.7985L215.989 72.2999C216.868 71.6242 217.021 70.6867 216.746 69.867L216.559 69.3243L217.396 69.0361L217.61 69.6573ZM219.838 67.8442L220.318 69.2371L221.122 68.9602L221.361 69.6533L220.556 69.9302L221.054 71.3754L220.217 71.6636L219.001 68.1324L219.838 67.8442ZM219.146 72.164C220.375 71.7407 221.299 71.8979 221.549 72.6237C221.801 73.3561 221.167 74.0425 219.938 74.4658C218.682 74.898 217.754 74.7497 217.502 74.0173C217.252 73.2914 217.89 72.5962 219.146 72.164ZM219.371 72.8179C218.586 73.088 218.219 73.4044 218.339 73.7291C218.449 74.0714 218.928 74.082 219.713 73.8119C220.485 73.5462 220.842 73.2474 220.725 72.9074C220.613 72.5804 220.142 72.5522 219.371 72.8179ZM227.458 65.228L228.969 69.6158L228.145 69.8995L227.717 68.6571L226.357 69.1253L226.128 68.4583L227.488 67.9901L227.258 67.3231L225.983 67.7621C225.87 68.8141 225.237 69.7815 224.164 70.5531L223.595 70.0251C224.725 69.1862 225.28 68.2053 225.127 67.274L223.231 67.9268L223.001 67.2598L225.807 66.2941C225.89 66.536 225.945 66.7804 225.976 67.0185L227.029 66.6561L226.635 65.5117L227.458 65.228ZM229.396 70.3465L229.626 71.0135L225.552 72.4161L224.901 70.5262L225.751 70.2336L226.172 71.4564L229.396 70.3465ZM231.782 64.1052L232.01 64.7657L230.826 65.1731C231.075 65.8738 231.741 66.4491 232.789 66.4355L232.598 67.2182C231.865 67.2363 231.266 66.96 230.826 66.5116C230.763 67.199 230.454 67.8429 229.829 68.3105L229.176 67.7963C230.046 67.1459 230.222 66.2114 229.976 65.4658L228.779 65.8778L228.552 65.2173L231.782 64.1052ZM234.56 67.0327L235.299 69.1776L234.468 69.4635L233.959 67.9856L230.703 69.1067L230.473 68.4397L234.56 67.0327ZM233.25 63.2269L234.47 66.7711L233.64 67.057L233.147 65.625L232.225 65.9424L231.99 65.2623L232.913 64.9449L232.419 63.5128L233.25 63.2269ZM236.735 63.5339C237.12 64.6521 237.945 65.5823 239.087 65.6717L238.807 66.5142C238.035 66.4179 237.39 65.9781 236.892 65.3301C236.899 66.1983 236.661 66.9935 236.096 67.5644L235.339 67.0644C236.202 66.2555 236.27 64.9447 235.891 63.8243L235.585 62.935L236.429 62.6445L236.735 63.5339ZM239.044 61.2323L241.097 67.196L240.273 67.4797L239.095 64.0597L237.925 64.4627L237.693 63.7891L238.864 63.3861L238.22 61.5159L239.044 61.2323Z" fill="#22272B"/>
<g clip-path="url(#clip0_8890_12762)">
<path d="M231.331 100.847L231.852 92.3289L229.019 92.1555L228.418 101.969C228.393 102.383 228.86 102.639 229.195 102.395L230.999 101.082C231.053 101.043 231.109 101.017 231.17 101.003L231.331 100.847Z" fill="#FFE07D"/>
<path d="M231.702 92.32L231.17 101.003C231.327 100.964 231.498 101.004 231.622 101.12L233.253 102.644C233.555 102.927 234.051 102.73 234.076 102.316L234.677 92.5022L231.702 92.32Z" fill="#FFD064"/>
<path d="M234.388 91.363L232.096 93.3906L238.611 100.755C238.885 101.065 239.397 100.916 239.462 100.507L239.808 98.3019C239.819 98.234 239.843 98.1711 239.878 98.1159L240.015 97.7266L234.388 91.363Z" fill="#FFE07D"/>
<path d="M242.856 96.9988L236.341 89.6345L234.116 91.6026L239.878 98.1158C239.963 97.9825 240.109 97.8938 240.275 97.8882L242.505 97.8128C242.92 97.7988 243.13 97.3091 242.856 96.9988Z" fill="#FFD064"/>
<path d="M229.813 79.664C230.286 79.8311 230.812 79.7534 231.217 79.4564C231.787 79.0387 232.569 79.0685 233.106 79.5282C233.487 79.8552 234.005 79.9727 234.49 79.842C235.172 79.6583 235.891 79.9687 236.225 80.5912C236.463 81.0339 236.904 81.3306 237.403 81.384C238.106 81.4591 238.664 82.0082 238.75 82.7093C238.812 83.2078 239.116 83.6438 239.562 83.8741C240.19 84.1978 240.512 84.9114 240.34 85.5964C240.217 86.0836 240.343 86.5999 240.676 86.9759C241.144 87.5046 241.187 88.2863 240.779 88.8628C240.488 89.2727 240.419 89.7996 240.594 90.2705C240.84 90.9328 240.597 91.6771 240.008 92.0671C239.589 92.3444 239.334 92.8108 239.327 93.3131C239.317 94.0195 238.822 94.6259 238.132 94.7767C237.641 94.8841 237.235 95.2269 237.047 95.6927C236.783 96.3477 236.102 96.7342 235.404 96.6257C234.907 96.5485 234.405 96.7215 234.061 97.0879C233.578 97.6032 232.803 97.7176 232.192 97.3642C231.757 97.1129 231.226 97.0927 230.773 97.3102C230.136 97.6161 229.373 97.4431 228.93 96.8926C228.615 96.5012 228.127 96.2904 227.626 96.3297C226.922 96.385 226.273 95.9478 226.059 95.2746C225.907 94.7958 225.528 94.4231 225.047 94.2788C224.37 94.0759 223.922 93.4337 223.966 92.7286C223.997 92.2272 223.779 91.7428 223.382 91.4344C222.824 91.0008 222.639 90.2402 222.934 89.5985C223.144 89.1422 223.116 88.6116 222.857 88.1808C222.494 87.575 222.596 86.7987 223.103 86.3072C223.464 85.9576 223.628 85.4523 223.543 84.9573C223.423 84.2611 223.799 83.5741 224.449 83.2989C224.912 83.1033 225.248 82.6917 225.347 82.1992C225.487 81.5067 226.085 81.0017 226.791 80.9802C227.293 80.9649 227.755 80.7025 228.026 80.2791C228.406 79.6838 229.147 79.429 229.813 79.664Z" fill="#E8AE4D"/>
<path d="M235.723 86.9925C234.714 84.0621 231.966 82.2242 229.031 82.2345C225.912 83.6446 224.323 87.2247 225.46 90.5257C226.596 93.8266 230.052 95.6701 233.378 94.8615C235.698 93.0624 236.731 89.9229 235.723 86.9925Z" fill="#FFE07D"/>
<path d="M229.617 82.001C229.132 82.1681 228.678 82.3856 228.259 82.6452C231.303 82.3156 234.279 84.1148 235.317 87.1315C236.356 90.1482 235.118 93.3979 232.517 95.0115C233.007 94.9585 233.498 94.8505 233.984 94.6834C237.486 93.4777 239.347 89.6612 238.142 86.1591C236.936 82.6569 233.12 80.7953 229.617 82.001Z" fill="#FFD064"/>
<path d="M232.814 90.7161L235.509 91.4358C235.615 91.4641 235.713 91.4399 235.788 91.3856C235.829 91.2539 235.866 91.1208 235.9 90.9866C235.891 90.9663 235.88 90.9462 235.866 90.9266L234.268 88.6394C234.191 88.529 234.188 88.3829 234.262 88.2699L235.483 86.386C235.351 86.0926 235.2 85.812 235.033 85.5452L232.736 86.2451C232.607 86.2844 232.467 86.2416 232.383 86.137L230.625 83.9702C230.43 83.7305 230.042 83.864 230.037 84.1725L229.985 86.9623C229.983 87.0969 229.899 87.2166 229.773 87.265L227.169 88.2672C226.881 88.3781 226.888 88.788 227.18 88.8888L229.817 89.7998C229.945 89.8438 230.033 89.9605 230.04 90.095L230.188 92.8813C230.205 93.1895 230.597 93.3093 230.783 93.0631L232.464 90.8364C232.545 90.729 232.684 90.6814 232.814 90.7161Z" fill="#E8AE4D"/>
<path d="M235.509 91.4358C235.807 91.5154 236.043 91.1796 235.866 90.9266L235.576 90.5118C235.521 90.8114 235.446 91.106 235.352 91.3939L235.509 91.4358Z" fill="#E5A32E"/>
<path d="M235.404 85.4316L234.609 85.6737C234.839 86.0299 235.038 86.4126 235.2 86.8194L235.778 85.9281C235.946 85.6692 235.699 85.3417 235.404 85.4316Z" fill="#E5A32E"/>
</g>
</g>
<g filter="url(#filter1_d_8890_12762)">
<rect x="244.244" y="33.9998" width="59.0104" height="78.2621" rx="6.2777" fill="url(#paint1_linear_8890_12762)"/>
<path d="M270.82 48.8591V49.5576H267.777V48.8591H268.87V48.0706H269.741V48.8591H270.82ZM269.312 49.8411C270.115 49.8411 270.689 50.4635 270.696 51.3349C270.689 52.2133 270.115 52.8357 269.312 52.8357C268.51 52.8357 267.922 52.2133 267.922 51.3349C267.922 50.4635 268.51 49.8411 269.312 49.8411ZM269.312 50.5742C268.946 50.5742 268.697 50.8577 268.697 51.3349C268.697 51.8121 268.946 52.0888 269.312 52.0888C269.665 52.0888 269.914 51.8121 269.921 51.3349C269.914 50.8577 269.665 50.5742 269.312 50.5742ZM273.227 47.8977V54.1912H272.39V51.162H271.878V53.9215H271.055V48.0222H271.878V50.4566H272.39V47.8977H273.227ZM279.32 47.8977V51.3142H278.434V49.7374H277.687V49.0319H278.434V47.8977H279.32ZM275.834 51.5839V52.1718H278.441V51.5839H279.32V54.122H274.956V51.5839H275.834ZM275.834 53.4097H278.441V52.8703H275.834V53.4097ZM275.537 48.5063C275.537 49.0527 275.613 49.6993 275.979 50.2007C276.325 49.7062 276.394 49.07 276.394 48.5063V48.1813H277.224V48.5063C277.224 49.3017 277.425 50.1039 278.158 50.5604L277.674 51.1897C277.245 50.9304 276.979 50.5292 276.823 50.0624C276.664 50.55 276.405 50.9822 275.972 51.2519C275.533 50.9753 275.274 50.5362 275.122 50.0417C274.963 50.5189 274.693 50.9304 274.264 51.1897L273.787 50.5604C274.513 50.1039 274.707 49.2602 274.707 48.5063V48.1813H275.537V48.5063ZM260.235 57.3224C260.235 58.4774 260.761 59.6392 261.826 60.0888L261.307 60.7942C260.588 60.4691 260.09 59.8433 259.806 59.0652C259.519 59.9124 259.004 60.5971 258.237 60.9463L257.704 60.2133C258.804 59.7499 259.336 58.5465 259.343 57.3224V56.3819H260.235V57.3224ZM263.057 55.8977V62.205H262.165V55.8977H263.057ZM266.743 59.819C268.119 59.819 268.984 60.2547 268.991 61.0086C268.984 61.7486 268.119 62.1912 266.743 62.1912C265.381 62.1912 264.502 61.7486 264.502 61.0086C264.502 60.2547 265.381 59.819 266.743 59.819ZM266.743 60.4761C265.879 60.4761 265.381 60.6559 265.381 61.0086C265.381 61.3475 265.879 61.5204 266.743 61.5204C267.608 61.5204 268.112 61.3475 268.112 61.0086C268.112 60.6559 267.608 60.4761 266.743 60.4761ZM268.956 56.1813V56.6931C268.956 57.191 268.956 57.7305 268.776 58.3805L267.912 58.2976C268.05 57.727 268.068 57.3017 268.078 56.8729H264.565V56.1813H268.956ZM269.634 58.7056V59.4179H263.921V58.7056H266.065V57.606H266.937V58.7056H269.634ZM276.958 55.9047V60.5452H276.086V59.2312H274.648V58.5258H276.086V57.8204H274.738C274.288 58.7782 273.375 59.4871 272.11 59.8675L271.743 59.1828C273.085 58.7575 273.929 58.0105 274.088 57.0804H272.082V56.3749H275.049C275.049 56.6308 275.021 56.8798 274.973 57.1149H276.086V55.9047H276.958ZM277.124 61.3751V62.0805H272.815V60.0818H273.714V61.3751H277.124ZM281.412 56.2505V56.949H280.16C280.167 57.6924 280.609 58.4532 281.605 58.7817L281.17 59.4594C280.471 59.2381 279.994 58.7817 279.724 58.2146C279.441 58.8439 278.939 59.3522 278.196 59.5908L277.746 58.8923C278.78 58.5604 279.25 57.7339 279.261 56.949H277.995V56.2505H281.412ZM283.085 59.9228V62.1912H282.207V60.6282H278.763V59.9228H283.085ZM283.085 55.8977V59.6461H282.207V58.1316H281.232V57.4123H282.207V55.8977H283.085ZM286.28 57.3224C286.28 58.505 286.758 59.6531 287.809 60.1095L287.269 60.8149C286.571 60.4726 286.104 59.8467 285.845 59.0721C285.568 59.8951 285.084 60.5694 284.365 60.9256L283.811 60.2063C284.89 59.7222 285.381 58.505 285.388 57.3224V56.3819H286.28V57.3224ZM289.213 55.8977V62.205H288.341V58.588H287.103V57.8757H288.341V55.8977H289.213Z" fill="#22272B"/>
<rect x="264.584" y="67.9584" width="17.9961" height="2.9296" rx="0.418514" fill="#D4DCE5"/>
<rect x="255.377" y="75.0729" width="36.4107" height="0.837027" rx="0.418514" fill="#D4DCE5"/>
<rect x="255.377" y="78.8396" width="36.4107" height="0.837027" rx="0.418514" fill="#D4DCE5"/>
<rect x="265.84" y="82.6061" width="15.485" height="0.837027" rx="0.418514" fill="#D4DCE5"/>
<path d="M278.703 95.9286H272.982C273.101 95.415 273.186 94.883 273.24 94.342C273.727 94.2143 274.207 94.5668 274.192 95.0277C274.16 95.1707 274.144 95.2638 274.142 95.2722C274.123 95.3825 274.192 95.4891 274.301 95.517C274.409 95.5449 274.521 95.4847 274.557 95.3788C274.59 95.2824 274.612 95.1861 274.619 95.0797C274.763 94.4403 275.048 93.6454 275.339 93.5508C275.366 93.5418 275.45 93.5147 275.606 93.6635C275.826 93.8581 276.183 94.5674 277.135 94.6482C277.596 94.6874 278.048 94.5514 278.405 94.2652C278.498 94.1911 278.513 94.0559 278.439 93.9633C278.365 93.8706 278.23 93.8556 278.137 93.9297C276.982 94.8535 276.018 93.4642 275.911 93.3604C275.625 93.0835 275.369 93.0889 275.206 93.1423C274.879 93.2486 274.61 93.6373 274.381 94.3306C274.119 94.0041 273.701 93.8385 273.277 93.8972C273.376 92.4132 273.244 89.3755 271.94 89.247C270.75 89.1297 269.663 91.7908 269.228 92.9036C269.185 93.0141 269.239 93.1387 269.35 93.1819C269.46 93.2251 269.585 93.1705 269.628 93.06C269.943 92.2553 271.045 89.5907 271.898 89.6746C272.854 89.7688 272.933 92.8146 272.837 94.0263C271.87 94.4017 271.123 95.1223 270.615 95.9286H268.997C268.64 95.9286 268.351 96.2185 268.351 96.5748C268.351 96.9311 268.64 97.221 268.997 97.221H270.018C269.957 97.4202 269.91 97.6165 269.878 97.8063C269.758 98.5179 269.865 99.0578 270.171 99.2875C270.824 99.7774 271.999 98.6932 272.585 97.221H278.703C279.059 97.221 279.349 96.9311 279.349 96.5748C279.349 96.2185 279.059 95.9286 278.703 95.9286ZM272.79 94.5124C272.731 95.0185 272.648 95.4866 272.541 95.9286H271.128C271.542 95.3442 272.099 94.8292 272.79 94.5124ZM272.426 96.3583C272.383 96.5081 272.336 96.6525 272.287 96.7914H270.637C270.701 96.646 270.774 96.5011 270.855 96.3583H272.426ZM268.997 96.7914C268.877 96.7914 268.78 96.6942 268.78 96.5748C268.78 96.4554 268.877 96.3583 268.997 96.3583H270.37C270.296 96.5019 270.23 96.6467 270.171 96.7914H268.997ZM270.429 98.9438C270.293 98.8421 270.201 98.473 270.302 97.8778C270.337 97.6657 270.393 97.4447 270.469 97.221H272.121C271.535 98.5874 270.653 99.1123 270.429 98.9438ZM278.703 96.7914H272.741C272.788 96.6516 272.831 96.5071 272.873 96.3583H278.703C278.822 96.3583 278.919 96.4554 278.919 96.5748C278.919 96.6942 278.822 96.7914 278.703 96.7914Z" fill="#687481"/>
<path d="M268.867 95.4346C268.951 95.5185 269.087 95.5185 269.17 95.4346L269.324 95.2815L269.477 95.4346C269.561 95.5185 269.697 95.5186 269.78 95.4346C269.864 95.3508 269.864 95.2147 269.78 95.1309L269.627 94.9777L269.78 94.8246C269.864 94.7407 269.864 94.6047 269.78 94.5208C269.697 94.4369 269.561 94.4369 269.477 94.5208L269.324 94.674L269.17 94.5208C269.087 94.4369 268.951 94.4369 268.867 94.5208C268.783 94.6047 268.783 94.7407 268.867 94.8246L269.02 94.9777L268.867 95.1309C268.783 95.2147 268.783 95.3507 268.867 95.4346Z" fill="#687481"/>
</g>
<g filter="url(#filter2_d_8890_12762)">
<rect x="303.204" y="36.0918" width="59.0104" height="78.2621" rx="6.2777" transform="rotate(19 303.204 36.0918)" fill="url(#paint2_linear_8890_12762)"/>
<path d="M316.964 55.8285L316.799 56.3058C316.64 56.7701 316.462 57.2867 316.09 57.9195L316.875 58.1897L316.643 58.8632L311.196 56.9876L311.428 56.3141L315.247 57.629C315.582 57.079 315.757 56.6236 315.904 56.2095L312.601 55.0724L312.831 54.4055L316.964 55.8285ZM315.76 59.2613L315.01 61.4388L310.877 60.0158L311.627 57.8383L315.76 59.2613ZM312.219 58.7736L311.924 59.6302L314.409 60.4858L314.704 59.6292L312.219 58.7736ZM322.474 60.666L322.244 61.333L316.816 59.4642L317.046 58.7972L319.341 59.5875L319.614 58.7962L320.438 59.0799L320.165 59.8712L322.474 60.666ZM321.074 57.2731C320.836 57.9663 321.275 58.8564 322.56 59.4814L322.016 60.0185C321.064 59.5224 320.471 58.8462 320.301 58.1185C319.712 58.5851 318.827 58.7557 317.772 58.5572L317.701 57.8085C319.072 58.0976 319.992 57.6539 320.224 56.9804L320.292 56.7842L321.142 57.0769L321.074 57.2731ZM321.439 61.5241L320.762 63.4923L319.931 63.2064L320.386 61.8855L317.051 60.7372L317.274 60.0898L321.439 61.5241ZM326.798 59.3023C326.262 60.8586 324.91 61.5998 322.997 61.4826L322.893 60.7226C324.294 60.8174 325.258 60.4179 325.679 59.6631L323.835 59.0281L324.064 58.3612L326.798 59.3023ZM328.844 59.6265L327.698 62.9549L326.867 62.669L327.293 61.4331L326.234 61.0683L326.468 60.3882L327.527 60.753L328.013 59.3406L328.844 59.6265ZM327.617 63.1903L326.822 65.4986L322.879 64.1409L323.674 61.8326L327.617 63.1903ZM324.266 62.768L323.921 63.7684L326.223 64.561L326.568 63.5605L324.266 62.768ZM334.159 64.2871L333.949 64.8953L331.66 64.1072L331.532 64.48L333.173 65.0451L332.674 66.4968L329.358 65.3552L329.246 65.6822L332.718 66.8778L332.506 67.4924L328.217 66.0154L328.734 64.5114L332.043 65.6507L332.145 65.3565L328.829 64.2149L329.034 63.6198L330.702 64.194L330.83 63.8213L328.548 63.0355L328.757 62.4273L334.159 64.2871ZM332.739 60.9531L332.577 61.4239L334.362 62.0386L334.151 62.6533L332.47 62.0746C332.514 62.4775 333.024 62.9714 334.211 63.4347L333.757 63.9661C332.67 63.5332 332.002 62.9886 331.778 62.4068C331.246 62.7285 330.381 62.7452 329.252 62.4147L329.234 61.7212C330.445 62.0831 331.148 62.0069 331.437 61.7189L329.769 61.1447L329.981 60.5301L331.753 61.1402L331.915 60.6694L332.739 60.9531ZM340.407 63.6008L338.358 69.5514L337.515 69.2609L339.564 63.3103L340.407 63.6008ZM338.408 63.6073C337.787 65.4121 336.637 66.6912 334.165 66.9664L333.956 66.1486C335.743 65.9518 336.744 65.2433 337.333 63.9685L335.306 63.2705L335.531 62.6166L338.408 63.6073ZM313.588 63.1269L313.423 63.6043C313.263 64.0686 313.086 64.5851 312.714 65.2179L313.499 65.4881L313.267 66.1616L307.82 64.2861L308.052 63.6125L311.871 64.9275C312.206 64.3774 312.381 63.9221 312.528 63.508L309.225 62.3709L309.455 61.7039L313.588 63.1269ZM312.384 66.5597L311.634 68.7372L307.501 67.3142L308.251 65.1367L312.384 66.5597ZM308.843 66.0721L308.548 66.9287L311.033 67.7843L311.328 66.9277L308.843 66.0721ZM315.936 64.038C316.728 64.3105 317.102 65.1125 316.816 65.9648C316.513 66.8257 315.73 67.2073 314.939 66.9349C314.148 66.6624 313.773 65.8823 314.07 65.0191C314.363 64.1691 315.145 63.7656 315.936 64.038ZM315.693 64.7443C315.327 64.6182 314.977 64.805 314.815 65.2758C314.653 65.7466 314.811 66.1156 315.178 66.2417C315.537 66.3656 315.889 66.1722 316.058 65.7036C316.213 65.2306 316.053 64.8681 315.693 64.7443ZM319.779 64.9661L318.556 68.5168L317.765 68.2444L318.262 66.7992L317.772 66.6304L317.286 68.0428L316.514 67.7771L317.689 64.3637L318.461 64.6294L318.002 65.9634L318.492 66.1322L318.988 64.6936L319.779 64.9661ZM318.466 68.7784L317.732 70.9101L316.902 70.6242L317.406 69.1594L314.123 68.0291L314.353 67.3621L318.466 68.7784ZM327.004 67.4541L325.494 71.8418L324.67 71.5581L325.097 70.3157L323.737 69.8474L323.967 69.1804L325.327 69.6487L325.557 68.9817L324.282 68.5427C323.545 69.302 322.451 69.675 321.13 69.6226L321.007 68.8559C322.414 68.8906 323.455 68.4591 323.908 67.6313L322.012 66.9784L322.241 66.3114L325.047 67.2773C324.963 67.5193 324.856 67.7457 324.734 67.9522L325.786 68.3147L326.181 67.1704L327.004 67.4541ZM325.38 72.6806L325.151 73.3475L321.077 71.9448L321.728 70.055L322.578 70.3477L322.157 71.5705L325.38 72.6806ZM331.103 69.2311L330.876 69.8915L329.692 69.484C329.457 70.1892 329.627 71.0526 330.462 71.6874L329.829 72.1864C329.241 71.7497 328.938 71.1628 328.868 70.5388C328.395 71.0415 327.755 71.3589 326.975 71.3425L326.777 70.5357C327.863 70.5584 328.577 69.9301 328.842 69.1913L327.645 68.7792L327.873 68.1188L331.103 69.2311ZM331.49 73.2482L330.751 75.393L329.921 75.1071L330.43 73.6293L327.173 72.508L327.403 71.841L331.49 73.2482ZM332.8 69.4425L331.58 72.9867L330.749 72.7007L331.243 71.2686L330.321 70.9512L330.555 70.2711L331.477 70.5886L331.97 69.1565L332.8 69.4425ZM335.358 71.8298C334.973 72.9479 335.05 74.1888 335.895 74.9626L335.156 75.454C334.607 74.9029 334.369 74.1591 334.376 73.3423C333.846 74.0304 333.169 74.5103 332.373 74.6129L332.084 73.7527C333.262 73.6462 334.122 72.6552 334.514 71.5393L334.82 70.65L335.664 70.9404L335.358 71.8298ZM338.594 71.4374L336.541 77.401L335.717 77.1173L336.894 73.6974L335.724 73.2943L335.956 72.6208L337.126 73.0239L337.77 71.1537L338.594 71.4374Z" fill="#22272B"/>
</g>
<g clip-path="url(#clip1_8890_12762)">
<path d="M298.215 102.183C297.757 103.009 297.052 103.649 296.587 104.058C296.572 104.113 296.542 104.224 296.667 104.198C297.254 104 298.161 103.71 299.105 103.726C300.632 103.779 301.361 104.152 302.693 103.383C304.025 102.614 303.566 101.01 303.832 100.903L303.468 100.272L303.103 99.6412C303.103 99.6412 301.718 98.6182 300.386 99.3873C299.054 100.156 299.013 100.975 298.296 102.323L298.215 102.183Z" fill="url(#paint3_linear_8890_12762)"/>
<g opacity="0.1">
<path d="M302.683 99.8843L303.048 100.515C303.048 100.515 303.241 102.226 301.909 102.995C300.577 103.764 299.847 103.391 298.321 103.338C297.974 103.304 297.598 103.381 297.237 103.403C296.997 103.635 296.772 103.811 296.617 103.948C296.602 104.003 296.572 104.114 296.698 104.088C297.284 103.89 298.192 103.599 299.136 103.615C300.662 103.669 301.392 104.042 302.724 103.273C304.056 102.504 303.597 100.899 303.862 100.793L303.498 100.162L303.134 99.5309C303.134 99.5309 302.747 99.4272 302.374 99.2682L302.739 99.8991L302.683 99.8843Z" fill="#00495C"/>
</g>
<path opacity="0.3" d="M298.216 102.184C297.757 103.009 297.052 103.65 296.587 104.059C296.572 104.114 296.543 104.224 296.668 104.199C296.934 104.092 297.255 104 297.576 103.909C297.971 103.54 298.395 103.061 298.654 102.538C299.371 101.19 299.412 100.371 300.744 99.602C301.726 99.0354 302.647 99.5785 303.13 99.7671L303.008 99.5568C303.008 99.5568 301.623 98.5338 300.291 99.3028C298.959 100.072 298.918 100.89 298.201 102.239L298.216 102.184Z" fill="white"/>
<path d="M296.587 104.058C296.587 104.058 296.542 104.224 296.668 104.198C296.793 104.173 296.933 104.092 297.129 104.026L300.774 101.921C300.774 101.921 300.874 101.77 300.833 101.7C300.793 101.63 300.682 101.6 300.612 101.64L296.967 103.745C296.967 103.745 296.727 103.977 296.587 104.058Z" fill="url(#paint4_linear_8890_12762)"/>
<path d="M304.333 98.3713L305.021 99.5631C305.021 99.5631 305.264 99.9837 305.507 100.404C313.778 96.5169 326.172 89.4081 333.66 84.2439C333.94 84.082 335.265 82.8963 334.82 82.1252C334.253 81.1437 332.685 81.9087 332.405 82.0707C324.189 85.9729 311.836 93.1518 304.333 98.3713Z" fill="url(#paint5_linear_8890_12762)"/>
<path opacity="0.3" d="M334.514 82.1612C334.959 82.9323 333.634 84.118 333.353 84.2799C325.936 89.4036 313.612 96.4719 305.411 100.319L305.466 100.334C313.778 96.5164 326.172 89.4076 333.659 84.2434C333.94 84.0815 335.265 82.8958 334.82 82.1247C334.536 81.6339 334.009 81.6112 333.508 81.7138C333.924 81.7069 334.311 81.8106 334.514 82.1612Z" fill="#FFF5A2"/>
<g style="mix-blend-mode:multiply" opacity="0.1">
<path d="M334.016 82.0278C334.461 82.799 333.136 83.9847 332.856 84.1466C325.523 89.1745 313.325 96.2172 305.319 99.998C305.36 100.068 305.441 100.208 305.522 100.349C313.778 96.5164 326.172 89.4076 333.659 84.2434C333.94 84.0815 335.265 82.8958 334.82 82.1247C334.592 81.6487 334.064 81.626 333.578 81.6733C333.744 81.7178 333.88 81.8728 334.016 82.0278Z" fill="#B94E00"/>
</g>
<path opacity="0.3" d="M309.805 98.2965L308.308 95.7027C308.308 95.7027 308.097 95.8241 308.027 95.8646L309.525 98.4584C309.525 98.4584 309.735 98.337 309.805 98.2965Z" fill="#A20000"/>
<path d="M309.47 98.4434L307.972 95.8495C306.906 96.5119 304.688 97.9325 303.311 98.8674C302.946 99.125 302.828 99.5674 303.015 99.9732L303.42 100.674C303.622 101.025 304.105 101.213 304.526 100.971C306.024 100.246 308.322 98.9656 309.47 98.4434Z" fill="url(#paint6_linear_8890_12762)"/>
<path opacity="0.1" d="M303.273 100.338L303.476 100.689C303.678 101.04 304.161 101.228 304.581 100.985C306.079 100.261 308.378 98.9803 309.525 98.4581L309.323 98.1076C308.216 98.6999 305.877 99.9102 304.379 100.635C303.973 100.822 303.531 100.704 303.273 100.338Z" fill="black"/>
</g>
<defs>
<filter id="filter0_d_8890_12762" x="184.757" y="33.5233" width="89.7579" height="101.695" filterUnits="userSpaceOnUse" color-interpolation-filters="sRGB">
<feFlood flood-opacity="0" result="BackgroundImageFix"/>
<feColorMatrix in="SourceAlpha" type="matrix" values="0 0 0 0 0 0 0 0 0 0 0 0 0 0 0 0 0 0 127 0" result="hardAlpha"/>
<feOffset dy="1.67405"/>
<feGaussianBlur stdDeviation="2.97145"/>
<feComposite in2="hardAlpha" operator="out"/>
<feColorMatrix type="matrix" values="0 0 0 0 0.135876 0 0 0 0 0.204117 0 0 0 0 0.321989 0 0 0 0.13 0"/>
<feBlend mode="normal" in2="BackgroundImageFix" result="effect1_dropShadow_8890_12762"/>
<feBlend mode="normal" in="SourceGraphic" in2="effect1_dropShadow_8890_12762" result="shape"/>
</filter>
<filter id="filter1_d_8890_12762" x="238.301" y="29.7309" width="70.8965" height="90.1479" filterUnits="userSpaceOnUse" color-interpolation-filters="sRGB">
<feFlood flood-opacity="0" result="BackgroundImageFix"/>
<feColorMatrix in="SourceAlpha" type="matrix" values="0 0 0 0 0 0 0 0 0 0 0 0 0 0 0 0 0 0 127 0" result="hardAlpha"/>
<feOffset dy="1.67405"/>
<feGaussianBlur stdDeviation="2.97145"/>
<feComposite in2="hardAlpha" operator="out"/>
<feColorMatrix type="matrix" values="0 0 0 0 0.135876 0 0 0 0 0.204117 0 0 0 0 0.321989 0 0 0 0.13 0"/>
<feBlend mode="normal" in2="BackgroundImageFix" result="effect1_dropShadow_8890_12762"/>
<feBlend mode="normal" in="SourceGraphic" in2="effect1_dropShadow_8890_12762" result="shape"/>
</filter>
<filter id="filter2_d_8890_12762" x="273.482" y="33.523" width="89.7608" height="101.696" filterUnits="userSpaceOnUse" color-interpolation-filters="sRGB">
<feFlood flood-opacity="0" result="BackgroundImageFix"/>
<feColorMatrix in="SourceAlpha" type="matrix" values="0 0 0 0 0 0 0 0 0 0 0 0 0 0 0 0 0 0 127 0" result="hardAlpha"/>
<feOffset dy="1.67405"/>
<feGaussianBlur stdDeviation="2.97145"/>
<feComposite in2="hardAlpha" operator="out"/>
<feColorMatrix type="matrix" values="0 0 0 0 0.135876 0 0 0 0 0.204117 0 0 0 0 0.321989 0 0 0 0.13 0"/>
<feBlend mode="normal" in2="BackgroundImageFix" result="effect1_dropShadow_8890_12762"/>
<feBlend mode="normal" in="SourceGraphic" in2="effect1_dropShadow_8890_12762" result="shape"/>
</filter>
<linearGradient id="paint0_linear_8890_12762" x1="218.505" y1="55.3013" x2="218.505" y2="133.563" gradientUnits="userSpaceOnUse">
<stop stop-color="white"/>
<stop offset="1" stop-color="#F0F8FF"/>
</linearGradient>
<linearGradient id="paint1_linear_8890_12762" x1="273.749" y1="33.9998" x2="273.749" y2="112.262" gradientUnits="userSpaceOnUse">
<stop stop-color="white"/>
<stop offset="1" stop-color="#F0F8FF"/>
</linearGradient>
<linearGradient id="paint2_linear_8890_12762" x1="332.709" y1="36.0918" x2="332.709" y2="114.354" gradientUnits="userSpaceOnUse">
<stop stop-color="white"/>
<stop offset="1" stop-color="#F0F8FF"/>
</linearGradient>
<linearGradient id="paint3_linear_8890_12762" x1="304.07" y1="103.903" x2="296.863" y2="100.463" gradientUnits="userSpaceOnUse">
<stop stop-color="#B7C8D6"/>
<stop offset="0.22" stop-color="#9BA9B5"/>
<stop offset="0.75" stop-color="#C7D9E8"/>
<stop offset="1" stop-color="#9BA9B5"/>
</linearGradient>
<linearGradient id="paint4_linear_8890_12762" x1="298.62" y1="102.82" x2="299.221" y2="103.861" gradientUnits="userSpaceOnUse">
<stop stop-color="#5A6269"/>
<stop offset="1" stop-color="#9BA9B5"/>
</linearGradient>
<linearGradient id="paint5_linear_8890_12762" x1="321.133" y1="92.9296" x2="318.185" y2="87.8237" gradientUnits="userSpaceOnUse">
<stop stop-color="#FFC452"/>
<stop offset="0.28" stop-color="#E88838"/>
<stop offset="1" stop-color="#F0C87B"/>
</linearGradient>
<linearGradient id="paint6_linear_8890_12762" x1="307.339" y1="101.091" x2="304.591" y2="96.3326" gradientUnits="userSpaceOnUse">
<stop stop-color="#B7C8D6"/>
<stop offset="0.22" stop-color="#9BA9B5"/>
<stop offset="0.75" stop-color="#C7D9E8"/>
<stop offset="1" stop-color="#9BA9B5"/>
</linearGradient>
<clipPath id="clip0_8890_12762">
<rect width="23.4368" height="23.4368" fill="white" transform="translate(217.732 83.475) rotate(-18.9971)"/>
</clipPath>
<clipPath id="clip1_8890_12762">
<rect width="31.4823" height="31.4823" fill="white" transform="translate(326.967 112.316) rotate(-165)"/>
</clipPath>
</defs>
</svg>
