<svg width="63" height="63" viewBox="0 0 63 63" fill="none" xmlns="http://www.w3.org/2000/svg">
<circle cx="31.5" cy="31.5" r="31.5" fill="white"/>
<path d="M15.3552 36V31.7725H7.54121V36H6.74775V27.2783H7.54121V31.0361H15.3552V27.2783H16.1486V36H15.3552ZM26.4229 36L25.2232 33.7021H19.3009L18.1012 36H17.2315L21.7955 27.2783H22.7286L27.2926 36H26.4229ZM22.2652 28.0464L19.6881 32.9722H24.836L22.2652 28.0464ZM37.1797 35.3081C36.875 35.4351 36.5724 35.5514 36.272 35.6572C35.9757 35.763 35.6668 35.854 35.3452 35.9302C35.0236 36.0063 34.6851 36.0656 34.3296 36.1079C33.9741 36.1502 33.5869 36.1714 33.168 36.1714C32.6517 36.1714 32.1545 36.1291 31.6763 36.0444C31.2023 35.9598 30.7601 35.8328 30.3496 35.6636C29.9391 35.4943 29.5667 35.2848 29.2324 35.0352C28.8981 34.7812 28.6104 34.4871 28.3691 34.1528C28.1322 33.8185 27.9481 33.4419 27.8169 33.0229C27.6899 32.604 27.6265 32.1449 27.6265 31.6455C27.6265 31.1462 27.6899 30.687 27.8169 30.2681C27.9481 29.8491 28.1322 29.4725 28.3691 29.1382C28.6104 28.8039 28.8981 28.5119 29.2324 28.2622C29.5667 28.0083 29.9391 27.7967 30.3496 27.6274C30.7601 27.4582 31.2023 27.3312 31.6763 27.2466C32.1502 27.1619 32.6475 27.1196 33.168 27.1196C33.5869 27.1196 33.9741 27.1408 34.3296 27.1831C34.6851 27.2254 35.0236 27.2847 35.3452 27.3608C35.6668 27.437 35.9757 27.528 36.272 27.6338C36.5724 27.7354 36.875 27.8496 37.1797 27.9766V28.9287C36.9385 28.7764 36.6803 28.6325 36.4053 28.4971C36.1302 28.3617 35.8319 28.2432 35.5103 28.1416C35.1929 28.04 34.8522 27.9596 34.4883 27.9004C34.1243 27.8411 33.735 27.8115 33.3203 27.8115C32.4824 27.8115 31.7567 27.9025 31.1431 28.0845C30.5295 28.2664 30.0216 28.5246 29.6196 28.8589C29.2218 29.189 28.9256 29.591 28.731 30.0649C28.5405 30.5347 28.4453 31.0615 28.4453 31.6455C28.4453 32.2295 28.5405 32.7563 28.731 33.2261C28.9256 33.6958 29.2218 34.0978 29.6196 34.4321C30.0216 34.7622 30.5295 35.0182 31.1431 35.2002C31.7567 35.3779 32.4824 35.4668 33.3203 35.4668C33.735 35.4668 34.1265 35.4372 34.4946 35.3779C34.867 35.3187 35.214 35.2383 35.5356 35.1367C35.8615 35.0352 36.1598 34.9188 36.4307 34.7876C36.7057 34.6522 36.9554 34.5104 37.1797 34.3623V35.3081ZM47.8285 35.3081C47.5238 35.4351 47.2213 35.5514 46.9208 35.6572C46.6246 35.763 46.3157 35.854 45.994 35.9302C45.6724 36.0063 45.3339 36.0656 44.9784 36.1079C44.6229 36.1502 44.2357 36.1714 43.8168 36.1714C43.3005 36.1714 42.8033 36.1291 42.3251 36.0444C41.8511 35.9598 41.4089 35.8328 40.9984 35.6636C40.588 35.4943 40.2156 35.2848 39.8812 35.0352C39.5469 34.7812 39.2592 34.4871 39.018 34.1528C38.781 33.8185 38.5969 33.4419 38.4657 33.0229C38.3388 32.604 38.2753 32.1449 38.2753 31.6455C38.2753 31.1462 38.3388 30.687 38.4657 30.2681C38.5969 29.8491 38.781 29.4725 39.018 29.1382C39.2592 28.8039 39.5469 28.5119 39.8812 28.2622C40.2156 28.0083 40.588 27.7967 40.9984 27.6274C41.4089 27.4582 41.8511 27.3312 42.3251 27.2466C42.7991 27.1619 43.2963 27.1196 43.8168 27.1196C44.2357 27.1196 44.6229 27.1408 44.9784 27.1831C45.3339 27.2254 45.6724 27.2847 45.994 27.3608C46.3157 27.437 46.6246 27.528 46.9208 27.6338C47.2213 27.7354 47.5238 27.8496 47.8285 27.9766V28.9287C47.5873 28.7764 47.3292 28.6325 47.0541 28.4971C46.779 28.3617 46.4807 28.2432 46.1591 28.1416C45.8417 28.04 45.501 27.9596 45.1371 27.9004C44.7732 27.8411 44.3839 27.8115 43.9691 27.8115C43.1312 27.8115 42.4055 27.9025 41.7919 28.0845C41.1783 28.2664 40.6705 28.5246 40.2685 28.8589C39.8707 29.189 39.5744 29.591 39.3798 30.0649C39.1894 30.5347 39.0941 31.0615 39.0941 31.6455C39.0941 32.2295 39.1894 32.7563 39.3798 33.2261C39.5744 33.6958 39.8707 34.0978 40.2685 34.4321C40.6705 34.7622 41.1783 35.0182 41.7919 35.2002C42.4055 35.3779 43.1312 35.4668 43.9691 35.4668C44.3839 35.4668 44.7753 35.4372 45.1435 35.3779C45.5159 35.3187 45.8629 35.2383 46.1845 35.1367C46.5103 35.0352 46.8087 34.9188 47.0795 34.7876C47.3546 34.6522 47.6042 34.5104 47.8285 34.3623V35.3081ZM58.0394 29.957C58.0394 30.3929 57.9674 30.778 57.8235 31.1123C57.6839 31.4466 57.4617 31.728 57.157 31.9565C56.8523 32.1851 56.4588 32.3586 55.9764 32.4771C55.4982 32.5913 54.9205 32.6484 54.2435 32.6484H50.327V36H49.5335V27.2783H54.2435C54.9205 27.2783 55.4982 27.3376 55.9764 27.4561C56.4588 27.5703 56.8523 27.7396 57.157 27.9639C57.4617 28.1882 57.6839 28.4674 57.8235 28.8018C57.9674 29.1361 58.0394 29.5212 58.0394 29.957ZM57.2205 29.957C57.2205 29.5423 57.1507 29.208 57.011 28.9541C56.8756 28.7002 56.664 28.5055 56.3763 28.3701C56.0927 28.2305 55.7309 28.1374 55.2908 28.0908C54.8549 28.0443 54.3366 28.021 53.7356 28.021H50.327V31.9058H53.7356C53.9684 31.9058 54.216 31.9079 54.4783 31.9121C54.7449 31.9121 55.0073 31.8994 55.2654 31.874C55.5236 31.8444 55.769 31.7957 56.0018 31.728C56.2387 31.6561 56.4461 31.5482 56.6238 31.4043C56.8058 31.2604 56.9497 31.0721 57.0555 30.8394C57.1655 30.6066 57.2205 30.3125 57.2205 29.957Z" fill="#0283FD"/>
<path d="M15.3552 36H14.6934C14.6934 36.3655 14.9897 36.6618 15.3552 36.6618V36ZM15.3552 31.7725H16.017C16.017 31.407 15.7207 31.1107 15.3552 31.1107V31.7725ZM7.54121 31.7725V31.1107C7.17571 31.1107 6.87941 31.407 6.87941 31.7725H7.54121ZM7.54121 36V36.6618C7.90671 36.6618 8.20301 36.3655 8.20301 36H7.54121ZM6.74775 36H6.08595C6.08595 36.3655 6.38225 36.6618 6.74775 36.6618V36ZM6.74775 27.2783V26.6165C6.38225 26.6165 6.08595 26.9128 6.08595 27.2783H6.74775ZM7.54121 27.2783H8.20301C8.20301 26.9128 7.90671 26.6165 7.54121 26.6165V27.2783ZM7.54121 31.0361H6.87941C6.87941 31.4016 7.17571 31.6979 7.54121 31.6979V31.0361ZM15.3552 31.0361V31.6979C15.7207 31.6979 16.017 31.4016 16.017 31.0361H15.3552ZM15.3552 27.2783V26.6165C14.9897 26.6165 14.6934 26.9128 14.6934 27.2783H15.3552ZM16.1486 27.2783H16.8104C16.8104 26.9128 16.5141 26.6165 16.1486 26.6165V27.2783ZM16.1486 36V36.6618C16.5141 36.6618 16.8104 36.3655 16.8104 36H16.1486ZM16.017 36V31.7725H14.6934V36H16.017ZM15.3552 31.1107H7.54121V32.4343H15.3552V31.1107ZM6.87941 31.7725V36H8.20301V31.7725H6.87941ZM7.54121 35.3382H6.74775V36.6618H7.54121V35.3382ZM7.40955 36V27.2783H6.08595V36H7.40955ZM6.74775 27.9401H7.54121V26.6165H6.74775V27.9401ZM6.87941 27.2783V31.0361H8.20301V27.2783H6.87941ZM7.54121 31.6979H15.3552V30.3743H7.54121V31.6979ZM16.017 31.0361V27.2783H14.6934V31.0361H16.017ZM15.3552 27.9401H16.1486V26.6165H15.3552V27.9401ZM15.4868 27.2783V36H16.8104V27.2783H15.4868ZM16.1486 35.3382H15.3552V36.6618H16.1486V35.3382ZM26.4229 36L25.8363 36.3063C25.9504 36.5248 26.1765 36.6618 26.4229 36.6618V36ZM25.2232 33.7021L25.8099 33.3959C25.6958 33.1773 25.4697 33.0403 25.2232 33.0403V33.7021ZM19.3009 33.7021V33.0403C19.0544 33.0403 18.8283 33.1773 18.7142 33.3959L19.3009 33.7021ZM18.1012 36V36.6618C18.3477 36.6618 18.5737 36.5248 18.6878 36.3063L18.1012 36ZM17.2315 36L16.6452 35.6932C16.5378 35.8983 16.5455 36.1446 16.6654 36.3427C16.7853 36.5408 17 36.6618 17.2315 36.6618V36ZM21.7955 27.2783V26.6165C21.5492 26.6165 21.3233 26.7533 21.2091 26.9715L21.7955 27.2783ZM22.7286 27.2783L23.315 26.9715C23.2008 26.7533 22.9749 26.6165 22.7286 26.6165V27.2783ZM27.2926 36V36.6618C27.5241 36.6618 27.7388 36.5408 27.8587 36.3427C27.9786 36.1446 27.9863 35.8983 27.8789 35.6932L27.2926 36ZM22.2652 28.0464L22.8519 27.7402C22.7379 27.5217 22.512 27.3847 22.2656 27.3846C22.0192 27.3845 21.7931 27.5213 21.6788 27.7396L22.2652 28.0464ZM19.6881 32.9722L19.1017 32.6654C18.9944 32.8705 19.002 33.1168 19.122 33.3149C19.2419 33.513 19.4566 33.634 19.6881 33.634V32.9722ZM24.836 32.9722V33.634C25.0674 33.634 25.2821 33.5131 25.402 33.3152C25.5219 33.1173 25.5298 32.8711 25.4227 32.666L24.836 32.9722ZM27.0096 35.6937L25.8099 33.3959L24.6366 34.0084L25.8363 36.3063L27.0096 35.6937ZM25.2232 33.0403H19.3009V34.3639H25.2232V33.0403ZM18.7142 33.3959L17.5145 35.6937L18.6878 36.3063L19.8875 34.0084L18.7142 33.3959ZM18.1012 35.3382H17.2315V36.6618H18.1012V35.3382ZM17.8179 36.3068L22.3819 27.5852L21.2091 26.9715L16.6452 35.6932L17.8179 36.3068ZM21.7955 27.9401H22.7286V26.6165H21.7955V27.9401ZM22.1422 27.5852L26.7062 36.3068L27.8789 35.6932L23.315 26.9715L22.1422 27.5852ZM27.2926 35.3382H26.4229V36.6618H27.2926V35.3382ZM21.6788 27.7396L19.1017 32.6654L20.2745 33.279L22.8516 28.3532L21.6788 27.7396ZM19.6881 33.634H24.836V32.3104H19.6881V33.634ZM25.4227 32.666L22.8519 27.7402L21.6785 28.3526L24.2493 33.2784L25.4227 32.666ZM37.1797 35.3081L37.4342 35.919C37.6808 35.8162 37.8415 35.5753 37.8415 35.3081H37.1797ZM36.272 35.6572L36.0522 35.033L36.0494 35.034L36.272 35.6572ZM31.6763 36.0444L31.5599 36.6959L31.5609 36.6961L31.6763 36.0444ZM29.2324 35.0352L28.8321 35.5622L28.8364 35.5654L29.2324 35.0352ZM28.3691 34.1528L27.8292 34.5356L27.8325 34.5401L28.3691 34.1528ZM27.8169 33.0229L27.1835 33.2149L27.1853 33.2207L27.8169 33.0229ZM27.8169 30.2681L27.1853 30.0703L27.1835 30.0761L27.8169 30.2681ZM28.3691 29.1382L27.8324 28.7509L27.8292 28.7555L28.3691 29.1382ZM29.2324 28.2622L29.6284 28.7925L29.6327 28.7892L29.2324 28.2622ZM36.272 27.6338L36.0494 28.2571L36.06 28.2607L36.272 27.6338ZM37.1797 27.9766H37.8415C37.8415 27.7094 37.6808 27.4684 37.4342 27.3657L37.1797 27.9766ZM37.1797 28.9287L36.8263 29.4883C37.0302 29.617 37.288 29.6247 37.4991 29.5083C37.7103 29.3919 37.8415 29.1699 37.8415 28.9287H37.1797ZM35.5103 28.1416L35.3086 28.7719L35.311 28.7727L35.5103 28.1416ZM29.6196 28.8589L30.0422 29.3682L30.0428 29.3677L29.6196 28.8589ZM28.731 30.0649L28.1188 29.8135L28.1176 29.8163L28.731 30.0649ZM28.731 33.2261L28.1176 33.4747L28.1196 33.4794L28.731 33.2261ZM29.6196 34.4321L29.1938 34.9388L29.1997 34.9436L29.6196 34.4321ZM31.1431 35.2002L30.9549 35.8347L30.9589 35.8359L31.1431 35.2002ZM34.4946 35.3779L34.3906 34.7243L34.3895 34.7245L34.4946 35.3779ZM35.5356 35.1367L35.3387 34.5049L35.3364 34.5056L35.5356 35.1367ZM36.4307 34.7876L36.7192 35.3832L36.723 35.3813L36.4307 34.7876ZM37.1797 34.3623H37.8415C37.8415 34.1188 37.7077 33.8949 37.4932 33.7795C37.2788 33.6641 37.0182 33.6758 36.815 33.8101L37.1797 34.3623ZM36.9251 34.6972C36.6315 34.8196 36.3405 34.9315 36.0522 35.033L36.4918 36.2815C36.8043 36.1714 37.1185 36.0506 37.4342 35.919L36.9251 34.6972ZM36.0494 35.034C35.7772 35.1312 35.4918 35.2154 35.1927 35.2862L35.4977 36.5742C35.8419 36.4927 36.1743 36.3949 36.4946 36.2805L36.0494 35.034ZM35.1927 35.2862C34.8975 35.3561 34.5839 35.4112 34.2514 35.4508L34.4078 36.7651C34.7862 36.72 35.1497 36.6566 35.4977 36.5742L35.1927 35.2862ZM34.2514 35.4508C33.9258 35.4895 33.565 35.5096 33.168 35.5096V36.8332C33.6088 36.8332 34.0225 36.8109 34.4078 36.7651L34.2514 35.4508ZM33.168 35.5096C32.6879 35.5096 32.2294 35.4703 31.7916 35.3928L31.5609 36.6961C32.0795 36.7879 32.6154 36.8332 33.168 36.8332V35.5096ZM31.7926 35.3929C31.3614 35.3159 30.9651 35.2015 30.6019 35.0518L30.0973 36.2754C30.5551 36.4642 31.0432 36.6037 31.5599 36.6959L31.7926 35.3929ZM30.6019 35.0518C30.2393 34.9022 29.9157 34.7194 29.6284 34.5049L28.8364 35.5654C29.2178 35.8502 29.639 36.0864 30.0973 36.2754L30.6019 35.0518ZM29.6327 34.5081C29.3496 34.2931 29.108 34.0458 28.9058 33.7656L27.8325 34.5401C28.1127 34.9284 28.4467 35.2694 28.8321 35.5622L29.6327 34.5081ZM28.9091 33.7701C28.7149 33.4962 28.5604 33.1828 28.4485 32.8252L27.1853 33.2207C27.3357 33.701 27.5495 34.1409 27.8292 34.5356L28.9091 33.7701ZM28.4503 32.831C28.3446 32.4823 28.2883 32.0888 28.2883 31.6455H26.9647C26.9647 32.2009 27.0353 32.7257 27.1835 33.2149L28.4503 32.831ZM28.2883 31.6455C28.2883 31.2022 28.3446 30.8087 28.4503 30.46L27.1835 30.0761C27.0353 30.5654 26.9647 31.0901 26.9647 31.6455H28.2883ZM28.4485 30.4658C28.5604 30.1082 28.7149 29.7948 28.9091 29.5209L27.8292 28.7555C27.5495 29.1501 27.3357 29.59 27.1853 30.0703L28.4485 30.4658ZM28.9058 29.5254C29.1072 29.2463 29.3473 29.0024 29.6284 28.7925L28.8364 27.732C28.4489 28.0214 28.1135 28.3614 27.8325 28.751L28.9058 29.5254ZM29.6327 28.7892C29.919 28.5718 30.2412 28.388 30.6019 28.2393L30.0973 27.0156C29.6371 27.2054 29.2145 27.4448 28.8321 27.7352L29.6327 28.7892ZM30.6019 28.2393C30.9651 28.0895 31.3614 27.9751 31.7926 27.8981L31.5599 26.5951C31.0432 26.6874 30.5551 26.8269 30.0973 27.0156L30.6019 28.2393ZM31.7926 27.8981C32.2252 27.8208 32.6833 27.7814 33.168 27.7814V26.4578C32.6116 26.4578 32.0752 26.5031 31.5599 26.5951L31.7926 27.8981ZM33.168 27.7814C33.565 27.7814 33.9258 27.8015 34.2514 27.8403L34.4078 26.5259C34.0225 26.4801 33.6088 26.4578 33.168 26.4578V27.7814ZM34.2514 27.8403C34.5839 27.8799 34.8975 27.9349 35.1927 28.0048L35.4977 26.7169C35.1497 26.6344 34.7862 26.571 34.4078 26.5259L34.2514 27.8403ZM35.1927 28.0048C35.4918 28.0757 35.7772 28.1598 36.0494 28.257L36.4946 27.0105C36.1743 26.8962 35.8419 26.7984 35.4977 26.7169L35.1927 28.0048ZM36.06 28.2607C36.3455 28.3572 36.6339 28.4661 36.9251 28.5875L37.4342 27.3657C37.1161 27.2331 36.7993 27.1135 36.4839 27.0068L36.06 28.2607ZM36.5179 27.9766V28.9287H37.8415V27.9766H36.5179ZM37.5331 28.3692C37.2707 28.2035 36.9921 28.0483 36.6976 27.9033L36.113 29.0908C36.3686 29.2167 36.6062 29.3493 36.8263 29.4883L37.5331 28.3692ZM36.6976 27.9033C36.3897 27.7517 36.0599 27.6212 35.7095 27.5105L35.311 28.7727C35.6038 28.8652 35.8707 28.9716 36.113 29.0908L36.6976 27.9033ZM35.712 27.5113C35.3603 27.3988 34.9875 27.3111 34.5946 27.2472L34.3819 28.5536C34.7169 28.6081 35.0254 28.6813 35.3086 28.7719L35.712 27.5113ZM34.5946 27.2472C34.1915 27.1816 33.7663 27.1497 33.3203 27.1497V28.4733C33.7037 28.4733 34.0572 28.5007 34.3819 28.5536L34.5946 27.2472ZM33.3203 27.1497C32.4372 27.1497 31.6451 27.2453 30.9549 27.45L31.3312 28.719C31.8683 28.5597 32.5276 28.4733 33.3203 28.4733V27.1497ZM30.9549 27.45C30.274 27.6519 29.6811 27.947 29.1965 28.35L30.0428 29.3677C30.3622 29.1021 30.7849 28.881 31.3312 28.719L30.9549 27.45ZM29.197 28.3496C28.7167 28.7482 28.355 29.2385 28.1188 29.8135L29.3431 30.3164C29.4963 29.9435 29.727 29.6297 30.0422 29.3682L29.197 28.3496ZM28.1176 29.8163C27.8907 30.3761 27.7835 30.9891 27.7835 31.6455H29.1071C29.1071 31.1339 29.1904 30.6932 29.3443 30.3136L28.1176 29.8163ZM27.7835 31.6455C27.7835 32.3019 27.8907 32.9149 28.1176 33.4747L29.3443 32.9774C29.1904 32.5978 29.1071 32.1571 29.1071 31.6455H27.7835ZM28.1196 33.4794C28.3558 34.0495 28.7166 34.5377 29.1938 34.9388L30.0454 33.9255C29.7271 33.6579 29.4954 33.3421 29.3423 32.9727L28.1196 33.4794ZM29.1997 34.9436C29.6838 35.3411 30.2756 35.6332 30.9549 35.8347L31.3312 34.5657C30.7834 34.4032 30.3595 34.1833 30.0396 33.9206L29.1997 34.9436ZM30.9589 35.8359C31.6477 36.0354 32.4383 36.1286 33.3203 36.1286V34.805C32.5265 34.805 31.8657 34.7205 31.3272 34.5645L30.9589 35.8359ZM33.3203 36.1286C33.7664 36.1286 34.1932 36.0967 34.5998 36.0313L34.3895 34.7245C34.0597 34.7776 33.7037 34.805 33.3203 34.805V36.1286ZM34.5986 36.0315C34.9996 35.9677 35.3788 35.8803 35.7349 35.7678L35.3364 34.5056C35.0493 34.5963 34.7345 34.6696 34.3906 34.7243L34.5986 36.0315ZM35.7326 35.7685C36.0857 35.6585 36.4151 35.5305 36.7192 35.3832L36.1422 34.192C35.9045 34.3071 35.6373 34.4118 35.3387 34.5049L35.7326 35.7685ZM36.723 35.3813C37.0196 35.2353 37.2939 35.08 37.5444 34.9146L36.815 33.8101C36.6169 33.9409 36.3918 34.0691 36.1384 34.1939L36.723 35.3813ZM36.5179 34.3623V35.3081H37.8415V34.3623H36.5179ZM47.8285 35.3081L48.0831 35.919C48.3297 35.8162 48.4903 35.5753 48.4903 35.3081H47.8285ZM46.9208 35.6572L46.701 35.033L46.6982 35.034L46.9208 35.6572ZM42.3251 36.0444L42.2088 36.6959L42.2098 36.6961L42.3251 36.0444ZM39.8812 35.0352L39.481 35.5622L39.4852 35.5654L39.8812 35.0352ZM39.018 34.1528L38.478 34.5356L38.4813 34.5401L39.018 34.1528ZM38.4657 33.0229L37.8323 33.2149L37.8342 33.2207L38.4657 33.0229ZM38.4657 30.2681L37.8341 30.0703L37.8324 30.0761L38.4657 30.2681ZM39.018 29.1382L38.4813 28.7509L38.4781 28.7555L39.018 29.1382ZM39.8812 28.2622L40.2773 28.7925L40.2815 28.7892L39.8812 28.2622ZM46.9208 27.6338L46.6982 28.2571L46.7089 28.2607L46.9208 27.6338ZM47.8285 27.9766H48.4903C48.4903 27.7094 48.3297 27.4684 48.0831 27.3657L47.8285 27.9766ZM47.8285 28.9287L47.4751 29.4883C47.679 29.617 47.9368 29.6247 48.148 29.5083C48.3592 29.3919 48.4903 29.1699 48.4903 28.9287H47.8285ZM46.1591 28.1416L45.9574 28.7719L45.9598 28.7727L46.1591 28.1416ZM40.2685 28.8589L40.6911 29.3682L40.6916 29.3677L40.2685 28.8589ZM39.3798 30.0649L38.7676 29.8135L38.7665 29.8163L39.3798 30.0649ZM39.3798 33.2261L38.7664 33.4747L38.7684 33.4794L39.3798 33.2261ZM40.2685 34.4321L39.8426 34.9388L39.8485 34.9436L40.2685 34.4321ZM41.7919 35.2002L41.6037 35.8347L41.6078 35.8359L41.7919 35.2002ZM45.1435 35.3779L45.0395 34.7243L45.0383 34.7245L45.1435 35.3779ZM46.1845 35.1367L45.9875 34.5049L45.9852 34.5056L46.1845 35.1367ZM47.0795 34.7876L47.368 35.3832L47.3718 35.3813L47.0795 34.7876ZM47.8285 34.3623H48.4903C48.4903 34.1188 48.3565 33.8949 48.1421 33.7795C47.9276 33.6641 47.6671 33.6758 47.4638 33.8101L47.8285 34.3623ZM47.574 34.6972C47.2803 34.8196 46.9893 34.9315 46.701 35.033L47.1406 36.2815C47.4532 36.1714 47.7673 36.0506 48.0831 35.919L47.574 34.6972ZM46.6982 35.034C46.4261 35.1312 46.1406 35.2154 45.8415 35.2862L46.1466 36.5742C46.4907 36.4927 46.8231 36.3949 47.1434 36.2805L46.6982 35.034ZM45.8415 35.2862C45.5463 35.3561 45.2327 35.4112 44.9002 35.4508L45.0566 36.7651C45.4351 36.72 45.7985 36.6566 46.1466 36.5742L45.8415 35.2862ZM44.9002 35.4508C44.5746 35.4895 44.2139 35.5096 43.8168 35.5096V36.8332C44.2576 36.8332 44.6713 36.8109 45.0566 36.7651L44.9002 35.4508ZM43.8168 35.5096C43.3368 35.5096 42.8782 35.4703 42.4404 35.3928L42.2098 36.6961C42.7283 36.7879 43.2643 36.8332 43.8168 36.8332V35.5096ZM42.4414 35.3929C42.0102 35.3159 41.6139 35.2015 41.2507 35.0518L40.7461 36.2754C41.2039 36.4642 41.6921 36.6037 42.2088 36.6959L42.4414 35.3929ZM41.2507 35.0518C40.8881 34.9022 40.5645 34.7194 40.2773 34.5049L39.4852 35.5654C39.8666 35.8502 40.2878 36.0864 40.7461 36.2754L41.2507 35.0518ZM40.2815 34.5081C39.9984 34.2931 39.7569 34.0458 39.5547 33.7656L38.4813 34.5401C38.7615 34.9284 39.0955 35.2694 39.481 35.5622L40.2815 34.5081ZM39.5579 33.7701C39.3637 33.4962 39.2093 33.1828 39.0973 32.8252L37.8342 33.2207C37.9846 33.701 38.1983 34.1409 38.4781 34.5356L39.5579 33.7701ZM39.0991 32.831C38.9934 32.4823 38.9371 32.0888 38.9371 31.6455H37.6135C37.6135 32.2009 37.6841 32.7257 37.8324 33.2149L39.0991 32.831ZM38.9371 31.6455C38.9371 31.2022 38.9934 30.8087 39.0991 30.46L37.8324 30.0761C37.6841 30.5654 37.6135 31.0901 37.6135 31.6455H38.9371ZM39.0973 30.4658C39.2093 30.1082 39.3637 29.7948 39.5579 29.5209L38.4781 28.7555C38.1983 29.1501 37.9846 29.59 37.8342 30.0703L39.0973 30.4658ZM39.5547 29.5254C39.756 29.2463 39.9962 29.0024 40.2773 28.7925L39.4852 27.732C39.0977 28.0214 38.7623 28.3614 38.4813 28.751L39.5547 29.5254ZM40.2815 28.7892C40.5678 28.5718 40.89 28.388 41.2507 28.2393L40.7461 27.0156C40.2859 27.2054 39.8633 27.4448 39.481 27.7352L40.2815 28.7892ZM41.2507 28.2393C41.6139 28.0895 42.0102 27.9751 42.4414 27.8981L42.2088 26.5951C41.6921 26.6874 41.2039 26.8269 40.7461 27.0156L41.2507 28.2393ZM42.4414 27.8981C42.874 27.8208 43.3322 27.7814 43.8168 27.7814V26.4578C43.2604 26.4578 42.7241 26.5031 42.2088 26.5951L42.4414 27.8981ZM43.8168 27.7814C44.2139 27.7814 44.5746 27.8015 44.9002 27.8403L45.0566 26.5259C44.6713 26.4801 44.2576 26.4578 43.8168 26.4578V27.7814ZM44.9002 27.8403C45.2327 27.8799 45.5463 27.9349 45.8415 28.0048L46.1466 26.7169C45.7985 26.6344 45.4351 26.571 45.0566 26.5259L44.9002 27.8403ZM45.8415 28.0048C46.1406 28.0757 46.4261 28.1598 46.6982 28.257L47.1434 27.0105C46.8231 26.8962 46.4907 26.7984 46.1466 26.7169L45.8415 28.0048ZM46.7089 28.2607C46.9944 28.3572 47.2827 28.4661 47.574 28.5875L48.0831 27.3657C47.7649 27.2331 47.4481 27.1135 47.1327 27.0068L46.7089 28.2607ZM47.1667 27.9766V28.9287H48.4903V27.9766H47.1667ZM48.1819 28.3692C47.9196 28.2035 47.6409 28.0483 47.3464 27.9033L46.7618 29.0908C47.0174 29.2167 47.2551 29.3493 47.4751 29.4883L48.1819 28.3692ZM47.3464 27.9033C47.0385 27.7517 46.7088 27.6212 46.3584 27.5105L45.9598 28.7727C46.2526 28.8652 46.5196 28.9716 46.7618 29.0908L47.3464 27.9033ZM46.3608 27.5113C46.0091 27.3988 45.6363 27.3111 45.2434 27.2472L45.0308 28.5536C45.3658 28.6081 45.6743 28.6813 45.9574 28.7719L46.3608 27.5113ZM45.2434 27.2472C44.8403 27.1816 44.4151 27.1497 43.9691 27.1497V28.4733C44.3526 28.4733 44.706 28.5007 45.0308 28.5536L45.2434 27.2472ZM43.9691 27.1497C43.086 27.1497 42.2939 27.2453 41.6037 27.45L41.9801 28.719C42.5171 28.5597 43.1765 28.4733 43.9691 28.4733V27.1497ZM41.6037 27.45C40.9229 27.6519 40.3299 27.947 39.8453 28.35L40.6916 29.3677C41.011 29.1021 41.4337 28.881 41.9801 28.719L41.6037 27.45ZM39.8458 28.3496C39.3655 28.7482 39.0038 29.2385 38.7676 29.8135L39.992 30.3164C40.1451 29.9435 40.3758 29.6297 40.6911 29.3682L39.8458 28.3496ZM38.7665 29.8163C38.5395 30.3761 38.4323 30.9891 38.4323 31.6455H39.7559C39.7559 31.1339 39.8392 30.6932 39.9931 30.3136L38.7665 29.8163ZM38.4323 31.6455C38.4323 32.3019 38.5395 32.9149 38.7665 33.4747L39.9931 32.9774C39.8392 32.5978 39.7559 32.1571 39.7559 31.6455H38.4323ZM38.7684 33.4794C39.0046 34.0495 39.3654 34.5377 39.8427 34.9388L40.6942 33.9255C40.3759 33.6579 40.1443 33.3421 39.9912 32.9727L38.7684 33.4794ZM39.8485 34.9436C40.3326 35.3411 40.9244 35.6332 41.6037 35.8347L41.9801 34.5657C41.4322 34.4032 41.0084 34.1833 40.6884 33.9206L39.8485 34.9436ZM41.6078 35.8359C42.2965 36.0354 43.0871 36.1286 43.9691 36.1286V34.805C43.1754 34.805 42.5145 34.7205 41.976 34.5645L41.6078 35.8359ZM43.9691 36.1286C44.4152 36.1286 44.8421 36.0967 45.2486 36.0313L45.0383 34.7245C44.7085 34.7776 44.3525 34.805 43.9691 34.805V36.1286ZM45.2474 36.0315C45.6484 35.9677 46.0276 35.8803 46.3838 35.7678L45.9852 34.5056C45.6981 34.5963 45.3833 34.6696 45.0395 34.7243L45.2474 36.0315ZM46.3814 35.7685C46.7345 35.6585 47.064 35.5305 47.368 35.3832L46.791 34.192C46.5534 34.3071 46.2861 34.4118 45.9875 34.5049L46.3814 35.7685ZM47.3718 35.3813C47.6684 35.2353 47.9427 35.08 48.1932 34.9146L47.4638 33.8101C47.2657 33.9409 47.0407 34.0691 46.7872 34.1939L47.3718 35.3813ZM47.1667 34.3623V35.3081H48.4903V34.3623H47.1667ZM57.8235 31.1123L57.2156 30.8507L57.2129 30.8572L57.8235 31.1123ZM55.9764 32.4771L56.1302 33.1207L56.1342 33.1197L55.9764 32.4771ZM50.327 32.6484V31.9866C49.9615 31.9866 49.6652 32.2829 49.6652 32.6484H50.327ZM50.327 36V36.6618C50.6925 36.6618 50.9888 36.3655 50.9888 36H50.327ZM49.5335 36H48.8717C48.8717 36.3655 49.168 36.6618 49.5335 36.6618V36ZM49.5335 27.2783V26.6165C49.168 26.6165 48.8717 26.9128 48.8717 27.2783H49.5335ZM55.9764 27.4561L55.8172 28.0985L55.8238 28.1L55.9764 27.4561ZM57.8235 28.8018L57.2128 29.0569L57.2156 29.0634L57.8235 28.8018ZM57.011 28.9541L56.427 29.2656L56.4312 29.273L57.011 28.9541ZM56.3763 28.3701L56.0838 28.9639L56.0945 28.9689L56.3763 28.3701ZM55.2908 28.0908L55.2205 28.7489L55.2212 28.7489L55.2908 28.0908ZM50.327 28.021V27.3592C49.9615 27.3592 49.6652 27.6555 49.6652 28.021H50.327ZM50.327 31.9058H49.6652C49.6652 32.2713 49.9615 32.5676 50.327 32.5676V31.9058ZM54.4783 31.9121L54.4676 32.5739H54.4783V31.9121ZM55.2654 31.874L55.3302 32.5327L55.3409 32.5315L55.2654 31.874ZM56.0018 31.728L56.1866 32.3635L56.194 32.3613L56.0018 31.728ZM56.6238 31.4043L56.2133 30.8851L56.2074 30.8899L56.6238 31.4043ZM57.0555 30.8394L56.4571 30.5565L56.453 30.5655L57.0555 30.8394ZM57.3776 29.957C57.3776 30.3204 57.3177 30.6136 57.2156 30.8507L58.4314 31.3739C58.6172 30.9423 58.7012 30.4654 58.7012 29.957H57.3776ZM57.2129 30.8572C57.1211 31.077 56.9753 31.2656 56.76 31.4271L57.5541 32.486C57.9481 32.1905 58.2467 31.8162 58.4342 31.3674L57.2129 30.8572ZM56.76 31.4271C56.5447 31.5885 56.2395 31.731 55.8185 31.8344L56.1342 33.1197C56.6781 32.9862 57.16 32.7816 57.5541 32.486L56.76 31.4271ZM55.8226 31.8334C55.4096 31.932 54.8867 31.9866 54.2435 31.9866V33.3102C54.9544 33.3102 55.5867 33.2506 56.1302 33.1207L55.8226 31.8334ZM54.2435 31.9866H50.327V33.3102H54.2435V31.9866ZM49.6652 32.6484V36H50.9888V32.6484H49.6652ZM50.327 35.3382H49.5335V36.6618H50.327V35.3382ZM50.1953 36V27.2783H48.8717V36H50.1953ZM49.5335 27.9401H54.2435V26.6165H49.5335V27.9401ZM54.2435 27.9401C54.8853 27.9401 55.4064 27.9966 55.8172 28.0984L56.1355 26.8137C55.59 26.6785 54.9557 26.6165 54.2435 26.6165V27.9401ZM55.8238 28.1C56.2453 28.1999 56.5502 28.3389 56.7647 28.4968L57.5494 27.4309C57.1545 27.1402 56.6723 26.9408 56.1289 26.8121L55.8238 28.1ZM56.7647 28.4968C56.9772 28.6533 57.1216 28.8383 57.2129 29.0568L58.4342 28.5467C58.2462 28.0966 57.9462 27.723 57.5494 27.4309L56.7647 28.4968ZM57.2156 29.0634C57.3177 29.3004 57.3776 29.5937 57.3776 29.957H58.7012C58.7012 29.4486 58.6172 28.9717 58.4314 28.5401L57.2156 29.0634ZM57.8823 29.957C57.8823 29.4759 57.8025 29.0199 57.5909 28.6352L56.4312 29.273C56.4989 29.3961 56.5587 29.6087 56.5587 29.957H57.8823ZM57.595 28.6427C57.3854 28.2496 57.0606 27.9607 56.6581 27.7713L56.0945 28.9689C56.2675 29.0503 56.3659 29.1507 56.4271 29.2655L57.595 28.6427ZM56.6687 27.7764C56.2934 27.5916 55.8494 27.4844 55.3604 27.4327L55.2212 28.7489C55.6125 28.7903 55.8921 28.8694 56.0839 28.9638L56.6687 27.7764ZM55.3611 27.4328C54.8951 27.383 54.3521 27.3592 53.7356 27.3592V28.6828C54.321 28.6828 54.8148 28.7055 55.2205 28.7489L55.3611 27.4328ZM53.7356 27.3592H50.327V28.6828H53.7356V27.3592ZM49.6652 28.021V31.9058H50.9888V28.021H49.6652ZM50.327 32.5676H53.7356V31.244H50.327V32.5676ZM53.7356 32.5676C53.9644 32.5676 54.2084 32.5696 54.4676 32.5738L54.489 31.2504C54.2235 31.2461 53.9724 31.244 53.7356 31.244V32.5676ZM54.4783 32.5739C54.766 32.5739 55.05 32.5602 55.3302 32.5326L55.2006 31.2154C54.9646 31.2386 54.7239 31.2503 54.4783 31.2503V32.5739ZM55.3409 32.5315C55.6334 32.4979 55.9156 32.4423 56.1866 32.3635L55.8169 31.0926C55.6224 31.1492 55.4137 31.1909 55.19 31.2165L55.3409 32.5315ZM56.194 32.3613C56.5058 32.2666 56.7908 32.1206 57.0402 31.9187L56.2074 30.8899C56.1014 30.9758 55.9716 31.0455 55.8095 31.0948L56.194 32.3613ZM57.0343 31.9234C57.307 31.7078 57.5131 31.4319 57.658 31.1132L56.453 30.5655C56.3862 30.7123 56.3045 30.8131 56.2134 30.8852L57.0343 31.9234ZM57.6538 31.1222C57.8184 30.774 57.8823 30.3753 57.8823 29.957H56.5587C56.5587 30.2497 56.5126 30.4392 56.4572 30.5565L57.6538 31.1222Z" fill="#0283FD"/>
</svg>
