<svg width="366" height="162" viewBox="0 0 366 162" fill="none" xmlns="http://www.w3.org/2000/svg">
<rect x="0.435059" y="0.512207" width="162.416" height="161.372" rx="30" transform="rotate(-0.0801413 0.435059 0.512207)" fill="#F1F4F9"/>
<rect x="177.435" y="0.264648" width="187.484" height="161.372" rx="30" transform="rotate(-0.0801413 177.435 0.264648)" fill="#F1F4F9"/>
<rect x="26.6316" y="61.0552" width="110.714" height="36.0344" rx="18.0172" transform="rotate(-0.0801413 26.6316 61.0552)" fill="#0283FD"/>
<path d="M71.7003 75.0257L71.7089 81.1854L70.5522 81.1871L70.5498 79.4429L68.6403 79.4455L68.639 78.5092L70.5485 78.5065L70.5472 77.5701L68.7571 77.5727C68.1621 78.8449 66.9517 79.7875 65.2725 80.2948L64.7847 79.3867C66.5648 78.8196 67.6834 77.8266 67.8928 76.5916L65.2306 76.5953L65.2293 75.659L69.1675 75.6535C69.1679 75.9931 69.1317 76.3236 69.0679 76.6359L70.5458 76.6338L70.5436 75.0273L71.7003 75.0257ZM71.9307 82.2867L71.9321 83.2231L66.2129 83.2311L66.2092 80.5781L67.4026 80.5764L67.405 82.293L71.9307 82.2867ZM77.6128 75.4764L77.6141 76.4036L75.9525 76.4059C75.9631 77.3927 76.552 78.4017 77.8745 78.8359L77.2975 79.7364C76.3699 79.4439 75.7356 78.8389 75.3765 78.0866C75.0013 78.9226 74.3367 79.5982 73.3503 79.9163L72.7523 78.99C74.1241 78.5474 74.7468 77.4495 74.7591 76.4076L73.0792 76.4099L73.0779 75.4828L77.6128 75.4764ZM79.8412 80.3479L79.8454 83.3589L78.6795 83.3605L78.6766 81.2858L74.105 81.2922L74.1037 80.3559L79.8412 80.3479ZM79.8337 75.0051L79.8407 79.9807L78.6748 79.9823L78.672 77.9719L77.3776 77.9737L77.3763 77.019L78.6707 77.0172L78.6678 75.0068L79.8337 75.0051ZM89.7113 74.9913L89.714 76.8916L90.8431 76.89L90.8445 77.8539L89.7153 77.8555L89.7182 79.8659L88.5431 79.8675L88.5363 74.993L89.7113 74.9913ZM84.4978 75.4851L84.4993 76.55L86.2068 76.5476L86.2053 75.4827L87.3803 75.4811L87.3859 79.456L83.3375 79.4617L83.3319 75.4868L84.4978 75.4851ZM84.5021 78.5421L86.2095 78.5397L86.208 77.4564L84.5006 77.4588L84.5021 78.5421ZM89.7646 80.2422L89.7659 81.1694L85.4238 81.1754L85.4254 82.3229L89.9235 82.3166L89.9248 83.2346L84.2608 83.2426L84.2566 80.2499L89.7646 80.2422ZM98.2303 74.9794L98.242 83.3332L97.0578 83.3348L97.0461 74.981L98.2303 74.9794ZM95.7254 75.855C95.729 78.3887 94.8415 80.4921 91.8599 81.91L91.2436 80.9745C93.3994 79.9525 94.3477 78.6293 94.5333 76.7747L91.6875 76.7786L91.6862 75.8606L95.7254 75.855Z" fill="white"/>
<path d="M134.266 99.1905L116.166 82.5937L116.189 107.151L121.667 101.895L124.899 109.234L129.922 107.022L126.69 99.6826L134.266 99.1905Z" fill="white"/>
<path d="M134.266 99.1905L116.166 82.5937L116.189 107.151L121.667 101.895L124.899 109.234L129.922 107.022L126.69 99.6826L134.266 99.1905ZM127.864 106.222L125.699 107.176L122.196 99.2226L117.747 103.492L117.731 86.1471L130.515 97.8695L124.361 98.2691L127.864 106.222Z" fill="black"/>
<circle cx="171.056" cy="78.8704" r="18.0172" transform="rotate(-0.0801413 171.056 78.8704)" fill="#8995A1"/>
<path opacity="0.3" d="M166.617 78.877L159.964 82.7306L159.953 75.042L166.617 78.877Z" fill="white"/>
<path opacity="0.6" d="M175.495 78.8643L168.842 82.7179L168.831 75.0293L175.495 78.8643Z" fill="white"/>
<path opacity="0.9" d="M184.373 78.8521L177.72 82.7057L177.709 75.0171L184.373 78.8521Z" fill="white"/>
<g filter="url(#filter0_d_542_15855)">
<rect x="194.508" y="52.6802" width="72.0061" height="95.4975" rx="7.66022" transform="rotate(-19.0773 194.508 52.6802)" fill="url(#paint0_linear_542_15855)"/>
<path d="M219.655 62.5677L219.935 63.377L216.41 64.5962L216.13 63.787L217.396 63.3491L217.08 62.4357L218.09 62.0866L218.406 63L219.655 62.5677ZM218.302 64.3096C219.232 63.9881 220.146 64.4793 220.503 65.4861C220.847 66.5064 220.432 67.4575 219.502 67.779C218.573 68.1004 217.642 67.6148 217.29 66.5972C216.941 65.5877 217.373 64.631 218.302 64.3096ZM218.596 65.1589C218.171 65.3058 217.996 65.734 218.188 66.2869C218.379 66.8397 218.778 67.0605 219.203 66.9136C219.611 66.7723 219.789 66.352 219.606 65.7964C219.407 65.2463 219.005 65.0176 218.596 65.1589ZM222.059 60.4897L224.58 67.781L223.611 68.1163L222.397 64.6069L221.804 64.8119L222.91 68.0089L221.956 68.3386L219.593 61.504L220.546 61.1742L221.521 63.9946L222.114 63.7896L221.089 60.825L222.059 60.4897ZM229.118 58.0484L230.487 62.0066L229.461 62.3613L228.829 60.5344L227.964 60.8337L227.681 60.0164L228.547 59.7171L228.092 58.4031L229.118 58.0484ZM226.556 63.7157L226.792 64.3967L229.813 63.352L229.577 62.671L230.595 62.3191L231.612 65.2596L226.556 67.0082L225.539 64.0676L226.556 63.7157ZM227.288 65.8309L230.309 64.7863L230.092 64.1613L227.072 65.206L227.288 65.8309ZM224.979 60.2693C225.198 60.9022 225.545 61.6209 226.17 62.055C226.373 61.3435 226.198 60.5787 225.972 59.9256L225.842 59.5491L226.803 59.2165L226.934 59.5931C227.252 60.5146 227.806 61.3636 228.838 61.5987L228.53 62.5219C227.929 62.3932 227.46 62.0351 227.092 61.5567C227.104 62.1853 226.976 62.79 226.584 63.2756C225.964 63.1311 225.487 62.7262 225.113 62.2143C225.12 62.8309 224.972 63.4157 224.58 63.888L223.775 63.35C224.433 62.5302 224.319 61.4751 224.017 60.6018L223.887 60.2252L224.848 59.8927L224.979 60.2693ZM237.974 54.9945L239.814 60.3147L238.797 60.6667L237.893 58.0546L236.699 58.4675L236.414 57.6422L237.608 57.2293L236.957 55.3464L237.974 54.9945ZM240.342 61.2714L240.625 62.0886L235.609 63.8233L234.814 61.5237L235.84 61.169L236.352 62.6513L240.342 61.2714ZM235.078 57.5928C235.369 58.4341 236.195 59.1622 237.487 59.137L237.262 60.1208C236.363 60.1403 235.626 59.7987 235.075 59.2445C235.01 60.0924 234.631 60.8783 233.869 61.4646L233.06 60.8114C234.132 60.0192 234.347 58.8773 234.034 57.945L233.995 57.8329L232.529 58.34L232.246 57.5227L236.204 56.1538L236.487 56.9711L235.037 57.4726L235.078 57.5928ZM246.83 55.9596L247.11 56.7689L244.362 57.7193L244.797 58.9773L243.787 59.3264L243.352 58.0685L240.436 59.0771L240.156 58.2679L246.83 55.9596ZM244.837 52.971L245.765 55.6552L240.781 57.3787L239.853 54.6945L244.837 52.971ZM241.129 55.1414L241.509 56.2391L244.489 55.2083L244.11 54.1106L241.129 55.1414ZM247.041 58.9548L247.323 59.7721L242.171 61.5538L241.437 59.4305L242.455 59.0786L242.906 60.3846L247.041 58.9548ZM251.761 50.2175L252.728 53.0139L253.762 52.6564L254.053 53.4977L253.019 53.8552L254.277 57.4929L253.251 57.8476L250.735 50.5722L251.761 50.2175ZM250.072 51.6361C250.817 53.8182 250.622 56.0029 248.586 58.0527L247.737 57.467C249.165 56.0045 249.688 54.5226 249.318 52.8296L246.89 53.6692L246.602 52.8359L250.072 51.6361ZM225.343 69.9349L227.865 77.2263L226.887 77.5643L224.366 70.273L225.343 69.9349ZM223.889 70.5545L226.258 77.4052L225.297 77.7377L224.515 75.4782L223.658 75.7747C223.631 76.578 223.294 77.1475 222.681 77.3595C221.719 77.692 220.745 76.8986 220.177 75.256C219.612 73.6214 219.89 72.4037 220.852 72.0712C221.461 71.8606 222.075 72.0924 222.594 72.6979L223.451 72.4014L222.927 70.887L223.889 70.5545ZM221.184 73.0327C220.76 73.1796 220.713 73.8236 221.107 74.9346C221.487 76.0591 221.918 76.5288 222.34 76.3739C222.767 76.2351 222.833 75.5935 222.445 74.4718C222.06 73.3581 221.601 72.8886 221.184 73.0327ZM223.077 73.4459C223.186 73.6591 223.285 73.894 223.374 74.1504C223.461 74.4028 223.529 74.6487 223.573 74.8801L224.23 74.6529L223.734 73.2186L223.077 73.4459ZM229.169 69.8947C229.474 70.7761 230.28 71.4481 231.559 71.4096L231.288 72.3913C230.426 72.4023 229.713 72.0925 229.179 71.5596C229.118 72.4062 228.752 73.1785 228.016 73.7471L227.186 73.137C228.263 72.3072 228.448 71.1576 228.11 70.1532L227.88 69.4882L228.905 69.1335L229.169 69.8947ZM231.897 67.6682L232.488 69.3749L233.473 69.0341L233.767 69.8834L232.781 70.2242L233.394 71.995L232.368 72.3497L230.872 68.0229L231.897 67.6682ZM231.056 72.965C232.562 72.444 233.696 72.6351 234.003 73.5245C234.314 74.4219 233.538 75.2644 232.031 75.7853C230.493 76.3174 229.354 76.1371 229.044 75.2397C228.736 74.3503 229.517 73.497 231.056 72.965ZM231.333 73.7662C230.371 74.0987 229.923 74.4872 230.069 74.885C230.205 75.3044 230.793 75.3166 231.754 74.9841C232.7 74.6571 233.138 74.2902 232.994 73.8736C232.855 73.473 232.278 73.4392 231.333 73.7662ZM241.235 64.448L243.094 69.8244L242.084 70.1735L241.558 68.6512L239.891 69.2275L239.609 68.4103L241.275 67.8339L240.993 67.0166L239.43 67.557C239.293 68.8468 238.52 70.0339 237.206 70.9816L236.507 70.3353C237.891 69.3049 238.569 68.1015 238.381 66.9601L236.057 67.7637L235.774 66.9464L239.212 65.7577C239.314 66.0541 239.382 66.3537 239.42 66.6455L240.71 66.1993L240.225 64.7972L241.235 64.448ZM243.619 70.7194L243.901 71.5367L238.91 73.263L238.109 70.9474L239.15 70.5872L239.669 72.0855L243.619 70.7194ZM246.533 63.0641L246.813 63.8734L245.363 64.3749C245.669 65.2335 246.486 65.9375 247.772 65.9191L247.539 66.8789C246.641 66.9024 245.905 66.5647 245.365 66.0158C245.289 66.8585 244.912 67.6483 244.146 68.2227L243.345 67.5935C244.41 66.7946 244.624 65.6487 244.321 64.7352L242.855 65.2422L242.575 64.433L246.533 63.0641ZM249.944 66.6482L250.853 69.2762L249.835 69.6282L249.209 67.8173L245.218 69.1973L244.936 68.38L249.944 66.6482ZM248.331 61.9849L249.833 66.3277L248.815 66.6796L248.208 64.9248L247.079 65.3155L246.79 64.4823L247.92 64.0915L247.313 62.3368L248.331 61.9849ZM252.604 62.3553C253.077 63.7254 254.09 64.8643 255.491 64.9719L255.149 66.0053C254.202 65.8886 253.411 65.3505 252.8 64.557C252.809 65.6213 252.518 66.5965 251.828 67.2973L250.899 66.6857C251.955 65.6926 252.036 64.0856 251.57 62.7127L251.193 61.623L252.227 61.2656L252.604 62.3553ZM255.43 59.5298L257.957 66.8372L256.948 67.1863L255.498 62.9958L254.064 63.4918L253.779 62.6665L255.213 62.1705L254.42 59.8789L255.43 59.5298Z" fill="#22272B"/>
<g clip-path="url(#clip0_542_15855)">
<path d="M246.239 108.184L246.861 97.789L243.403 97.5822L242.687 109.558C242.657 110.063 243.228 110.375 243.636 110.077L245.835 108.471C245.9 108.423 245.968 108.392 246.043 108.374L246.239 108.184Z" fill="#FFE07D"/>
<path d="M246.677 97.7782L246.043 108.374C246.235 108.327 246.444 108.375 246.595 108.517L248.588 110.373C248.957 110.718 249.561 110.476 249.592 109.972L250.308 97.9954L246.677 97.7782Z" fill="#FFD064"/>
<path d="M249.953 96.6059L247.16 99.0839L255.122 108.059C255.458 108.437 256.082 108.254 256.16 107.754L256.579 105.064C256.592 104.981 256.622 104.904 256.664 104.837L256.83 104.361L249.953 96.6059Z" fill="#FFE07D"/>
<path d="M260.296 103.468L252.334 94.4934L249.623 96.8988L256.665 104.836C256.768 104.674 256.946 104.565 257.149 104.558L259.87 104.462C260.376 104.444 260.632 103.847 260.296 103.468Z" fill="#FFD064"/>
<path d="M244.351 82.3392C244.929 82.5424 245.57 82.4466 246.064 82.0835C246.759 81.5728 247.713 81.6079 248.369 82.168C248.835 82.5663 249.467 82.7088 250.059 82.5485C250.891 82.3232 251.768 82.7007 252.177 83.4597C252.468 83.9995 253.006 84.3608 253.616 84.4251C254.473 84.5156 255.155 85.1846 255.262 86.0399C255.338 86.6482 255.709 87.1796 256.254 87.4598C257.021 87.8539 257.415 88.724 257.206 89.5602C257.057 90.1549 257.212 90.7846 257.619 91.2429C258.191 91.8872 258.244 92.8411 257.747 93.5451C257.394 94.0458 257.31 94.6889 257.524 95.2632C257.825 96.0709 257.53 96.9795 256.812 97.4565C256.302 97.7956 255.992 98.3651 255.984 98.9781C255.973 99.84 255.37 100.581 254.528 100.766C253.929 100.898 253.434 101.317 253.206 101.886C252.884 102.685 252.054 103.158 251.202 103.027C250.596 102.933 249.983 103.145 249.565 103.593C248.976 104.223 248.031 104.364 247.284 103.933C246.753 103.628 246.105 103.604 245.553 103.87C244.776 104.244 243.844 104.035 243.303 103.364C242.918 102.886 242.323 102.63 241.711 102.679C240.852 102.748 240.059 102.215 239.797 101.394C239.61 100.81 239.147 100.356 238.56 100.181C237.734 99.9343 237.187 99.1514 237.239 98.291C237.276 97.6791 237.008 97.0884 236.524 96.7128C235.843 96.1846 235.615 95.2568 235.974 94.4734C236.23 93.9162 236.194 93.2688 235.878 92.7435C235.434 92.0049 235.556 91.0575 236.175 90.4569C236.614 90.0297 236.814 89.4129 236.71 88.8089C236.562 87.9597 237.019 87.1207 237.812 86.7838C238.377 86.5443 238.786 86.0415 238.906 85.4404C239.075 84.5952 239.805 83.9779 240.666 83.9504C241.279 83.9309 241.842 83.6099 242.172 83.0929C242.635 82.3659 243.537 82.0536 244.351 82.3392Z" fill="#E8AE4D"/>
<path d="M251.575 91.2703C250.339 87.6963 246.983 85.4584 243.401 85.4759C239.598 87.2018 237.665 91.5731 239.058 95.5991C240.45 99.6251 244.67 101.869 248.727 100.876C251.555 98.677 252.811 94.8444 251.575 91.2703Z" fill="#FFE07D"/>
<path d="M244.117 85.1909C243.524 85.3957 242.971 85.6618 242.461 85.9794C246.174 85.5719 249.808 87.7623 251.08 91.4416C252.353 95.1209 250.848 99.0884 247.677 101.062C248.274 100.996 248.874 100.864 249.466 100.659C253.737 99.1817 256.002 94.5216 254.525 90.2502C253.048 85.9789 248.388 83.7137 244.117 85.1909Z" fill="#FFD064"/>
<path d="M248.031 95.8194L251.322 96.693C251.451 96.7273 251.571 96.6976 251.662 96.6313C251.712 96.4704 251.757 96.308 251.798 96.1442C251.787 96.1194 251.773 96.0949 251.756 96.0711L249.802 93.2829C249.708 93.1483 249.705 92.97 249.794 92.832L251.28 90.5312C251.119 90.1733 250.935 89.8312 250.731 89.5059L247.929 90.3638C247.772 90.412 247.601 90.36 247.497 90.2326L245.348 87.5915C245.111 87.2994 244.638 87.4629 244.632 87.8395L244.573 91.2437C244.571 91.4079 244.469 91.5541 244.315 91.6134L241.14 92.8408C240.788 92.9766 240.798 93.4767 241.154 93.5992L244.373 94.7064C244.529 94.7599 244.636 94.9021 244.645 95.0662L244.831 98.4658C244.852 98.8419 245.331 98.9874 245.557 98.6866L247.605 95.9667C247.704 95.8355 247.872 95.7772 248.031 95.8194Z" fill="#E8AE4D"/>
<path d="M251.322 96.6928C251.686 96.7894 251.972 96.3792 251.756 96.0708L251.402 95.5652C251.336 95.9309 251.245 96.2905 251.13 96.6419L251.322 96.6928Z" fill="#E5A32E"/>
<path d="M251.185 89.3668L250.215 89.6636C250.496 90.0978 250.739 90.5645 250.939 91.0606L251.642 89.972C251.846 89.6558 251.545 89.2566 251.185 89.3668Z" fill="#E5A32E"/>
</g>
</g>
<g filter="url(#filter1_d_542_15855)">
<rect x="279.392" y="29.1221" width="72.0061" height="95.4975" rx="7.66022" transform="rotate(18.9199 279.392 29.1221)" fill="url(#paint1_linear_542_15855)"/>
<path d="M304.232 56.2028L303.954 57.0128L300.425 55.8033L300.703 54.9932L301.97 55.4276L302.284 54.5133L303.294 54.8597L302.981 55.774L304.232 56.2028ZM302.093 56.7424C303.023 57.0613 303.442 58.0112 303.103 59.0245C302.746 60.0403 301.833 60.5339 300.903 60.2151C299.972 59.8962 299.538 58.9407 299.887 57.9222C300.234 56.9116 301.163 56.4235 302.093 56.7424ZM301.802 57.5925C301.377 57.4468 300.975 57.6767 300.786 58.23C300.596 58.7834 300.775 59.2032 301.2 59.3489C301.609 59.4891 302.007 59.2672 302.205 58.7166C302.387 58.1605 302.211 57.7327 301.802 57.5925ZM307.405 56.0447L304.903 63.3429L303.933 63.0103L305.137 59.4975L304.543 59.2941L303.447 62.4941L302.492 62.167L304.837 55.3258L305.791 55.653L304.824 58.476L305.417 58.6795L306.434 55.712L307.405 56.0447ZM314.471 58.4665L313.113 62.4284L312.086 62.0766L312.713 60.248L311.847 59.9511L312.127 59.133L312.993 59.4299L313.444 58.1146L314.471 58.4665ZM308.963 61.3557L308.73 62.0374L311.753 63.0738L311.987 62.3921L313.005 62.7412L311.996 65.6846L306.936 63.95L307.945 61.0066L308.963 61.3557ZM308.238 63.473L311.261 64.5094L311.475 63.8838L308.452 62.8475L308.238 63.473ZM309.842 57.6686C309.625 58.3022 309.456 59.0823 309.681 59.8094C310.279 59.3735 310.612 58.6631 310.836 58.0095L310.965 57.6325L311.928 57.9624L311.799 58.3393C311.482 59.2616 311.396 60.2717 312.065 61.0924L311.253 61.6298C310.859 61.1586 310.71 60.5876 310.715 59.9844C310.337 60.4866 309.864 60.8848 309.256 61.0257C308.856 60.5304 308.73 59.918 308.75 59.2841C308.376 59.7743 307.9 60.1442 307.299 60.2746L306.996 59.3551C308.02 59.1144 308.58 58.2129 308.879 57.3387L309.008 56.9618L309.971 57.2916L309.842 57.6686ZM288.53 61.9925C288.071 63.3319 288.219 64.8882 289.275 65.8328L288.394 66.4447C287.689 65.7819 287.36 64.8581 287.34 63.8432C286.671 64.7115 285.801 65.3007 284.772 65.4006L284.446 64.3388C285.905 64.2385 287.001 63.0547 287.496 61.6379L287.87 60.5472L288.904 60.9018L288.53 61.9925ZM292.369 61.462L289.862 68.7763L288.827 68.4217L291.334 61.1074L292.369 61.462ZM295.085 67.4746C296.681 68.0216 297.51 68.8705 297.219 69.7475C296.916 70.6029 295.738 70.7725 294.142 70.2255C292.562 69.6839 291.719 68.8215 292.014 67.9634C292.313 67.0892 293.505 66.933 295.085 67.4746ZM294.824 68.2365C293.821 67.8929 293.172 67.9035 293.032 68.3125C292.897 68.7055 293.406 69.1039 294.409 69.4475C295.411 69.7911 296.065 69.7913 296.2 69.3983C296.34 68.9893 295.826 68.5801 294.824 68.2365ZM299.097 64.1357L298.894 64.7292C298.696 65.3066 298.482 65.9322 298.015 66.6146L297.045 66.1748C297.432 65.5681 297.621 65.0817 297.804 64.5886L293.73 63.1921L294.005 62.3901L299.097 64.1357ZM298.88 67.3324L298.597 68.1585L291.972 65.8878L292.255 65.0618L294.742 65.914L295.179 64.6388L296.189 64.9851L295.752 66.2603L298.88 67.3324ZM308.487 66.9955L306.642 72.377L305.631 72.0306L306.154 70.5068L304.486 69.935L304.766 69.1169L306.434 69.6887L306.715 68.8707L305.151 68.3346C304.249 69.2667 302.908 69.7259 301.289 69.6639L301.136 68.7243C302.861 68.7643 304.137 68.2335 304.691 67.2181L302.365 66.4209L302.645 65.6028L306.086 66.7821C305.984 67.0789 305.853 67.3566 305.704 67.61L306.995 68.0526L307.476 66.6491L308.487 66.9955ZM306.505 73.4053L306.224 74.2234L301.228 72.5108L302.022 70.193L303.065 70.5503L302.551 72.0501L306.505 73.4053ZM313.514 69.1668L313.236 69.9769L311.785 69.4793C311.497 70.3442 311.708 71.4023 312.732 72.1792L311.958 72.7919C311.236 72.2576 310.864 71.5386 310.776 70.7738C310.197 71.3909 309.414 71.7811 308.457 71.7623L308.213 70.7735C309.544 70.7996 310.418 70.0281 310.742 69.1219L309.274 68.6189L309.552 67.8088L313.514 69.1668ZM313.995 74.0907L313.093 76.7213L312.075 76.3722L312.696 74.5597L308.702 73.1907L308.983 72.3726L313.995 74.0907ZM315.595 69.4231L314.105 73.7699L313.087 73.4208L313.689 71.6644L312.558 71.2768L312.844 70.4427L313.974 70.8303L314.576 69.0739L315.595 69.4231ZM318.734 72.3452C318.264 73.7167 318.361 75.2377 319.399 76.1849L318.493 76.7885C317.819 76.1138 317.526 75.2025 317.533 74.2011C316.885 75.0456 316.056 75.6351 315.08 75.7622L314.725 74.7082C316.168 74.5757 317.221 73.3593 317.699 71.9906L318.073 70.8999L319.108 71.2545L318.734 72.3452ZM322.701 71.8587L320.194 79.173L319.183 78.8266L320.621 74.6321L319.185 74.14L319.468 73.314L320.904 73.806L321.69 71.5123L322.701 71.8587Z" fill="#22272B"/>
<rect x="289.434" y="76.3677" width="21.9593" height="3.57477" rx="0.510682" transform="rotate(18.9199 289.434 76.3677)" fill="#D4DCE5"/>
<rect x="275.991" y="80.9375" width="44.4293" height="1.02136" rx="0.510682" transform="rotate(18.9199 275.991 80.9375)" fill="#D4DCE5"/>
<rect x="274.5" y="85.2852" width="44.4293" height="1.02136" rx="0.510682" transform="rotate(18.9199 274.5 85.2852)" fill="#D4DCE5"/>
<rect x="285.088" y="93.7729" width="18.8952" height="1.02136" rx="0.510682" transform="rotate(18.9199 285.088 93.7729)" fill="#D4DCE5"/>
<path d="M294.665 114.24L288.062 111.977C288.403 111.431 288.711 110.851 288.987 110.248C289.6 110.293 290.015 110.89 289.815 111.416C289.722 111.568 289.666 111.669 289.661 111.678C289.595 111.798 289.633 111.948 289.747 112.024C289.861 112.099 290.014 112.073 290.098 111.966C290.174 111.867 290.237 111.765 290.287 111.645C290.707 110.964 291.35 110.159 291.723 110.165C291.758 110.165 291.865 110.167 291.987 110.401C292.163 110.712 292.295 111.672 293.362 112.142C293.879 112.37 294.454 112.392 294.98 112.203C295.117 112.154 295.187 112.004 295.138 111.868C295.09 111.731 294.939 111.66 294.803 111.709C293.105 112.319 292.541 110.334 292.459 110.171C292.238 109.738 291.941 109.644 291.731 109.641C291.312 109.634 290.847 109.976 290.309 110.686C290.136 110.205 289.719 109.849 289.206 109.749C289.907 108.075 290.957 104.516 289.502 103.852C288.176 103.246 285.868 105.888 284.926 107C284.832 107.11 284.846 107.276 284.956 107.369C285.067 107.463 285.232 107.449 285.326 107.339C286.007 106.534 288.334 103.895 289.285 104.329C290.351 104.816 289.237 108.363 288.647 109.724C287.382 109.774 286.235 110.311 285.329 111.04L283.462 110.4C283.05 110.259 282.601 110.479 282.46 110.891C282.319 111.302 282.539 111.751 282.95 111.892L284.129 112.296C283.98 112.502 283.848 112.71 283.736 112.916C283.316 113.69 283.225 114.356 283.488 114.742C284.048 115.566 285.833 114.779 287.092 113.312L294.154 115.732C294.565 115.873 295.014 115.653 295.155 115.242C295.296 114.831 295.076 114.381 294.665 114.24ZM288.4 110.266C288.132 110.827 287.851 111.335 287.552 111.802L285.921 111.243C286.631 110.733 287.478 110.359 288.4 110.266ZM287.25 112.253C287.141 112.409 287.03 112.557 286.919 112.698L285.013 112.045C285.145 111.903 285.287 111.764 285.437 111.631L287.25 112.253ZM283.12 111.396C282.982 111.349 282.909 111.198 282.956 111.061C283.003 110.923 283.154 110.849 283.292 110.896L284.877 111.44C284.735 111.576 284.601 111.717 284.476 111.861L283.12 111.396ZM283.921 114.447C283.805 114.276 283.845 113.814 284.197 113.166C284.322 112.936 284.474 112.703 284.649 112.474L286.556 113.128C285.34 114.474 284.114 114.731 283.921 114.447ZM294.324 115.236L287.442 112.878C287.551 112.735 287.659 112.585 287.766 112.43L294.495 114.736C294.633 114.784 294.707 114.934 294.66 115.072C294.612 115.21 294.462 115.284 294.324 115.236Z" fill="#687481"/>
<path d="M283.506 109.779C283.57 109.909 283.727 109.963 283.857 109.899L284.094 109.783L284.21 110.02C284.274 110.15 284.431 110.204 284.561 110.14C284.691 110.077 284.745 109.92 284.681 109.79L284.565 109.552L284.802 109.436C284.932 109.373 284.986 109.216 284.923 109.086C284.859 108.956 284.702 108.902 284.572 108.965L284.335 109.082L284.218 108.844C284.155 108.714 283.998 108.66 283.868 108.724C283.738 108.788 283.684 108.945 283.748 109.075L283.864 109.312L283.626 109.428C283.496 109.492 283.443 109.649 283.506 109.779Z" fill="#687481"/>
</g>
<defs>
<filter id="filter0_d_542_15855" x="189.337" y="26.0176" width="109.606" height="124.129" filterUnits="userSpaceOnUse" color-interpolation-filters="sRGB">
<feFlood flood-opacity="0" result="BackgroundImageFix"/>
<feColorMatrix in="SourceAlpha" type="matrix" values="0 0 0 0 0 0 0 0 0 0 0 0 0 0 0 0 0 0 127 0" result="hardAlpha"/>
<feOffset dy="2.04273"/>
<feGaussianBlur stdDeviation="3.62584"/>
<feComposite in2="hardAlpha" operator="out"/>
<feColorMatrix type="matrix" values="0 0 0 0 0.135876 0 0 0 0 0.204117 0 0 0 0 0.321989 0 0 0 0.13 0"/>
<feBlend mode="normal" in2="BackgroundImageFix" result="effect1_dropShadow_542_15855"/>
<feBlend mode="normal" in="SourceGraphic" in2="effect1_dropShadow_542_15855" result="shape"/>
</filter>
<filter id="filter1_d_542_15855" x="243.244" y="25.981" width="109.448" height="124.053" filterUnits="userSpaceOnUse" color-interpolation-filters="sRGB">
<feFlood flood-opacity="0" result="BackgroundImageFix"/>
<feColorMatrix in="SourceAlpha" type="matrix" values="0 0 0 0 0 0 0 0 0 0 0 0 0 0 0 0 0 0 127 0" result="hardAlpha"/>
<feOffset dy="2.04273"/>
<feGaussianBlur stdDeviation="3.62584"/>
<feComposite in2="hardAlpha" operator="out"/>
<feColorMatrix type="matrix" values="0 0 0 0 0.135876 0 0 0 0 0.204117 0 0 0 0 0.321989 0 0 0 0.13 0"/>
<feBlend mode="normal" in2="BackgroundImageFix" result="effect1_dropShadow_542_15855"/>
<feBlend mode="normal" in="SourceGraphic" in2="effect1_dropShadow_542_15855" result="shape"/>
</filter>
<linearGradient id="paint0_linear_542_15855" x1="230.511" y1="52.6802" x2="230.511" y2="148.178" gradientUnits="userSpaceOnUse">
<stop stop-color="white"/>
<stop offset="1" stop-color="#F0F8FF"/>
</linearGradient>
<linearGradient id="paint1_linear_542_15855" x1="315.395" y1="29.1221" x2="315.395" y2="124.62" gradientUnits="userSpaceOnUse">
<stop stop-color="white"/>
<stop offset="1" stop-color="#F0F8FF"/>
</linearGradient>
<clipPath id="clip0_542_15855">
<rect width="28.5982" height="28.5982" fill="white" transform="translate(229.616 87.0098) rotate(-19.0773)"/>
</clipPath>
</defs>
</svg>
