<svg width="541" height="484" viewBox="0 0 541 484" fill="none" xmlns="http://www.w3.org/2000/svg">
<g opacity="0.2" filter="url(#filter0_f_8885_12281)">
<rect x="218.447" y="149.736" width="267.553" height="279.005" rx="133.777" fill="#0083FF"/>
</g>
<g opacity="0.2" filter="url(#filter1_f_8885_12281)">
<rect x="55" y="55" width="248.814" height="252.978" rx="124.407" fill="#5ADBDD"/>
</g>
<g filter="url(#filter2_d_8885_12281)">
<rect x="71.6562" y="72.6992" width="388.316" height="311.278" rx="29.1498" fill="url(#paint0_linear_8885_12281)"/>
</g>
<rect x="113.299" y="300.692" width="305.031" height="46.8478" rx="23.4239" fill="#0283FD"/>
<path d="M144.482 333.679L168.576 292.194C169.121 291.255 168.348 290.099 167.271 290.245L151.245 292.424L155.074 272.32C155.203 271.643 154.33 271.254 153.913 271.804L130.224 303.074C129.534 303.985 130.265 305.28 131.401 305.16L149.07 303.3L143.277 333.228C143.138 333.949 144.113 334.315 144.482 333.679Z" fill="#FFDC64"/>
<path d="M137.632 300.858C137.189 300.893 136.896 300.409 137.131 300.033L154.843 271.694C154.579 271.486 154.164 271.472 153.913 271.804L130.224 303.074C129.534 303.984 130.265 305.279 131.401 305.16L149.07 303.3L143.277 333.227C143.199 333.631 143.472 333.915 143.79 333.983L153.716 302.575C154.181 301.102 153.007 299.628 151.468 299.751L137.632 300.858Z" fill="#FFC850"/>
<path d="M201.761 319.992V321.166H194.974V319.992H197.658V318.131H199.092V319.992H201.761ZM198.375 321.99C200.114 321.99 201.334 323.286 201.349 325.131C201.334 326.992 200.114 328.303 198.375 328.303C196.667 328.303 195.401 326.992 195.417 325.131C195.401 323.286 196.667 321.99 198.375 321.99ZM198.375 323.194C197.384 323.194 196.698 324.003 196.698 325.131C196.698 326.29 197.384 327.068 198.375 327.068C199.351 327.068 200.068 326.29 200.068 325.131C200.068 324.003 199.351 323.194 198.375 323.194ZM206.702 317.735V331.399H205.329V324.613H203.758V330.758H202.386V318.04H203.758V323.423H205.329V317.735H206.702ZM219.145 317.735V323.027H221.341V324.216H219.145V331.429H217.697V317.735H219.145ZM215.47 319.046V320.221H210.529V326.824C212.824 326.816 214.548 326.717 216.492 326.366L216.675 327.586C214.54 327.968 212.725 328.044 210.179 328.029H209.081V319.046H215.47ZM234.487 324.582V325.756H229.073V328.41H227.609V325.756H221.982V324.582H234.487ZM233.099 329.92V331.109H223.553V327.098H225.001V329.92H233.099ZM228.219 318.055C231.162 318.055 233.069 319.123 233.069 320.831C233.069 322.539 231.162 323.591 228.219 323.591C225.291 323.591 223.354 322.539 223.354 320.831C223.354 319.123 225.291 318.055 228.219 318.055ZM228.219 319.214C226.221 319.214 224.895 319.824 224.91 320.831C224.895 321.822 226.221 322.417 228.219 322.417C230.232 322.417 231.544 321.822 231.544 320.831C231.544 319.824 230.232 319.214 228.219 319.214ZM249.95 317.735V323.027H252.146V324.216H249.95V331.429H248.502V317.735H249.95ZM246.275 319.046V320.221H241.334V326.824C243.629 326.816 245.353 326.717 247.297 326.366L247.48 327.586C245.345 327.968 243.53 328.044 240.983 328.029H239.885V319.046H246.275ZM264.118 317.735V331.429H262.669V317.735H264.118ZM256.813 318.757C258.841 318.757 260.336 320.617 260.336 323.545C260.336 326.488 258.841 328.349 256.813 328.349C254.754 328.349 253.275 326.488 253.275 323.545C253.275 320.617 254.754 318.757 256.813 318.757ZM256.813 320.053C255.547 320.053 254.678 321.395 254.678 323.545C254.678 325.711 255.547 327.053 256.813 327.053C258.063 327.053 258.933 325.711 258.933 323.545C258.933 321.395 258.063 320.053 256.813 320.053ZM277.949 326.885V331.399H276.516V328.044H268.677V326.885H277.949ZM271.743 318.772V322.676H268.311V324.491C269.989 324.475 271.247 324.399 272.749 324.094L272.902 325.268C271.209 325.589 269.806 325.665 267.808 325.65H266.908V321.608H270.355V319.916H266.878V318.772H271.743ZM277.949 317.75V326.244H276.577V317.75H277.949ZM275.22 318.009V326.168H273.832V322.34H272.261V321.166H273.832V318.009H275.22ZM290.881 325.009V326.168H281.365V318.863H290.744V320.038H282.829V321.883H290.454V323.027H282.829V325.009H290.881ZM292.299 328.486V329.676H279.795V328.486H292.299ZM301.556 318.711C303.722 318.696 305.262 320.038 305.277 321.959C305.262 323.881 303.722 325.223 301.556 325.223C299.406 325.223 297.82 323.881 297.835 321.959C297.82 320.038 299.406 318.696 301.556 318.711ZM301.556 319.961C300.229 319.961 299.253 320.754 299.269 321.959C299.253 323.164 300.229 323.957 301.556 323.957C302.883 323.957 303.859 323.164 303.859 321.959C303.859 320.754 302.883 319.961 301.556 319.961ZM308.403 317.735V331.429H306.955V317.735H308.403ZM297.179 327.281C299.665 327.281 303.112 327.251 306.101 326.824L306.207 327.876C303.112 328.471 299.802 328.486 297.362 328.486L297.179 327.281ZM318.59 318.97V322.737H313.1V324.277H318.941V325.421H315.891V327.51C317.149 327.464 318.407 327.38 319.597 327.251L319.704 328.318C316.699 328.776 313.451 328.837 310.859 328.806L310.676 327.602C311.842 327.602 313.131 327.594 314.458 327.556V325.421H311.652V321.654H317.157V320.129H311.636V318.97H318.59ZM321.9 317.735V331.429H320.451V317.735H321.9ZM335.487 317.75V327.815H334.039V323.072H331.202V321.868H334.039V317.75H335.487ZM331.294 318.772C331.278 322.34 328.823 325.024 324.904 326.29L324.294 325.131C327.336 324.147 329.403 322.287 329.708 319.977H324.995V318.772H331.294ZM335.838 329.935V331.109H326.688V326.778H328.152V329.935H335.838Z" fill="white"/>
<path d="M119.503 176.813C119.486 178.957 120.955 180.91 123.34 181.705L122.511 183.001C120.722 182.37 119.374 181.108 118.674 179.492C117.982 181.229 116.626 182.603 114.785 183.26L113.955 181.981C116.375 181.117 117.827 179.026 117.827 176.813V175.327H119.503V176.813ZM126.711 184.625V190.07H125.069V185.956H116.22V184.625H126.711ZM126.711 174.584V183.882H125.069V174.584H126.711ZM143.285 181.998V183.312H137.029V184.971H141.557V189.88H130.859V184.971H135.404V183.312H129.165V181.998H143.285ZM141.954 175.068V176.399H139.708V179.354H141.885V180.685H130.53V179.354H132.725V176.399H130.461V175.068H141.954ZM132.483 186.267V188.549H139.967V186.267H132.483ZM134.35 179.354H138.066V176.399H134.35V179.354ZM157.751 174.584V190.07H156.178V174.584H157.751ZM154.606 174.912V189.292H153.05V181.411H150.648V180.063H153.05V174.912H154.606ZM149.127 178.905C149.127 181.549 150.198 184.193 152.376 185.455L151.391 186.665C149.913 185.783 148.894 184.219 148.366 182.344C147.805 184.366 146.75 186.086 145.238 187.028L144.236 185.801C146.431 184.47 147.554 181.653 147.554 178.905V177.66H144.702V176.329H151.789V177.66H149.127V178.905ZM173.928 186.786V188.134H159.756V186.786H166.013V183.122H167.655V186.786H173.928ZM167.672 177.401C167.672 179.769 170.351 181.877 173.306 182.344L172.649 183.64C170.152 183.165 167.845 181.713 166.842 179.682C165.831 181.739 163.541 183.234 161.087 183.709L160.413 182.413C163.299 181.929 165.961 179.769 165.961 177.401V177.263H160.931V175.915H172.701V177.263H167.672V177.401ZM176.815 184.349C176.141 184.349 175.57 183.796 175.588 183.122C175.57 182.448 176.141 181.895 176.815 181.895C177.471 181.895 178.042 182.448 178.042 183.122C178.042 183.796 177.471 184.349 176.815 184.349ZM191.782 174.584V180.754H194.184V182.119H191.782V190.052H190.14V174.584H191.782ZM187.738 176.208C187.72 180.685 185.75 184.677 180.652 187.201L179.736 185.922C183.616 183.986 185.724 181.186 186.061 177.574H180.513V176.208H187.738ZM201.996 184.314C205.349 184.314 207.458 185.369 207.475 187.183C207.458 188.981 205.349 190.052 201.996 190.035C198.678 190.052 196.552 188.981 196.552 187.183C196.552 185.369 198.678 184.314 201.996 184.314ZM201.996 185.559C199.646 185.559 198.177 186.164 198.194 187.183C198.177 188.186 199.646 188.773 201.996 188.773C204.364 188.773 205.833 188.186 205.851 187.183C205.833 186.164 204.364 185.559 201.996 185.559ZM207.354 175.344V176.641C207.354 177.885 207.354 179.164 206.922 180.754L205.315 180.581C205.73 179 205.73 177.859 205.73 176.658H196.673V175.344H207.354ZM209.117 181.705V183.035H195.031V181.705H200.683V178.801H202.29V181.705H209.117ZM214.596 175.292C216.635 175.275 218.208 176.459 218.554 178.196H221.578V174.584H223.22V182.897H221.578V179.544H218.571C218.234 181.324 216.653 182.517 214.596 182.517C212.228 182.517 210.534 181.031 210.534 178.887C210.534 176.779 212.228 175.275 214.596 175.292ZM214.596 176.658C213.127 176.658 212.107 177.557 212.107 178.887C212.107 180.218 213.127 181.134 214.596 181.134C216.03 181.134 217.05 180.218 217.05 178.887C217.05 177.557 216.03 176.658 214.596 176.658ZM214.752 183.64V185.438H221.578V183.64H223.22V189.88H213.127V183.64H214.752ZM214.752 188.531H221.578V186.734H214.752V188.531Z" fill="black"/>
<path d="M114.275 163.738V154.906H115.373V158.834H120.045V154.906H121.155V163.738H120.045V159.798H115.373V163.738H114.275ZM123.486 163.738H122.339L125.572 154.906H126.731L129.964 163.738H128.805L127.926 161.249H124.376L123.486 163.738ZM124.706 160.286H127.585L126.182 156.333H126.109L124.706 160.286ZM136.771 157.687C136.515 156.467 135.466 155.808 134.307 155.808C132.709 155.808 131.464 157.041 131.464 159.322C131.464 161.603 132.709 162.835 134.307 162.835C135.466 162.835 136.503 162.177 136.771 160.969H137.869C137.552 162.774 136.1 163.86 134.307 163.86C132.038 163.86 130.403 162.116 130.403 159.322C130.403 156.528 132.038 154.784 134.307 154.784C136.088 154.784 137.54 155.857 137.869 157.687H136.771ZM145.433 157.687C145.177 156.467 144.128 155.808 142.969 155.808C141.371 155.808 140.126 157.041 140.126 159.322C140.126 161.603 141.371 162.835 142.969 162.835C144.128 162.835 145.165 162.177 145.433 160.969H146.531C146.214 162.774 144.762 163.86 142.969 163.86C140.7 163.86 139.065 162.116 139.065 159.322C139.065 156.528 140.7 154.784 142.969 154.784C144.75 154.784 146.202 155.857 146.531 157.687H145.433ZM148.069 163.738V154.906H151.07C153.144 154.906 154.083 156.138 154.083 157.712C154.083 159.273 153.144 160.53 151.082 160.53H149.167V163.738H148.069ZM149.167 159.554H151.033C152.436 159.554 152.997 158.761 152.997 157.712C152.997 156.65 152.436 155.882 151.021 155.882H149.167V159.554ZM167.174 153.893V161.823H166.222V153.893H167.174ZM167.515 163.689V164.495H160.171V161.018H161.123V163.689H167.515ZM161.318 154.649C162.94 154.649 164.16 155.747 164.16 157.309C164.16 158.895 162.94 159.981 161.318 159.981C159.695 159.981 158.475 158.895 158.475 157.309C158.475 155.747 159.695 154.649 161.318 154.649ZM161.318 155.491C160.22 155.491 159.402 156.248 159.415 157.309C159.402 158.395 160.22 159.139 161.318 159.139C162.391 159.139 163.221 158.395 163.221 157.309C163.221 156.248 162.391 155.491 161.318 155.491ZM178.898 159.041V159.834H169.016V159.041H178.898ZM173.957 160.786C176.287 160.786 177.678 161.506 177.69 162.75C177.678 164.007 176.287 164.702 173.957 164.702C171.614 164.702 170.211 164.007 170.211 162.75C170.211 161.506 171.614 160.786 173.957 160.786ZM173.957 161.542C172.212 161.554 171.175 161.981 171.187 162.75C171.175 163.506 172.212 163.933 173.957 163.933C175.677 163.933 176.726 163.506 176.726 162.75C176.726 161.981 175.677 161.554 173.957 161.542ZM178.019 154.442V155.235H174.579C174.616 156.467 176.421 157.407 178.349 157.626L177.995 158.395C176.22 158.169 174.555 157.376 173.957 156.162C173.365 157.376 171.706 158.169 169.919 158.395L169.577 157.626C171.468 157.407 173.286 156.467 173.335 155.235H169.919V154.442H178.019ZM188.585 154.759C188.572 157.565 187.121 159.663 183.631 160.835L183.241 160.066C185.102 159.456 186.285 158.596 186.95 157.529L183.351 157.834L183.18 157.041L187.291 156.845C187.444 156.437 187.542 156.004 187.584 155.552H183.729V154.759H188.585ZM191.94 153.893V161.945H190.976V158.151H188.56V157.346H190.976V153.893H191.94ZM192.245 163.689V164.495H185.083V161.14H186.059V163.689H192.245ZM202.737 153.881V159.493H201.773V156.675H199.357V155.882H201.773V153.881H202.737ZM202.737 160.042V162.628H196.673V163.811H203.139V164.58H195.734V161.896H201.785V160.81H195.709V160.042H202.737ZM197.442 155.259C197.43 156.687 198.552 157.98 200.138 158.505L199.626 159.249C198.424 158.822 197.466 157.968 196.99 156.87C196.527 158.108 195.545 159.053 194.258 159.517L193.733 158.748C195.368 158.212 196.49 156.845 196.502 155.259V154.235H197.442V155.259ZM210.374 154.686V155.467H206.14V156.833H210.069V157.614H206.14V159.041C208.452 159.041 209.733 158.999 211.264 158.748L211.362 159.529C209.776 159.785 208.446 159.834 206.055 159.834H205.177V154.686H210.374ZM213.497 153.893V160.615H212.545V153.893H213.497ZM209.898 160.774C212.155 160.761 213.546 161.481 213.546 162.726C213.546 163.994 212.155 164.702 209.898 164.702C207.592 164.702 206.226 163.994 206.226 162.726C206.226 161.481 207.592 160.761 209.898 160.774ZM209.898 161.53C208.19 161.53 207.177 161.981 207.177 162.726C207.177 163.494 208.19 163.946 209.898 163.946C211.557 163.946 212.606 163.494 212.606 162.726C212.606 161.981 211.557 161.53 209.898 161.53Z" fill="#687481"/>
<path d="M117.953 215.585C119.946 215.585 121.355 216.795 121.355 218.56C121.355 220.325 119.946 221.534 117.953 221.534C115.96 221.534 114.523 220.325 114.537 218.56C114.523 216.795 115.96 215.585 117.953 215.585ZM117.953 216.567C116.601 216.567 115.619 217.378 115.633 218.56C115.619 219.741 116.601 220.552 117.953 220.552C119.291 220.552 120.259 219.741 120.259 218.56C120.259 217.378 119.291 216.567 117.953 216.567ZM124.187 214.66V227.342H123.077V214.66H124.187ZM113.882 223.598C116.217 223.598 119.433 223.584 122.237 223.171L122.323 223.997C119.433 224.538 116.316 224.552 114.039 224.552L113.882 223.598ZM133.78 215.841V219.172H128.528V220.78H134.136V221.677H131.204V223.797C132.435 223.748 133.667 223.662 134.834 223.527L134.919 224.367C132.115 224.794 129.055 224.851 126.635 224.836L126.479 223.883C127.589 223.883 128.82 223.876 130.094 223.84V221.677H127.418V218.332H132.684V216.752H127.39V215.841H133.78ZM136.784 214.66V227.342H135.673V214.66H136.784ZM149.451 214.674V223.926H148.341V214.674H149.451ZM149.85 226.103V227.043H141.281V222.986H142.392V226.103H149.85ZM142.619 215.556C144.512 215.556 145.936 216.837 145.936 218.659C145.936 220.51 144.512 221.776 142.619 221.776C140.726 221.776 139.303 220.51 139.303 218.659C139.303 216.837 140.726 215.556 142.619 215.556ZM142.619 216.538C141.338 216.538 140.385 217.421 140.399 218.659C140.385 219.926 141.338 220.794 142.619 220.794C143.872 220.794 144.84 219.926 144.84 218.659C144.84 217.421 143.872 216.538 142.619 216.538Z" fill="#8995A1"/>
<path d="M162.694 215.343C162.694 218.688 160.43 221.008 156.602 221.99L155.975 220.766C158.972 219.99 160.729 218.474 161 216.595H156.716V215.343H162.694ZM166.608 214.574V221.776H165.014V214.574H166.608ZM166.608 222.331V227.256H158.11V222.331H166.608ZM159.676 223.584V226.004H165.056V223.584H159.676ZM178.208 221.008C178.208 224.338 176.187 226.302 173.482 226.302C170.778 226.302 168.757 224.324 168.757 221.008C168.757 217.677 170.778 215.713 173.482 215.713C176.187 215.713 178.208 217.677 178.208 221.008ZM176.343 221.008C176.343 218.659 175.162 217.378 173.482 217.378C171.803 217.378 170.621 218.659 170.621 221.008C170.621 223.356 171.803 224.637 173.482 224.637C175.162 224.637 176.343 223.356 176.343 221.008ZM189.054 221.008C189.054 224.338 187.032 226.302 184.328 226.302C181.624 226.302 179.603 224.324 179.603 221.008C179.603 217.677 181.624 215.713 184.328 215.713C187.032 215.713 189.054 217.677 189.054 221.008ZM187.189 221.008C187.189 218.659 186.008 217.378 184.328 217.378C182.649 217.378 181.467 218.659 181.467 221.008C181.467 223.356 182.649 224.637 184.328 224.637C186.008 224.637 187.189 223.356 187.189 221.008Z" fill="#22272B"/>
<path d="M196.709 214.914L196.709 227.407" stroke="#E8ECF5" stroke-width="1.04106"/>
<path d="M206.955 215.428C208.023 215.421 208.934 215.82 209.517 216.496H212.834V214.66H213.958V222.161H212.834V220.353H209.531C208.934 221.029 208.023 221.428 206.955 221.42C205.062 221.435 203.667 220.196 203.667 218.431C203.667 216.652 205.062 215.414 206.955 215.428ZM206.955 216.396C205.66 216.382 204.735 217.236 204.735 218.431C204.735 219.613 205.66 220.467 206.955 220.467C208.208 220.467 209.147 219.613 209.147 218.431C209.147 217.236 208.208 216.382 206.955 216.396ZM209.759 222.46C212.378 222.46 214.001 223.342 214.001 224.865C214.001 226.402 212.378 227.285 209.759 227.285C207.126 227.285 205.518 226.402 205.518 224.865C205.518 223.342 207.126 222.46 209.759 222.46ZM209.759 223.328C207.823 223.328 206.614 223.911 206.614 224.865C206.614 225.819 207.823 226.388 209.759 226.388C211.709 226.388 212.905 225.819 212.905 224.865C212.905 223.911 211.709 223.328 209.759 223.328ZM210.058 217.407C210.165 217.72 210.229 218.061 210.229 218.431C210.229 218.787 210.165 219.122 210.058 219.428H212.834V217.407H210.058ZM219.552 215.257C221.253 215.243 222.541 216.232 222.783 217.691H225.43V214.66H226.554V221.449H225.43V218.617H222.797C222.569 220.111 221.267 221.107 219.552 221.107C217.63 221.107 216.264 219.912 216.264 218.175C216.264 216.453 217.63 215.243 219.552 215.257ZM219.552 216.211C218.256 216.197 217.331 217.008 217.331 218.175C217.331 219.328 218.256 220.168 219.552 220.168C220.833 220.168 221.744 219.328 221.744 218.175C221.744 217.008 220.833 216.197 219.552 216.211ZM219.523 222.089V223.698H225.43V222.089H226.554V227.142H218.399V222.089H219.523ZM219.523 226.231H225.43V224.594H219.523V226.231ZM236.19 216.695V217.62H228.661V216.695H231.863V214.816H232.974V216.695H236.19ZM232.433 218.673C234.141 218.673 235.393 219.883 235.408 221.577C235.393 223.257 234.141 224.481 232.433 224.481C230.711 224.481 229.444 223.257 229.444 221.577C229.444 219.883 230.711 218.673 232.433 218.673ZM232.433 219.627C231.323 219.641 230.483 220.453 230.497 221.577C230.483 222.716 231.323 223.527 232.433 223.513C233.543 223.527 234.383 222.716 234.383 221.577C234.383 220.453 233.543 219.641 232.433 219.627ZM239.151 214.66V227.313H238.041V220.922H235.92V219.983H238.041V214.66H239.151ZM251.05 214.66V219.812H253.1V220.752H251.05V227.313H249.94V214.66H251.05ZM247.776 216.026C247.776 219.613 246.097 222.872 241.969 224.908L241.343 224.025C244.617 222.395 246.396 219.962 246.652 216.965H241.926V216.026H247.776Z" fill="#8995A1"/>
<path d="M262.433 215.115C264.311 215.115 265.649 216.154 265.664 217.706C265.649 218.979 264.689 219.94 263.258 220.211V221.25C264.326 221.193 265.4 221.093 266.404 220.951L266.532 222.104C263.856 222.588 260.867 222.63 258.689 222.63L258.519 221.364C259.444 221.371 260.525 221.364 261.664 221.321V220.211C260.191 219.969 259.202 219.001 259.216 217.706C259.202 216.154 260.54 215.115 262.433 215.115ZM262.433 216.325C261.408 216.325 260.682 216.837 260.696 217.706C260.682 218.545 261.408 219.072 262.433 219.086C263.457 219.072 264.155 218.545 264.169 217.706C264.155 216.837 263.457 216.325 262.433 216.325ZM268.738 214.574V218.73H270.474V220.04H268.738V224.395H267.158V214.574H268.738ZM269.193 225.875V227.156H260.283V223.527H261.863V225.875H269.193ZM282.9 224.623V225.932H271.143V224.623H274.261V222.502H272.538V218.303H279.94V216.723H272.51V215.442H281.505V219.57H274.118V221.221H281.804V222.502H279.925V224.623H282.9ZM275.798 224.623H278.374V222.502H275.798V224.623Z" fill="#22272B"/>
<path d="M290.366 214.914L290.366 227.407" stroke="#E8ECF5" stroke-width="1.04106"/>
<path d="M301.651 218.545C301.651 220.695 303.217 222.872 305.081 223.684L304.455 224.566C302.975 223.89 301.694 222.431 301.11 220.68C300.513 222.538 299.239 224.153 297.794 224.879L297.125 223.997C298.933 223.128 300.513 220.737 300.527 218.545V216.894H297.538V215.969H304.669V216.894H301.651V218.545ZM307.558 214.66V227.313H306.434V214.66H307.558ZM320.211 222.815V227.313H319.087V223.712H311.7V222.815H320.211ZM320.211 214.66V222.118H319.087V220.296H315.828C315.237 221.015 314.305 221.442 313.209 221.435C311.316 221.449 309.921 220.196 309.921 218.403C309.921 216.638 311.316 215.386 313.209 215.386C314.298 215.386 315.23 215.813 315.828 216.524H319.087V214.66H320.211ZM313.209 216.339C311.913 216.339 310.988 217.207 310.988 218.403C310.988 219.641 311.913 220.495 313.209 220.495C314.447 220.495 315.401 219.641 315.401 218.403C315.401 217.207 314.447 216.339 313.209 216.339ZM316.326 219.371H319.087V217.449H316.326C316.425 217.748 316.482 218.061 316.482 218.403C316.482 218.745 316.425 219.072 316.326 219.371Z" fill="#8995A1"/>
<path d="M337.979 214.574V222.089H336.399V220.666H333.339V219.385H336.399V218.004H333.467C332.648 220.054 330.777 221.485 327.973 222.26L327.332 221.008C330.342 220.189 331.944 218.666 332.2 216.752H328.015V215.471H333.922C333.922 215.919 333.887 216.346 333.808 216.752H336.399V214.574H337.979ZM333.723 222.232C336.328 222.232 338.064 223.214 338.064 224.794C338.064 226.374 336.328 227.356 333.723 227.356C331.09 227.356 329.353 226.374 329.353 224.794C329.353 223.214 331.09 222.232 333.723 222.232ZM333.723 223.47C331.986 223.47 330.933 223.94 330.933 224.794C330.933 225.634 331.986 226.103 333.723 226.103C335.417 226.103 336.484 225.634 336.484 224.794C336.484 223.94 335.417 223.47 333.723 223.47ZM350.547 214.56V227.427H348.952V214.56H350.547ZM346.704 215.926C346.704 219.755 345.223 223.015 340.711 225.15L339.886 223.883C343.252 222.282 344.818 220.104 345.095 217.179H340.541V215.926H346.704ZM362.844 220.41V221.662H359.03V224.609H364.154V225.904H352.397V224.609H357.464V221.662H353.82V215.514H362.744V216.78H355.4V220.41H362.844ZM374.302 215.286C377.063 215.286 379.099 216.667 379.099 218.759C379.099 220.687 377.44 221.976 375.085 222.203V224.566H380.209V225.861H368.452V224.566H373.519V222.203C371.178 221.976 369.52 220.687 369.534 218.759C369.52 216.667 371.555 215.286 374.302 215.286ZM374.302 216.567C372.423 216.553 371.071 217.407 371.085 218.759C371.071 220.154 372.423 220.979 374.302 220.979C376.209 220.979 377.547 220.154 377.547 218.759C377.547 217.407 376.209 216.553 374.302 216.567ZM385.66 216.837C385.646 218.531 386.713 220.139 388.734 220.794L387.909 222.047C386.478 221.563 385.468 220.595 384.906 219.357C384.329 220.723 383.269 221.791 381.774 222.317L380.892 221.065C383.013 220.381 384.066 218.645 384.066 216.823V215.357H385.66V216.837ZM391.197 214.56V218.36H392.99V219.698H391.197V224.011H389.617V214.56H391.197ZM391.709 225.89V227.171H382.956V223.086H384.578V225.89H391.709ZM398.513 217.649C398.498 220.011 399.737 222.374 401.829 223.271L400.89 224.538C399.409 223.854 398.321 222.488 397.73 220.808C397.139 222.623 396.036 224.103 394.47 224.836L393.503 223.513C395.652 222.588 396.904 220.125 396.904 217.649V215.599H398.513V217.649ZM404.348 214.56V227.441H402.754V214.56H404.348Z" fill="#22272B"/>
<path d="M124.301 241.741V251.093H123.177V247.677H119.903C119.319 248.424 118.38 248.872 117.298 248.872C115.405 248.872 114.01 247.563 114.01 245.712C114.01 243.862 115.405 242.553 117.298 242.538C118.373 242.545 119.291 242.987 119.889 243.72H123.177V241.741H124.301ZM124.657 253.171V254.11H116.174V250.11H117.298V253.171H124.657ZM117.298 243.535C116.003 243.549 115.078 244.446 115.078 245.712C115.078 246.979 116.003 247.876 117.298 247.876C118.537 247.876 119.49 246.979 119.49 245.712C119.49 244.446 118.537 243.549 117.298 243.535ZM120.401 244.645C120.508 244.972 120.572 245.328 120.572 245.712C120.572 246.082 120.508 246.431 120.401 246.751H123.177V244.645H120.401ZM137.253 241.727V254.38H136.172V247.677H134.407V253.74H133.339V241.997H134.407V246.751H136.172V241.727H137.253ZM131.717 243.207V250.979H126.877V243.207H131.717ZM127.931 244.104V250.082H130.663V244.104H127.931ZM150.533 247.363V248.232H145.309V249.413H149.053V252.146H141.538V253.384H149.437V254.238H140.427V251.349H147.957V250.253H140.399V249.413H144.213V248.232H139.018V247.363H150.533ZM145.309 241.656V242.837H149.366V243.72H145.395C145.601 244.979 147.58 245.776 149.907 245.926L149.565 246.78C147.451 246.602 145.544 245.947 144.768 244.745C143.993 245.947 142.086 246.602 139.958 246.78L139.63 245.926C141.943 245.776 143.922 244.979 144.142 243.72H140.2V242.837H144.213V241.656H145.309Z" fill="#8995A1"/>
<path d="M159.975 253.37C157.911 253.37 156.402 252.146 156.345 250.438H158.153C158.21 251.278 158.993 251.875 159.975 251.875C161.128 251.875 161.953 251.036 161.953 249.897C161.953 248.716 161.099 247.876 159.918 247.876C159.121 247.862 158.537 248.146 158.21 248.758H156.488L157.114 242.923H163.206V244.474H158.637L158.324 247.207H158.424C158.822 246.751 159.576 246.424 160.416 246.424C162.338 246.424 163.747 247.862 163.747 249.84C163.747 251.904 162.195 253.37 159.975 253.37ZM175.66 249.854V254.509H174.08V251.121H166.892V249.854H175.66ZM175.66 241.627V249.228H174.08V246.125H171.76C171.447 247.613 170.123 248.616 168.458 248.616C166.522 248.616 165.056 247.306 165.056 245.456C165.056 243.634 166.522 242.325 168.458 242.339C170.13 242.325 171.454 243.335 171.774 244.816H174.08V241.627H175.66ZM168.458 243.677C167.376 243.677 166.565 244.389 166.565 245.456C166.565 246.566 167.376 247.264 168.458 247.278C169.511 247.264 170.308 246.566 170.323 245.456C170.308 244.389 169.511 243.677 168.458 243.677ZM191.644 241.627V254.509H190.05V241.627H191.644ZM184.712 242.567C186.648 242.567 188.057 244.332 188.071 247.107C188.057 249.911 186.648 251.662 184.712 251.662C182.762 251.662 181.353 249.911 181.353 247.107C181.353 244.332 182.762 242.567 184.712 242.567ZM184.712 243.99C183.616 243.99 182.876 245.143 182.876 247.107C182.876 249.086 183.616 250.239 184.712 250.239C185.794 250.239 186.534 249.086 186.534 247.107C186.534 245.143 185.794 243.99 184.712 243.99ZM198.092 243.677C198.092 245.3 199.145 246.823 201.123 247.449L200.269 248.687C198.882 248.217 197.885 247.278 197.337 246.082C196.768 247.449 195.729 248.523 194.249 249.043L193.395 247.805C195.473 247.079 196.498 245.371 196.512 243.535V242.311H198.092V243.677ZM203.685 241.627V244.759H205.479V246.068H203.685V249.328H202.105V241.627H203.685ZM199.501 249.612C202.162 249.598 203.799 250.509 203.813 252.032C203.799 253.583 202.162 254.48 199.501 254.48C196.811 254.48 195.145 253.583 195.145 252.032C195.145 250.509 196.811 249.598 199.501 249.612ZM199.501 250.851C197.736 250.851 196.725 251.278 196.725 252.032C196.725 252.829 197.736 253.228 199.501 253.228C201.266 253.228 202.248 252.829 202.248 252.032C202.248 251.278 201.266 250.851 199.501 250.851Z" fill="#22272B"/>
<path d="M212.709 241.981L212.709 254.474" stroke="#E8ECF5" stroke-width="1.04106"/>
<path d="M225.773 246.225V248.032H230.997V248.958H219.468V248.032H224.677V246.225H225.773ZM225.233 249.997C227.951 249.997 229.574 250.765 229.588 252.174C229.574 253.583 227.951 254.352 225.233 254.352C222.486 254.352 220.863 253.583 220.863 252.174C220.863 250.765 222.486 249.997 225.233 249.997ZM225.233 250.879C223.183 250.879 221.987 251.349 222.002 252.174C221.987 253 223.183 253.484 225.233 253.484C227.254 253.484 228.464 253 228.464 252.174C228.464 251.349 227.254 250.879 225.233 250.879ZM229.972 242.325V243.236H225.958C226.03 244.645 228.15 245.734 230.357 245.969L229.944 246.851C227.873 246.602 225.93 245.698 225.233 244.289C224.542 245.698 222.607 246.602 220.521 246.851L220.109 245.969C222.315 245.734 224.421 244.659 224.507 243.236H220.521V242.325H229.972ZM235.552 242.325C237.253 242.311 238.541 243.3 238.783 244.759H241.43V241.727H242.554V248.516H241.43V245.684H238.797C238.569 247.178 237.267 248.175 235.552 248.175C233.63 248.175 232.264 246.979 232.264 245.243C232.264 243.52 233.63 242.311 235.552 242.325ZM235.552 243.278C234.256 243.264 233.331 244.076 233.331 245.243C233.331 246.396 234.256 247.235 235.552 247.235C236.833 247.235 237.744 246.396 237.744 245.243C237.744 244.076 236.833 243.264 235.552 243.278ZM235.523 249.157V250.765H241.43V249.157H242.554V254.21H234.399V249.157H235.523ZM235.523 253.299H241.43V251.662H235.523V253.299ZM255.094 241.741V251.349H253.97V250.039H251.351V249.228H253.97V241.741H255.094ZM255.407 253.171V254.11H246.412V250.409H247.536V253.171H255.407ZM244.59 247.605C246.953 247.591 250.112 247.577 252.831 247.235L252.902 248.047C251.771 248.225 250.589 248.338 249.429 248.402V250.908H248.305V248.459C247.024 248.516 245.807 248.523 244.746 248.516L244.59 247.605ZM248.746 242.254C250.596 242.254 251.863 243.136 251.877 244.46C251.863 245.812 250.596 246.652 248.746 246.652C246.881 246.652 245.615 245.812 245.615 244.46C245.615 243.136 246.881 242.254 248.746 242.254ZM248.746 243.108C247.508 243.093 246.668 243.649 246.682 244.46C246.668 245.285 247.508 245.826 248.746 245.826C249.942 245.826 250.796 245.285 250.81 244.46C250.796 243.649 249.942 243.093 248.746 243.108Z" fill="#8995A1"/>
<path d="M266.159 242.923V253.228H264.294V244.73H264.237L261.832 246.267V244.574L264.379 242.923H266.159ZM268.664 253.228V251.89L272.307 248.374C273.346 247.335 273.887 246.723 273.887 245.855C273.887 244.901 273.133 244.289 272.122 244.289C271.055 244.289 270.372 244.958 270.386 245.997H268.621C268.607 244.047 270.073 242.78 272.137 242.78C274.243 242.78 275.666 244.033 275.666 245.769C275.666 246.936 275.097 247.876 273.076 249.783L271.24 251.605V251.676H275.823V253.228H268.664ZM287.793 241.627V249.2H286.213V247.42H283.623V248.417H277.574V242.595H283.623V243.592H286.213V241.627H287.793ZM279.154 243.848V247.15H282.057V243.848H279.154ZM283.438 249.541C286.171 249.541 287.836 250.452 287.836 252.018C287.836 253.583 286.171 254.48 283.438 254.48C280.719 254.48 279.054 253.583 279.068 252.018C279.054 250.452 280.719 249.541 283.438 249.541ZM283.438 250.751C281.644 250.751 280.634 251.192 280.634 252.018C280.634 252.815 281.644 253.256 283.438 253.256C285.231 253.256 286.256 252.815 286.256 252.018C286.256 251.192 285.231 250.751 283.438 250.751ZM283.623 246.139H286.213V244.844H283.623V246.139Z" fill="#22272B"/>
<rect x="113.52" y="107.892" width="56.9589" height="25.9589" rx="12.9795" fill="#0283FD" stroke="#0283FD" stroke-width="1.04106"/>
<path d="M136.198 123.926V124.889H126.194V123.926H128.585V121.071C127.689 120.577 127.146 119.79 127.146 118.814C127.146 117.094 128.829 115.959 131.172 115.959C133.526 115.959 135.21 117.094 135.21 118.814C135.21 119.778 134.685 120.552 133.807 121.046V123.926H136.198ZM131.172 116.886C129.451 116.886 128.268 117.63 128.268 118.814C128.268 119.985 129.451 120.754 131.172 120.754C132.88 120.754 134.087 119.985 134.087 118.814C134.087 117.63 132.88 116.886 131.172 116.886ZM129.732 123.926H132.636V121.486C132.19 121.601 131.696 121.656 131.172 121.656C130.659 121.656 130.171 121.601 129.732 121.498V123.926ZM140.822 117.655C140.822 118.936 141.883 120.144 143.542 120.607L142.993 121.51C141.731 121.15 140.773 120.369 140.273 119.363C139.797 120.491 138.845 121.382 137.54 121.791L136.991 120.9C138.65 120.363 139.675 119.058 139.675 117.655V117.521H137.296V116.593H139.675V115.276H140.834V116.593H143.201V117.521H140.822V117.655ZM146.104 115.325V121.949H144.945V119.338H142.859V118.387H144.945V115.325H146.104ZM142.444 122.193C144.726 122.193 146.141 122.925 146.141 124.206C146.141 125.499 144.726 126.244 142.444 126.231C140.151 126.244 138.736 125.499 138.748 124.206C138.736 122.925 140.151 122.193 142.444 122.193ZM142.444 123.096C140.846 123.096 139.895 123.499 139.895 124.206C139.895 124.914 140.846 125.341 142.444 125.341C144.055 125.341 144.994 124.914 144.994 124.206C144.994 123.499 144.055 123.096 142.444 123.096ZM157.755 120.388V121.327H153.339V122.376C155.346 122.486 156.535 123.163 156.535 124.304C156.535 125.548 155.12 126.244 152.766 126.231C150.387 126.244 148.971 125.548 148.971 124.304C148.971 123.163 150.161 122.486 152.192 122.376V121.327H147.788V120.388H157.755ZM152.766 123.255C151.094 123.255 150.143 123.633 150.143 124.304C150.143 124.963 151.094 125.353 152.766 125.341C154.413 125.353 155.376 124.963 155.376 124.304C155.376 123.633 154.413 123.255 152.766 123.255ZM156.865 115.825V116.752H153.546C153.711 117.807 155.248 118.704 157.243 118.899L156.828 119.814C154.937 119.595 153.37 118.795 152.778 117.63C152.168 118.795 150.606 119.595 148.715 119.814L148.313 118.899C150.277 118.704 151.82 117.807 151.985 116.752H148.703V115.825H156.865Z" fill="#FDFDFE"/>
<defs>
<filter id="filter0_f_8885_12281" x="164.104" y="95.3928" width="376.24" height="387.692" filterUnits="userSpaceOnUse" color-interpolation-filters="sRGB">
<feFlood flood-opacity="0" result="BackgroundImageFix"/>
<feBlend mode="normal" in="SourceGraphic" in2="BackgroundImageFix" result="shape"/>
<feGaussianBlur stdDeviation="27.1717" result="effect1_foregroundBlur_8885_12281"/>
</filter>
<filter id="filter1_f_8885_12281" x="0.656521" y="0.656521" width="357.501" height="361.665" filterUnits="userSpaceOnUse" color-interpolation-filters="sRGB">
<feFlood flood-opacity="0" result="BackgroundImageFix"/>
<feBlend mode="normal" in="SourceGraphic" in2="BackgroundImageFix" result="shape"/>
<feGaussianBlur stdDeviation="27.1717" result="effect1_foregroundBlur_8885_12281"/>
</filter>
<filter id="filter2_d_8885_12281" x="50.835" y="56.0422" width="429.959" height="352.92" filterUnits="userSpaceOnUse" color-interpolation-filters="sRGB">
<feFlood flood-opacity="0" result="BackgroundImageFix"/>
<feColorMatrix in="SourceAlpha" type="matrix" values="0 0 0 0 0 0 0 0 0 0 0 0 0 0 0 0 0 0 127 0" result="hardAlpha"/>
<feOffset dy="4.16425"/>
<feGaussianBlur stdDeviation="10.4106"/>
<feColorMatrix type="matrix" values="0 0 0 0 0.137255 0 0 0 0 0.203922 0 0 0 0 0.321569 0 0 0 0.13 0"/>
<feBlend mode="normal" in2="BackgroundImageFix" result="effect1_dropShadow_8885_12281"/>
<feBlend mode="normal" in="SourceGraphic" in2="effect1_dropShadow_8885_12281" result="shape"/>
</filter>
<linearGradient id="paint0_linear_8885_12281" x1="265.814" y1="72.6992" x2="265.814" y2="383.977" gradientUnits="userSpaceOnUse">
<stop stop-color="white"/>
<stop offset="1" stop-color="#F6F8FB"/>
</linearGradient>
</defs>
</svg>
