<svg width="1031" height="444" viewBox="0 0 1031 444" fill="none" xmlns="http://www.w3.org/2000/svg">
<rect width="505" height="309" rx="60" fill="#F1F4F9"/>
<rect x="523" width="508" height="309" rx="60" fill="#F1F4F9"/>
<rect x="147" y="116" width="212" height="69" rx="34.5" fill="#0283FD"/>
<path d="M233.252 142.639V154.434H231.037V151.094H227.381V149.301H231.037V147.508H227.609C226.467 149.942 224.146 151.744 220.93 152.711L219.998 150.971C223.408 149.89 225.553 147.991 225.957 145.627H220.859V143.834H228.4C228.4 144.484 228.33 145.117 228.207 145.715H231.037V142.639H233.252ZM233.674 156.543V158.336H222.723V153.256H225.008V156.543H233.674ZM244.572 143.518V145.293H241.391C241.408 147.183 242.533 149.116 245.064 149.951L243.957 151.674C242.182 151.111 240.969 149.951 240.283 148.51C239.562 150.109 238.288 151.401 236.398 152.008L235.256 150.232C237.884 149.389 239.079 147.288 239.105 145.293H235.889V143.518H244.572ZM248.826 152.852V158.617H246.594V154.645H237.84V152.852H248.826ZM248.826 142.621V152.148H246.594V148.299H244.115V146.471H246.594V142.621H248.826ZM267.74 142.621V146.26H269.902V148.105H267.74V151.955H265.49V142.621H267.74ZM257.756 143.553V145.592H261.025V143.553H263.275V151.164H255.523V143.553H257.756ZM257.756 149.406H261.025V147.332H257.756V149.406ZM267.828 152.676V154.451H259.514V156.648H268.127V158.406H257.281V152.676H267.828ZM284.053 142.621V158.617H281.785V142.621H284.053ZM279.254 144.291C279.254 149.143 277.549 153.168 271.836 155.875L270.658 154.082C274.789 152.131 276.608 149.6 276.969 146.049H271.52V144.291H279.254Z" fill="white"/>
<path d="M353 189.311L318.386 157.482L318.363 204.505L328.867 194.455L335.036 208.518L344.661 204.296L338.492 190.233L353 189.311Z" fill="white"/>
<path d="M353 189.311L318.386 157.482L318.363 204.505L328.867 194.455L335.036 208.518L344.661 204.296L338.492 190.233L353 189.311ZM340.722 202.759L336.573 204.579L329.888 189.34L321.357 197.503L321.373 164.291L345.821 186.771L334.037 187.52L340.722 202.759Z" fill="black"/>
<g filter="url(#filter0_d_8885_12235)">
<rect x="587" y="99.8984" width="141" height="187" rx="15" transform="rotate(-18.9971 587 99.8984)" fill="url(#paint0_linear_8885_12235)"/>
<path d="M636.17 119.698L636.716 121.284L629.809 123.662L629.263 122.076L631.743 121.222L631.127 119.433L633.105 118.752L633.721 120.541L636.17 119.698ZM633.515 123.106C635.336 122.479 637.125 123.443 637.822 125.415C638.493 127.414 637.676 129.276 635.855 129.903C634.034 130.529 632.214 129.576 631.527 127.582C630.846 125.605 631.694 123.732 633.515 123.106ZM634.088 124.769C633.256 125.056 632.912 125.894 633.285 126.977C633.658 128.06 634.44 128.494 635.271 128.207C636.072 127.932 636.421 127.109 636.064 126.021C635.675 124.943 634.889 124.494 634.088 124.769ZM640.881 115.636L645.799 129.92L643.9 130.574L641.533 123.699L640.371 124.099L642.527 130.362L640.659 131.005L636.05 117.615L637.918 116.972L639.82 122.498L640.981 122.098L638.982 116.29L640.881 115.636ZM654.711 110.875L657.38 118.629L655.371 119.321L654.139 115.742L652.444 116.326L651.892 114.725L653.588 114.141L652.701 111.567L654.711 110.875ZM649.68 121.965L650.139 123.299L656.057 121.262L655.597 119.928L657.591 119.242L659.574 125.002L649.669 128.412L647.686 122.652L649.68 121.965ZM651.106 126.109L657.024 124.072L656.603 122.848L650.685 124.885L651.106 126.109ZM646.6 115.212C647.027 116.452 647.705 117.861 648.928 118.712C649.327 117.32 648.987 115.821 648.546 114.542L648.292 113.804L650.176 113.156L650.43 113.894C651.051 115.699 652.133 117.363 654.154 117.826L653.547 119.633C652.371 119.379 651.453 118.677 650.735 117.739C650.755 118.97 650.504 120.154 649.734 121.104C648.521 120.819 647.589 120.025 646.858 119.021C646.869 120.229 646.579 121.373 645.808 122.297L644.233 121.242C645.525 119.638 645.305 117.572 644.716 115.861L644.462 115.123L646.346 114.474L646.6 115.212ZM672.062 104.919L675.65 115.342L673.656 116.028L671.895 110.911L669.556 111.716L668.999 110.099L671.338 109.294L670.068 105.605L672.062 104.919ZM676.682 117.217L677.233 118.818L667.406 122.201L665.855 117.696L667.865 117.004L668.864 119.908L676.682 117.217ZM666.384 109.999C666.951 111.647 668.566 113.075 671.096 113.029L670.653 114.955C668.892 114.991 667.45 114.32 666.373 113.233C666.243 114.894 665.499 116.431 664.006 117.577L662.424 116.296C664.524 114.748 664.949 112.512 664.338 110.686L664.262 110.466L661.389 111.455L660.838 109.854L668.593 107.184L669.144 108.785L666.303 109.764L666.384 109.999ZM689.401 106.833L689.946 108.419L684.562 110.272L685.411 112.737L683.433 113.418L682.584 110.953L676.87 112.92L676.325 111.335L689.401 106.833ZM685.505 100.975L687.316 106.234L677.552 109.595L675.741 104.337L685.505 100.975ZM678.239 105.215L678.979 107.366L684.818 105.356L684.078 103.205L678.239 105.215ZM689.805 112.699L690.356 114.3L680.262 117.775L678.83 113.615L680.824 112.929L681.705 115.487L689.805 112.699ZM699.071 95.6027L700.957 101.081L702.982 100.384L703.55 102.032L701.525 102.729L703.978 109.856L701.969 110.548L697.062 96.2944L699.071 95.6027ZM695.759 98.3757C697.214 102.651 696.825 106.928 692.832 110.937L691.173 109.787C693.972 106.927 695.001 104.027 694.281 100.711L689.525 102.348L688.963 100.716L695.759 98.3757ZM647.423 134.536L652.341 148.82L650.426 149.48L645.508 135.195L647.423 134.536ZM644.574 135.745L649.194 149.166L647.31 149.815L645.787 145.388L644.107 145.966C644.051 147.539 643.39 148.654 642.19 149.067C640.306 149.715 638.401 148.159 637.293 144.941C636.19 141.739 636.739 139.355 638.623 138.707C639.816 138.296 641.017 138.751 642.032 139.939L643.711 139.36L642.69 136.393L644.574 135.745ZM639.271 140.59C638.439 140.877 638.347 142.138 639.114 144.314C639.854 146.517 640.698 147.438 641.525 147.136C642.362 146.865 642.492 145.609 641.735 143.412C640.984 141.23 640.088 140.309 639.271 140.59ZM642.975 141.405C643.189 141.822 643.383 142.283 643.556 142.785C643.726 143.279 643.857 143.761 643.943 144.214L645.23 143.771L644.263 140.961L642.975 141.405ZM654.914 134.468C655.509 136.194 657.086 137.512 659.59 137.44L659.057 139.362C657.37 139.381 655.975 138.773 654.931 137.728C654.808 139.385 654.09 140.896 652.647 142.008L651.023 140.811C653.134 139.189 653.5 136.938 652.84 134.971L652.392 133.668L654.401 132.976L654.914 134.468ZM660.264 130.115L661.415 133.459L663.345 132.794L663.918 134.458L661.987 135.123L663.182 138.592L661.172 139.283L658.254 130.807L660.264 130.115ZM658.601 140.485C661.552 139.469 663.772 139.846 664.371 141.588C664.977 143.346 663.455 144.994 660.503 146.01C657.49 147.048 655.26 146.692 654.655 144.934C654.055 143.191 655.587 141.522 658.601 140.485ZM659.142 142.054C657.258 142.703 656.378 143.462 656.664 144.242C656.929 145.063 658.079 145.089 659.963 144.44C661.815 143.803 662.675 143.086 662.394 142.269C662.123 141.484 660.994 141.417 659.142 142.054ZM678.556 123.835L682.183 134.368L680.205 135.049L679.178 132.066L675.913 133.19L675.362 131.589L678.627 130.465L678.075 128.864L675.014 129.918C674.743 132.443 673.224 134.766 670.649 136.618L669.282 135.35C671.995 133.337 673.326 130.982 672.961 128.746L668.408 130.314L667.857 128.712L674.591 126.394C674.791 126.975 674.923 127.562 674.997 128.133L677.524 127.263L676.578 124.516L678.556 123.835ZM683.208 136.122L683.759 137.723L673.98 141.09L672.418 136.553L674.458 135.851L675.469 138.786L683.208 136.122ZM688.936 121.14L689.481 122.725L686.64 123.703C687.237 125.385 688.836 126.766 691.353 126.734L690.894 128.612C689.135 128.656 687.696 127.993 686.64 126.916C686.488 128.566 685.748 130.112 684.247 131.234L682.68 130C684.768 128.439 685.189 126.196 684.6 124.406L681.727 125.395L681.181 123.809L688.936 121.14ZM695.604 128.167L697.377 133.316L695.383 134.002L694.162 130.455L686.344 133.146L685.793 131.545L695.604 128.167ZM692.459 119.031L695.388 127.539L693.394 128.226L692.211 124.788L689.997 125.55L689.435 123.917L691.649 123.155L690.465 119.718L692.459 119.031ZM700.824 119.768C701.748 122.452 703.729 124.685 706.471 124.9L705.798 126.923C703.945 126.691 702.396 125.636 701.203 124.08C701.218 126.164 700.646 128.073 699.292 129.443L697.474 128.243C699.544 126.301 699.708 123.155 698.799 120.465L698.064 118.33L700.089 117.633L700.824 119.768ZM706.367 114.243L711.295 128.559L709.317 129.24L706.491 121.03L703.681 121.998L703.125 120.381L705.934 119.414L704.389 114.924L706.367 114.243Z" fill="#22272B"/>
<g clip-path="url(#clip0_8885_12235)">
<path d="M688.145 208.725L689.391 188.372L682.621 187.957L681.185 211.407C681.125 212.395 682.242 213.007 683.042 212.424L687.353 209.285C687.481 209.192 687.614 209.132 687.761 209.097L688.145 208.725Z" fill="#FFE07D"/>
<path d="M689.031 188.35L687.761 209.097C688.136 209.004 688.545 209.1 688.841 209.377L692.737 213.018C693.46 213.694 694.644 213.223 694.704 212.235L696.14 188.785L689.031 188.35Z" fill="#FFD064"/>
<path d="M695.45 186.063L689.973 190.908L705.54 208.504C706.196 209.246 707.418 208.889 707.572 207.911L708.401 202.643C708.427 202.481 708.485 202.33 708.569 202.199L708.895 201.268L695.45 186.063Z" fill="#FFE07D"/>
<path d="M715.684 199.53L700.117 181.933L694.802 186.636L708.569 202.199C708.771 201.88 709.121 201.668 709.517 201.655L714.847 201.475C715.836 201.441 716.34 200.271 715.684 199.53Z" fill="#FFD064"/>
<path d="M684.519 158.112C685.651 158.511 686.907 158.325 687.875 157.616C689.236 156.617 691.105 156.689 692.387 157.787C693.298 158.569 694.536 158.849 695.695 158.537C697.325 158.098 699.043 158.84 699.841 160.327C700.408 161.385 701.462 162.094 702.655 162.221C704.334 162.401 705.667 163.713 705.874 165.388C706.021 166.579 706.747 167.621 707.814 168.171C709.314 168.945 710.084 170.65 709.671 172.287C709.378 173.451 709.679 174.684 710.475 175.583C711.594 176.846 711.696 178.714 710.72 180.091C710.027 181.071 709.861 182.33 710.279 183.455C710.867 185.037 710.287 186.816 708.879 187.748C707.878 188.41 707.27 189.525 707.253 190.725C707.229 192.413 706.045 193.862 704.396 194.222C703.224 194.479 702.254 195.298 701.804 196.411C701.172 197.976 699.545 198.899 697.878 198.64C696.692 198.456 695.491 198.869 694.67 199.744C693.515 200.976 691.665 201.249 690.203 200.405C689.164 199.804 687.895 199.756 686.813 200.276C685.291 201.007 683.467 200.593 682.409 199.278C681.657 198.342 680.491 197.839 679.295 197.933C677.612 198.065 676.06 197.02 675.549 195.412C675.185 194.268 674.28 193.377 673.13 193.032C671.514 192.548 670.444 191.013 670.548 189.328C670.623 188.13 670.1 186.973 669.153 186.236C667.82 185.2 667.377 183.382 668.083 181.849C668.585 180.759 668.516 179.491 667.899 178.462C667.031 177.014 667.274 175.159 668.486 173.985C669.348 173.15 669.742 171.942 669.538 170.759C669.251 169.096 670.148 167.454 671.703 166.797C672.809 166.329 673.612 165.346 673.849 164.169C674.182 162.515 675.612 161.308 677.299 161.257C678.499 161.22 679.603 160.593 680.249 159.581C681.158 158.159 682.927 157.55 684.519 158.112Z" fill="#E8AE4D"/>
<path d="M698.639 175.62C696.229 168.618 689.665 164.227 682.65 164.252C675.198 167.621 671.402 176.175 674.117 184.063C676.833 191.95 685.09 196.355 693.037 194.423C698.58 190.124 701.05 182.622 698.639 175.62Z" fill="#FFE07D"/>
<path d="M684.053 163.694C682.893 164.094 681.809 164.613 680.808 165.234C688.08 164.446 695.19 168.745 697.672 175.953C700.153 183.161 697.196 190.926 690.981 194.782C692.151 194.655 693.325 194.397 694.485 193.998C702.853 191.117 707.302 181.998 704.421 173.63C701.54 165.262 692.421 160.813 684.053 163.694Z" fill="#FFD064"/>
<path d="M691.689 184.518L698.13 186.238C698.383 186.305 698.618 186.247 698.795 186.118C698.894 185.803 698.983 185.485 699.063 185.164C699.042 185.116 699.015 185.068 698.982 185.021L695.164 179.556C694.979 179.292 694.973 178.943 695.148 178.673L698.066 174.172C697.75 173.471 697.391 172.8 696.993 172.162L691.503 173.835C691.195 173.929 690.861 173.827 690.659 173.577L686.458 168.399C685.993 167.827 685.067 168.145 685.053 168.883L684.93 175.549C684.924 175.87 684.724 176.156 684.424 176.272L678.202 178.667C677.514 178.931 677.531 179.911 678.228 180.152L684.529 182.329C684.833 182.434 685.044 182.713 685.061 183.034L685.416 189.691C685.455 190.428 686.392 190.714 686.836 190.126L690.854 184.805C691.048 184.549 691.378 184.435 691.689 184.518Z" fill="#E8AE4D"/>
<path d="M698.13 186.238C698.843 186.428 699.405 185.625 698.982 185.021L698.29 184.03C698.159 184.746 697.98 185.45 697.755 186.138L698.13 186.238Z" fill="#E5A32E"/>
<path d="M697.881 171.892L695.982 172.47C696.531 173.321 697.005 174.236 697.394 175.208L698.774 173.078C699.175 172.459 698.586 171.677 697.881 171.892Z" fill="#E5A32E"/>
</g>
</g>
<g filter="url(#filter1_d_8885_12235)">
<rect x="719" y="49" width="141" height="187" rx="15" fill="url(#paint1_linear_8885_12235)"/>
<path d="M782.044 83.7275V85.4043H774.739V83.7275H777.362V81.835H779.454V83.7275H782.044ZM778.425 86.085C780.351 86.085 781.729 87.5791 781.745 89.6709C781.729 91.7793 780.351 93.2734 778.425 93.2734C776.499 93.2734 775.088 91.7793 775.088 89.6709C775.088 87.5791 776.499 86.085 778.425 86.085ZM778.425 87.8447C777.545 87.8447 776.947 88.5254 776.947 89.6709C776.947 90.8164 777.545 91.4805 778.425 91.4805C779.271 91.4805 779.869 90.8164 779.886 89.6709C779.869 88.5254 779.271 87.8447 778.425 87.8447ZM787.821 81.4199V96.5273H785.812V89.2559H784.584V95.8799H782.608V81.7188H784.584V87.5625H785.812V81.4199H787.821ZM802.447 81.4199V89.6211H800.322V85.8359H798.529V84.1426H800.322V81.4199H802.447ZM794.08 90.2686V91.6797H800.339V90.2686H802.447V96.3613H791.972V90.2686H794.08ZM794.08 94.6514H800.339V93.3564H794.08V94.6514ZM793.366 82.8809C793.366 84.1924 793.549 85.7446 794.429 86.9482C795.259 85.7612 795.425 84.2339 795.425 82.8809V82.1006H797.417V82.8809C797.417 84.79 797.898 86.7158 799.658 87.8115L798.496 89.3223C797.467 88.6997 796.828 87.7368 796.454 86.6162C796.072 87.7866 795.45 88.8242 794.412 89.4717C793.358 88.8076 792.735 87.7534 792.37 86.5664C791.988 87.7119 791.341 88.6997 790.312 89.3223L789.166 87.8115C790.909 86.7158 791.374 84.6904 791.374 82.8809V82.1006H793.366V82.8809ZM756.635 104.84C756.635 107.612 757.897 110.401 760.454 111.48L759.208 113.174C757.482 112.394 756.287 110.891 755.606 109.023C754.917 111.057 753.68 112.701 751.837 113.539L750.559 111.779C753.199 110.667 754.477 107.778 754.494 104.84V102.582H756.635V104.84ZM763.409 101.42V116.561H761.267V101.42H763.409ZM772.257 110.833C775.561 110.833 777.636 111.879 777.653 113.688C777.636 115.465 775.561 116.527 772.257 116.527C768.987 116.527 766.878 115.465 766.878 113.688C766.878 111.879 768.987 110.833 772.257 110.833ZM772.257 112.41C770.182 112.41 768.987 112.842 768.987 113.688C768.987 114.502 770.182 114.917 772.257 114.917C774.333 114.917 775.544 114.502 775.544 113.688C775.544 112.842 774.333 112.41 772.257 112.41ZM777.57 102.101V103.329C777.57 104.524 777.57 105.819 777.138 107.38L775.063 107.181C775.395 105.811 775.437 104.79 775.461 103.761H767.028V102.101H777.57ZM779.197 108.16V109.87H765.484V108.16H770.63V105.521H772.722V108.16H779.197ZM796.778 101.437V112.576H794.686V109.422H791.233V107.729H794.686V106.035H791.449C790.37 108.334 788.178 110.036 785.14 110.949L784.26 109.306C787.481 108.285 789.506 106.492 789.888 104.259H785.074V102.565H792.196C792.196 103.18 792.129 103.777 792.013 104.342H794.686V101.437H796.778ZM797.176 114.568V116.262H786.833V111.464H788.992V114.568H797.176ZM807.469 102.267V103.943H804.464C804.481 105.728 805.543 107.554 807.934 108.343L806.888 109.97C805.211 109.438 804.066 108.343 803.418 106.981C802.738 108.492 801.534 109.712 799.75 110.285L798.67 108.608C801.152 107.812 802.281 105.828 802.306 103.943H799.268V102.267H807.469ZM811.487 111.082V116.527H809.378V112.775H801.111V111.082H811.487ZM811.487 101.42V110.418H809.378V106.782H807.038V105.056H809.378V101.42H811.487ZM819.157 104.84C819.157 107.679 820.302 110.435 822.826 111.53L821.531 113.224C819.854 112.402 818.733 110.899 818.111 109.04C817.447 111.016 816.285 112.634 814.558 113.489L813.23 111.763C815.82 110.601 816.999 107.679 817.015 104.84V102.582H819.157V104.84ZM826.196 101.42V116.561H824.104V107.878H821.132V106.168H824.104V101.42H826.196Z" fill="#22272B"/>
<rect x="767.6" y="130.142" width="43" height="7" rx="1" fill="#D4DCE5"/>
<rect x="745.6" y="147.142" width="87" height="2" rx="1" fill="#D4DCE5"/>
<rect x="745.6" y="156.142" width="87" height="2" rx="1" fill="#D4DCE5"/>
<rect x="770.6" y="165.142" width="37" height="2" rx="1" fill="#D4DCE5"/>
<path d="M801.335 196.974H787.666C787.951 195.747 788.154 194.476 788.283 193.183C789.445 192.878 790.594 193.72 790.557 194.821C790.481 195.163 790.442 195.386 790.439 195.405C790.393 195.669 790.558 195.924 790.817 195.99C791.076 196.057 791.343 195.913 791.43 195.66C791.509 195.43 791.561 195.2 791.578 194.946C791.922 193.418 792.603 191.519 793.298 191.292C793.363 191.271 793.562 191.206 793.936 191.562C794.461 192.027 795.314 193.721 797.589 193.915C798.692 194.008 799.77 193.683 800.625 192.999C800.846 192.822 800.882 192.499 800.705 192.278C800.528 192.057 800.205 192.021 799.984 192.198C797.225 194.405 794.921 191.085 794.664 190.837C793.981 190.176 793.371 190.189 792.979 190.316C792.2 190.57 791.555 191.499 791.009 193.156C790.383 192.376 789.384 191.98 788.371 192.12C788.607 188.574 788.292 181.316 785.176 181.009C782.334 180.729 779.736 187.087 778.697 189.746C778.593 190.01 778.724 190.308 778.988 190.411C779.252 190.514 779.549 190.384 779.653 190.12C780.404 188.197 783.038 181.83 785.076 182.031C787.36 182.256 787.548 189.533 787.32 192.429C785.008 193.326 783.223 195.047 782.009 196.974H778.144C777.293 196.974 776.6 197.667 776.6 198.518C776.6 199.369 777.293 200.062 778.144 200.062H780.584C780.438 200.538 780.326 201.007 780.249 201.461C779.962 203.161 780.217 204.451 780.949 205C782.509 206.17 785.316 203.58 786.718 200.062H801.335C802.187 200.062 802.879 199.369 802.879 198.518C802.879 197.667 802.187 196.974 801.335 196.974ZM787.207 193.59C787.067 194.799 786.867 195.918 786.611 196.974H783.235C784.225 195.578 785.557 194.347 787.207 193.59ZM786.338 198.001C786.234 198.359 786.123 198.704 786.006 199.035H782.062C782.217 198.688 782.391 198.342 782.584 198.001H786.338ZM778.144 199.035C777.858 199.035 777.626 198.803 777.626 198.518C777.626 198.233 777.858 198.001 778.144 198.001H781.425C781.249 198.344 781.091 198.69 780.95 199.035H778.144ZM781.565 204.179C781.241 203.935 781.021 203.054 781.261 201.631C781.347 201.124 781.481 200.596 781.661 200.062H785.608C784.209 203.327 782.101 204.581 781.565 204.179ZM801.335 199.035H787.091C787.202 198.701 787.306 198.356 787.405 198.001H801.335C801.621 198.001 801.853 198.233 801.853 198.518C801.853 198.803 801.621 199.035 801.335 199.035Z" fill="#687481"/>
<path d="M777.832 195.794C778.033 195.994 778.358 195.994 778.558 195.794L778.924 195.428L779.29 195.794C779.49 195.994 779.815 195.994 780.016 195.794C780.216 195.593 780.216 195.268 780.016 195.068L779.65 194.702L780.016 194.336C780.216 194.136 780.216 193.811 780.016 193.61C779.815 193.41 779.49 193.41 779.29 193.61L778.924 193.976L778.558 193.61C778.358 193.41 778.033 193.41 777.832 193.61C777.632 193.811 777.632 194.136 777.832 194.336L778.198 194.702L777.832 195.068C777.632 195.268 777.632 195.593 777.832 195.794Z" fill="#687481"/>
</g>
<g filter="url(#filter2_d_8885_12235)">
<rect x="859.881" y="54" width="141" height="187" rx="15" transform="rotate(19 859.881 54)" fill="url(#paint2_linear_8885_12235)"/>
<path d="M892.507 100.242L892.112 101.387C891.728 102.502 891.301 103.742 890.41 105.261L892.293 105.91L891.737 107.526L878.661 103.024L879.218 101.407L888.385 104.564C889.191 103.243 889.611 102.15 889.962 101.156L882.035 98.4267L882.586 96.8256L892.507 100.242ZM889.617 108.482L887.817 113.709L877.896 110.293L879.696 105.066L889.617 108.482ZM881.118 107.311L880.41 109.368L886.375 111.422L887.083 109.365L881.118 107.311ZM905.733 111.854L905.181 113.455L892.153 108.969L892.704 107.368L898.214 109.265L898.868 107.366L900.846 108.047L900.192 109.946L905.733 111.854ZM902.374 103.709C901.801 105.373 902.857 107.51 905.939 109.01L904.635 110.3C902.35 109.109 900.925 107.486 900.517 105.739C899.104 106.859 896.979 107.268 894.448 106.792L894.276 104.995C897.567 105.689 899.777 104.624 900.334 103.007L900.496 102.536L902.536 103.239L902.374 103.709ZM903.25 113.914L901.623 118.639L899.63 117.952L900.722 114.781L892.716 112.025L893.251 110.471L903.25 113.914ZM916.113 108.581C914.827 112.316 911.58 114.096 906.989 113.814L906.739 111.99C910.103 112.217 912.417 111.258 913.427 109.447L909 107.922L909.552 106.321L916.113 108.581ZM921.025 109.359L918.274 117.349L916.28 116.662L917.302 113.695L914.759 112.82L915.321 111.187L917.864 112.063L919.031 108.672L921.025 109.359ZM918.079 117.914L916.171 123.455L906.706 120.196L908.614 114.655L918.079 117.914ZM910.035 116.9L909.208 119.301L914.734 121.204L915.561 118.802L910.035 116.9ZM933.783 120.547L933.28 122.006L927.786 120.115L927.478 121.009L931.418 122.366L930.218 125.851L922.259 123.111L921.989 123.895L930.324 126.765L929.816 128.241L919.519 124.695L920.762 121.085L928.705 123.82L928.948 123.114L920.99 120.373L921.482 118.945L925.484 120.323L925.792 119.428L920.314 117.542L920.817 116.082L933.783 120.547ZM930.375 112.543L929.986 113.674L934.272 115.149L933.763 116.625L929.729 115.236C929.835 116.203 931.06 117.388 933.908 118.5L932.819 119.776C930.209 118.737 928.605 117.429 928.068 116.033C926.792 116.805 924.715 116.845 922.004 116.052L921.962 114.387C924.867 115.256 926.555 115.073 927.249 114.382L923.246 113.003L923.754 111.528L928.008 112.992L928.398 111.862L930.375 112.543ZM948.783 118.899L943.864 133.183L941.839 132.486L946.758 118.202L948.783 118.899ZM943.984 118.915C942.492 123.247 939.732 126.317 933.798 126.978L933.297 125.015C937.586 124.543 939.989 122.842 941.403 119.782L936.537 118.106L937.077 116.537L943.984 118.915ZM884.143 118.514L883.749 119.66C883.365 120.775 882.938 122.015 882.046 123.534L883.93 124.182L883.373 125.799L870.297 121.297L870.854 119.68L880.021 122.836C880.827 121.516 881.247 120.423 881.598 119.429L873.671 116.699L874.223 115.098L884.143 118.514ZM881.253 126.755L879.453 131.982L869.533 128.566L871.332 123.339L881.253 126.755ZM872.754 125.584L872.046 127.64L878.011 129.694L878.719 127.638L872.754 125.584ZM889.781 120.701C891.681 121.355 892.58 123.28 891.893 125.326C891.164 127.393 889.286 128.309 887.387 127.655C885.487 127.001 884.587 125.128 885.301 123.056C886.003 121.016 887.882 120.047 889.781 120.701ZM889.197 122.397C888.318 122.094 887.479 122.542 887.09 123.673C886.701 124.803 887.081 125.689 887.96 125.991C888.823 126.288 889.668 125.824 890.073 124.7C890.446 123.564 890.061 122.694 889.197 122.397ZM899.005 122.929L896.07 131.453L894.17 130.799L895.365 127.33L894.188 126.924L893.02 130.315L891.168 129.677L893.989 121.483L895.842 122.121L894.739 125.323L895.916 125.728L897.105 122.275L899.005 122.929ZM895.854 132.08L894.092 137.198L892.098 136.511L893.309 132.995L885.429 130.282L885.98 128.681L895.854 132.08ZM916.35 128.902L912.723 139.434L910.745 138.753L911.772 135.771L908.507 134.647L909.059 133.045L912.324 134.17L912.875 132.569L909.814 131.515C908.045 133.337 905.419 134.233 902.249 134.107L901.952 132.267C905.33 132.35 907.829 131.314 908.917 129.327L904.365 127.76L904.916 126.158L911.65 128.477C911.45 129.058 911.193 129.601 910.899 130.097L913.426 130.967L914.372 128.221L916.35 128.902ZM912.451 141.448L911.9 143.049L902.121 139.681L903.683 135.145L905.723 135.848L904.713 138.783L912.451 141.448ZM926.189 133.167L925.643 134.753L922.802 133.774C922.236 135.467 922.646 137.54 924.65 139.064L923.131 140.261C921.719 139.213 920.993 137.804 920.824 136.306C919.688 137.513 918.153 138.275 916.279 138.236L915.805 136.299C918.411 136.353 920.124 134.845 920.761 133.072L917.888 132.083L918.434 130.497L926.189 133.167ZM927.117 142.81L925.345 147.959L923.351 147.273L924.572 143.725L916.755 141.033L917.307 139.432L927.117 142.81ZM930.263 133.675L927.334 142.182L925.34 141.496L926.524 138.058L924.31 137.296L924.873 135.664L927.086 136.426L928.269 132.988L930.263 133.675ZM936.402 139.405C935.477 142.089 935.663 145.068 937.693 146.926L935.917 148.105C934.599 146.782 934.029 144.997 934.045 143.036C932.774 144.688 931.148 145.84 929.238 146.086L928.544 144.021C931.371 143.766 933.437 141.387 934.377 138.708L935.112 136.573L937.137 137.27L936.402 139.405ZM944.171 138.463L939.241 152.779L937.263 152.098L940.09 143.889L937.28 142.921L937.837 141.304L940.647 142.272L942.193 137.782L944.171 138.463Z" fill="#22272B"/>
</g>
<circle cx="525.5" cy="150.5" r="34.5" fill="#8995A1"/>
<path opacity="0.3" d="M517 150.5L504.25 157.861L504.25 143.139L517 150.5Z" fill="white"/>
<path opacity="0.6" d="M534 150.5L521.25 157.861L521.25 143.139L534 150.5Z" fill="white"/>
<path opacity="0.9" d="M551 150.5L538.25 157.861L538.25 143.139L551 150.5Z" fill="white"/>
<rect x="138" y="379" width="754" height="65" rx="32.5" fill="#EBF5FF"/>
<path d="M181.383 412.359L182.695 411.023L187.055 415.312L196.078 406.336L197.414 407.648L187.055 417.984L181.383 412.359ZM377.602 403.852C377.578 406.523 379.102 409.102 382.617 410.156L381.117 412.5C378.691 411.727 377.016 410.215 376.055 408.258C375.094 410.367 373.359 412.02 370.852 412.828L369.352 410.484C372.914 409.336 374.484 406.57 374.484 403.852V401.812H377.602V403.852ZM387.281 414.469V422.156H384.281V416.859H372.609V414.469H387.281ZM387.281 400.828V413.555H384.281V400.828H387.281ZM409.617 410.812V413.18H401.367V415.008H407.297V421.922H392.414V415.008H398.391V413.18H390.164V410.812H409.617ZM407.883 401.414V403.805H405.094V407.062H407.742V409.453H392.016V407.062H394.641V403.805H391.875V401.414H407.883ZM395.367 417.328V419.531H404.367V417.328H395.367ZM397.641 407.062H402.094V403.805H397.641V407.062ZM434.883 400.828V422.156H432.047V400.828H434.883ZM430.523 401.18V421.172H427.711V410.555H424.898V408.141H427.711V401.18H430.523ZM423.188 406.547C423.188 410.086 424.289 413.672 427.406 415.453L425.648 417.656C423.75 416.531 422.496 414.621 421.781 412.336C421.043 414.82 419.754 416.93 417.797 418.125L415.992 415.922C419.133 414 420.305 410.156 420.305 406.547V405.398H416.812V403.008H426.422V405.398H423.188V406.547ZM456.703 417.258V419.672H437.18V417.258H445.43V412.5H448.43V417.258H456.703ZM454.992 402.445V404.859H448.5C448.746 407.672 451.395 410.285 455.977 410.953L454.805 413.32C451.066 412.664 448.301 410.836 446.93 408.305C445.57 410.883 442.828 412.758 439.148 413.438L437.977 411.07C442.406 410.355 445.066 407.684 445.312 404.859H438.797V402.445H454.992ZM481.312 400.852V416.18H478.312V400.852H481.312ZM481.875 419.391V421.781H467.016V414.633H470.039V419.391H481.875ZM469.617 402.211C472.898 402.211 475.453 404.461 475.453 407.578C475.453 410.766 472.898 412.992 469.617 412.992C466.336 412.992 463.781 410.766 463.781 407.578C463.781 404.461 466.336 402.211 469.617 402.211ZM469.617 404.812C467.953 404.789 466.688 405.844 466.711 407.578C466.688 409.359 467.953 410.391 469.617 410.391C471.234 410.391 472.5 409.359 472.5 407.578C472.5 405.844 471.234 404.789 469.617 404.812ZM496.781 404.016V406.406H484.242V404.016H489V401.156H491.977V404.016H496.781ZM490.5 407.602C493.43 407.602 495.609 409.758 495.633 412.688C495.609 415.594 493.43 417.773 490.5 417.773C487.547 417.773 485.344 415.594 485.344 412.688C485.344 409.758 487.547 407.602 490.5 407.602ZM490.5 410.109C489.141 410.133 488.133 411.094 488.133 412.688C488.133 414.305 489.141 415.242 490.5 415.219C491.859 415.242 492.867 414.305 492.867 412.688C492.867 411.094 491.859 410.133 490.5 410.109ZM502.195 400.828V422.156H499.242V411.68H496.336V409.266H499.242V400.828H502.195ZM521.766 400.828V409.008H524.789V411.469H521.766V422.109H518.766V400.828H521.766ZM516.07 403.008C516.047 409.383 513.562 414.914 506.391 418.43L504.703 416.133C509.754 413.602 512.461 410.203 513.023 405.445H505.922V403.008H516.07ZM539.508 405.656C539.508 409.57 541.289 413.508 544.898 415.031L543.141 417.422C540.703 416.32 539.016 414.199 538.055 411.562C537.082 414.434 535.336 416.754 532.734 417.938L530.93 415.453C534.656 413.883 536.461 409.805 536.484 405.656V402.469H539.508V405.656ZM549.07 400.828V422.203H546.047V400.828H549.07ZM569.93 400.828V411.68H566.953V406.383H562.945V404.016H566.953V400.828H569.93ZM569.93 412.57V418.266H558.727V419.578H570.539V421.922H555.773V416.086H566.977V414.867H555.75V412.57H569.93ZM559.945 403.078C559.922 405.633 561.422 408.094 564.82 409.102L563.25 411.398C560.965 410.66 559.371 409.23 558.445 407.391C557.52 409.441 555.832 411.059 553.336 411.844L551.789 409.477C555.328 408.445 556.898 405.844 556.922 403.078V401.531H559.945V403.078Z" fill="#0283FD"/>
<path d="M216.773 404.672V406.172H206.32V404.672H210.656V401.695H212.484V404.672H216.773ZM211.547 407.578C214.172 407.578 216.047 409.547 216.07 412.312C216.047 415.102 214.172 417.094 211.547 417.094C208.945 417.094 207.07 415.102 207.07 412.312C207.07 409.547 208.945 407.578 211.547 407.578ZM211.547 409.125C209.906 409.148 208.711 410.484 208.711 412.312C208.711 414.164 209.906 415.5 211.547 415.477C213.211 415.5 214.43 414.164 214.43 412.312C214.43 410.484 213.211 409.148 211.547 409.125ZM224.109 401.062V421.898H222.352V411.375H219.586V420.867H217.852V401.578H219.586V409.852H222.352V401.062H224.109ZM244.688 401.062V412.336H242.836V406.898H239.531V405.422H242.836V401.062H244.688ZM232.641 413.344V415.945H242.859V413.344H244.688V421.617H230.812V413.344H232.641ZM232.641 420.117H242.859V417.469H232.641V420.117ZM231.961 404.016C231.961 405.598 232.371 408.117 234 409.805C235.594 408.152 235.992 405.715 235.992 404.016V402.094H237.727V404.016C237.727 406.312 238.641 409.055 241.055 410.414L240 411.75C238.406 410.812 237.422 409.289 236.906 407.578C236.438 409.301 235.559 410.953 234 411.938C232.395 410.93 231.504 409.207 231.07 407.461C230.52 409.184 229.559 410.801 227.977 411.75L226.945 410.414C229.336 408.984 230.203 406.055 230.227 404.016V402.094H231.961V404.016ZM271.078 401.086V416.32H269.25V401.086H271.078ZM271.734 419.906V421.453H257.625V414.773H259.453V419.906H271.734ZM259.828 402.539C262.945 402.539 265.289 404.648 265.289 407.648C265.289 410.695 262.945 412.781 259.828 412.781C256.711 412.781 254.367 410.695 254.367 407.648C254.367 404.648 256.711 402.539 259.828 402.539ZM259.828 404.156C257.719 404.156 256.148 405.609 256.172 407.648C256.148 409.734 257.719 411.164 259.828 411.164C261.891 411.164 263.484 409.734 263.484 407.648C263.484 405.609 261.891 404.156 259.828 404.156ZM293.602 410.977V412.5H274.617V410.977H293.602ZM284.109 414.328C288.586 414.328 291.258 415.711 291.281 418.102C291.258 420.516 288.586 421.852 284.109 421.852C279.609 421.852 276.914 420.516 276.914 418.102C276.914 415.711 279.609 414.328 284.109 414.328ZM284.109 415.781C280.758 415.805 278.766 416.625 278.789 418.102C278.766 419.555 280.758 420.375 284.109 420.375C287.414 420.375 289.43 419.555 289.43 418.102C289.43 416.625 287.414 415.805 284.109 415.781ZM291.914 402.141V403.664H285.305C285.375 406.031 288.844 407.836 292.547 408.258L291.867 409.734C288.457 409.301 285.258 407.777 284.109 405.445C282.973 407.777 279.785 409.301 276.352 409.734L275.695 408.258C279.328 407.836 282.82 406.031 282.914 403.664H276.352V402.141H291.914ZM312.539 401.062V421.945H310.688V401.062H312.539ZM301.453 402.68C304.547 402.703 306.773 405.516 306.773 409.945C306.773 414.375 304.547 417.188 301.453 417.188C298.336 417.188 296.133 414.375 296.133 409.945C296.133 405.516 298.336 402.703 301.453 402.68ZM301.453 404.32C299.367 404.344 297.914 406.547 297.914 409.945C297.914 413.344 299.367 415.547 301.453 415.547C303.539 415.547 304.992 413.344 304.992 409.945C304.992 406.547 303.539 404.344 301.453 404.32ZM327.703 402.68C330.773 402.703 332.953 405.516 332.977 409.945C332.953 414.375 330.773 417.188 327.703 417.188C324.609 417.188 322.453 414.375 322.453 409.945C322.453 405.516 324.609 402.703 327.703 402.68ZM327.703 404.32C325.641 404.344 324.188 406.547 324.188 409.945C324.188 413.344 325.641 415.547 327.703 415.547C329.789 415.547 331.195 413.344 331.195 409.945C331.195 406.547 329.789 404.344 327.703 404.32ZM338.25 401.062V409.383H341.742V410.977H338.25V421.898H336.422V401.062H338.25ZM360.07 401.086V416.227H358.242V401.086H360.07ZM360.727 419.906V421.453H346.406V414.703H348.258V419.906H360.727ZM346.031 402.633V410.625C349.711 410.648 352.688 410.449 355.922 409.734L356.18 411.281C352.758 411.984 349.688 412.219 345.867 412.219H344.18V402.633H346.031ZM586.523 405.656C586.523 409.57 588.305 413.508 591.914 415.031L590.156 417.422C587.719 416.32 586.031 414.199 585.07 411.562C584.098 414.434 582.352 416.754 579.75 417.938L577.945 415.453C581.672 413.883 583.477 409.805 583.5 405.656V402.469H586.523V405.656ZM596.086 400.828V422.203H593.062V400.828H596.086ZM608.578 414.117C613.242 414.117 616.172 415.594 616.195 418.148C616.172 420.656 613.242 422.156 608.578 422.156C603.961 422.156 600.984 420.656 600.984 418.148C600.984 415.594 603.961 414.117 608.578 414.117ZM608.578 416.344C605.648 416.344 603.961 416.953 603.961 418.148C603.961 419.297 605.648 419.883 608.578 419.883C611.508 419.883 613.219 419.297 613.219 418.148C613.219 416.953 611.508 416.344 608.578 416.344ZM616.078 401.789V403.523C616.078 405.211 616.078 407.039 615.469 409.242L612.539 408.961C613.008 407.027 613.066 405.586 613.102 404.133H601.195V401.789H616.078ZM618.375 410.344V412.758H599.016V410.344H606.281V406.617H609.234V410.344H618.375ZM643.195 400.852V416.578H640.242V412.125H635.367V409.734H640.242V407.344H635.672C634.148 410.59 631.055 412.992 626.766 414.281L625.523 411.961C630.07 410.52 632.93 407.988 633.469 404.836H626.672V402.445H636.727C636.727 403.312 636.633 404.156 636.469 404.953H640.242V400.852H643.195ZM643.758 419.391V421.781H629.156V415.008H632.203V419.391H643.758ZM658.289 402.023V404.391H654.047C654.07 406.91 655.57 409.488 658.945 410.602L657.469 412.898C655.102 412.148 653.484 410.602 652.57 408.68C651.609 410.812 649.91 412.535 647.391 413.344L645.867 410.977C649.371 409.852 650.965 407.051 651 404.391H646.711V402.023H658.289ZM663.961 414.469V422.156H660.984V416.859H649.312V414.469H663.961ZM663.961 400.828V413.531H660.984V408.398H657.68V405.961H660.984V400.828H663.961ZM690.117 400.828V422.203H687.094V400.828H690.117ZM676.312 402.516V407.719H680.906V402.516H683.859V417.211H673.312V402.516H676.312ZM676.312 414.797H680.906V410.039H676.312V414.797ZM710.695 402.68V404.766C710.672 407.367 710.672 410.297 709.898 414.586L706.969 414.328C707.672 410.426 707.695 407.52 707.695 405.047H694.922V402.68H710.695ZM712.453 417.117V419.555H693V417.117H697.148V410.414H700.125V417.117H702.469V410.414H705.422V417.117H712.453ZM730.781 410.836V412.336H724.336V417.727H733.031V419.273H713.953V417.727H722.531V412.336H716.391V402.773H730.57V404.273H718.242V410.836H730.781ZM756.844 401.062V409.547H760.219V411.094H756.844V421.898H755.016V401.062H756.844ZM751.453 403.312C751.453 409.219 748.688 414.586 741.891 417.938L740.859 416.484C746.25 413.801 749.18 409.793 749.602 404.859H741.82V403.312H751.453ZM778.289 406.898V408.422H764.062V401.484H765.891V406.898H778.289ZM780.469 410.859V412.383H761.461V410.859H780.469ZM770.953 414.258C775.43 414.258 778.102 415.617 778.125 418.031C778.102 420.445 775.43 421.805 770.953 421.805C766.453 421.805 763.758 420.445 763.758 418.031C763.758 415.617 766.453 414.258 770.953 414.258ZM770.953 415.711C767.602 415.734 765.609 416.555 765.633 418.031C765.609 419.484 767.602 420.375 770.953 420.375C774.258 420.375 776.273 419.484 776.273 418.031C776.273 416.555 774.258 415.734 770.953 415.711ZM798.492 401.062V406.406H801.633V407.977H798.492V413.18H796.664V401.062H798.492ZM787.148 414.094V416.32H796.664V414.094H798.492V421.617H785.32V414.094H787.148ZM787.148 420.141H796.664V417.773H787.148V420.141ZM794.672 403.219V404.742H782.25V403.219H787.547V400.875H789.375V403.219H794.672ZM788.461 405.703C791.461 405.703 793.453 407.133 793.477 409.359C793.453 411.586 791.461 413.016 788.461 413.016C785.438 413.016 783.422 411.586 783.445 409.359C783.422 407.133 785.438 405.703 788.461 405.703ZM788.461 407.133C786.492 407.109 785.18 408.023 785.203 409.359C785.18 410.719 786.492 411.609 788.461 411.609C790.406 411.609 791.719 410.719 791.742 409.359C791.719 408.023 790.406 407.109 788.461 407.133ZM820.125 401.062V421.898H818.297V401.062H820.125ZM806.109 403.125V414.938C809.285 414.926 812.578 414.668 816.07 413.93L816.328 415.5C812.625 416.273 809.32 416.531 805.992 416.531H804.305V403.125H806.109ZM839.812 401.062V409.312H843.305V410.859H839.812V421.945H837.984V401.062H839.812ZM834.328 403.102V404.625H826.43V415.172C830.203 415.172 832.875 414.996 835.969 414.422L836.203 416.016C832.945 416.602 830.203 416.719 826.242 416.719H824.602V403.102H834.328ZM846.633 420.141C845.812 420.141 845.109 419.461 845.133 418.617C845.109 417.797 845.812 417.117 846.633 417.117C847.453 417.117 848.133 417.797 848.133 418.617C848.133 419.461 847.453 420.141 846.633 420.141Z" fill="black"/>
<g clip-path="url(#clip1_8885_12235)">
<path d="M847.961 211.916C846.866 213.889 845.181 215.42 844.07 216.396C844.035 216.528 843.964 216.793 844.264 216.731C845.665 216.257 847.833 215.564 850.089 215.602C853.736 215.729 855.479 216.621 858.662 214.784C861.844 212.946 860.748 209.113 861.382 208.858L860.512 207.35L859.642 205.843C859.642 205.843 856.332 203.398 853.149 205.236C849.967 207.073 849.867 209.029 848.154 212.251L847.961 211.916Z" fill="url(#paint3_linear_8885_12235)"/>
<g opacity="0.1">
<path d="M858.637 206.423L859.507 207.931C859.507 207.931 859.969 212.019 856.786 213.857C853.604 215.694 851.86 214.802 848.213 214.674C847.385 214.594 846.486 214.778 845.623 214.83C845.049 215.384 844.511 215.807 844.141 216.132C844.106 216.264 844.035 216.528 844.334 216.467C845.736 215.993 847.904 215.3 850.159 215.338C853.807 215.465 855.55 216.357 858.733 214.52C861.915 212.682 860.819 208.848 861.453 208.594L860.583 207.086L859.712 205.578C859.712 205.578 858.788 205.331 857.898 204.951L858.769 206.458L858.637 206.423Z" fill="#00495C"/>
</g>
<path opacity="0.3" d="M847.961 211.916C846.866 213.888 845.181 215.419 844.07 216.396C844.035 216.528 843.964 216.792 844.264 216.731C844.898 216.476 845.665 216.257 846.432 216.038C847.376 215.158 848.39 214.014 849.008 212.763C850.721 209.541 850.821 207.585 854.003 205.748C856.348 204.394 858.549 205.691 859.703 206.142L859.413 205.639C859.413 205.639 856.103 203.195 852.92 205.033C849.738 206.87 849.639 208.826 847.925 212.048L847.961 211.916Z" fill="white"/>
<path d="M844.07 216.396C844.07 216.396 843.964 216.792 844.264 216.731C844.563 216.67 844.898 216.476 845.365 216.318L854.076 211.289C854.076 211.289 854.314 210.928 854.217 210.761C854.121 210.593 853.857 210.523 853.689 210.619L844.979 215.648C844.979 215.648 844.405 216.203 844.07 216.396Z" fill="url(#paint4_linear_8885_12235)"/>
<path d="M862.579 202.807L864.223 205.654C864.223 205.654 864.803 206.659 865.384 207.664C885.147 198.376 914.761 181.39 932.652 169.051C933.322 168.664 936.488 165.831 935.424 163.988C934.07 161.643 930.324 163.471 929.654 163.858C910.022 173.182 880.505 190.335 862.579 202.807Z" fill="url(#paint5_linear_8885_12235)"/>
<path opacity="0.3" d="M934.693 164.075C935.757 165.918 932.59 168.751 931.92 169.138C914.197 181.38 884.751 198.269 865.155 207.461L865.287 207.497C885.147 198.375 914.761 181.39 932.652 169.05C933.322 168.664 936.488 165.83 935.424 163.988C934.747 162.815 933.487 162.761 932.289 163.006C933.284 162.99 934.209 163.237 934.693 164.075Z" fill="#FFF5A2"/>
<g style="mix-blend-mode:multiply" opacity="0.1">
<path d="M933.504 163.756C934.568 165.599 931.401 168.432 930.731 168.819C913.211 180.833 884.064 197.661 864.935 206.695C865.032 206.862 865.226 207.197 865.419 207.532C885.147 198.375 914.761 181.39 932.652 169.05C933.322 168.664 936.488 165.83 935.424 163.988C934.879 162.851 933.619 162.796 932.456 162.909C932.853 163.016 933.178 163.386 933.504 163.756Z" fill="#B94E00"/>
</g>
<path opacity="0.3" d="M875.654 202.628L872.075 196.43C872.075 196.43 871.573 196.721 871.405 196.817L874.984 203.015C874.984 203.015 875.486 202.725 875.654 202.628Z" fill="#A20000"/>
<path d="M874.851 202.98L871.273 196.782C868.725 198.365 863.426 201.759 860.137 203.993C859.264 204.609 858.981 205.666 859.429 206.635L860.396 208.311C860.88 209.148 862.033 209.599 863.039 209.018C866.618 207.287 872.11 204.228 874.851 202.98Z" fill="url(#paint6_linear_8885_12235)"/>
<path opacity="0.1" d="M860.045 207.508L860.528 208.346C861.012 209.183 862.166 209.634 863.171 209.054C866.75 207.322 872.242 204.263 874.984 203.015L874.5 202.178C871.855 203.593 866.266 206.485 862.687 208.216C861.717 208.664 860.661 208.381 860.045 207.508Z" fill="black"/>
</g>
<defs>
<filter id="filter0_d_8885_12235" x="576.862" y="47.862" width="214.469" height="242.99" filterUnits="userSpaceOnUse" color-interpolation-filters="sRGB">
<feFlood flood-opacity="0" result="BackgroundImageFix"/>
<feColorMatrix in="SourceAlpha" type="matrix" values="0 0 0 0 0 0 0 0 0 0 0 0 0 0 0 0 0 0 127 0" result="hardAlpha"/>
<feOffset dy="4"/>
<feGaussianBlur stdDeviation="7.1"/>
<feComposite in2="hardAlpha" operator="out"/>
<feColorMatrix type="matrix" values="0 0 0 0 0.135876 0 0 0 0 0.204117 0 0 0 0 0.321989 0 0 0 0.13 0"/>
<feBlend mode="normal" in2="BackgroundImageFix" result="effect1_dropShadow_8885_12235"/>
<feBlend mode="normal" in="SourceGraphic" in2="effect1_dropShadow_8885_12235" result="shape"/>
</filter>
<filter id="filter1_d_8885_12235" x="704.8" y="38.8" width="169.4" height="215.4" filterUnits="userSpaceOnUse" color-interpolation-filters="sRGB">
<feFlood flood-opacity="0" result="BackgroundImageFix"/>
<feColorMatrix in="SourceAlpha" type="matrix" values="0 0 0 0 0 0 0 0 0 0 0 0 0 0 0 0 0 0 127 0" result="hardAlpha"/>
<feOffset dy="4"/>
<feGaussianBlur stdDeviation="7.1"/>
<feComposite in2="hardAlpha" operator="out"/>
<feColorMatrix type="matrix" values="0 0 0 0 0.135876 0 0 0 0 0.204117 0 0 0 0 0.321989 0 0 0 0.13 0"/>
<feBlend mode="normal" in2="BackgroundImageFix" result="effect1_dropShadow_8885_12235"/>
<feBlend mode="normal" in="SourceGraphic" in2="effect1_dropShadow_8885_12235" result="shape"/>
</filter>
<filter id="filter2_d_8885_12235" x="788.862" y="47.862" width="214.475" height="242.993" filterUnits="userSpaceOnUse" color-interpolation-filters="sRGB">
<feFlood flood-opacity="0" result="BackgroundImageFix"/>
<feColorMatrix in="SourceAlpha" type="matrix" values="0 0 0 0 0 0 0 0 0 0 0 0 0 0 0 0 0 0 127 0" result="hardAlpha"/>
<feOffset dy="4"/>
<feGaussianBlur stdDeviation="7.1"/>
<feComposite in2="hardAlpha" operator="out"/>
<feColorMatrix type="matrix" values="0 0 0 0 0.135876 0 0 0 0 0.204117 0 0 0 0 0.321989 0 0 0 0.13 0"/>
<feBlend mode="normal" in2="BackgroundImageFix" result="effect1_dropShadow_8885_12235"/>
<feBlend mode="normal" in="SourceGraphic" in2="effect1_dropShadow_8885_12235" result="shape"/>
</filter>
<linearGradient id="paint0_linear_8885_12235" x1="657.5" y1="99.8984" x2="657.5" y2="286.898" gradientUnits="userSpaceOnUse">
<stop stop-color="white"/>
<stop offset="1" stop-color="#F0F8FF"/>
</linearGradient>
<linearGradient id="paint1_linear_8885_12235" x1="789.5" y1="49" x2="789.5" y2="236" gradientUnits="userSpaceOnUse">
<stop stop-color="white"/>
<stop offset="1" stop-color="#F0F8FF"/>
</linearGradient>
<linearGradient id="paint2_linear_8885_12235" x1="930.381" y1="54" x2="930.381" y2="241" gradientUnits="userSpaceOnUse">
<stop stop-color="white"/>
<stop offset="1" stop-color="#F0F8FF"/>
</linearGradient>
<linearGradient id="paint3_linear_8885_12235" x1="861.952" y1="216.026" x2="844.73" y2="207.807" gradientUnits="userSpaceOnUse">
<stop stop-color="#B7C8D6"/>
<stop offset="0.22" stop-color="#9BA9B5"/>
<stop offset="0.75" stop-color="#C7D9E8"/>
<stop offset="1" stop-color="#9BA9B5"/>
</linearGradient>
<linearGradient id="paint4_linear_8885_12235" x1="848.929" y1="213.438" x2="850.365" y2="215.925" gradientUnits="userSpaceOnUse">
<stop stop-color="#5A6269"/>
<stop offset="1" stop-color="#9BA9B5"/>
</linearGradient>
<linearGradient id="paint5_linear_8885_12235" x1="902.72" y1="189.804" x2="895.676" y2="177.604" gradientUnits="userSpaceOnUse">
<stop stop-color="#FFC452"/>
<stop offset="0.28" stop-color="#E88838"/>
<stop offset="1" stop-color="#F0C87B"/>
</linearGradient>
<linearGradient id="paint6_linear_8885_12235" x1="869.76" y1="209.307" x2="863.195" y2="197.937" gradientUnits="userSpaceOnUse">
<stop stop-color="#B7C8D6"/>
<stop offset="0.22" stop-color="#9BA9B5"/>
<stop offset="0.75" stop-color="#C7D9E8"/>
<stop offset="1" stop-color="#9BA9B5"/>
</linearGradient>
<clipPath id="clip0_8885_12235">
<rect width="56" height="56" fill="white" transform="translate(655.653 167.217) rotate(-18.9971)"/>
</clipPath>
<clipPath id="clip1_8885_12235">
<rect width="75.224" height="75.224" fill="white" transform="translate(916.66 236.13) rotate(-165)"/>
</clipPath>
</defs>
</svg>
