<svg width="521" height="275" viewBox="0 0 521 275" fill="none" xmlns="http://www.w3.org/2000/svg">
<g opacity="0.2" filter="url(#filter0_f_8885_12234)">
<rect x="178" y="53" width="161" height="169" rx="80.5" fill="#89C6FF"/>
</g>
<path d="M64.4645 130.504C64.4645 130.333 64.4965 130.163 64.5605 129.992C64.6458 129.821 64.7845 129.683 64.9765 129.576C65.1258 129.533 65.2752 129.48 65.4245 129.416C65.5525 129.373 65.6805 129.341 65.8085 129.32C65.9365 129.277 66.0538 129.235 66.1605 129.192C66.5232 129.085 66.8538 128.989 67.1525 128.904C67.4512 128.797 67.7818 128.701 68.1445 128.616C68.7845 128.467 69.4032 128.339 70.0005 128.232C70.6192 128.104 71.2378 127.987 71.8565 127.88C72.2832 127.816 72.6672 127.805 73.0085 127.848C73.3712 127.891 73.5738 128.061 73.6165 128.36C73.6592 128.659 73.6058 128.861 73.4565 128.968C73.3072 129.053 73.1578 129.117 73.0085 129.16C72.1338 129.331 71.2912 129.523 70.4805 129.736C69.6698 129.949 68.8485 130.173 68.0165 130.408C67.5685 130.536 67.0885 130.739 66.5765 131.016C66.0858 131.293 65.6058 131.432 65.1365 131.432C64.9018 131.432 64.7312 131.336 64.6245 131.144C64.5178 130.952 64.4645 130.739 64.4645 130.504ZM75.5685 137.512C75.5258 137.043 75.4512 136.499 75.3445 135.88C75.2378 135.24 75.1632 134.643 75.1205 134.088C75.0565 133.128 75.0352 132.264 75.0565 131.496C75.0778 130.707 75.1098 129.896 75.1525 129.064C75.1952 128.552 75.2485 128.083 75.3125 127.656C75.3765 127.208 75.4938 126.664 75.6645 126.024C75.7072 125.789 75.8672 125.629 76.1445 125.544C76.4218 125.459 76.7205 125.48 77.0405 125.608C77.2752 125.715 77.4565 125.853 77.5845 126.024C77.7125 126.195 77.7658 126.376 77.7445 126.568C77.7018 126.931 77.6165 127.293 77.4885 127.656C77.3605 128.019 77.2752 128.371 77.2325 128.712C77.1045 129.544 77.0298 130.408 77.0085 131.304C76.9872 132.2 77.0085 133.117 77.0725 134.056C77.8405 133.437 78.6618 132.904 79.5365 132.456C80.4325 132.008 81.3925 131.709 82.4165 131.56C82.5445 131.155 82.6618 130.771 82.7685 130.408C82.8752 130.045 82.9712 129.683 83.0565 129.32C83.1632 128.957 83.2698 128.584 83.3765 128.2C83.4832 127.816 83.6005 127.389 83.7285 126.92C83.7712 126.792 83.8565 126.685 83.9845 126.6C84.1338 126.515 84.3685 126.472 84.6885 126.472C84.9232 126.472 85.1578 126.525 85.3925 126.632C85.6485 126.717 85.7765 126.909 85.7765 127.208C85.7765 127.507 85.7338 127.784 85.6485 128.04C85.5632 128.275 85.4672 128.552 85.3605 128.872C85.0618 129.939 84.7525 130.995 84.4325 132.04C84.1125 133.064 83.8565 134.141 83.6645 135.272C83.6432 135.315 83.6112 135.443 83.5685 135.656C83.5472 135.848 83.5152 136.072 83.4725 136.328C83.4298 136.563 83.3872 136.787 83.3445 137C83.3232 137.213 83.3125 137.363 83.3125 137.448C83.2485 137.939 82.9818 138.163 82.5125 138.12C82.0645 138.077 81.8085 137.939 81.7445 137.704C81.7018 137.448 81.7018 137.032 81.7445 136.456C81.7872 135.837 81.8405 135.219 81.9045 134.6C81.9898 133.981 82.0858 133.48 82.1925 133.096C81.9792 133.117 81.6058 133.267 81.0725 133.544C80.5392 133.8 79.9952 134.109 79.4405 134.472C78.9072 134.813 78.4272 135.155 78.0005 135.496C77.5738 135.837 77.3605 136.083 77.3605 136.232C77.3818 136.467 77.3925 136.701 77.3925 136.936C77.4138 137.171 77.4352 137.405 77.4565 137.64C77.4778 137.875 77.3605 138.056 77.1045 138.184C76.8698 138.291 76.6672 138.344 76.4965 138.344C76.1978 138.344 75.9738 138.269 75.8245 138.12C75.6965 137.971 75.6112 137.768 75.5685 137.512ZM66.9925 124.488C66.9925 124.019 67.0352 123.507 67.1205 122.952C67.2058 122.397 67.3125 121.843 67.4405 121.288C67.5685 120.733 67.7072 120.2 67.8565 119.688C68.0058 119.176 68.1552 118.707 68.3045 118.28C68.4538 117.875 68.7952 117.672 69.3285 117.672C69.4138 117.672 69.5525 117.715 69.7445 117.8C69.9365 117.864 70.0325 117.992 70.0325 118.184C70.0325 118.44 70.0218 118.664 70.0005 118.856C69.9792 119.048 69.9152 119.283 69.8085 119.56C69.7445 119.795 69.6698 120.04 69.5845 120.296C69.5205 120.531 69.4352 120.765 69.3285 121C69.2005 121.277 69.0938 121.608 69.0085 121.992C68.9232 122.376 68.8485 122.781 68.7845 123.208C68.7205 123.613 68.6672 124.019 68.6245 124.424C68.5818 124.808 68.5498 125.149 68.5285 125.448C68.4858 125.96 68.4432 126.408 68.4005 126.792C68.3578 127.176 68.1765 127.368 67.8565 127.368C67.7498 127.368 67.6325 127.293 67.5045 127.144C67.3765 126.995 67.2912 126.845 67.2485 126.696C67.1418 126.333 67.0672 125.971 67.0245 125.608C67.0032 125.224 66.9925 124.851 66.9925 124.488ZM67.3765 137.096C67.3978 136.797 67.4298 136.531 67.4725 136.296C67.5365 136.04 67.6218 135.763 67.7285 135.464C67.8352 135.229 67.9738 134.931 68.1445 134.568C68.3152 134.184 68.4432 133.928 68.5285 133.8C68.5925 133.715 68.6672 133.597 68.7525 133.448C68.8378 133.299 68.9338 133.149 69.0405 133C69.1472 132.851 69.2538 132.712 69.3605 132.584C69.4885 132.456 69.6058 132.371 69.7125 132.328C69.7978 132.307 69.8832 132.307 69.9685 132.328C70.0538 132.328 70.1178 132.328 70.1605 132.328C70.3312 132.371 70.5232 132.467 70.7365 132.616C70.9712 132.744 71.0458 132.925 70.9605 133.16C70.8965 133.309 70.8325 133.459 70.7685 133.608C70.7258 133.736 70.6725 133.885 70.6085 134.056C70.7365 134.12 70.8858 134.237 71.0565 134.408C71.2698 134.579 71.4298 134.792 71.5365 135.048C71.6432 135.283 71.6752 135.667 71.6325 136.2C71.5898 136.797 71.4085 137.352 71.0885 137.864C70.7898 138.355 70.3418 138.749 69.7445 139.048C69.5098 139.155 69.2538 139.219 68.9765 139.24C68.6992 139.24 68.4752 139.219 68.3045 139.176C68.1125 139.112 67.9525 139.005 67.8245 138.856C67.6965 138.685 67.6005 138.504 67.5365 138.312C67.4725 138.099 67.4298 137.885 67.4085 137.672C67.3872 137.459 67.3765 137.267 67.3765 137.096ZM69.1045 137.16C69.1045 137.203 69.0938 137.277 69.0725 137.384C69.0725 137.491 69.0938 137.576 69.1365 137.64C69.2432 137.64 69.3818 137.576 69.5525 137.448C69.7872 137.277 69.9472 137.075 70.0325 136.84C70.1392 136.584 70.1925 136.296 70.1925 135.976C70.1925 135.592 70.1392 135.304 70.0325 135.112C69.8405 135.283 69.6485 135.571 69.4565 135.976C69.2645 136.36 69.1472 136.755 69.1045 137.16ZM101.697 140.04C101.676 139.912 101.686 139.763 101.729 139.592C101.793 139.4 101.868 139.251 101.953 139.144C101.932 138.184 101.91 137.32 101.889 136.552C101.868 135.763 101.9 134.92 101.985 134.024C102.028 133.747 102.081 133.427 102.145 133.064C102.209 132.68 102.326 132.307 102.497 131.944C102.561 131.795 102.689 131.699 102.881 131.656C103.073 131.592 103.265 131.571 103.457 131.592C103.67 131.613 103.852 131.677 104.001 131.784C104.15 131.891 104.225 132.04 104.225 132.232C104.225 132.403 104.193 132.605 104.129 132.84C104.065 133.053 104.022 133.245 104.001 133.416C103.894 133.907 103.82 134.408 103.777 134.92C103.734 135.432 103.692 135.933 103.649 136.424C103.628 136.829 103.617 137.192 103.617 137.512C103.638 137.832 103.66 138.205 103.681 138.632C103.809 138.568 104.001 138.483 104.257 138.376C104.534 138.269 104.822 138.163 105.121 138.056C105.441 137.949 105.75 137.853 106.049 137.768C106.348 137.661 106.593 137.587 106.785 137.544C106.892 137.245 106.945 137.032 106.945 136.904C106.945 136.755 106.966 136.563 107.009 136.328C107.094 135.965 107.158 135.613 107.201 135.272C107.265 134.931 107.34 134.579 107.425 134.216C107.617 133.277 108.033 132.84 108.673 132.904C108.844 132.904 109.004 132.957 109.153 133.064C109.324 133.149 109.398 133.288 109.377 133.48V133.576C109.356 133.747 109.281 133.971 109.153 134.248C109.046 134.525 108.961 134.813 108.897 135.112C108.854 135.24 108.812 135.411 108.769 135.624C108.748 135.837 108.716 136.051 108.673 136.264C108.652 136.456 108.62 136.637 108.577 136.808C108.556 136.957 108.545 137.064 108.545 137.128C109.014 137.043 109.473 136.979 109.921 136.936C110.369 136.872 110.849 136.819 111.361 136.776C111.446 136.776 111.521 136.819 111.585 136.904C111.67 136.989 111.724 137.085 111.745 137.192C111.766 137.299 111.756 137.416 111.713 137.544C111.692 137.651 111.628 137.715 111.521 137.736C110.924 137.907 110.348 138.056 109.793 138.184C109.26 138.291 108.812 138.461 108.449 138.696C108.321 138.781 108.236 138.941 108.193 139.176C108.172 139.389 108.15 139.581 108.129 139.752C108.108 139.901 108.065 140.147 108.001 140.488C107.958 140.829 107.926 141.053 107.905 141.16L107.809 141.896L107.649 143.112C107.628 143.197 107.574 143.272 107.489 143.336C107.425 143.421 107.329 143.475 107.201 143.496C107.094 143.539 106.977 143.539 106.849 143.496C106.742 143.475 106.646 143.411 106.561 143.304C106.454 143.155 106.39 142.931 106.369 142.632C106.348 142.355 106.348 142.077 106.369 141.8C106.39 141.629 106.412 141.416 106.433 141.16C106.454 140.925 106.476 140.691 106.497 140.456C106.518 140.2 106.54 139.965 106.561 139.752C106.582 139.517 106.604 139.336 106.625 139.208C106.369 139.315 106.028 139.443 105.601 139.592C105.196 139.72 104.865 139.848 104.609 139.976C104.438 140.061 104.289 140.136 104.161 140.2C104.054 140.264 103.937 140.349 103.809 140.456C103.83 140.563 103.841 140.68 103.841 140.808C103.862 140.936 103.884 141.085 103.905 141.256C103.948 141.427 103.99 141.64 104.033 141.896C104.097 142.173 104.172 142.504 104.257 142.888C104.342 143.272 104.428 143.635 104.513 143.976C104.62 144.339 104.78 144.659 104.993 144.936C105.1 144.872 105.217 144.787 105.345 144.68C105.494 144.573 105.59 144.499 105.633 144.456C105.868 144.243 106.038 144.104 106.145 144.04C106.273 143.976 106.38 143.944 106.465 143.944C106.572 143.965 106.668 144.029 106.753 144.136C106.86 144.264 106.892 144.413 106.849 144.584C106.828 144.605 106.817 144.637 106.817 144.68C106.796 144.723 106.785 144.755 106.785 144.776C106.785 144.797 106.764 144.829 106.721 144.872C106.721 144.893 106.689 144.936 106.625 145C106.561 145.085 106.486 145.181 106.401 145.288C106.337 145.395 106.262 145.501 106.177 145.608C106.113 145.715 106.049 145.8 105.985 145.864C105.836 146.035 105.654 146.141 105.441 146.184C105.249 146.248 105.057 146.269 104.865 146.248C104.737 146.248 104.566 146.216 104.353 146.152C104.14 146.109 103.926 145.992 103.713 145.8C103.35 145.437 103.105 145.011 102.977 144.52C102.849 144.051 102.721 143.603 102.593 143.176C102.508 142.877 102.433 142.6 102.369 142.344C102.326 142.088 102.284 141.8 102.241 141.48C102.198 141.181 102.124 140.936 102.017 140.744C101.953 140.68 101.889 140.595 101.825 140.488C101.761 140.36 101.718 140.211 101.697 140.04ZM95.201 129.768C95.0943 129.832 94.9877 129.96 94.881 130.152C94.7743 130.323 94.6677 130.525 94.561 130.76C94.4543 130.973 94.3583 131.197 94.273 131.432C94.1877 131.645 94.1237 131.837 94.081 132.008C94.017 132.243 93.9423 132.413 93.857 132.52C93.7717 132.627 93.6863 132.701 93.601 132.744C93.3237 132.915 93.0357 132.936 92.737 132.808C92.4597 132.659 92.321 132.381 92.321 131.976C92.321 131.891 92.3423 131.773 92.385 131.624C92.4277 131.475 92.481 131.315 92.545 131.144C92.609 130.973 92.6623 130.813 92.705 130.664C92.769 130.515 92.8117 130.397 92.833 130.312C92.6623 129.949 92.4703 129.565 92.257 129.16C92.065 128.755 91.841 128.36 91.585 127.976C91.4783 127.784 91.3183 127.581 91.105 127.368C90.8917 127.539 90.6997 127.784 90.529 128.104C90.3583 128.403 90.2197 128.648 90.113 128.84C89.9637 129.096 89.8143 129.405 89.665 129.768C89.5157 130.109 89.3983 130.429 89.313 130.728C89.2703 130.941 89.2277 131.144 89.185 131.336C89.1423 131.507 89.1103 131.699 89.089 131.912C89.0463 132.253 88.9823 132.488 88.897 132.616C88.8117 132.723 88.7157 132.797 88.609 132.84C88.2677 132.968 87.9797 132.947 87.745 132.776C87.5103 132.605 87.4037 132.371 87.425 132.072C87.4677 131.432 87.5423 130.877 87.649 130.408C87.777 129.917 87.9157 129.491 88.065 129.128C88.2783 128.616 88.5237 128.115 88.801 127.624C89.0997 127.133 89.409 126.632 89.729 126.12C89.985 125.715 90.241 125.331 90.497 124.968C90.753 124.584 90.9983 124.189 91.233 123.784C91.4677 123.421 91.7023 123.037 91.937 122.632C92.1717 122.227 92.4063 121.832 92.641 121.448C92.8117 121.192 93.0357 120.872 93.313 120.488C93.6117 120.104 93.921 119.869 94.241 119.784C94.6037 119.677 94.9023 119.72 95.137 119.912C95.393 120.083 95.521 120.296 95.521 120.552C95.521 120.616 95.4677 120.723 95.361 120.872C95.0837 121.192 94.817 121.544 94.561 121.928C94.305 122.312 94.0597 122.685 93.825 123.048C93.5477 123.475 93.281 123.891 93.025 124.296C92.7903 124.701 92.5237 125.149 92.225 125.64C92.481 126.003 92.7477 126.451 93.025 126.984C93.3023 127.517 93.569 128.029 93.825 128.52C94.209 127.965 94.5077 127.56 94.721 127.304C94.9557 127.027 95.169 126.749 95.361 126.472C95.5317 126.216 95.7237 125.949 95.937 125.672C96.1717 125.395 96.3743 125.139 96.545 124.904C96.7797 124.541 97.0463 124.157 97.345 123.752C97.665 123.325 98.0063 122.899 98.369 122.472C98.5183 122.344 98.689 122.28 98.881 122.28C99.0943 122.259 99.2863 122.291 99.457 122.376C99.6277 122.44 99.7557 122.547 99.841 122.696C99.9477 122.824 99.9903 122.973 99.969 123.144C99.905 123.485 99.6917 123.891 99.329 124.36C98.9877 124.829 98.6357 125.309 98.273 125.8C97.953 126.227 97.665 126.611 97.409 126.952C97.153 127.272 96.897 127.667 96.641 128.136C96.9183 128.819 97.2597 129.459 97.665 130.056C98.0917 130.653 98.5503 131.165 99.041 131.592C99.2117 131.741 99.4143 131.901 99.649 132.072C99.8837 132.221 100.054 132.317 100.161 132.36C100.417 132.488 100.609 132.637 100.737 132.808C100.886 132.979 100.908 133.213 100.801 133.512C100.758 133.683 100.652 133.811 100.481 133.896C100.31 133.96 100.108 133.971 99.873 133.928C99.1477 133.779 98.4863 133.448 97.889 132.936C97.313 132.424 96.801 131.891 96.353 131.336C96.1397 131.08 95.937 130.824 95.745 130.568C95.5743 130.291 95.393 130.024 95.201 129.768ZM107.201 131.08C107.073 130.717 107.02 130.365 107.041 130.024C107.062 129.683 107.073 129.235 107.073 128.68C107.073 128.488 107.084 128.189 107.105 127.784C107.126 127.357 107.148 127.027 107.169 126.792C106.998 126.899 106.753 127.037 106.433 127.208C106.134 127.357 105.846 127.507 105.569 127.656C104.822 128.061 104.012 128.403 103.137 128.68C102.284 128.936 101.398 129.064 100.481 129.064C99.9903 129.064 99.7237 128.797 99.681 128.264C99.6383 127.731 99.809 127.432 100.193 127.368C100.449 127.325 100.748 127.283 101.089 127.24C101.43 127.176 101.718 127.112 101.953 127.048C102.529 126.899 103.041 126.749 103.489 126.6C103.958 126.429 104.396 126.248 104.801 126.056C105.228 125.864 105.633 125.651 106.017 125.416C106.401 125.16 106.817 124.851 107.265 124.488C107.35 124.424 107.425 124.275 107.489 124.04C107.574 123.805 107.649 123.549 107.713 123.272C107.777 122.973 107.83 122.685 107.873 122.408C107.937 122.109 107.99 121.875 108.033 121.704C108.161 121.256 108.332 120.925 108.545 120.712C108.758 120.477 109.046 120.36 109.409 120.36C109.75 120.36 109.985 120.424 110.113 120.552C110.241 120.68 110.305 120.893 110.305 121.192C110.305 121.512 110.252 121.768 110.145 121.96C110.06 122.152 109.964 122.387 109.857 122.664C109.601 123.24 109.409 123.933 109.281 124.744C109.153 125.533 109.068 126.237 109.025 126.856C108.982 127.304 108.95 127.795 108.929 128.328C108.908 128.84 108.897 129.331 108.897 129.8C108.897 130.163 108.822 130.504 108.673 130.824C108.545 131.123 108.321 131.293 108.001 131.336C107.894 131.357 107.745 131.347 107.553 131.304C107.361 131.261 107.244 131.187 107.201 131.08ZM127.631 139.464C127.631 138.995 127.684 138.568 127.791 138.184C127.919 137.779 128.079 137.352 128.271 136.904C128.356 136.755 128.474 136.488 128.623 136.104C128.794 135.72 128.986 135.336 129.199 134.952C129.412 134.568 129.626 134.227 129.839 133.928C130.052 133.629 130.255 133.469 130.447 133.448C130.66 133.427 130.906 133.469 131.183 133.576C131.482 133.661 131.642 133.821 131.663 134.056C131.684 134.269 131.588 134.515 131.375 134.792C131.183 135.048 131.012 135.304 130.863 135.56C130.564 136.051 130.319 136.499 130.127 136.904C129.935 137.288 129.786 137.789 129.679 138.408C129.658 138.493 129.647 138.589 129.647 138.696C129.647 138.803 129.69 138.888 129.775 138.952C129.839 139.016 129.935 139.048 130.063 139.048C130.212 139.048 130.351 139.037 130.479 139.016C130.628 138.973 130.756 138.931 130.863 138.888C130.991 138.845 131.076 138.813 131.119 138.792C131.951 138.429 132.922 138.099 134.031 137.8C135.162 137.48 136.303 137.235 137.455 137.064C137.754 137 138.01 136.979 138.223 137C138.458 137.021 138.682 137.075 138.895 137.16C138.959 137.181 139.002 137.256 139.023 137.384C139.066 137.491 139.076 137.619 139.055 137.768C139.055 137.896 139.023 138.024 138.959 138.152C138.916 138.259 138.831 138.323 138.703 138.344C138.575 138.387 138.308 138.44 137.903 138.504C137.519 138.568 137.178 138.632 136.879 138.696C136.26 138.867 135.524 139.069 134.671 139.304C133.839 139.539 133.039 139.816 132.271 140.136C131.802 140.328 131.3 140.541 130.767 140.776C130.255 140.989 129.604 141.043 128.815 140.936C128.474 140.893 128.186 140.723 127.951 140.424C127.738 140.125 127.631 139.805 127.631 139.464ZM133.103 131.88C133.124 131.432 133.146 130.984 133.167 130.536C133.21 130.067 133.263 129.597 133.327 129.128C133.434 128.296 133.54 127.4 133.647 126.44C133.775 125.459 133.978 124.531 134.255 123.656C134.383 123.293 134.49 122.963 134.575 122.664C134.682 122.365 134.799 122.109 134.927 121.896C135.034 121.725 135.236 121.64 135.535 121.64C135.834 121.619 136.068 121.661 136.239 121.768C136.324 121.832 136.399 121.917 136.463 122.024C136.548 122.109 136.591 122.195 136.591 122.28C136.612 122.579 136.559 122.845 136.431 123.08C136.303 123.315 136.196 123.56 136.111 123.816C135.834 124.797 135.599 125.896 135.407 127.112C135.236 128.328 135.055 129.491 134.863 130.6C134.82 130.941 134.767 131.283 134.703 131.624C134.639 131.965 134.586 132.285 134.543 132.584C134.522 132.797 134.447 133.021 134.319 133.256C134.191 133.491 134.042 133.587 133.871 133.544C133.679 133.501 133.53 133.416 133.423 133.288C133.316 133.16 133.231 133.011 133.167 132.84C133.124 132.669 133.103 132.499 133.103 132.328C133.103 132.157 133.103 132.008 133.103 131.88ZM121.551 130.632C121.53 130.291 121.572 129.917 121.679 129.512C121.786 129.107 121.924 128.701 122.095 128.296C122.287 127.891 122.479 127.496 122.671 127.112C122.884 126.707 123.087 126.344 123.279 126.024C123.514 125.661 123.727 125.309 123.919 124.968C124.132 124.605 124.335 124.285 124.527 124.008C124.698 123.752 124.943 123.624 125.263 123.624C125.604 123.603 125.871 123.709 126.063 123.944C126.127 124.008 126.17 124.147 126.191 124.36C126.234 124.573 126.18 124.819 126.031 125.096C125.946 125.224 125.85 125.416 125.743 125.672C125.956 125.757 126.212 125.981 126.511 126.344C126.831 126.707 126.97 127.24 126.927 127.944C126.906 128.264 126.82 128.659 126.671 129.128C126.522 129.597 126.212 130.109 125.743 130.664C125.338 131.155 124.922 131.496 124.495 131.688C124.068 131.88 123.61 131.997 123.119 132.04C122.842 132.061 122.522 131.976 122.159 131.784C121.796 131.571 121.594 131.187 121.551 130.632ZM125.071 126.728C124.964 126.792 124.815 126.973 124.623 127.272C124.452 127.571 124.271 127.912 124.079 128.296C123.908 128.659 123.748 129.032 123.599 129.416C123.471 129.779 123.396 130.077 123.375 130.312C123.844 130.312 124.303 130.067 124.751 129.576C125.199 129.064 125.455 128.445 125.519 127.72C125.54 127.549 125.508 127.357 125.423 127.144C125.359 126.909 125.242 126.771 125.071 126.728ZM146.814 141.224C146.814 140.989 146.846 140.712 146.91 140.392C146.974 140.051 147.059 139.763 147.166 139.528C147.209 139.4 147.273 139.24 147.358 139.048C147.465 138.835 147.571 138.632 147.678 138.44C147.785 138.227 147.881 138.035 147.966 137.864C148.073 137.672 148.158 137.533 148.222 137.448C148.499 137.021 148.798 136.605 149.118 136.2C149.459 135.795 149.811 135.592 150.174 135.592C150.494 135.592 150.739 135.699 150.91 135.912C151.081 136.104 151.081 136.381 150.91 136.744C150.889 136.787 150.857 136.851 150.814 136.936C150.771 137.021 150.718 137.128 150.654 137.256C150.91 137.384 151.102 137.619 151.23 137.96C151.379 138.28 151.465 138.6 151.486 138.92C151.529 139.517 151.433 140.072 151.198 140.584C150.963 141.075 150.643 141.501 150.238 141.864C150.131 141.971 149.993 142.077 149.822 142.184C149.651 142.291 149.459 142.387 149.246 142.472C149.033 142.579 148.798 142.653 148.542 142.696C148.307 142.739 148.051 142.739 147.774 142.696C147.369 142.632 147.102 142.44 146.974 142.12C146.867 141.821 146.814 141.523 146.814 141.224ZM149.854 138.216C149.747 138.28 149.609 138.44 149.438 138.696C149.267 138.931 149.097 139.197 148.926 139.496C148.777 139.795 148.649 140.104 148.542 140.424C148.435 140.744 148.393 141 148.414 141.192C148.798 141.149 149.171 140.925 149.534 140.52C149.918 140.093 150.121 139.603 150.142 139.048C150.142 138.899 150.121 138.749 150.078 138.6C150.057 138.451 149.982 138.323 149.854 138.216ZM140.638 134.152C140.638 133.981 140.702 133.843 140.83 133.736C140.958 133.608 141.065 133.523 141.15 133.48C142.622 132.861 144.233 132.36 145.982 131.976C147.753 131.571 149.47 131.325 151.134 131.24C152.35 131.176 153.449 131.144 154.43 131.144C155.433 131.123 156.137 131.144 156.542 131.208C156.905 131.251 157.246 131.357 157.566 131.528C157.886 131.699 157.993 131.965 157.886 132.328C157.865 132.413 157.801 132.467 157.694 132.488C157.609 132.509 157.513 132.52 157.406 132.52C157.15 132.563 156.766 132.595 156.254 132.616C155.763 132.616 155.305 132.616 154.878 132.616C154.067 132.616 153.203 132.659 152.286 132.744C151.369 132.808 150.43 132.915 149.47 133.064C148.531 133.213 147.582 133.395 146.622 133.608C145.683 133.8 144.787 134.024 143.934 134.28C143.593 134.387 143.187 134.557 142.718 134.792C142.249 135.005 141.865 135.133 141.566 135.176C141.225 135.219 140.979 135.123 140.83 134.888C140.702 134.653 140.638 134.408 140.638 134.152ZM140.478 130.472C140.627 130.131 140.787 129.843 140.958 129.608C141.022 129.523 141.107 129.405 141.214 129.256C141.321 129.107 141.438 128.957 141.566 128.808C141.694 128.637 141.811 128.477 141.918 128.328C142.046 128.179 142.142 128.061 142.206 127.976C142.526 127.571 142.835 127.176 143.134 126.792C143.454 126.387 143.742 125.928 143.998 125.416C144.041 125.288 144.126 125.075 144.254 124.776C144.382 124.456 144.467 124.157 144.51 123.88C144.574 123.56 144.574 123.315 144.51 123.144C144.446 122.952 144.265 122.867 143.966 122.888C143.667 122.909 143.337 122.963 142.974 123.048C142.633 123.133 142.323 123.251 142.046 123.4C142.003 123.421 141.929 123.464 141.822 123.528C141.715 123.592 141.598 123.667 141.47 123.752C141.363 123.816 141.257 123.88 141.15 123.944C141.043 124.008 140.979 124.051 140.958 124.072C140.873 124.136 140.777 124.179 140.67 124.2C140.585 124.221 140.531 124.232 140.51 124.232C140.233 124.253 140.019 124.179 139.87 124.008C139.742 123.816 139.71 123.571 139.774 123.272C139.817 123.101 139.934 122.92 140.126 122.728C140.339 122.536 140.521 122.397 140.67 122.312C141.182 122.013 141.769 121.779 142.43 121.608C143.091 121.437 143.753 121.373 144.414 121.416C144.841 121.437 145.214 121.544 145.534 121.736C145.854 121.907 146.078 122.227 146.206 122.696C146.249 122.824 146.27 123.048 146.27 123.368C146.27 123.709 146.227 124.04 146.142 124.36C146.057 124.659 145.961 124.947 145.854 125.224C146.217 125.181 146.526 125.139 146.782 125.096C147.059 125.053 147.39 125.011 147.774 124.968C148.393 124.925 149.001 124.893 149.598 124.872C150.217 124.829 150.825 124.808 151.422 124.808C151.913 124.808 152.403 124.84 152.894 124.904C153.406 124.947 153.971 125.064 154.59 125.256C154.889 125.363 155.006 125.597 154.942 125.96C154.921 126.088 154.857 126.163 154.75 126.184C154.643 126.205 154.494 126.227 154.302 126.248C153.833 126.269 153.374 126.269 152.926 126.248C152.478 126.205 152.009 126.184 151.518 126.184C151.091 126.184 150.633 126.216 150.142 126.28C149.673 126.323 149.257 126.365 148.894 126.408C148.275 126.451 147.753 126.525 147.326 126.632C146.899 126.739 146.387 126.888 145.79 127.08C145.534 127.165 145.31 127.272 145.118 127.4C144.926 127.528 144.723 127.699 144.51 127.912C144.318 128.125 144.105 128.381 143.87 128.68C143.635 128.957 143.358 129.299 143.038 129.704C142.846 129.939 142.633 130.205 142.398 130.504C142.163 130.781 141.875 131.037 141.534 131.272C141.171 131.528 140.862 131.571 140.606 131.4C140.35 131.208 140.307 130.899 140.478 130.472ZM167.375 135.464C167.375 134.995 167.439 134.536 167.567 134.088C167.695 133.619 167.844 133.181 168.015 132.776C168.207 132.371 168.399 132.008 168.591 131.688C168.804 131.347 168.975 131.059 169.103 130.824C169.487 130.205 170.009 129.491 170.671 128.68C171.332 127.848 171.951 126.995 172.527 126.12C172.655 125.907 172.772 125.693 172.879 125.48C173.007 125.245 173.199 125.107 173.455 125.064C173.796 125.043 174.095 125.128 174.351 125.32C174.628 125.512 174.767 125.779 174.767 126.12C174.767 126.419 174.703 126.643 174.575 126.792C174.511 126.856 174.404 126.963 174.255 127.112C174.105 127.261 173.967 127.411 173.839 127.56C173.711 127.709 173.604 127.848 173.519 127.976C173.433 128.083 173.348 128.2 173.263 128.328C173.199 128.435 173.145 128.509 173.103 128.552C172.74 129 172.409 129.469 172.111 129.96C171.812 130.429 171.492 130.931 171.151 131.464C171.449 131.613 171.801 131.784 172.207 131.976C172.633 132.147 173.071 132.328 173.519 132.52C173.988 132.691 174.468 132.872 174.959 133.064C175.471 133.235 175.951 133.405 176.399 133.576C176.633 133.661 176.793 133.789 176.879 133.96C176.964 134.109 176.975 134.259 176.911 134.408C176.868 134.536 176.772 134.643 176.623 134.728C176.473 134.813 176.292 134.835 176.079 134.792C175.588 134.685 175.055 134.557 174.479 134.408C173.903 134.237 173.337 134.067 172.783 133.896C172.228 133.704 171.705 133.523 171.215 133.352C170.745 133.16 170.372 133 170.095 132.872C169.86 133.107 169.657 133.427 169.487 133.832C169.337 134.216 169.209 134.547 169.103 134.824C169.06 134.931 169.007 135.069 168.943 135.24C168.9 135.389 168.836 135.539 168.751 135.688C168.687 135.837 168.612 135.976 168.527 136.104C168.441 136.211 168.345 136.264 168.239 136.264C167.919 136.264 167.695 136.2 167.567 136.072C167.439 135.923 167.375 135.72 167.375 135.464ZM179.695 133C179.673 131.933 179.727 130.877 179.855 129.832C180.004 128.765 180.228 127.677 180.527 126.568C180.633 126.333 180.729 126.088 180.815 125.832C180.9 125.555 181.06 125.416 181.295 125.416H181.871C182.105 125.459 182.265 125.576 182.351 125.768C182.457 125.939 182.5 126.131 182.479 126.344C182.479 126.387 182.468 126.451 182.447 126.536C182.425 126.621 182.404 126.685 182.383 126.728C182.127 127.709 181.892 128.787 181.679 129.96C181.487 131.133 181.391 132.285 181.391 133.416C181.391 133.757 181.401 134.088 181.423 134.408C181.444 134.728 181.455 135.069 181.455 135.432C181.455 135.923 181.241 136.168 180.815 136.168C180.58 136.168 180.388 136.061 180.239 135.848C180.111 135.635 180.025 135.443 179.983 135.272C179.876 134.845 179.801 134.472 179.759 134.152C179.716 133.811 179.695 133.427 179.695 133ZM185.658 135.112C185.573 134.899 185.573 134.685 185.658 134.472C185.743 134.237 185.807 134.056 185.85 133.928C186.021 133.565 186.255 133.181 186.554 132.776C186.853 132.349 187.077 131.997 187.226 131.72C187.589 131.08 187.994 130.451 188.442 129.832C188.89 129.213 189.253 128.659 189.53 128.168C189.701 127.891 189.882 127.592 190.074 127.272C190.287 126.952 190.479 126.632 190.65 126.312C190.842 125.971 190.991 125.64 191.098 125.32C191.226 125 191.29 124.691 191.29 124.392C190.927 124.392 190.49 124.477 189.978 124.648C189.487 124.797 189.029 125.011 188.602 125.288C188.453 125.395 188.271 125.523 188.058 125.672C187.866 125.821 187.578 125.96 187.194 126.088C187.002 126.152 186.831 126.152 186.682 126.088C186.554 126.024 186.447 125.928 186.362 125.8C186.277 125.672 186.223 125.533 186.202 125.384C186.181 125.213 186.202 125.053 186.266 124.904C186.373 124.669 186.543 124.456 186.778 124.264C187.013 124.051 187.226 123.891 187.418 123.784C187.674 123.635 187.962 123.496 188.282 123.368C188.602 123.24 188.922 123.123 189.242 123.016C189.583 122.909 189.925 122.824 190.266 122.76C190.607 122.696 190.917 122.664 191.194 122.664C191.386 122.664 191.599 122.675 191.834 122.696C192.069 122.717 192.293 122.771 192.506 122.856C192.719 122.941 192.89 123.069 193.018 123.24C193.167 123.389 193.242 123.592 193.242 123.848C193.242 124.36 193.167 124.851 193.018 125.32C192.89 125.768 192.719 126.216 192.506 126.664C192.293 127.112 192.058 127.549 191.802 127.976C191.546 128.403 191.301 128.829 191.066 129.256C190.959 129.448 190.767 129.725 190.49 130.088C190.234 130.429 190.021 130.803 189.85 131.208C189.978 131.272 190.138 131.347 190.33 131.432C190.522 131.496 190.714 131.56 190.906 131.624C191.098 131.688 191.269 131.741 191.418 131.784C191.589 131.827 191.706 131.859 191.77 131.88C191.919 131.923 192.101 131.965 192.314 132.008C192.527 132.051 192.741 132.093 192.954 132.136C193.167 132.179 193.359 132.221 193.53 132.264C193.722 132.285 193.861 132.296 193.946 132.296C194.181 132.339 194.351 132.403 194.458 132.488C194.586 132.573 194.65 132.744 194.65 133C194.65 133.384 194.479 133.619 194.138 133.704C193.818 133.768 193.509 133.779 193.21 133.736C192.442 133.651 191.738 133.544 191.098 133.416C190.458 133.288 189.69 133.096 188.794 132.84C188.666 133.032 188.549 133.213 188.442 133.384C188.335 133.533 188.239 133.683 188.154 133.832C188.09 133.981 188.037 134.077 187.994 134.12C187.823 134.376 187.621 134.675 187.386 135.016C187.173 135.336 186.906 135.517 186.586 135.56C186.373 135.581 186.181 135.56 186.01 135.496C185.839 135.411 185.722 135.283 185.658 135.112ZM199.194 127.464C199.258 127.037 199.322 126.653 199.386 126.312C199.45 125.949 199.514 125.597 199.578 125.256C199.663 124.915 199.749 124.552 199.834 124.168C199.919 123.763 200.015 123.304 200.122 122.792C200.165 122.557 200.218 122.259 200.282 121.896C200.367 121.533 200.463 121.235 200.57 121C200.613 120.893 200.709 120.819 200.858 120.776C201.029 120.733 201.157 120.712 201.242 120.712C201.519 120.712 201.754 120.797 201.946 120.968C202.138 121.117 202.234 121.32 202.234 121.576C202.234 121.96 202.181 122.344 202.074 122.728C201.967 123.112 201.871 123.528 201.786 123.976C201.701 124.424 201.615 124.883 201.53 125.352C201.445 125.821 201.359 126.28 201.274 126.728C201.189 127.155 201.114 127.539 201.05 127.88C201.562 127.709 202.106 127.539 202.682 127.368C203.279 127.197 203.727 127.091 204.026 127.048C204.389 126.941 204.783 126.867 205.21 126.824C205.658 126.781 206.159 126.781 206.714 126.824C206.885 126.845 206.991 126.931 207.034 127.08C207.098 127.229 207.109 127.368 207.066 127.496C207.002 127.603 206.927 127.688 206.842 127.752C206.543 127.859 206.255 127.944 205.978 128.008C205.722 128.051 205.413 128.125 205.05 128.232C204.645 128.36 204.271 128.477 203.93 128.584C203.61 128.669 203.29 128.776 202.97 128.904C202.65 129.011 202.319 129.139 201.978 129.288C201.637 129.437 201.274 129.608 200.89 129.8C200.847 130.44 200.815 131.069 200.794 131.688C200.773 132.307 200.794 132.861 200.858 133.352C200.879 133.501 200.901 133.672 200.922 133.864C200.965 134.056 200.997 134.216 201.018 134.344V134.44C201.018 134.653 200.901 134.803 200.666 134.888C200.431 134.973 200.271 135.016 200.186 135.016C200.015 135.037 199.855 134.973 199.706 134.824C199.578 134.675 199.471 134.493 199.386 134.28C199.258 133.981 199.162 133.587 199.098 133.096C199.055 132.797 199.023 132.499 199.002 132.2C198.981 131.88 198.97 131.549 198.97 131.208C198.97 131.165 198.97 130.995 198.97 130.696C198.991 130.376 199.013 130.024 199.034 129.64C199.055 129.235 199.077 128.84 199.098 128.456C199.119 128.051 199.151 127.72 199.194 127.464ZM195.29 142.344C195.29 142.131 195.301 141.917 195.322 141.704C195.343 141.512 195.386 141.309 195.45 141.096C195.706 140.456 196.037 139.784 196.442 139.08C196.869 138.376 197.327 137.747 197.818 137.192C198.117 136.851 198.394 136.573 198.65 136.36C198.821 136.211 199.055 136.136 199.354 136.136C199.653 136.136 199.877 136.211 200.026 136.36C200.175 136.488 200.261 136.627 200.282 136.776C200.325 136.904 200.335 137.043 200.314 137.192C200.293 137.363 200.133 137.587 199.834 137.864C199.535 138.12 199.237 138.461 198.938 138.888C199.301 139.123 199.546 139.368 199.674 139.624C199.823 139.88 199.898 140.189 199.898 140.552C199.898 140.893 199.802 141.267 199.61 141.672C199.439 142.077 199.215 142.451 198.938 142.792C198.661 143.155 198.341 143.453 197.978 143.688C197.637 143.923 197.295 144.04 196.954 144.04C196.463 144.04 196.058 143.88 195.738 143.56C195.439 143.24 195.29 142.835 195.29 142.344ZM198.234 140.04C198.106 140.04 197.967 140.147 197.818 140.36C197.669 140.552 197.53 140.776 197.402 141.032C197.274 141.288 197.167 141.544 197.082 141.8C196.997 142.056 196.954 142.237 196.954 142.344C197.167 142.323 197.37 142.248 197.562 142.12C197.754 141.992 197.914 141.832 198.042 141.64C198.191 141.448 198.309 141.245 198.394 141.032C198.479 140.819 198.522 140.627 198.522 140.456C198.522 140.392 198.511 140.307 198.49 140.2C198.469 140.093 198.383 140.04 198.234 140.04ZM208.201 143.272C208.137 142.888 208.158 142.461 208.265 141.992C208.371 141.523 208.478 141.128 208.585 140.808C208.627 140.616 208.691 140.392 208.777 140.136C208.883 139.88 208.979 139.624 209.065 139.368C209.171 139.091 209.267 138.845 209.353 138.632C209.438 138.397 209.513 138.216 209.577 138.088C209.747 137.725 209.918 137.459 210.089 137.288C210.281 137.117 210.579 137.075 210.985 137.16C211.134 137.203 211.273 137.299 211.401 137.448C211.529 137.576 211.593 137.747 211.593 137.96C211.593 138.237 211.55 138.483 211.465 138.696C211.379 138.888 211.283 139.091 211.177 139.304C210.942 139.773 210.686 140.253 210.409 140.744C210.153 141.235 209.907 141.725 209.673 142.216C209.523 142.515 209.385 142.781 209.257 143.016C209.129 143.272 208.969 143.453 208.777 143.56C208.649 143.645 208.531 143.667 208.424 143.624C208.318 143.603 208.243 143.485 208.201 143.272Z" fill="#8995A1"/>
<path d="M233.988 136.232C233.945 135.763 233.924 135.304 233.924 134.856C233.924 134.387 233.945 133.917 233.988 133.448C234.052 132.531 234.148 131.635 234.276 130.76C234.425 129.885 234.596 129 234.788 128.104C234.83 127.891 234.884 127.613 234.948 127.272C235.012 126.931 235.086 126.6 235.172 126.28C235.278 125.96 235.396 125.683 235.524 125.448C235.673 125.213 235.865 125.096 236.1 125.096C236.334 125.096 236.569 125.171 236.804 125.32C237.06 125.469 237.177 125.661 237.156 125.896C237.113 126.259 237.038 126.611 236.932 126.952C236.825 127.272 236.74 127.581 236.676 127.88C236.441 129.011 236.26 129.907 236.132 130.568C236.004 131.208 235.908 131.709 235.844 132.072C235.78 132.413 235.737 132.659 235.716 132.808C235.694 132.957 235.673 133.096 235.652 133.224C235.545 133.907 235.47 134.579 235.428 135.24C235.406 135.901 235.364 136.584 235.3 137.288C235.278 137.459 235.193 137.555 235.044 137.576C234.894 137.597 234.788 137.608 234.724 137.608C234.468 137.608 234.286 137.469 234.18 137.192C234.094 136.893 234.03 136.573 233.988 136.232ZM222.788 134.76C222.766 134.419 222.798 134.067 222.884 133.704C222.99 133.341 223.118 132.989 223.268 132.648C223.438 132.285 223.62 131.933 223.812 131.592C224.004 131.251 224.196 130.92 224.388 130.6C224.622 130.237 224.846 129.864 225.06 129.48C225.294 129.096 225.508 128.765 225.7 128.488C225.87 128.253 226.126 128.104 226.468 128.04C226.809 127.955 227.097 128.029 227.332 128.264C227.502 128.435 227.556 128.648 227.492 128.904C227.428 129.139 227.342 129.373 227.236 129.608C227.342 129.672 227.481 129.768 227.652 129.896C227.822 130.024 227.982 130.205 228.132 130.44C228.302 130.653 228.441 130.92 228.548 131.24C228.654 131.539 228.686 131.88 228.644 132.264C228.58 132.883 228.409 133.416 228.132 133.864C227.876 134.312 227.524 134.717 227.076 135.08C226.734 135.357 226.318 135.603 225.828 135.816C225.337 136.008 224.846 136.125 224.356 136.168C224.078 136.189 223.758 136.104 223.396 135.912C223.033 135.699 222.83 135.315 222.788 134.76ZM226.564 130.664C226.457 130.728 226.297 130.92 226.084 131.24C225.87 131.539 225.657 131.891 225.444 132.296C225.23 132.701 225.038 133.107 224.868 133.512C224.718 133.896 224.633 134.205 224.612 134.44C224.74 134.461 224.932 134.44 225.188 134.376C225.444 134.312 225.7 134.195 225.956 134.024C226.212 133.853 226.446 133.619 226.66 133.32C226.894 133.021 227.044 132.648 227.108 132.2C227.172 131.816 227.14 131.496 227.012 131.24C226.884 130.963 226.734 130.771 226.564 130.664ZM243.237 135.112C243.066 135.347 242.863 135.656 242.629 136.04C242.415 136.424 242.191 136.755 241.957 137.032C241.594 137.459 241.21 137.619 240.805 137.512C240.463 137.405 240.25 137.235 240.165 137C240.079 136.744 240.111 136.499 240.261 136.264C240.41 136.008 240.591 135.709 240.805 135.368C241.039 135.027 241.263 134.685 241.477 134.344C241.711 133.981 241.925 133.64 242.117 133.32C242.33 132.979 242.501 132.691 242.629 132.456C243.141 131.581 243.589 130.771 243.973 130.024C244.357 129.256 244.634 128.499 244.805 127.752C244.826 127.667 244.837 127.56 244.837 127.432C244.858 127.283 244.869 127.165 244.869 127.08C244.805 127.037 244.687 127.005 244.517 126.984C244.346 126.963 244.207 126.963 244.101 126.984C243.845 127.027 243.589 127.101 243.333 127.208C243.098 127.315 242.863 127.443 242.629 127.592C242.394 127.72 242.159 127.848 241.925 127.976C241.69 128.104 241.466 128.189 241.253 128.232C241.018 128.275 240.837 128.179 240.709 127.944C240.581 127.688 240.517 127.475 240.517 127.304C240.517 127.155 240.527 126.995 240.549 126.824C240.591 126.653 240.709 126.504 240.901 126.376C241.391 126.056 241.925 125.779 242.501 125.544C243.098 125.288 243.685 125.139 244.261 125.096C245.157 125.011 245.786 125.16 246.149 125.544C246.533 125.928 246.725 126.44 246.725 127.08C246.725 127.805 246.629 128.467 246.437 129.064C246.245 129.661 245.999 130.269 245.701 130.888C245.53 131.251 245.327 131.645 245.093 132.072C244.879 132.499 244.677 132.925 244.485 133.352C244.591 133.629 244.741 133.96 244.933 134.344C245.125 134.707 245.327 135.069 245.541 135.432C245.775 135.795 246.021 136.147 246.277 136.488C246.554 136.808 246.821 137.064 247.077 137.256C247.311 137.448 247.514 137.619 247.685 137.768C247.877 137.896 248.09 138.045 248.325 138.216C248.453 138.301 248.506 138.408 248.485 138.536C248.485 138.664 248.463 138.781 248.421 138.888C248.314 139.144 248.143 139.283 247.909 139.304C247.674 139.325 247.461 139.304 247.269 139.24C246.821 139.091 246.383 138.845 245.957 138.504C245.53 138.141 245.135 137.757 244.773 137.352C244.431 136.925 244.122 136.509 243.845 136.104C243.589 135.699 243.386 135.368 243.237 135.112ZM254.181 136.68C254.074 136.424 253.967 135.987 253.861 135.368C253.775 134.749 253.743 134.173 253.765 133.64C253.765 133.533 253.765 133.363 253.765 133.128C253.786 132.893 253.807 132.637 253.829 132.36C253.85 132.061 253.861 131.773 253.861 131.496C253.861 131.197 253.85 130.941 253.829 130.728C253.274 131.283 252.698 131.763 252.101 132.168C251.525 132.552 250.917 132.968 250.277 133.416C250.213 133.459 250.106 133.533 249.957 133.64C249.807 133.725 249.647 133.821 249.477 133.928C249.327 134.035 249.178 134.141 249.029 134.248C248.901 134.333 248.815 134.387 248.773 134.408C248.474 134.664 248.218 134.856 248.005 134.984C247.791 135.091 247.546 135.091 247.269 134.984C246.97 134.877 246.778 134.696 246.693 134.44C246.629 134.163 246.65 133.875 246.757 133.576C246.885 133.213 247.119 132.957 247.461 132.808C247.802 132.637 248.122 132.467 248.421 132.296C249.295 131.741 250.095 131.229 250.821 130.76C251.546 130.291 252.282 129.725 253.029 129.064C253.306 128.829 253.562 128.541 253.797 128.2C254.053 127.837 254.245 127.475 254.373 127.112C254.394 127.027 254.426 126.909 254.469 126.76C254.511 126.611 254.565 126.461 254.629 126.312C254.714 126.163 254.81 126.035 254.917 125.928C255.045 125.8 255.215 125.736 255.429 125.736C255.663 125.736 255.909 125.853 256.165 126.088C256.442 126.323 256.581 126.6 256.581 126.92C256.581 127.069 256.538 127.219 256.453 127.368C256.389 127.496 256.335 127.624 256.293 127.752C256.207 127.965 256.143 128.253 256.101 128.616C256.079 128.957 256.058 129.235 256.037 129.448C255.973 130.259 255.887 131.101 255.781 131.976C255.674 132.851 255.621 133.693 255.621 134.504C255.621 135.272 255.717 135.944 255.909 136.52C256.101 137.075 256.399 137.683 256.805 138.344C256.911 138.536 256.869 138.707 256.677 138.856C256.506 138.984 256.303 139.027 256.069 138.984C255.813 138.963 255.578 138.877 255.365 138.728C255.173 138.557 255.002 138.365 254.853 138.152C254.703 137.917 254.575 137.672 254.469 137.416C254.362 137.16 254.266 136.915 254.181 136.68ZM258.981 134.408C258.981 133.768 259.034 133.128 259.141 132.488C259.247 131.827 259.354 131.144 259.461 130.44C259.589 129.608 259.727 128.797 259.877 128.008C260.026 127.219 260.133 126.365 260.197 125.448C260.197 125.32 260.197 125.16 260.197 124.968C260.218 124.755 260.25 124.541 260.293 124.328C260.335 124.115 260.399 123.933 260.485 123.784C260.591 123.635 260.741 123.56 260.933 123.56C261.061 123.56 261.21 123.581 261.381 123.624C261.573 123.645 261.743 123.709 261.893 123.816C262.042 123.901 262.159 124.029 262.245 124.2C262.351 124.371 262.394 124.584 262.373 124.84C262.373 124.989 262.341 125.256 262.277 125.64C262.234 126.024 262.181 126.44 262.117 126.888C262.074 127.315 262.021 127.72 261.957 128.104C261.914 128.488 261.882 128.755 261.861 128.904C261.754 129.8 261.594 130.739 261.381 131.72C261.189 132.68 261.018 133.491 260.869 134.152C260.847 134.216 260.815 134.344 260.773 134.536C260.751 134.728 260.719 134.941 260.677 135.176C260.634 135.389 260.591 135.592 260.549 135.784C260.527 135.976 260.506 136.104 260.485 136.168C260.442 136.339 260.335 136.456 260.165 136.52C259.994 136.563 259.866 136.584 259.781 136.584C259.418 136.584 259.194 136.467 259.109 136.232C259.045 135.997 259.002 135.72 258.981 135.4V134.408ZM270.542 138.824C270.542 137.843 270.734 136.968 271.118 136.2C271.523 135.432 271.95 134.632 272.398 133.8C272.44 133.736 272.515 133.661 272.622 133.576C272.728 133.491 272.835 133.437 272.942 133.416C273.112 133.373 273.347 133.363 273.646 133.384C273.966 133.405 274.158 133.512 274.222 133.704C274.307 133.917 274.264 134.152 274.094 134.408C273.944 134.643 273.816 134.845 273.71 135.016C273.646 135.123 273.571 135.229 273.486 135.336C273.4 135.443 273.315 135.592 273.23 135.784C273.144 135.976 273.038 136.189 272.91 136.424C272.782 136.659 272.664 136.925 272.558 137.224C272.494 137.395 272.43 137.565 272.366 137.736C272.323 137.907 272.302 138.088 272.302 138.28C272.302 138.536 272.387 138.696 272.558 138.76C272.728 138.803 272.952 138.803 273.23 138.76C273.763 138.653 274.264 138.525 274.734 138.376C275.224 138.227 275.704 138.077 276.174 137.928C276.664 137.757 277.144 137.608 277.614 137.48C278.104 137.352 278.606 137.256 279.118 137.192C279.288 137.171 279.416 137.224 279.502 137.352C279.608 137.459 279.662 137.597 279.662 137.768C279.662 137.939 279.608 138.099 279.502 138.248C279.395 138.397 279.246 138.493 279.054 138.536C278.862 138.579 278.478 138.696 277.902 138.888C277.326 139.08 276.718 139.293 276.078 139.528C275.438 139.763 274.83 139.976 274.254 140.168C273.699 140.36 273.326 140.477 273.134 140.52C273.048 140.541 272.91 140.573 272.718 140.616C272.526 140.637 272.366 140.648 272.238 140.648H272.078C271.566 140.648 271.182 140.467 270.926 140.104C270.67 139.72 270.542 139.293 270.542 138.824ZM266.702 126.44C266.702 126.013 266.755 125.565 266.862 125.096C266.968 124.627 267.075 124.221 267.182 123.88C267.224 123.752 267.299 123.539 267.406 123.24C267.534 122.941 267.662 122.632 267.79 122.312C267.939 121.971 268.078 121.661 268.206 121.384C268.355 121.085 268.462 120.872 268.526 120.744C268.632 120.573 268.782 120.477 268.974 120.456C269.166 120.413 269.336 120.392 269.486 120.392C269.763 120.392 269.955 120.456 270.062 120.584C270.19 120.712 270.254 120.861 270.254 121.032C270.254 121.117 270.232 121.224 270.19 121.352L270.126 121.544C269.742 122.291 269.379 123.08 269.038 123.912C268.696 124.744 268.494 125.469 268.43 126.088C268.707 126.045 268.995 125.992 269.294 125.928C269.614 125.864 269.923 125.8 270.222 125.736C270.776 125.608 271.278 125.491 271.726 125.384C272.174 125.256 272.622 125.139 273.07 125.032C273.39 124.968 273.635 125 273.806 125.128C273.976 125.256 274.083 125.405 274.126 125.576C274.168 125.811 274.136 125.981 274.03 126.088C273.944 126.173 273.848 126.248 273.742 126.312C273.656 126.355 273.528 126.408 273.358 126.472C273.208 126.536 273.038 126.611 272.845 126.696C272.654 126.76 272.462 126.824 272.27 126.888C272.099 126.952 271.95 127.005 271.822 127.048C271.182 127.24 270.51 127.443 269.806 127.656C269.123 127.848 268.536 127.944 268.046 127.944C267.448 127.944 267.075 127.805 266.926 127.528C266.776 127.229 266.702 126.867 266.702 126.44ZM264.622 132.264C264.622 132.093 264.686 131.955 264.814 131.848C264.942 131.72 265.048 131.635 265.134 131.592C266.606 130.973 268.174 130.568 269.838 130.376C271.523 130.163 273.198 130.056 274.862 130.056H276.558C277.262 130.056 277.88 130.088 278.414 130.152C278.968 130.216 279.448 130.301 279.854 130.408C280.216 130.493 280.547 130.632 280.846 130.824C281.166 130.995 281.251 131.261 281.102 131.624C281.059 131.709 280.984 131.763 280.878 131.784C280.792 131.784 280.696 131.784 280.59 131.784C280.334 131.784 279.95 131.763 279.438 131.72C278.947 131.656 278.488 131.603 278.062 131.56C277.443 131.496 276.835 131.464 276.238 131.464C275.619 131.464 274.947 131.485 274.222 131.528C273.496 131.549 272.76 131.603 272.014 131.688C271.267 131.752 270.542 131.848 269.838 131.976C269.134 132.083 268.494 132.221 267.918 132.392C267.576 132.499 267.171 132.669 266.702 132.904C266.232 133.117 265.848 133.245 265.549 133.288C265.208 133.331 264.963 133.235 264.814 133C264.686 132.765 264.622 132.52 264.622 132.264ZM302.46 146.568C302.481 146.333 302.577 146.077 302.748 145.8C302.919 145.544 303.111 145.288 303.324 145.032C303.559 144.776 303.793 144.531 304.028 144.296C304.263 144.083 304.465 143.901 304.636 143.752C304.785 143.603 304.977 143.4 305.212 143.144C305.468 142.909 305.713 142.664 305.948 142.408C306.183 142.173 306.396 141.96 306.588 141.768C306.78 141.576 306.908 141.448 306.972 141.384C307.079 141.277 307.175 141.16 307.26 141.032C307.367 140.904 307.441 140.765 307.484 140.616C307.249 140.573 306.855 140.552 306.3 140.552C305.767 140.531 305.287 140.499 304.86 140.456C304.433 140.413 304.071 140.264 303.772 140.008C303.473 139.731 303.345 139.325 303.388 138.792C303.431 138.28 303.591 137.811 303.868 137.384C304.167 136.957 304.465 136.531 304.764 136.104C305.148 135.549 305.575 135.037 306.044 134.568C306.513 134.077 306.887 133.587 307.164 133.096C307.249 132.989 307.303 132.883 307.324 132.776C307.367 132.669 307.399 132.584 307.42 132.52C306.396 132.52 305.489 132.701 304.7 133.064C303.932 133.427 303.111 134.003 302.236 134.792C302.001 135.005 301.724 135.016 301.404 134.824C301.105 134.611 300.956 134.291 300.956 133.864C300.956 133.565 301.105 133.288 301.404 133.032C301.703 132.776 301.98 132.563 302.236 132.392C303.708 131.389 305.34 130.888 307.132 130.888C307.303 130.888 307.505 130.909 307.74 130.952C307.996 130.973 308.231 131.027 308.444 131.112C308.657 131.197 308.839 131.325 308.988 131.496C309.137 131.645 309.212 131.859 309.212 132.136C309.212 132.477 309.073 132.883 308.796 133.352C308.54 133.821 308.231 134.301 307.868 134.792C307.505 135.283 307.132 135.763 306.748 136.232C306.364 136.701 306.055 137.096 305.82 137.416C305.713 137.608 305.607 137.8 305.5 137.992C305.393 138.163 305.319 138.333 305.276 138.504C305.233 138.653 305.223 138.781 305.244 138.888C305.265 138.995 305.383 139.059 305.596 139.08C306.193 139.144 306.748 139.197 307.26 139.24C307.772 139.261 308.273 139.293 308.764 139.336C309.127 139.379 309.372 139.517 309.5 139.752C309.628 139.965 309.681 140.221 309.66 140.52C309.66 140.712 309.575 140.925 309.404 141.16C309.233 141.395 309.031 141.64 308.796 141.896C308.561 142.152 308.305 142.408 308.028 142.664C307.751 142.92 307.495 143.165 307.26 143.4C306.855 143.805 306.428 144.232 305.98 144.68C305.532 145.149 305.073 145.651 304.604 146.184C304.903 146.184 305.212 146.152 305.532 146.088C306.833 145.853 308.081 145.587 309.276 145.288C309.425 145.245 309.553 145.256 309.66 145.32C309.788 145.384 309.873 145.469 309.916 145.576C309.98 145.704 310.001 145.832 309.98 145.96C309.98 146.109 309.937 146.237 309.852 146.344C309.703 146.536 309.361 146.728 308.828 146.92C308.295 147.112 307.708 147.283 307.068 147.432C306.449 147.581 305.841 147.709 305.244 147.816C304.647 147.923 304.22 147.976 303.964 147.976C303.58 147.997 303.217 147.901 302.876 147.688C302.535 147.496 302.396 147.123 302.46 146.568ZM292.828 126.856C292.849 126.771 292.871 126.643 292.892 126.472C292.935 126.28 292.988 126.099 293.052 125.928C293.116 125.736 293.191 125.565 293.276 125.416C293.383 125.245 293.511 125.128 293.66 125.064C293.767 125.021 293.873 125.011 293.98 125.032C294.087 125.032 294.161 125.032 294.204 125.032C294.417 125.096 294.588 125.203 294.716 125.352C294.844 125.48 294.887 125.693 294.844 125.992C294.823 126.099 294.801 126.259 294.78 126.472C294.759 126.664 294.737 126.877 294.716 127.112C294.716 127.325 294.705 127.539 294.684 127.752C294.684 127.944 294.684 128.093 294.684 128.2C294.705 128.392 294.759 128.531 294.844 128.616C294.929 128.68 295.036 128.723 295.164 128.744C295.633 128.787 296.028 128.797 296.348 128.776C296.689 128.733 297.105 128.669 297.596 128.584C298.257 128.456 298.929 128.296 299.612 128.104C300.295 127.912 300.945 127.763 301.564 127.656C301.799 127.613 301.98 127.699 302.108 127.912C302.236 128.104 302.204 128.349 302.012 128.648C301.927 128.776 301.735 128.915 301.436 129.064C301.159 129.213 300.839 129.363 300.476 129.512C300.113 129.64 299.761 129.768 299.42 129.896C299.079 130.003 298.812 130.077 298.62 130.12C297.98 130.291 297.319 130.44 296.636 130.568C295.953 130.675 295.249 130.696 294.524 130.632C294.076 130.611 293.713 130.472 293.436 130.216C293.18 129.939 292.999 129.619 292.892 129.256C292.785 128.893 292.732 128.499 292.732 128.072C292.732 127.645 292.764 127.24 292.828 126.856ZM291.068 122.728C291.111 122.493 291.239 122.301 291.452 122.152C291.665 122.003 291.921 121.875 292.22 121.768C293.18 121.363 294.183 121.085 295.228 120.936C296.273 120.765 297.308 120.733 298.332 120.84C298.673 120.883 298.993 120.957 299.292 121.064C299.612 121.149 299.761 121.32 299.74 121.576C299.676 122.045 299.441 122.291 299.036 122.312C298.353 122.419 297.671 122.504 296.988 122.568C296.305 122.632 295.591 122.739 294.844 122.888C294.673 122.931 294.471 122.973 294.236 123.016C294.001 123.059 293.777 123.133 293.564 123.24C293.223 123.389 292.924 123.56 292.668 123.752C292.412 123.923 292.145 123.987 291.868 123.944C291.441 123.901 291.185 123.752 291.1 123.496C291.036 123.24 291.025 122.984 291.068 122.728ZM304.988 128.04C305.052 127.336 305.116 126.717 305.18 126.184C305.265 125.651 305.351 125.128 305.436 124.616C305.543 124.083 305.649 123.539 305.756 122.984C305.884 122.429 306.033 121.789 306.204 121.064C306.289 120.723 306.385 120.381 306.492 120.04C306.599 119.699 306.855 119.528 307.26 119.528C307.601 119.528 307.847 119.635 307.996 119.848C308.145 120.061 308.177 120.413 308.092 120.904C307.985 121.48 307.836 122.109 307.644 122.792C307.473 123.453 307.335 124.072 307.228 124.648C307.591 124.499 308.007 124.36 308.476 124.232C308.945 124.083 309.425 123.955 309.916 123.848C310.407 123.741 310.887 123.656 311.356 123.592C311.847 123.528 312.284 123.496 312.668 123.496C312.903 123.496 313.084 123.56 313.212 123.688C313.361 123.795 313.436 123.965 313.436 124.2C313.436 124.307 313.383 124.403 313.276 124.488C313.191 124.573 313.073 124.648 312.924 124.712C312.775 124.776 312.625 124.829 312.476 124.872C312.327 124.915 312.209 124.947 312.124 124.968C311.676 125.075 311.292 125.171 310.972 125.256C310.652 125.341 310.353 125.437 310.076 125.544C309.82 125.629 309.543 125.725 309.244 125.832C308.945 125.939 308.593 126.077 308.188 126.248C308.103 126.291 307.985 126.355 307.836 126.44C307.708 126.504 307.569 126.589 307.42 126.696C307.292 126.803 307.175 126.92 307.068 127.048C306.961 127.155 306.897 127.261 306.876 127.368C306.769 127.837 306.684 128.253 306.62 128.616C306.577 128.957 306.513 129.331 306.428 129.736C306.385 129.885 306.332 130.013 306.268 130.12C306.225 130.205 306.129 130.248 305.98 130.248C305.703 130.248 305.489 130.173 305.34 130.024C305.212 129.853 305.116 129.661 305.052 129.448C304.988 129.213 304.956 128.968 304.956 128.712C304.956 128.456 304.967 128.232 304.988 128.04ZM326.605 131.848C326.605 131.699 326.605 131.507 326.605 131.272C326.605 131.016 326.605 130.771 326.605 130.536C326.626 130.301 326.637 130.088 326.637 129.896C326.637 129.704 326.637 129.597 326.637 129.576C326.658 128.317 326.743 127.059 326.893 125.8C327.042 124.52 327.319 123.251 327.725 121.992C327.767 121.885 327.863 121.821 328.013 121.8C328.162 121.757 328.343 121.736 328.557 121.736C328.813 121.736 329.015 121.811 329.165 121.96C329.335 122.109 329.421 122.312 329.421 122.568C329.421 122.739 329.399 122.92 329.357 123.112C329.335 123.304 329.303 123.485 329.26 123.656C329.111 124.232 328.994 124.776 328.909 125.288C328.823 125.779 328.749 126.28 328.685 126.792C328.621 127.283 328.567 127.795 328.525 128.328C328.482 128.84 328.439 129.405 328.397 130.024V131.112C328.973 130.877 329.57 130.675 330.189 130.504C330.829 130.333 331.298 130.205 331.597 130.12C331.938 130.013 332.29 129.917 332.653 129.832C333.015 129.747 333.495 129.683 334.093 129.64C334.455 129.597 334.669 129.672 334.733 129.864C334.797 130.035 334.775 130.205 334.669 130.376C334.626 130.44 334.562 130.493 334.477 130.536C334.413 130.579 334.359 130.621 334.317 130.664C334.039 130.792 333.783 130.909 333.549 131.016C333.314 131.123 333.047 131.24 332.749 131.368C332.407 131.517 332.066 131.656 331.725 131.784C331.405 131.912 331.085 132.061 330.765 132.232C330.615 132.296 330.423 132.371 330.189 132.456C329.975 132.541 329.751 132.627 329.517 132.712C329.303 132.797 329.09 132.893 328.877 133C328.685 133.085 328.525 133.171 328.397 133.256C328.397 133.363 328.386 133.587 328.365 133.928C328.343 134.248 328.333 134.461 328.333 134.568V135.4C328.333 135.464 328.333 135.571 328.333 135.72C328.333 135.869 328.333 136.029 328.333 136.2C328.354 136.349 328.365 136.499 328.365 136.648C328.386 136.776 328.397 136.851 328.397 136.872C328.418 137 328.439 137.149 328.461 137.32C328.503 137.469 328.525 137.619 328.525 137.768C328.525 137.896 328.493 138.013 328.429 138.12C328.386 138.227 328.279 138.291 328.109 138.312C327.938 138.355 327.735 138.344 327.501 138.28C327.287 138.216 327.127 138.035 327.021 137.736C326.914 137.437 326.829 137.075 326.765 136.648C326.722 136.349 326.69 136.051 326.669 135.752C326.647 135.453 326.637 135.133 326.637 134.792C326.637 134.749 326.637 134.611 326.637 134.376C326.637 134.12 326.626 133.843 326.605 133.544C326.605 133.224 326.605 132.915 326.605 132.616C326.605 132.296 326.605 132.04 326.605 131.848ZM315.117 138.952C315.095 138.803 315.074 138.653 315.053 138.504C315.053 138.333 315.063 138.163 315.085 137.992C315.127 137.715 315.181 137.459 315.245 137.224C315.309 136.989 315.394 136.733 315.501 136.456C315.607 136.157 315.757 135.816 315.949 135.432C316.141 135.027 316.343 134.621 316.557 134.216C316.791 133.789 317.015 133.384 317.229 133C317.463 132.595 317.666 132.243 317.837 131.944C318.135 131.453 318.391 131.048 318.605 130.728C318.818 130.408 318.935 130.152 318.957 129.96C318.957 129.832 318.829 129.715 318.573 129.608C318.466 129.565 318.306 129.523 318.093 129.48C317.901 129.437 317.709 129.363 317.516 129.256C317.325 129.128 317.143 128.957 316.973 128.744C316.802 128.531 316.717 128.179 316.717 127.688C316.717 127.283 316.759 126.963 316.845 126.728C316.93 126.493 317.037 126.227 317.165 125.928C317.335 125.501 317.538 125.011 317.773 124.456C318.029 123.88 318.242 123.379 318.413 122.952C318.455 122.781 318.487 122.632 318.509 122.504C318.53 122.355 318.551 122.163 318.573 121.928C318.594 121.8 318.562 121.704 318.477 121.64C318.413 121.555 318.338 121.512 318.253 121.512C318.039 121.512 317.794 121.523 317.516 121.544C317.239 121.544 316.962 121.597 316.685 121.704C316.45 121.768 316.194 121.853 315.917 121.96C315.661 122.067 315.394 122.12 315.117 122.12C314.925 122.12 314.754 122.056 314.605 121.928C314.477 121.779 314.413 121.576 314.413 121.32C314.413 121.149 314.455 121.021 314.541 120.936C314.626 120.829 314.701 120.755 314.765 120.712C314.871 120.605 315.074 120.488 315.373 120.36C315.693 120.232 315.981 120.136 316.237 120.072C316.429 120.008 316.642 119.965 316.877 119.944C317.111 119.923 317.346 119.901 317.581 119.88C317.837 119.859 318.061 119.859 318.253 119.88C318.466 119.88 318.626 119.88 318.733 119.88C319.159 119.923 319.565 120.072 319.949 120.328C320.354 120.584 320.557 120.989 320.557 121.544C320.557 122.035 320.471 122.472 320.301 122.856C320.13 123.24 319.949 123.677 319.757 124.168C319.693 124.381 319.586 124.637 319.437 124.936C319.309 125.235 319.17 125.544 319.021 125.864C318.871 126.163 318.733 126.461 318.605 126.76C318.498 127.037 318.434 127.261 318.413 127.432C318.391 127.624 318.402 127.773 318.445 127.88C318.487 127.987 318.594 128.061 318.765 128.104C318.999 128.189 319.223 128.253 319.437 128.296C319.65 128.339 319.821 128.381 319.949 128.424C320.503 128.595 320.781 128.957 320.781 129.512C320.781 130.003 320.653 130.483 320.397 130.952C320.29 131.144 320.151 131.379 319.981 131.656C319.81 131.933 319.639 132.211 319.469 132.488C319.319 132.765 319.17 133.021 319.021 133.256C318.893 133.491 318.807 133.64 318.765 133.704C318.679 133.875 318.551 134.088 318.381 134.344C318.231 134.579 318.071 134.835 317.901 135.112C317.751 135.389 317.613 135.667 317.485 135.944C317.357 136.2 317.261 136.435 317.197 136.648C317.09 136.925 316.994 137.235 316.909 137.576C316.823 137.917 316.802 138.205 316.845 138.44C316.887 138.696 317.015 138.781 317.229 138.696C317.677 138.547 318.093 138.376 318.477 138.184C318.882 137.992 319.298 137.768 319.725 137.512C319.917 137.405 320.183 137.277 320.525 137.128C320.866 136.957 321.122 136.84 321.293 136.776C321.399 136.733 321.495 136.712 321.581 136.712C321.687 136.691 321.794 136.669 321.901 136.648C322.071 136.648 322.178 136.744 322.22 136.936C322.285 137.128 322.221 137.331 322.029 137.544C321.965 137.629 321.869 137.725 321.741 137.832C321.613 137.917 321.506 137.981 321.421 138.024C321.143 138.259 320.866 138.472 320.589 138.664C320.333 138.856 320.034 139.037 319.693 139.208C319.501 139.357 319.255 139.517 318.957 139.688C318.658 139.859 318.423 139.997 318.253 140.104C318.061 140.168 317.901 140.232 317.773 140.296C317.645 140.339 317.495 140.381 317.325 140.424C317.09 140.467 316.855 140.488 316.621 140.488C316.386 140.467 316.162 140.403 315.949 140.296C315.757 140.189 315.586 140.029 315.437 139.816C315.287 139.603 315.181 139.315 315.117 138.952ZM338.38 135.112C338.295 135.283 338.188 135.496 338.06 135.752C337.932 135.987 337.751 136.317 337.516 136.744C337.41 136.915 337.26 137.032 337.068 137.096C336.876 137.139 336.674 137.107 336.46 137C336.396 136.957 336.311 136.904 336.204 136.84C336.098 136.755 336.044 136.605 336.044 136.392C336.044 136.221 336.066 136.061 336.108 135.912C336.172 135.741 336.236 135.581 336.3 135.432C336.322 135.368 336.375 135.251 336.46 135.08C336.567 134.888 336.674 134.685 336.78 134.472C336.908 134.259 337.015 134.056 337.1 133.864C337.207 133.651 337.282 133.512 337.324 133.448C337.538 132.979 337.772 132.488 338.028 131.976C338.306 131.464 338.572 130.931 338.828 130.376C339.148 129.693 339.447 128.925 339.724 128.072C340.023 127.197 340.194 126.376 340.236 125.608C339.66 125.608 339.084 125.811 338.508 126.216C338.338 126.344 338.146 126.483 337.932 126.632C337.74 126.76 337.474 127.005 337.132 127.368C337.026 127.496 336.908 127.624 336.78 127.752C336.674 127.88 336.535 127.944 336.364 127.944C336.13 127.944 335.948 127.837 335.82 127.624C335.692 127.389 335.628 127.187 335.628 127.016C335.628 126.781 335.703 126.589 335.852 126.44C336.002 126.269 336.14 126.099 336.268 125.928C336.695 125.48 337.154 125.107 337.644 124.808C338.156 124.488 338.754 124.243 339.436 124.072C339.628 124.029 339.895 124.008 340.236 124.008C340.599 124.008 340.834 124.019 340.94 124.04C341.474 124.147 341.804 124.36 341.932 124.68C342.082 124.979 342.124 125.341 342.06 125.768C341.932 126.685 341.74 127.56 341.484 128.392C341.228 129.224 340.866 130.12 340.396 131.08C340.29 131.315 340.14 131.603 339.948 131.944C339.778 132.264 339.639 132.541 339.532 132.776C339.596 132.861 339.778 132.989 340.076 133.16C340.396 133.309 340.748 133.48 341.132 133.672C341.516 133.843 341.911 134.013 342.316 134.184C342.722 134.355 343.052 134.493 343.308 134.6C343.33 134.621 343.404 134.653 343.532 134.696C343.682 134.739 343.831 134.792 343.98 134.856C344.13 134.899 344.268 134.952 344.396 135.016C344.524 135.059 344.61 135.08 344.652 135.08C345.292 135.272 345.548 135.635 345.42 136.168C345.335 136.509 345.122 136.68 344.78 136.68C344.652 136.701 344.471 136.691 344.236 136.648C344.023 136.605 343.863 136.563 343.756 136.52C343.543 136.456 343.234 136.349 342.828 136.2C342.444 136.051 342.039 135.901 341.612 135.752C341.207 135.581 340.812 135.411 340.428 135.24C340.044 135.069 339.756 134.931 339.564 134.824C339.436 134.76 339.319 134.707 339.212 134.664C339.106 134.6 339.02 134.547 338.956 134.504C338.871 134.461 338.796 134.419 338.732 134.376C338.69 134.44 338.647 134.515 338.604 134.6C338.54 134.728 338.466 134.899 338.38 135.112ZM352.204 136.616C351.991 136.125 351.863 135.645 351.82 135.176C351.799 134.685 351.788 134.173 351.788 133.64C351.788 133.32 351.788 132.893 351.788 132.36C351.81 131.805 351.852 131.357 351.916 131.016C351.959 130.739 352.002 130.493 352.044 130.28C352.087 130.067 352.13 129.789 352.172 129.448C352.023 129.619 351.831 129.811 351.596 130.024C351.383 130.237 351.138 130.44 350.86 130.632C350.434 130.931 350.039 131.197 349.676 131.432C349.335 131.667 348.983 131.88 348.62 132.072C348.258 132.264 347.863 132.445 347.436 132.616C347.031 132.787 346.572 132.968 346.06 133.16C345.762 133.267 345.388 133.373 344.94 133.48C344.492 133.587 344.055 133.629 343.628 133.608C343.394 133.587 343.202 133.459 343.052 133.224C342.903 132.968 342.871 132.701 342.956 132.424C342.978 132.381 343.01 132.328 343.052 132.264C343.095 132.179 343.202 132.115 343.372 132.072C343.863 131.965 344.311 131.869 344.716 131.784C345.122 131.677 345.506 131.56 345.868 131.432C346.252 131.304 346.626 131.165 346.988 131.016C347.372 130.845 347.778 130.643 348.204 130.408C348.503 130.237 348.834 130.045 349.196 129.832C349.559 129.619 349.879 129.395 350.156 129.16C350.775 128.669 351.308 128.157 351.756 127.624C352.204 127.091 352.642 126.461 353.068 125.736C353.175 125.523 353.271 125.256 353.356 124.936C353.442 124.595 353.516 124.307 353.58 124.072C353.602 123.987 353.655 123.912 353.74 123.848C353.826 123.784 353.922 123.752 354.028 123.752C354.498 123.752 354.807 123.869 354.956 124.104C355.127 124.317 355.191 124.573 355.148 124.872C355.106 125.085 355.063 125.299 355.02 125.512C354.999 125.725 354.956 125.949 354.892 126.184C354.807 126.461 354.7 126.739 354.572 127.016C354.466 127.293 354.37 127.571 354.284 127.848C354.156 128.275 354.05 128.701 353.964 129.128C353.9 129.555 353.815 130.003 353.708 130.472C353.666 130.643 353.612 130.877 353.548 131.176C353.506 131.475 353.484 131.709 353.484 131.88C353.442 132.584 353.41 133.363 353.388 134.216C353.367 135.069 353.303 135.837 353.196 136.52C353.175 136.627 353.111 136.712 353.004 136.776C352.919 136.84 352.823 136.872 352.716 136.872C352.61 136.872 352.503 136.861 352.396 136.84C352.311 136.797 352.247 136.723 352.204 136.616ZM343.596 128.968C343.298 128.669 343.212 128.392 343.34 128.136C343.426 127.923 343.607 127.709 343.884 127.496C344.162 127.261 344.471 127.037 344.812 126.824C345.154 126.611 345.484 126.429 345.804 126.28C346.146 126.109 346.423 125.981 346.636 125.896C347.063 125.725 347.447 125.597 347.788 125.512C348.151 125.405 348.556 125.331 349.004 125.288C349.282 125.267 349.463 125.299 349.548 125.384C349.634 125.469 349.687 125.533 349.708 125.576C349.772 125.875 349.708 126.109 349.516 126.28C349.324 126.429 349.058 126.568 348.716 126.696C348.226 126.867 347.735 127.059 347.244 127.272C346.754 127.464 346.284 127.709 345.836 128.008C345.708 128.093 345.57 128.2 345.42 128.328C345.292 128.456 345.154 128.584 345.004 128.712C344.855 128.84 344.706 128.947 344.556 129.032C344.407 129.117 344.258 129.16 344.108 129.16C343.959 129.16 343.842 129.139 343.756 129.096C343.692 129.053 343.639 129.011 343.596 128.968ZM368.951 132.68C368.951 131.507 369.004 130.536 369.111 129.768C369.239 128.979 369.314 128.488 369.335 128.296C369.442 127.485 369.559 126.739 369.687 126.056C369.836 125.352 369.996 124.627 370.167 123.88C370.252 123.517 370.348 123.133 370.455 122.728C370.562 122.301 370.668 121.917 370.775 121.576C370.818 121.427 370.86 121.309 370.903 121.224C370.946 121.117 371.052 121.032 371.223 120.968C371.415 120.904 371.66 120.925 371.959 121.032C372.279 121.139 372.439 121.32 372.439 121.576V121.64C372.268 122.579 372.087 123.464 371.895 124.296C371.703 125.128 371.5 126.067 371.287 127.112C371.159 127.795 371.031 128.52 370.903 129.288C370.796 130.035 370.711 130.92 370.647 131.944C370.988 131.752 371.287 131.592 371.543 131.464C371.82 131.336 372.076 131.229 372.311 131.144C372.567 131.037 372.823 130.941 373.079 130.856C373.356 130.771 373.676 130.675 374.039 130.568C374.274 130.504 374.604 130.429 375.031 130.344C375.458 130.259 375.82 130.205 376.119 130.184C376.332 130.163 376.631 130.152 377.015 130.152C377.42 130.131 377.932 130.12 378.551 130.12C378.722 130.12 378.903 130.131 379.095 130.152C379.287 130.152 379.447 130.163 379.575 130.184C380.023 130.248 380.247 130.472 380.247 130.856C380.247 131.155 380.055 131.315 379.671 131.336C379.308 131.379 378.924 131.421 378.519 131.464C378.135 131.485 377.73 131.517 377.303 131.56C376.855 131.603 376.45 131.656 376.087 131.72C375.746 131.784 375.308 131.869 374.775 131.976C374.711 131.997 374.615 132.029 374.487 132.072C374.359 132.093 374.22 132.125 374.071 132.168C373.922 132.211 373.783 132.253 373.655 132.296C373.527 132.339 373.431 132.371 373.367 132.392C373.09 132.499 372.759 132.648 372.375 132.84C371.991 133.011 371.714 133.149 371.543 133.256C371.372 133.363 371.223 133.48 371.095 133.608C370.988 133.715 370.892 133.821 370.807 133.928C370.722 134.035 370.668 134.205 370.647 134.44C370.626 134.547 370.604 134.771 370.583 135.112C370.583 135.432 370.583 135.645 370.583 135.752C370.583 136.307 370.594 136.819 370.615 137.288C370.636 137.736 370.658 137.992 370.679 138.056C370.722 138.227 370.764 138.397 370.807 138.568C370.871 138.739 370.914 138.909 370.935 139.08C370.935 139.251 370.828 139.379 370.615 139.464C370.402 139.549 370.199 139.56 370.007 139.496C369.9 139.453 369.783 139.389 369.655 139.304C369.548 139.219 369.442 139.091 369.335 138.92C369.25 138.792 369.196 138.643 369.175 138.472C369.154 138.28 369.122 138.067 369.079 137.832C369.058 137.704 369.036 137.48 369.015 137.16C369.015 136.84 369.004 136.499 368.983 136.136C368.983 135.752 368.972 135.379 368.951 135.016C368.951 134.653 368.951 134.365 368.951 134.152V132.68ZM372.407 127.4C372.428 127.08 372.556 126.781 372.791 126.504C373.026 126.227 373.292 125.981 373.591 125.768C373.89 125.533 374.188 125.341 374.487 125.192C374.807 125.021 375.063 124.893 375.255 124.808C375.66 124.637 376.055 124.499 376.439 124.392C376.823 124.285 377.228 124.189 377.655 124.104C377.954 124.061 378.252 124.029 378.551 124.008C378.85 123.965 379.159 123.944 379.479 123.944C380.183 123.944 380.663 124.008 380.919 124.136C381.175 124.264 381.303 124.456 381.303 124.712C381.303 125.011 381.218 125.192 381.047 125.256C380.876 125.32 380.514 125.352 379.959 125.352C379.148 125.352 378.338 125.459 377.527 125.672C376.716 125.885 375.938 126.184 375.191 126.568C374.636 126.824 374.103 127.187 373.591 127.656C373.271 127.955 372.983 128.061 372.727 127.976C372.471 127.891 372.364 127.699 372.407 127.4ZM357.975 133.608C357.954 133.267 357.986 132.915 358.071 132.552C358.178 132.189 358.306 131.837 358.455 131.496C358.626 131.133 358.807 130.781 358.999 130.44C359.191 130.099 359.383 129.768 359.575 129.448C359.81 129.085 360.034 128.712 360.247 128.328C360.482 127.944 360.695 127.613 360.887 127.336C361.058 127.101 361.314 126.952 361.655 126.888C361.996 126.803 362.284 126.877 362.519 127.112C362.69 127.283 362.743 127.496 362.679 127.752C362.615 127.987 362.53 128.221 362.423 128.456C362.53 128.52 362.668 128.616 362.839 128.744C363.01 128.872 363.17 129.053 363.319 129.288C363.49 129.501 363.628 129.768 363.735 130.088C363.842 130.387 363.874 130.728 363.831 131.112C363.767 131.731 363.596 132.264 363.319 132.712C363.063 133.16 362.711 133.565 362.263 133.928C361.922 134.205 361.506 134.451 361.015 134.664C360.524 134.856 360.034 134.973 359.543 135.016C359.266 135.037 358.946 134.952 358.583 134.76C358.22 134.547 358.018 134.163 357.975 133.608ZM361.751 129.512C361.644 129.576 361.484 129.768 361.271 130.088C361.058 130.387 360.844 130.739 360.631 131.144C360.418 131.549 360.226 131.955 360.055 132.36C359.906 132.744 359.82 133.053 359.799 133.288C359.927 133.309 360.119 133.288 360.375 133.224C360.631 133.16 360.887 133.043 361.143 132.872C361.399 132.701 361.634 132.467 361.847 132.168C362.082 131.869 362.231 131.496 362.295 131.048C362.359 130.664 362.327 130.344 362.199 130.088C362.071 129.811 361.922 129.619 361.751 129.512ZM402.494 124.904C402.622 124.029 402.75 123.293 402.878 122.696C403.027 122.099 403.155 121.491 403.262 120.872C403.304 120.637 403.358 120.349 403.422 120.008C403.507 119.645 403.603 119.336 403.71 119.08C403.752 118.973 403.848 118.899 403.998 118.856C404.168 118.813 404.296 118.792 404.382 118.792C404.659 118.792 404.883 118.877 405.054 119.048C405.224 119.197 405.31 119.4 405.31 119.656C405.31 119.848 405.288 120.051 405.246 120.264C405.224 120.456 405.192 120.637 405.15 120.808C405.107 121.043 405.054 121.352 404.99 121.736C404.926 122.099 404.851 122.504 404.766 122.952C404.68 123.4 404.595 123.848 404.51 124.296C404.424 124.744 404.35 125.139 404.286 125.48C404.542 125.395 404.83 125.299 405.15 125.192C405.491 125.085 405.822 124.989 406.142 124.904C406.483 124.797 406.792 124.712 407.07 124.648C407.368 124.563 407.592 124.509 407.742 124.488C408.104 124.381 408.499 124.307 408.926 124.264C409.374 124.221 409.875 124.221 410.43 124.264C410.6 124.285 410.707 124.371 410.75 124.52C410.814 124.669 410.824 124.808 410.782 124.936C410.718 125.043 410.643 125.128 410.558 125.192C410.259 125.299 409.971 125.384 409.694 125.448C409.438 125.491 409.128 125.565 408.766 125.672C407.955 125.907 407.176 126.152 406.43 126.408C405.683 126.664 404.915 126.995 404.126 127.4C404.083 127.827 404.051 128.232 404.03 128.616C404.03 129 404.051 129.373 404.094 129.736C404.115 129.885 404.136 130.056 404.158 130.248C404.2 130.44 404.232 130.6 404.254 130.728V130.824C404.254 131.037 404.147 131.187 403.934 131.272C403.72 131.357 403.571 131.4 403.486 131.4C403.315 131.421 403.155 131.357 403.006 131.208C402.878 131.059 402.771 130.877 402.686 130.664C402.558 130.365 402.462 129.971 402.398 129.48C402.312 128.755 402.28 128.008 402.302 127.24C402.323 126.451 402.387 125.672 402.494 124.904ZM397.758 140.648C397.736 140.52 397.747 140.371 397.79 140.2C397.854 140.008 397.928 139.859 398.014 139.752C397.992 138.792 397.971 137.928 397.95 137.16C397.928 136.371 397.96 135.528 398.046 134.632C398.088 134.355 398.142 134.035 398.206 133.672C398.27 133.288 398.387 132.915 398.558 132.552C398.622 132.403 398.75 132.307 398.942 132.264C399.134 132.2 399.326 132.179 399.518 132.2C399.731 132.221 399.912 132.285 400.062 132.392C400.211 132.499 400.286 132.648 400.286 132.84C400.286 133.011 400.254 133.213 400.19 133.448C400.126 133.661 400.083 133.853 400.062 134.024C399.955 134.515 399.88 135.016 399.838 135.528C399.795 136.04 399.752 136.541 399.71 137.032C399.688 137.437 399.678 137.8 399.678 138.12C399.699 138.44 399.72 138.813 399.742 139.24C399.87 139.176 400.062 139.091 400.318 138.984C400.595 138.877 400.883 138.771 401.182 138.664C401.502 138.557 401.811 138.461 402.11 138.376C402.408 138.269 402.654 138.195 402.846 138.152C402.952 137.853 403.006 137.64 403.006 137.512C403.006 137.363 403.027 137.171 403.07 136.936C403.155 136.573 403.219 136.221 403.262 135.88C403.326 135.539 403.4 135.187 403.486 134.824C403.678 133.885 404.094 133.448 404.734 133.512C404.904 133.512 405.064 133.565 405.214 133.672C405.384 133.757 405.459 133.896 405.438 134.088V134.184C405.416 134.355 405.342 134.579 405.214 134.856C405.107 135.133 405.022 135.421 404.958 135.72C404.915 135.848 404.872 136.019 404.83 136.232C404.808 136.445 404.776 136.659 404.734 136.872C404.712 137.064 404.68 137.245 404.638 137.416C404.616 137.565 404.606 137.672 404.606 137.736C405.075 137.651 405.534 137.587 405.982 137.544C406.43 137.48 406.91 137.427 407.422 137.384C407.507 137.384 407.582 137.427 407.646 137.512C407.731 137.597 407.784 137.693 407.806 137.8C407.827 137.907 407.816 138.024 407.774 138.152C407.752 138.259 407.688 138.323 407.582 138.344C406.984 138.515 406.408 138.664 405.854 138.792C405.32 138.899 404.872 139.069 404.51 139.304C404.382 139.389 404.296 139.549 404.254 139.784C404.232 139.997 404.211 140.189 404.19 140.36C404.168 140.509 404.126 140.755 404.062 141.096C404.019 141.437 403.987 141.661 403.966 141.768L403.87 142.504L403.71 143.72C403.688 143.805 403.635 143.88 403.55 143.944C403.486 144.029 403.39 144.083 403.262 144.104C403.155 144.147 403.038 144.147 402.91 144.104C402.803 144.083 402.707 144.019 402.622 143.912C402.515 143.763 402.451 143.539 402.43 143.24C402.408 142.963 402.408 142.685 402.43 142.408C402.451 142.237 402.472 142.024 402.494 141.768C402.515 141.533 402.536 141.288 402.558 141.032C402.579 140.797 402.6 140.573 402.622 140.36C402.643 140.125 402.664 139.944 402.686 139.816C402.43 139.923 402.088 140.051 401.662 140.2C401.256 140.328 400.926 140.456 400.67 140.584C400.499 140.669 400.35 140.744 400.222 140.808C400.115 140.872 399.998 140.957 399.87 141.064C399.891 141.171 399.902 141.288 399.902 141.416C399.923 141.544 399.944 141.693 399.966 141.864C400.008 142.035 400.051 142.248 400.094 142.504C400.158 142.781 400.232 143.112 400.318 143.496C400.403 143.88 400.488 144.243 400.574 144.584C400.68 144.947 400.84 145.267 401.054 145.544C401.16 145.48 401.278 145.395 401.406 145.288C401.555 145.181 401.651 145.107 401.694 145.064C401.928 144.851 402.099 144.712 402.206 144.648C402.334 144.584 402.44 144.552 402.526 144.552C402.632 144.573 402.728 144.637 402.814 144.744C402.92 144.872 402.952 145.021 402.91 145.192C402.888 145.213 402.878 145.245 402.878 145.288C402.856 145.331 402.846 145.363 402.846 145.384C402.846 145.405 402.824 145.437 402.782 145.48C402.782 145.501 402.75 145.544 402.686 145.608C402.622 145.693 402.547 145.789 402.462 145.896C402.398 146.003 402.323 146.109 402.238 146.216C402.174 146.323 402.11 146.408 402.046 146.472C401.896 146.643 401.715 146.749 401.502 146.792C401.31 146.856 401.118 146.877 400.926 146.856C400.798 146.856 400.627 146.824 400.414 146.76C400.2 146.717 399.987 146.6 399.774 146.408C399.411 146.045 399.166 145.619 399.038 145.128C398.91 144.659 398.782 144.211 398.654 143.784C398.568 143.485 398.494 143.208 398.43 142.952C398.387 142.696 398.344 142.408 398.302 142.088C398.259 141.789 398.184 141.544 398.078 141.352C398.014 141.288 397.95 141.192 397.886 141.064C397.822 140.957 397.779 140.819 397.758 140.648ZM393.854 123.592C393.854 123.891 393.779 124.125 393.63 124.296C393.48 124.467 393.31 124.573 393.118 124.616C392.926 124.637 392.744 124.605 392.574 124.52C392.403 124.413 392.307 124.243 392.286 124.008C392.243 123.645 392.243 123.24 392.286 122.792C392.328 122.323 392.382 121.875 392.446 121.448C392.51 121.021 392.563 120.691 392.606 120.456C392.67 120.221 392.723 120.019 392.766 119.848C392.894 119.4 393.043 118.92 393.214 118.408C393.384 117.875 393.587 117.395 393.822 116.968C393.992 116.648 394.216 116.435 394.494 116.328C394.792 116.221 395.091 116.253 395.39 116.424C395.667 116.552 395.774 116.808 395.71 117.192C395.667 117.363 395.603 117.523 395.518 117.672C395.432 117.821 395.358 117.981 395.294 118.152C395.016 118.877 394.771 119.528 394.558 120.104C394.366 120.659 394.184 121.309 394.014 122.056C393.971 122.269 393.928 122.525 393.886 122.824C393.864 123.101 393.854 123.357 393.854 123.592ZM391.582 126.184C391.902 126.099 392.254 126.013 392.638 125.928C393.043 125.843 393.459 125.768 393.886 125.704C394.334 125.619 394.771 125.555 395.198 125.512C395.646 125.469 396.083 125.459 396.51 125.48C396.851 125.501 397.15 125.533 397.406 125.576C397.683 125.619 397.971 125.693 398.27 125.8C398.739 125.949 398.952 126.237 398.91 126.664C398.888 126.92 398.622 127.027 398.11 126.984C396.766 126.899 395.443 126.995 394.142 127.272C392.84 127.549 391.624 127.965 390.494 128.52C390.067 128.733 389.736 128.787 389.502 128.68C389.288 128.552 389.16 128.349 389.118 128.072C389.075 127.859 389.107 127.667 389.214 127.496C389.32 127.304 389.448 127.155 389.598 127.048C389.875 126.856 390.195 126.685 390.558 126.536C390.942 126.387 391.283 126.269 391.582 126.184ZM391.262 135.016C391.176 134.867 391.112 134.685 391.07 134.472C391.027 134.237 391.038 133.885 391.102 133.416C391.144 133.16 391.23 132.861 391.358 132.52C391.486 132.179 391.646 131.827 391.838 131.464C391.966 131.229 392.115 130.963 392.286 130.664C392.478 130.365 392.67 130.077 392.862 129.8C393.075 129.523 393.278 129.288 393.47 129.096C393.683 128.904 393.875 128.797 394.046 128.776C394.323 128.733 394.579 128.787 394.814 128.936C395.07 129.064 395.187 129.256 395.166 129.512C395.144 129.683 395.102 129.821 395.038 129.928C394.974 130.035 394.888 130.173 394.782 130.344C394.995 130.451 395.198 130.611 395.39 130.824C395.582 131.037 395.72 131.304 395.806 131.624C395.891 131.987 395.912 132.296 395.87 132.552C395.848 132.787 395.784 133.053 395.678 133.352C395.336 134.227 394.76 134.888 393.95 135.336C393.779 135.443 393.555 135.528 393.278 135.592C393 135.656 392.744 135.688 392.51 135.688C392.296 135.688 392.062 135.635 391.806 135.528C391.55 135.4 391.368 135.229 391.262 135.016ZM394.238 131.464C393.832 131.677 393.47 132.115 393.15 132.776C393.043 132.989 392.958 133.192 392.894 133.384C392.851 133.576 392.83 133.779 392.83 133.992C393.128 133.928 393.416 133.8 393.694 133.608C393.971 133.395 394.174 133.096 394.302 132.712C394.387 132.477 394.408 132.253 394.366 132.04C394.344 131.827 394.302 131.635 394.238 131.464ZM412.112 133.992C412.069 133.693 412.048 133.235 412.048 132.616C412.069 131.976 412.101 131.283 412.144 130.536C412.208 129.789 412.293 129.032 412.4 128.264C412.507 127.496 412.624 126.813 412.752 126.216C412.773 126.109 412.795 125.992 412.816 125.864C412.859 125.715 412.912 125.587 412.976 125.48C413.04 125.352 413.136 125.245 413.264 125.16C413.392 125.075 413.573 125.032 413.808 125.032C414 125.032 414.181 125.128 414.352 125.32C414.544 125.491 414.619 125.704 414.576 125.96C414.533 126.173 414.491 126.429 414.448 126.728C414.405 127.027 414.363 127.336 414.32 127.656C414.277 127.955 414.235 128.253 414.192 128.552C414.149 128.851 414.107 129.096 414.064 129.288C414.021 129.48 413.979 129.715 413.936 129.992C413.915 130.248 413.883 130.536 413.84 130.856C413.819 131.155 413.797 131.464 413.776 131.784C413.755 132.083 413.744 132.36 413.744 132.616C413.723 132.915 413.787 133.117 413.936 133.224C414.085 133.331 414.245 133.352 414.416 133.288C414.864 133.139 415.365 132.957 415.92 132.744C416.475 132.509 417.019 132.275 417.552 132.04C418.107 131.805 418.619 131.592 419.088 131.4C419.557 131.187 419.941 131.048 420.24 130.984C420.475 130.941 420.656 131.037 420.784 131.272C420.827 131.4 420.827 131.56 420.784 131.752C420.741 131.923 420.635 132.083 420.464 132.232C420.293 132.403 420.101 132.552 419.888 132.68C419.696 132.808 419.493 132.936 419.28 133.064C419.109 133.171 418.8 133.341 418.352 133.576C417.925 133.789 417.445 134.024 416.912 134.28C416.4 134.515 415.877 134.739 415.344 134.952C414.832 135.144 414.395 135.272 414.032 135.336C413.627 135.421 413.221 135.347 412.816 135.112C412.432 134.856 412.197 134.483 412.112 133.992ZM423.632 137.288C423.611 137.053 423.6 136.691 423.6 136.2C423.6 135.709 423.611 135.187 423.632 134.632C423.653 134.077 423.675 133.555 423.696 133.064C423.717 132.573 423.739 132.211 423.76 131.976C423.781 131.528 423.824 131.016 423.888 130.44C423.952 129.843 424.016 129.245 424.08 128.648C424.144 128.051 424.219 127.464 424.304 126.888C424.389 126.312 424.485 125.8 424.592 125.352C424.635 125.139 424.688 124.861 424.752 124.52C424.816 124.179 424.891 123.848 424.976 123.528C425.083 123.208 425.2 122.931 425.328 122.696C425.477 122.461 425.669 122.344 425.904 122.344C426.139 122.344 426.373 122.419 426.608 122.568C426.864 122.717 426.981 122.909 426.96 123.144C426.917 123.507 426.843 123.859 426.736 124.2C426.629 124.52 426.544 124.829 426.48 125.128C426.267 126.237 426.096 127.187 425.968 127.976C425.84 128.765 425.733 129.416 425.648 129.928C425.584 130.44 425.531 130.845 425.488 131.144C425.467 131.421 425.445 131.624 425.424 131.752C425.381 132.093 425.339 132.563 425.296 133.16C425.253 133.757 425.211 134.387 425.168 135.048C425.125 135.688 425.083 136.317 425.04 136.936C424.997 137.533 424.965 138.003 424.944 138.344C424.923 138.515 424.837 138.611 424.688 138.632C424.539 138.653 424.432 138.664 424.368 138.664C424.112 138.664 423.931 138.525 423.824 138.248C423.739 137.949 423.675 137.629 423.632 137.288ZM442.803 140.168C442.803 140.104 442.793 139.859 442.771 139.432C442.75 138.984 442.718 138.515 442.675 138.024C442.654 137.512 442.633 137.043 442.611 136.616C442.59 136.189 442.579 135.944 442.579 135.88C442.537 135.645 442.483 135.432 442.419 135.24C442.377 135.027 442.355 134.781 442.355 134.504C442.355 134.397 442.366 134.28 442.387 134.152C442.43 134.003 442.451 133.885 442.451 133.8C442.451 133.651 442.462 133.384 442.483 133C442.526 132.595 442.569 132.179 442.611 131.752C442.654 131.304 442.697 130.888 442.739 130.504C442.782 130.099 442.814 129.811 442.835 129.64C443.006 128.531 443.166 127.411 443.315 126.28C443.486 125.149 443.657 124.019 443.827 122.888C443.87 122.653 444.019 122.493 444.275 122.408C444.531 122.301 444.766 122.248 444.979 122.248C445.214 122.248 445.374 122.312 445.459 122.44C445.566 122.547 445.619 122.685 445.619 122.856C445.619 123.347 445.577 123.891 445.491 124.488C445.406 125.064 445.31 125.597 445.203 126.088C445.011 127.005 444.819 128.04 444.627 129.192C444.457 130.323 444.371 131.389 444.371 132.392V133.096C444.499 133.075 444.702 133.021 444.979 132.936C445.278 132.829 445.587 132.723 445.907 132.616C446.249 132.488 446.569 132.371 446.867 132.264C447.166 132.157 447.401 132.083 447.571 132.04C448.105 131.933 448.574 131.816 448.979 131.688C449.385 131.56 449.843 131.464 450.355 131.4C450.654 131.357 450.889 131.379 451.059 131.464C451.23 131.549 451.315 131.656 451.315 131.784C451.315 131.997 451.198 132.168 450.963 132.296C450.729 132.403 450.526 132.477 450.355 132.52C449.395 132.904 448.371 133.288 447.283 133.672C446.217 134.035 445.246 134.525 444.371 135.144C444.371 135.315 444.371 135.624 444.371 136.072C444.393 136.52 444.403 136.989 444.403 137.48C444.425 137.971 444.435 138.44 444.435 138.888C444.457 139.336 444.478 139.645 444.499 139.816C444.542 140.115 444.521 140.371 444.435 140.584C444.371 140.776 444.211 140.893 443.955 140.936C443.678 140.979 443.422 140.925 443.187 140.776C442.953 140.605 442.825 140.403 442.803 140.168ZM430.163 126.152C430.163 125.853 430.355 125.597 430.739 125.384C431.145 125.149 431.603 124.968 432.115 124.84C432.627 124.691 433.139 124.584 433.651 124.52C434.163 124.435 434.547 124.392 434.803 124.392C435.017 124.392 435.251 124.403 435.507 124.424C435.785 124.424 436.03 124.456 436.243 124.52C436.478 124.563 436.67 124.637 436.819 124.744C436.969 124.851 437.043 125 437.043 125.192C437.043 125.363 437.001 125.555 436.915 125.768C436.83 125.981 436.702 126.077 436.531 126.056C435.913 125.971 435.241 125.992 434.515 126.12C433.811 126.227 433.15 126.376 432.531 126.568C432.275 126.653 432.03 126.749 431.795 126.856C431.582 126.963 431.326 127.091 431.027 127.24C430.899 127.304 430.782 127.304 430.675 127.24C430.569 127.176 430.473 127.091 430.387 126.984C430.323 126.856 430.27 126.717 430.227 126.568C430.185 126.419 430.163 126.28 430.163 126.152ZM430.547 133.48C430.547 133.267 430.579 132.936 430.643 132.488C430.707 132.04 430.782 131.581 430.867 131.112C430.953 130.621 431.049 130.184 431.155 129.8C431.283 129.395 431.401 129.16 431.507 129.096C431.571 129.032 431.678 128.968 431.827 128.904C431.998 128.84 432.211 128.861 432.467 128.968C432.873 129.117 433.043 129.384 432.979 129.768C432.937 130.067 432.873 130.44 432.787 130.888C432.702 131.336 432.627 131.72 432.563 132.04C432.478 132.445 432.435 132.872 432.435 133.32C432.435 133.597 432.51 133.768 432.659 133.832C432.809 133.896 432.937 133.917 433.043 133.896C434.259 133.747 435.369 133.48 436.371 133.096C436.585 133.011 436.883 132.883 437.267 132.712C437.673 132.541 438.078 132.36 438.483 132.168C438.91 131.976 439.294 131.805 439.635 131.656C439.977 131.507 440.211 131.411 440.339 131.368C440.467 131.325 440.585 131.347 440.691 131.432C440.798 131.517 440.873 131.635 440.915 131.784C440.958 132.04 440.937 132.243 440.851 132.392C440.787 132.52 440.702 132.627 440.595 132.712C440.51 132.776 440.35 132.883 440.115 133.032C439.881 133.16 439.625 133.309 439.347 133.48C439.07 133.629 438.793 133.779 438.515 133.928C438.238 134.077 438.014 134.184 437.843 134.248C437.246 134.504 436.638 134.76 436.019 135.016C435.401 135.272 434.814 135.464 434.259 135.592C434.131 135.635 433.875 135.709 433.491 135.816C433.129 135.901 432.745 135.944 432.339 135.944C432.083 135.944 431.817 135.901 431.539 135.816C431.262 135.731 431.049 135.571 430.899 135.336C430.601 134.909 430.483 134.291 430.547 133.48ZM452.958 139.336C452.873 139.059 452.905 138.76 453.054 138.44C453.203 138.12 453.438 137.928 453.758 137.864C454.291 137.757 454.739 137.843 455.102 138.12C455.465 138.397 455.699 138.771 455.806 139.24C455.913 139.645 455.891 139.987 455.742 140.264C455.614 140.52 455.369 140.68 455.006 140.744C454.43 140.872 453.982 140.797 453.662 140.52C453.342 140.221 453.107 139.827 452.958 139.336Z" fill="#0283FD"/>
<path d="M12.318 105.095C12.723 105.41 12.543 106.13 12.183 106.94C11.958 107.525 11.688 107.975 11.688 108.74C11.688 109.415 11.913 110.09 12.588 109.955C14.253 109.595 14.748 111.125 14.613 112.25C14.433 113.69 13.128 114.14 12.138 114.005C10.563 113.825 9.70805 112.52 9.52805 110.855C9.39305 109.685 9.52805 108.065 10.113 106.895C10.968 105.14 11.868 104.735 12.318 105.095ZM5.56805 105.095C5.97305 105.41 5.79305 106.13 5.43305 106.94C5.20805 107.525 4.93805 107.975 4.93805 108.74C4.93805 109.415 5.16305 110.09 5.83805 109.955C7.50305 109.595 7.99805 111.125 7.86305 112.25C7.68305 113.69 6.37805 114.14 5.38805 114.005C3.81305 113.825 2.95805 112.52 2.77805 110.855C2.64305 109.685 2.77805 108.065 3.36305 106.895C4.21805 105.14 5.11805 104.735 5.56805 105.095Z" fill="#D4DCE5"/>
<path d="M508.028 113.78C507.623 113.465 507.803 112.745 508.163 111.935C508.388 111.35 508.658 110.9 508.658 110.135C508.658 109.46 508.433 108.785 507.758 108.92C506.093 109.28 505.598 107.75 505.733 106.625C505.913 105.185 507.218 104.735 508.208 104.87C509.783 105.05 510.638 106.355 510.818 108.02C510.953 109.19 510.818 110.81 510.233 111.98C509.378 113.735 508.478 114.14 508.028 113.78ZM514.778 113.78C514.373 113.465 514.553 112.745 514.913 111.935C515.138 111.35 515.408 110.9 515.408 110.135C515.408 109.46 515.183 108.785 514.508 108.92C512.843 109.28 512.348 107.75 512.483 106.625C512.663 105.185 513.968 104.735 514.958 104.87C516.533 105.05 517.388 106.355 517.568 108.02C517.703 109.19 517.568 110.81 516.983 111.98C516.128 113.735 515.228 114.14 514.778 113.78Z" fill="#D4DCE5"/>
<defs>
<filter id="filter0_f_8885_12234" x="125.8" y="0.799999" width="265.4" height="273.4" filterUnits="userSpaceOnUse" color-interpolation-filters="sRGB">
<feFlood flood-opacity="0" result="BackgroundImageFix"/>
<feBlend mode="normal" in="SourceGraphic" in2="BackgroundImageFix" result="shape"/>
<feGaussianBlur stdDeviation="26.1" result="effect1_foregroundBlur_8885_12234"/>
</filter>
</defs>
</svg>
