<svg width="805" height="122" viewBox="0 0 805 122" fill="none" xmlns="http://www.w3.org/2000/svg">
<rect width="805" height="95" rx="47.5" fill="#0283FD"/>
<path d="M123.328 38.5625V40.5625H109.391V38.5625H115.172V34.5938H117.609V38.5625H123.328ZM116.359 42.4375C119.859 42.4375 122.359 45.0625 122.391 48.75C122.359 52.4688 119.859 55.125 116.359 55.125C112.891 55.125 110.391 52.4688 110.391 48.75C110.391 45.0625 112.891 42.4375 116.359 42.4375ZM116.359 44.5C114.172 44.5312 112.578 46.3125 112.578 48.75C112.578 51.2188 114.172 53 116.359 52.9688C118.578 53 120.203 51.2188 120.203 48.75C120.203 46.3125 118.578 44.5312 116.359 44.5ZM133.109 33.75V61.5312H130.766V47.5H127.078V60.1562H124.766V34.4375H127.078V45.4688H130.766V33.75H133.109ZM160.547 33.75V48.7812H158.078V41.5312H153.672V39.5625H158.078V33.75H160.547ZM144.484 50.125V53.5938H158.109V50.125H160.547V61.1562H142.047V50.125H144.484ZM144.484 59.1562H158.109V55.625H144.484V59.1562ZM143.578 37.6875C143.578 39.7969 144.125 43.1562 146.297 45.4062C148.422 43.2031 148.953 39.9531 148.953 37.6875V35.125H151.266V37.6875C151.266 40.75 152.484 44.4062 155.703 46.2188L154.297 48C152.172 46.75 150.859 44.7188 150.172 42.4375C149.547 44.7344 148.375 46.9375 146.297 48.25C144.156 46.9062 142.969 44.6094 142.391 42.2812C141.656 44.5781 140.375 46.7344 138.266 48L136.891 46.2188C140.078 44.3125 141.234 40.4062 141.266 37.6875V35.125H143.578V37.6875ZM195.734 33.7812V54.0938H193.297V33.7812H195.734ZM196.609 58.875V60.9375H177.797V52.0312H180.234V58.875H196.609ZM180.734 35.7188C184.891 35.7188 188.016 38.5312 188.016 42.5312C188.016 46.5938 184.891 49.375 180.734 49.375C176.578 49.375 173.453 46.5938 173.453 42.5312C173.453 38.5312 176.578 35.7188 180.734 35.7188ZM180.734 37.875C177.922 37.875 175.828 39.8125 175.859 42.5312C175.828 45.3125 177.922 47.2188 180.734 47.2188C183.484 47.2188 185.609 45.3125 185.609 42.5312C185.609 39.8125 183.484 37.875 180.734 37.875ZM225.766 46.9688V49H200.453V46.9688H225.766ZM213.109 51.4375C219.078 51.4375 222.641 53.2812 222.672 56.4688C222.641 59.6875 219.078 61.4688 213.109 61.4688C207.109 61.4688 203.516 59.6875 203.516 56.4688C203.516 53.2812 207.109 51.4375 213.109 51.4375ZM213.109 53.375C208.641 53.4062 205.984 54.5 206.016 56.4688C205.984 58.4062 208.641 59.5 213.109 59.5C217.516 59.5 220.203 58.4062 220.203 56.4688C220.203 54.5 217.516 53.4062 213.109 53.375ZM223.516 35.1875V37.2188H214.703C214.797 40.375 219.422 42.7812 224.359 43.3438L223.453 45.3125C218.906 44.7344 214.641 42.7031 213.109 39.5938C211.594 42.7031 207.344 44.7344 202.766 45.3125L201.891 43.3438C206.734 42.7812 211.391 40.375 211.516 37.2188H202.766V35.1875H223.516ZM259.047 33.75V61.5938H256.578V33.75H259.047ZM240.203 36.125V43.4688H248.484V36.125H250.891V54.875H237.766V36.125H240.203ZM240.203 52.8125H248.484V45.4375H240.203V52.8125ZM289.109 47.5V49.5312H263.797V47.5H270.078V43.5938C267.859 42.7344 266.609 41.3125 266.609 39.4375C266.609 36.1562 270.359 34.2812 276.453 34.2812C282.484 34.2812 286.266 36.1562 286.266 39.4375C286.266 41.2969 285.031 42.7188 282.828 43.5625V47.5H289.109ZM276.453 51.6562C282.422 51.6562 285.984 53.375 286.016 56.5625C285.984 59.7188 282.422 61.4688 276.453 61.4688C270.422 61.4688 266.859 59.7188 266.859 56.5625C266.859 53.375 270.422 51.6562 276.453 51.6562ZM276.453 53.5312C271.984 53.5625 269.328 54.6562 269.359 56.5625C269.328 58.4375 271.984 59.5625 276.453 59.5625C280.859 59.5625 283.547 58.4375 283.547 56.5625C283.547 54.6562 280.859 53.5625 276.453 53.5312ZM276.453 36.2188C271.922 36.2188 269.109 37.4375 269.141 39.4375C269.109 41.4688 271.922 42.6562 276.453 42.6562C280.953 42.6562 283.766 41.4688 283.766 39.4375C283.766 37.4375 280.953 36.2188 276.453 36.2188ZM272.516 47.5H280.391V44.25C279.219 44.4531 277.906 44.5625 276.453 44.5625C275 44.5625 273.688 44.4531 272.516 44.25V47.5ZM315.266 33.75V61.5312H312.891V33.75H315.266ZM309.672 34.3438V60.125H307.328V46.625H303.766C303.5 52.0312 301.203 55.4062 297.766 55.4062C294.141 55.4062 291.797 51.6562 291.797 45.75C291.797 39.8438 294.141 36.0938 297.766 36.0938C301.141 36.0938 303.422 39.3594 303.734 44.5938H307.328V34.3438H309.672ZM297.766 38.4062C295.516 38.4062 294.078 41.2188 294.109 45.75C294.078 50.25 295.516 53.0938 297.766 53.0625C300.016 53.0938 301.453 50.25 301.453 45.75C301.453 41.2188 300.016 38.4062 297.766 38.4062ZM349.703 51.875V61.5625H329.859V51.875H337.797V49.2812H326.859V46.0625H352.797V49.2812H341.797V51.875H349.703ZM333.797 55.0312V58.375H345.797V55.0312H333.797ZM341.891 34.6562C341.891 37.5938 345.172 40.8438 351.516 41.5625L350.109 44.6562C345.203 44.0312 341.656 42 339.828 39.2188C338 42 334.438 44.0312 329.578 44.6562L328.141 41.5625C334.484 40.8125 337.766 37.6562 337.797 34.6562V33.7188H341.891V34.6562ZM369.078 36.4062C369.078 37.8906 368.969 39.3438 368.766 40.75H374.516V33.4062H378.484V61.875H374.516V51.6562H367.641V48.4688H374.516V43.9062H368.078C366.484 49.1875 362.938 53.6875 356.266 56.9688L354.203 53.8125C361.016 50.3438 364.359 45.8281 365.016 39.5312H355.578V36.4062H369.078ZM393.266 39.0625C393.266 42.4688 395.359 45.9375 400.047 47.3438L398.016 50.4688C394.828 49.4688 392.578 47.4219 391.297 44.8438C390 47.6406 387.688 49.8906 384.359 51L382.297 47.875C387.016 46.3438 389.203 42.6562 389.203 39.0625V38.6562H383.359V35.4688H398.984V38.6562H393.266V39.0625ZM405.984 33.4688V54.0312H401.984V33.4688H405.984ZM406.734 58.1875V61.375H386.922V52.1562H390.953V58.1875H406.734ZM440.141 34.7188V37C440.141 39.2188 440.141 41.6875 439.484 44.9375H443.234V48.1562H417.203V44.9375H435.453C436.078 42.0938 436.156 39.8906 436.172 37.9062H420.391V34.7188H440.141ZM440.047 51.1562V61.5625H420.297V51.1562H440.047ZM424.203 54.2812V58.375H436.078V54.2812H424.203ZM451.516 35.1562C455.297 35.1562 458.078 38.0312 458.109 42.0938C458.078 46.2188 455.297 49 451.516 49C447.734 49 444.984 46.2188 444.984 42.0938C444.984 38.0312 447.734 35.1562 451.516 35.1562ZM451.516 38.5312C449.766 38.5312 448.547 39.8438 448.547 42.0938C448.547 44.3438 449.766 45.6875 451.516 45.6875C453.234 45.6875 454.453 44.3438 454.484 42.0938C454.453 39.8438 453.234 38.5312 451.516 38.5312ZM469.297 33.4688V50.4375H465.516V43.5312H463.172V50.2812H459.484V33.9688H463.172V40.3438H465.516V33.4688H469.297ZM469.297 51.6875V61.875H465.328V54.875H449.641V51.6875H469.297ZM485.453 34.25C491.641 34.25 495.266 35.9375 495.266 39.0312C495.266 42.1875 491.641 43.875 485.453 43.9062C479.266 43.875 475.609 42.1875 475.609 39.0312C475.609 35.9375 479.266 34.25 485.453 34.25ZM485.453 36.0938C480.828 36.0938 478.141 37.2188 478.172 39.0312C478.141 40.9688 480.828 42.0312 485.453 42.0312C490.047 42.0312 492.766 40.9688 492.766 39.0312C492.766 37.2188 490.047 36.0938 485.453 36.0938ZM498.109 45.7812V47.7812H472.797V45.7812H498.109ZM494.859 50.1875V56.4062H478.359V59.2812H495.703V61.2188H475.922V54.5938H492.453V52.0625H475.859V50.1875H494.859ZM530.203 33.75V39.7812H534.391V41.8438H530.203V47.9062H527.766V33.75H530.203ZM530.203 49.2188V56H514.953V59.1875H531.234V61.1562H512.547V54.125H527.766V51.1875H512.484V49.2188H530.203ZM516.234 34.7812C520.422 34.8125 523.453 37.3125 523.453 40.9375C523.453 44.5938 520.422 47.125 516.234 47.125C512.078 47.125 508.984 44.5938 509.016 40.9375C508.984 37.3125 512.078 34.8125 516.234 34.7812ZM516.234 36.8438C513.453 36.8125 511.391 38.5312 511.422 40.9375C511.391 43.375 513.453 45.125 516.234 45.125C519.016 45.125 521.047 43.375 521.047 40.9375C521.047 38.5312 519.016 36.8125 516.234 36.8438ZM558.422 36.5625V39.3438C558.391 42.75 558.391 46.5625 557.391 52.1562L554.891 51.875C555.953 46.5625 555.953 42.6562 555.953 39.3438V38.5938H538.828V36.5625H558.422ZM561.453 55.5625V57.5938H536.141V55.5625H546.078V45.625H548.484V55.5625H561.453ZM595.609 33.75V61.5312H593.266V33.75H595.609ZM589.984 34.5V60.125H587.641V50.5H582.484V48.4688H587.641V43.5312H582.953C581.594 48.2344 578.547 52.3906 573.297 55.5312L571.797 53.75C577.844 50.1719 580.875 45.1562 581.359 39.3438H573.047V37.3125H583.797C583.797 38.7344 583.672 40.1406 583.422 41.5H587.641V34.5H589.984ZM622.422 33.7812V54.1562H619.984V33.7812H622.422ZM623.297 58.875V60.9375H604.484V52.2812H606.922V58.875H623.297ZM609.328 38.125C609.297 42.3438 612.203 46.1562 616.328 47.6562L615.047 49.625C611.828 48.3906 609.328 45.8906 608.109 42.6875C606.875 46.0938 604.344 48.8281 601.109 50.125L599.766 48.2188C603.984 46.5938 606.828 42.5 606.828 38.125V35.3438H609.328V38.125ZM648.641 33.75V45.0625H653.141V47.125H648.641V61.5312H646.203V33.75H648.641ZM641.453 36.75C641.453 44.625 637.766 51.7812 628.703 56.25L627.328 54.3125C634.516 50.7344 638.422 45.3906 638.984 38.8125H628.609V36.75H641.453ZM680.234 55.9062V57.9688H654.797V55.9062H661.109V48.4062C658.734 47.1719 657.297 45.1719 657.297 42.6562C657.297 38.3438 661.516 35.5312 667.453 35.5C673.391 35.5312 677.609 38.3438 677.609 42.6562C677.609 45.125 676.219 47.1094 673.922 48.3438V55.9062H680.234ZM667.453 37.5312C662.891 37.5 659.672 39.5625 659.672 42.6562C659.672 45.75 662.891 47.8438 667.453 47.8438C671.984 47.8438 675.234 45.75 675.234 42.6562C675.234 39.5625 671.984 37.5 667.453 37.5312ZM663.516 55.9062H671.453V49.2812C670.25 49.6094 668.906 49.7812 667.453 49.7812C666.031 49.7812 664.703 49.625 663.516 49.3125V55.9062ZM686.891 52.4688C686.922 48.2812 688.203 47 690.359 45.6875C691.641 44.9062 692.641 43.6562 692.641 41.9062C692.641 39.7812 690.984 38.4375 688.922 38.4375C687.141 38.4375 685.359 39.5 685.172 42.0625H682.328C682.484 38.2812 685.359 36.0625 688.922 36.0625C692.828 36.0625 695.391 38.5938 695.391 42.0312C695.391 44.4688 694.234 46.1875 692.297 47.375C690.359 48.5625 689.641 49.75 689.578 52.4688V52.625H686.891V52.4688ZM688.328 59.1875C687.234 59.1875 686.297 58.2812 686.328 57.1562C686.297 56.0625 687.234 55.1562 688.328 55.1562C689.422 55.1562 690.328 56.0625 690.328 57.1562C690.328 58.2812 689.422 59.1875 688.328 59.1875Z" fill="white"/>
<path d="M37 121.5C46 117 53.5 97 47.5 86H84C83.6 107.2 49 120.5 37 121.5Z" fill="#0283FD"/>
</svg>
