<svg width="1031" height="444" viewBox="0 0 1031 444" fill="none" xmlns="http://www.w3.org/2000/svg">
<rect width="505" height="309" rx="60" fill="#F1F4F9"/>
<rect x="523" width="508" height="309" rx="60" fill="#F1F4F9"/>
<rect x="147" y="116" width="212" height="69" rx="34.5" fill="#0283FD"/>
<path d="M233.252 142.639V154.434H231.037V151.094H227.381V149.301H231.037V147.508H227.609C226.467 149.942 224.146 151.744 220.93 152.711L219.998 150.971C223.408 149.89 225.553 147.991 225.957 145.627H220.859V143.834H228.4C228.4 144.484 228.33 145.117 228.207 145.715H231.037V142.639H233.252ZM233.674 156.543V158.336H222.723V153.256H225.008V156.543H233.674ZM244.572 143.518V145.293H241.391C241.408 147.183 242.533 149.116 245.064 149.951L243.957 151.674C242.182 151.111 240.969 149.951 240.283 148.51C239.562 150.109 238.288 151.401 236.398 152.008L235.256 150.232C237.884 149.389 239.079 147.288 239.105 145.293H235.889V143.518H244.572ZM248.826 152.852V158.617H246.594V154.645H237.84V152.852H248.826ZM248.826 142.621V152.148H246.594V148.299H244.115V146.471H246.594V142.621H248.826ZM267.74 142.621V146.26H269.902V148.105H267.74V151.955H265.49V142.621H267.74ZM257.756 143.553V145.592H261.025V143.553H263.275V151.164H255.523V143.553H257.756ZM257.756 149.406H261.025V147.332H257.756V149.406ZM267.828 152.676V154.451H259.514V156.648H268.127V158.406H257.281V152.676H267.828ZM284.053 142.621V158.617H281.785V142.621H284.053ZM279.254 144.291C279.254 149.143 277.549 153.168 271.836 155.875L270.658 154.082C274.789 152.131 276.608 149.6 276.969 146.049H271.52V144.291H279.254Z" fill="white"/>
<path d="M353 189.311L318.386 157.482L318.363 204.505L328.867 194.455L335.036 208.518L344.661 204.296L338.492 190.233L353 189.311Z" fill="white"/>
<path d="M353 189.311L318.386 157.482L318.363 204.505L328.867 194.455L335.036 208.518L344.661 204.296L338.492 190.233L353 189.311ZM340.722 202.759L336.573 204.579L329.888 189.34L321.357 197.503L321.373 164.291L345.821 186.771L334.037 187.52L340.722 202.759Z" fill="black"/>
<g filter="url(#filter0_d_8890_12767)">
<rect x="587" y="99.8984" width="141" height="187" rx="15" transform="rotate(-18.9971 587 99.8984)" fill="url(#paint0_linear_8890_12767)"/>
<path d="M636.17 119.699L636.715 121.284L629.808 123.662L629.263 122.077L631.743 121.223L631.127 119.433L633.105 118.752L633.721 120.542L636.17 119.699ZM633.515 123.106C635.336 122.479 637.125 123.443 637.822 125.416C638.492 127.415 637.676 129.276 635.855 129.903C634.034 130.53 632.213 129.576 631.527 127.583C630.846 125.605 631.694 123.733 633.515 123.106ZM634.088 124.77C633.256 125.056 632.912 125.894 633.285 126.977C633.658 128.061 634.439 128.494 635.271 128.207C636.072 127.932 636.421 127.109 636.064 126.021C635.675 124.943 634.888 124.494 634.088 124.77ZM640.881 115.636L645.799 129.921L643.899 130.575L641.532 123.699L640.371 124.099L642.527 130.362L640.659 131.005L636.049 117.616L637.917 116.972L639.82 122.498L640.981 122.098L638.982 116.29L640.881 115.636ZM654.71 110.875L657.38 118.63L655.371 119.321L654.139 115.742L652.443 116.326L651.892 114.725L653.587 114.141L652.701 111.567L654.71 110.875ZM649.679 121.965L650.139 123.3L656.057 121.262L655.597 119.928L657.591 119.242L659.574 125.003L649.669 128.413L647.686 122.652L649.679 121.965ZM651.106 126.11L657.024 124.072L656.602 122.848L650.685 124.885L651.106 126.11ZM646.599 115.212C647.026 116.453 647.704 117.861 648.928 118.712C649.327 117.32 648.986 115.822 648.546 114.542L648.292 113.805L650.176 113.156L650.43 113.894C651.051 115.699 652.133 117.363 654.154 117.826L653.547 119.633C652.371 119.38 651.453 118.677 650.735 117.739C650.755 118.97 650.504 120.154 649.734 121.104C648.521 120.819 647.589 120.025 646.857 119.022C646.869 120.229 646.579 121.374 645.808 122.297L644.233 121.242C645.525 119.638 645.305 117.572 644.716 115.861L644.462 115.123L646.346 114.475L646.599 115.212ZM672.061 104.919L675.65 115.342L673.656 116.029L671.894 110.911L669.556 111.716L668.999 110.1L671.338 109.294L670.068 105.605L672.061 104.919ZM676.681 117.217L677.233 118.818L667.406 122.201L665.855 117.696L667.864 117.004L668.864 119.908L676.681 117.217ZM666.383 109.999C666.951 111.647 668.566 113.075 671.096 113.03L670.653 114.955C668.892 114.991 667.449 114.32 666.373 113.233C666.242 114.894 665.499 116.431 664.006 117.578L662.424 116.296C664.524 114.748 664.948 112.512 664.337 110.686L664.262 110.466L661.389 111.455L660.838 109.854L668.592 107.185L669.143 108.786L666.302 109.764L666.383 109.999ZM689.4 106.833L689.946 108.419L684.562 110.272L685.41 112.737L683.433 113.418L682.584 110.953L676.87 112.92L676.324 111.335L689.4 106.833ZM685.505 100.976L687.315 106.234L677.552 109.596L675.741 104.337L685.505 100.976ZM678.238 105.216L678.979 107.366L684.818 105.356L684.078 103.205L678.238 105.216ZM689.804 112.699L690.356 114.3L680.262 117.775L678.83 113.615L680.824 112.929L681.705 115.488L689.804 112.699ZM699.071 95.6029L700.957 101.081L702.982 100.384L703.55 102.032L701.525 102.73L703.978 109.856L701.969 110.548L697.062 96.2947L699.071 95.6029ZM695.759 98.376C697.213 102.651 696.825 106.928 692.832 110.937L691.172 109.788C693.971 106.928 695.001 104.027 694.281 100.711L689.524 102.349L688.962 100.716L695.759 98.376ZM647.423 134.536L652.341 148.821L650.426 149.48L645.508 135.195L647.423 134.536ZM644.573 135.745L649.194 149.166L647.31 149.815L645.786 145.388L644.107 145.967C644.051 147.54 643.39 148.654 642.189 149.067C640.306 149.716 638.4 148.159 637.292 144.941C636.19 141.739 636.739 139.355 638.623 138.707C639.816 138.296 641.017 138.752 642.031 139.939L643.711 139.361L642.69 136.394L644.573 135.745ZM639.271 140.591C638.439 140.877 638.346 142.138 639.113 144.315C639.854 146.518 640.698 147.439 641.525 147.136C642.362 146.866 642.491 145.61 641.735 143.412C640.984 141.23 640.087 140.31 639.271 140.591ZM642.975 141.405C643.189 141.823 643.383 142.283 643.556 142.785C643.726 143.28 643.857 143.761 643.942 144.215L645.23 143.771L644.262 140.962L642.975 141.405ZM654.914 134.468C655.509 136.194 657.086 137.513 659.59 137.441L659.057 139.362C657.369 139.381 655.975 138.773 654.93 137.728C654.807 139.386 654.09 140.897 652.647 142.008L651.023 140.811C653.133 139.189 653.5 136.939 652.84 134.971L652.391 133.668L654.401 132.976L654.914 134.468ZM660.263 130.115L661.414 133.459L663.345 132.794L663.918 134.458L661.987 135.123L663.182 138.592L661.172 139.284L658.254 130.807L660.263 130.115ZM658.601 140.485C661.552 139.469 663.771 139.846 664.371 141.589C664.976 143.347 663.454 144.994 660.503 146.01C657.489 147.048 655.26 146.692 654.655 144.934C654.055 143.191 655.587 141.523 658.601 140.485ZM659.141 142.055C657.258 142.703 656.378 143.463 656.664 144.242C656.929 145.064 658.079 145.089 659.963 144.441C661.815 143.803 662.674 143.086 662.393 142.27C662.123 141.485 660.994 141.417 659.141 142.055ZM678.556 123.835L682.182 134.368L680.204 135.049L679.178 132.067L675.913 133.191L675.361 131.59L678.626 130.465L678.075 128.864L675.014 129.918C674.742 132.444 673.224 134.766 670.649 136.618L669.282 135.351C671.995 133.337 673.326 130.982 672.96 128.747L668.408 130.314L667.857 128.713L674.591 126.394C674.791 126.975 674.923 127.562 674.997 128.133L677.524 127.263L676.578 124.516L678.556 123.835ZM683.208 136.122L683.759 137.723L673.979 141.09L672.417 136.554L674.458 135.851L675.469 138.786L683.208 136.122ZM688.935 121.14L689.481 122.725L686.64 123.703C687.237 125.386 688.836 126.766 691.353 126.734L690.894 128.613C689.135 128.656 687.695 127.993 686.64 126.917C686.488 128.567 685.747 130.112 684.246 131.235L682.68 130C684.768 128.439 685.189 126.196 684.599 124.406L681.727 125.395L681.181 123.81L688.935 121.14ZM695.604 128.167L697.376 133.316L695.383 134.002L694.161 130.455L686.344 133.146L685.793 131.545L695.604 128.167ZM692.459 119.031L695.388 127.539L693.394 128.226L692.211 124.788L689.997 125.55L689.435 123.918L691.648 123.156L690.465 119.718L692.459 119.031ZM700.824 119.768C701.748 122.453 703.728 124.686 706.471 124.9L705.798 126.923C703.945 126.692 702.396 125.636 701.202 124.08C701.217 126.164 700.646 128.073 699.291 129.444L697.474 128.244C699.544 126.302 699.707 123.155 698.799 120.466L698.064 118.331L700.089 117.634L700.824 119.768ZM706.366 114.243L711.295 128.559L709.317 129.24L706.491 121.031L703.681 121.998L703.124 120.381L705.934 119.414L704.389 114.924L706.366 114.243Z" fill="#22272B"/>
<g clip-path="url(#clip0_8890_12767)">
<path d="M688.144 208.725L689.39 188.372L682.62 187.957L681.184 211.407C681.124 212.395 682.241 213.007 683.041 212.425L687.352 209.286C687.48 209.193 687.613 209.132 687.76 209.097L688.144 208.725Z" fill="#FFE07D"/>
<path d="M689.03 188.35L687.76 209.097C688.135 209.004 688.544 209.1 688.84 209.377L692.737 213.018C693.46 213.694 694.643 213.223 694.704 212.235L696.139 188.785L689.03 188.35Z" fill="#FFD064"/>
<path d="M695.449 186.063L689.972 190.908L705.539 208.504C706.195 209.246 707.418 208.889 707.572 207.911L708.4 202.643C708.426 202.481 708.484 202.33 708.568 202.198L708.895 201.268L695.449 186.063Z" fill="#FFE07D"/>
<path d="M715.683 199.53L700.116 181.934L694.8 186.636L708.568 202.199C708.77 201.88 709.119 201.669 709.516 201.655L714.846 201.475C715.835 201.441 716.339 200.271 715.683 199.53Z" fill="#FFD064"/>
<path d="M684.518 158.112C685.65 158.511 686.906 158.325 687.874 157.616C689.236 156.617 691.105 156.689 692.386 157.787C693.298 158.569 694.536 158.849 695.695 158.537C697.325 158.098 699.042 158.84 699.84 160.327C700.408 161.385 701.461 162.094 702.655 162.221C704.333 162.401 705.667 163.713 705.873 165.388C706.021 166.579 706.747 167.621 707.813 168.171C709.314 168.945 710.083 170.65 709.671 172.287C709.378 173.451 709.679 174.684 710.475 175.583C711.594 176.846 711.696 178.714 710.72 180.091C710.026 181.071 709.861 182.33 710.279 183.455C710.866 185.037 710.286 186.816 708.879 187.748C707.878 188.41 707.269 189.525 707.252 190.725C707.228 192.413 706.045 193.862 704.396 194.222C703.223 194.479 702.253 195.298 701.804 196.411C701.172 197.976 699.545 198.899 697.877 198.64C696.691 198.456 695.491 198.869 694.669 199.744C693.515 200.976 691.664 201.249 690.203 200.405C689.163 199.804 687.895 199.756 686.813 200.276C685.291 201.007 683.467 200.593 682.409 199.278C681.657 198.342 680.491 197.839 679.294 197.933C677.612 198.065 676.06 197.02 675.549 195.412C675.185 194.268 674.28 193.377 673.13 193.032C671.513 192.548 670.444 191.013 670.548 189.328C670.622 188.13 670.1 186.973 669.152 186.236C667.82 185.2 667.377 183.382 668.083 181.849C668.585 180.759 668.516 179.491 667.899 178.462C667.03 177.014 667.274 175.159 668.486 173.985C669.348 173.15 669.742 171.942 669.538 170.759C669.251 169.096 670.148 167.454 671.703 166.797C672.808 166.329 673.611 165.346 673.849 164.169C674.182 162.515 675.612 161.308 677.299 161.257C678.498 161.22 679.603 160.593 680.249 159.581C681.158 158.159 682.926 157.55 684.518 158.112Z" fill="#E8AE4D"/>
<path d="M698.639 175.62C696.228 168.618 689.664 164.227 682.649 164.251C675.197 167.621 671.401 176.175 674.116 184.062C676.832 191.95 685.089 196.355 693.036 194.422C698.579 190.124 701.049 182.622 698.639 175.62Z" fill="#FFE07D"/>
<path d="M684.052 163.694C682.892 164.094 681.808 164.613 680.808 165.234C688.08 164.446 695.19 168.745 697.671 175.953C700.153 183.162 697.196 190.926 690.98 194.782C692.151 194.655 693.325 194.397 694.485 193.998C702.853 191.117 707.301 181.998 704.42 173.63C701.539 165.262 692.42 160.814 684.052 163.694Z" fill="#FFD064"/>
<path d="M691.688 184.518L698.129 186.238C698.382 186.305 698.617 186.247 698.794 186.118C698.893 185.803 698.982 185.485 699.062 185.164C699.041 185.116 699.014 185.068 698.981 185.021L695.163 179.556C694.978 179.292 694.972 178.943 695.147 178.673L698.065 174.172C697.749 173.471 697.39 172.8 696.992 172.162L691.502 173.835C691.194 173.929 690.86 173.827 690.658 173.577L686.457 168.399C685.992 167.827 685.066 168.145 685.053 168.883L684.929 175.549C684.923 175.87 684.723 176.156 684.423 176.272L678.201 178.667C677.513 178.931 677.53 179.911 678.227 180.152L684.528 182.329C684.832 182.434 685.043 182.713 685.06 183.034L685.415 189.691C685.454 190.428 686.391 190.714 686.835 190.126L690.853 184.805C691.047 184.549 691.377 184.435 691.688 184.518Z" fill="#E8AE4D"/>
<path d="M698.129 186.237C698.842 186.428 699.404 185.625 698.981 185.021L698.289 184.03C698.158 184.746 697.979 185.45 697.754 186.137L698.129 186.237Z" fill="#E5A32E"/>
<path d="M697.879 171.892L695.98 172.47C696.53 173.321 697.004 174.236 697.393 175.208L698.773 173.078C699.174 172.459 698.585 171.677 697.879 171.892Z" fill="#E5A32E"/>
</g>
</g>
<g filter="url(#filter1_d_8890_12767)">
<rect x="719" y="49" width="141" height="187" rx="15" fill="url(#paint1_linear_8890_12767)"/>
<path d="M782.044 83.7275V85.4043H774.739V83.7275H777.362V81.835H779.454V83.7275H782.044ZM778.425 86.085C780.351 86.085 781.729 87.5791 781.745 89.6709C781.729 91.7793 780.351 93.2734 778.425 93.2734C776.499 93.2734 775.088 91.7793 775.088 89.6709C775.088 87.5791 776.499 86.085 778.425 86.085ZM778.425 87.8447C777.545 87.8447 776.947 88.5254 776.947 89.6709C776.947 90.8164 777.545 91.4805 778.425 91.4805C779.271 91.4805 779.869 90.8164 779.886 89.6709C779.869 88.5254 779.271 87.8447 778.425 87.8447ZM787.821 81.4199V96.5273H785.812V89.2559H784.584V95.8799H782.608V81.7188H784.584V87.5625H785.812V81.4199H787.821ZM802.447 81.4199V89.6211H800.322V85.8359H798.529V84.1426H800.322V81.4199H802.447ZM794.08 90.2686V91.6797H800.339V90.2686H802.447V96.3613H791.972V90.2686H794.08ZM794.08 94.6514H800.339V93.3564H794.08V94.6514ZM793.366 82.8809C793.366 84.1924 793.549 85.7446 794.429 86.9482C795.259 85.7612 795.425 84.2339 795.425 82.8809V82.1006H797.417V82.8809C797.417 84.79 797.898 86.7158 799.658 87.8115L798.496 89.3223C797.467 88.6997 796.828 87.7368 796.454 86.6162C796.072 87.7866 795.45 88.8242 794.412 89.4717C793.358 88.8076 792.735 87.7534 792.37 86.5664C791.988 87.7119 791.341 88.6997 790.312 89.3223L789.166 87.8115C790.909 86.7158 791.374 84.6904 791.374 82.8809V82.1006H793.366V82.8809ZM756.635 104.84C756.635 107.612 757.897 110.401 760.454 111.48L759.208 113.174C757.482 112.394 756.287 110.891 755.606 109.023C754.917 111.057 753.68 112.701 751.837 113.539L750.559 111.779C753.199 110.667 754.477 107.778 754.494 104.84V102.582H756.635V104.84ZM763.409 101.42V116.561H761.267V101.42H763.409ZM772.257 110.833C775.561 110.833 777.636 111.879 777.653 113.688C777.636 115.465 775.561 116.527 772.257 116.527C768.987 116.527 766.878 115.465 766.878 113.688C766.878 111.879 768.987 110.833 772.257 110.833ZM772.257 112.41C770.182 112.41 768.987 112.842 768.987 113.688C768.987 114.502 770.182 114.917 772.257 114.917C774.333 114.917 775.544 114.502 775.544 113.688C775.544 112.842 774.333 112.41 772.257 112.41ZM777.57 102.101V103.329C777.57 104.524 777.57 105.819 777.138 107.38L775.063 107.181C775.395 105.811 775.437 104.79 775.461 103.761H767.028V102.101H777.57ZM779.197 108.16V109.87H765.484V108.16H770.63V105.521H772.722V108.16H779.197ZM796.778 101.437V112.576H794.686V109.422H791.233V107.729H794.686V106.035H791.449C790.37 108.334 788.178 110.036 785.14 110.949L784.26 109.306C787.481 108.285 789.506 106.492 789.888 104.259H785.074V102.565H792.196C792.196 103.18 792.129 103.777 792.013 104.342H794.686V101.437H796.778ZM797.176 114.568V116.262H786.833V111.464H788.992V114.568H797.176ZM807.469 102.267V103.943H804.464C804.481 105.728 805.543 107.554 807.934 108.343L806.888 109.97C805.211 109.438 804.066 108.343 803.418 106.981C802.738 108.492 801.534 109.712 799.75 110.285L798.67 108.608C801.152 107.812 802.281 105.828 802.306 103.943H799.268V102.267H807.469ZM811.487 111.082V116.527H809.378V112.775H801.111V111.082H811.487ZM811.487 101.42V110.418H809.378V106.782H807.038V105.056H809.378V101.42H811.487ZM819.157 104.84C819.157 107.679 820.302 110.435 822.826 111.53L821.531 113.224C819.854 112.402 818.733 110.899 818.111 109.04C817.447 111.016 816.285 112.634 814.558 113.489L813.23 111.763C815.82 110.601 816.999 107.679 817.015 104.84V102.582H819.157V104.84ZM826.196 101.42V116.561H824.104V107.878H821.132V106.168H824.104V101.42H826.196Z" fill="#22272B"/>
<rect x="767.6" y="130.141" width="43" height="7" rx="1" fill="#D4DCE5"/>
<rect x="745.6" y="147.141" width="87" height="2" rx="1" fill="#D4DCE5"/>
<rect x="745.6" y="156.141" width="87" height="2" rx="1" fill="#D4DCE5"/>
<rect x="770.6" y="165.141" width="37" height="2" rx="1" fill="#D4DCE5"/>
<path d="M801.335 196.974H787.666C787.951 195.747 788.154 194.476 788.282 193.183C789.445 192.878 790.593 193.72 790.557 194.821C790.481 195.163 790.442 195.386 790.439 195.405C790.393 195.669 790.557 195.924 790.817 195.99C791.076 196.057 791.343 195.913 791.43 195.66C791.509 195.43 791.561 195.2 791.578 194.946C791.922 193.418 792.602 191.519 793.297 191.292C793.363 191.271 793.562 191.206 793.936 191.562C794.461 192.027 795.314 193.721 797.589 193.915C798.692 194.008 799.77 193.683 800.625 192.999C800.846 192.822 800.882 192.499 800.705 192.278C800.528 192.057 800.205 192.021 799.983 192.198C797.224 194.405 794.92 191.085 794.664 190.838C793.98 190.176 793.37 190.189 792.979 190.316C792.199 190.57 791.555 191.499 791.009 193.156C790.383 192.376 789.384 191.98 788.37 192.12C788.606 188.574 788.292 181.316 785.176 181.009C782.334 180.729 779.736 187.087 778.696 189.746C778.593 190.01 778.723 190.308 778.987 190.411C779.251 190.514 779.549 190.384 779.652 190.12C780.404 188.197 783.038 181.83 785.075 182.031C787.36 182.256 787.548 189.533 787.32 192.429C785.008 193.326 783.223 195.047 782.009 196.974H778.144C777.292 196.974 776.6 197.667 776.6 198.518C776.6 199.369 777.292 200.062 778.144 200.062H780.584C780.438 200.538 780.326 201.007 780.249 201.461C779.962 203.161 780.217 204.451 780.949 205C782.509 206.17 785.316 203.58 786.717 200.062H801.335C802.186 200.062 802.879 199.369 802.879 198.518C802.879 197.667 802.186 196.974 801.335 196.974ZM787.207 193.59C787.067 194.799 786.867 195.918 786.611 196.974H783.235C784.225 195.578 785.557 194.347 787.207 193.59ZM786.338 198.001C786.234 198.359 786.123 198.704 786.006 199.035H782.062C782.217 198.688 782.391 198.342 782.584 198.001H786.338ZM778.144 199.035C777.858 199.035 777.626 198.803 777.626 198.518C777.626 198.233 777.858 198.001 778.144 198.001H781.425C781.249 198.344 781.091 198.69 780.95 199.035H778.144ZM781.565 204.179C781.241 203.935 781.021 203.054 781.261 201.631C781.347 201.124 781.48 200.596 781.66 200.062H785.608C784.209 203.327 782.101 204.581 781.565 204.179ZM801.335 199.035H787.09C787.201 198.701 787.306 198.356 787.405 198.001H801.335C801.62 198.001 801.852 198.233 801.852 198.518C801.852 198.803 801.62 199.035 801.335 199.035Z" fill="#687481"/>
<path d="M777.832 195.794C778.032 195.994 778.357 195.994 778.558 195.794L778.924 195.428L779.29 195.794C779.49 195.994 779.815 195.994 780.015 195.794C780.216 195.593 780.216 195.268 780.015 195.068L779.65 194.702L780.015 194.336C780.216 194.136 780.216 193.811 780.015 193.61C779.815 193.41 779.49 193.41 779.29 193.61L778.924 193.976L778.558 193.61C778.357 193.41 778.032 193.41 777.832 193.61C777.632 193.811 777.632 194.136 777.832 194.336L778.198 194.702L777.832 195.068C777.632 195.268 777.632 195.593 777.832 195.794Z" fill="#687481"/>
</g>
<g filter="url(#filter2_d_8890_12767)">
<rect x="859.881" y="54" width="141" height="187" rx="15" transform="rotate(19 859.881 54)" fill="url(#paint2_linear_8890_12767)"/>
<path d="M892.506 100.242L892.112 101.388C891.728 102.502 891.301 103.742 890.409 105.261L892.293 105.91L891.736 107.527L878.66 103.024L879.217 101.408L888.384 104.564C889.19 103.244 889.61 102.151 889.961 101.156L882.034 98.427L882.586 96.8259L892.506 100.242ZM889.616 108.482L887.816 113.709L877.896 110.293L879.696 105.066L889.616 108.482ZM881.117 107.312L880.409 109.368L886.374 111.422L887.082 109.366L881.117 107.312ZM905.732 111.854L905.181 113.455L892.152 108.969L892.704 107.368L898.213 109.265L898.867 107.366L900.845 108.047L900.191 109.946L905.732 111.854ZM902.374 103.71C901.801 105.374 902.856 107.51 905.939 109.011L904.635 110.3C902.349 109.109 900.924 107.486 900.516 105.739C899.103 106.859 896.978 107.269 894.447 106.792L894.276 104.995C897.566 105.689 899.776 104.624 900.333 103.007L900.495 102.536L902.536 103.239L902.374 103.71ZM903.25 113.914L901.623 118.639L899.629 117.952L900.721 114.782L892.716 112.025L893.251 110.471L903.25 113.914ZM916.113 108.581C914.826 112.317 911.58 114.096 906.989 113.814L906.739 111.99C910.102 112.218 912.416 111.259 913.426 109.447L909 107.923L909.551 106.322L916.113 108.581ZM921.024 109.359L918.273 117.349L916.28 116.662L917.301 113.696L914.758 112.82L915.32 111.188L917.863 112.063L919.031 108.673L921.024 109.359ZM918.079 117.914L916.171 123.455L906.705 120.196L908.613 114.655L918.079 117.914ZM910.035 116.9L909.208 119.302L914.733 121.204L915.56 118.803L910.035 116.9ZM933.782 120.547L933.279 122.007L927.785 120.115L927.477 121.01L931.417 122.366L930.217 125.851L922.259 123.111L921.989 123.896L930.324 126.766L929.816 128.241L919.519 124.696L920.762 121.085L928.704 123.82L928.948 123.114L920.989 120.373L921.481 118.945L925.484 120.323L925.792 119.429L920.314 117.542L920.816 116.082L933.782 120.547ZM930.375 112.544L929.986 113.674L934.271 115.149L933.763 116.625L929.729 115.236C929.835 116.203 931.059 117.388 933.907 118.501L932.818 119.776C930.209 118.737 928.605 117.43 928.067 116.033C926.792 116.805 924.715 116.845 922.003 116.052L921.962 114.387C924.867 115.256 926.554 115.073 927.249 114.382L923.246 113.004L923.754 111.528L928.008 112.993L928.397 111.863L930.375 112.544ZM948.782 118.899L943.864 133.184L941.839 132.486L946.757 118.202L948.782 118.899ZM943.983 118.915C942.492 123.247 939.731 126.318 933.797 126.978L933.297 125.015C937.586 124.543 939.989 122.842 941.402 119.782L936.536 118.106L937.077 116.537L943.983 118.915ZM884.143 118.514L883.748 119.66C883.364 120.775 882.937 122.015 882.046 123.534L883.929 124.182L883.373 125.799L870.297 121.297L870.854 119.68L880.021 122.837C880.826 121.516 881.247 120.423 881.598 119.429L873.671 116.7L874.222 115.098L884.143 118.514ZM881.253 126.755L879.453 131.982L869.532 128.566L871.332 123.339L881.253 126.755ZM872.754 125.584L872.046 127.641L878.01 129.694L878.719 127.638L872.754 125.584ZM889.781 120.702C891.68 121.356 892.58 123.281 891.893 125.327C891.164 127.393 889.286 128.309 887.386 127.655C885.487 127.001 884.587 125.129 885.3 123.057C886.003 121.016 887.881 120.048 889.781 120.702ZM889.197 122.397C888.318 122.094 887.479 122.543 887.09 123.673C886.7 124.803 887.08 125.689 887.959 125.991C888.823 126.289 889.667 125.825 890.072 124.7C890.445 123.564 890.06 122.694 889.197 122.397ZM899.004 122.929L896.069 131.453L894.17 130.799L895.364 127.33L894.187 126.924L893.02 130.315L891.167 129.677L893.989 121.483L895.841 122.121L894.738 125.323L895.916 125.729L897.105 122.275L899.004 122.929ZM895.853 132.081L894.091 137.198L892.098 136.512L893.308 132.995L885.428 130.282L885.98 128.681L895.853 132.081ZM916.349 128.902L912.723 139.435L910.745 138.753L911.772 135.771L908.507 134.647L909.058 133.046L912.323 134.17L912.874 132.569L909.814 131.515C908.045 133.338 905.419 134.233 902.249 134.107L901.952 132.267C905.33 132.35 907.828 131.314 908.916 129.327L904.364 127.76L904.916 126.159L911.65 128.477C911.45 129.058 911.192 129.602 910.899 130.098L913.426 130.968L914.372 128.221L916.349 128.902ZM912.451 141.448L911.9 143.049L902.12 139.682L903.682 135.145L905.723 135.848L904.712 138.783L912.451 141.448ZM926.188 133.167L925.642 134.753L922.801 133.775C922.236 135.467 922.646 137.54 924.649 139.064L923.131 140.262C921.718 139.213 920.992 137.805 920.823 136.307C919.688 137.513 918.152 138.275 916.278 138.236L915.804 136.299C918.41 136.354 920.123 134.845 920.76 133.072L917.888 132.083L918.434 130.497L926.188 133.167ZM927.117 142.811L925.344 147.959L923.35 147.273L924.572 143.725L916.755 141.034L917.306 139.432L927.117 142.811ZM930.263 133.675L927.333 142.183L925.34 141.496L926.523 138.059L924.31 137.296L924.872 135.664L927.085 136.426L928.269 132.988L930.263 133.675ZM936.401 139.406C935.477 142.09 935.663 145.068 937.692 146.926L935.916 148.105C934.598 146.783 934.028 144.997 934.045 143.036C932.774 144.688 931.148 145.84 929.237 146.087L928.543 144.022C931.371 143.766 933.436 141.387 934.376 138.708L935.111 136.573L937.136 137.271L936.401 139.406ZM944.17 138.464L939.241 152.779L937.263 152.098L940.09 143.889L937.28 142.921L937.837 141.304L940.646 142.272L942.192 137.783L944.17 138.464Z" fill="#22272B"/>
</g>
<circle cx="525.5" cy="150.5" r="34.5" fill="#8995A1"/>
<path opacity="0.3" d="M517 150.5L504.25 157.861L504.25 143.139L517 150.5Z" fill="white"/>
<path opacity="0.6" d="M534 150.5L521.25 157.861L521.25 143.139L534 150.5Z" fill="white"/>
<path opacity="0.9" d="M551 150.5L538.25 157.861L538.25 143.139L551 150.5Z" fill="white"/>
<rect x="138" y="379" width="754" height="65" rx="32.5" fill="#EBF5FF"/>
<path d="M181.383 412.359L182.695 411.023L187.055 415.312L196.078 406.336L197.414 407.648L187.055 417.984L181.383 412.359ZM377.602 403.852C377.578 406.512 379.102 409.102 382.617 410.156L381.117 412.5C378.691 411.727 377.004 410.203 376.055 408.258C375.094 410.355 373.359 412.02 370.852 412.828L369.352 410.484C372.914 409.348 374.484 406.57 374.484 403.852V401.812H377.602V403.852ZM372.609 416.859V414.469H387.281V422.156H384.281V416.859H372.609ZM384.281 413.555V400.828H387.281V413.555H384.281ZM409.617 410.812V413.18H401.367V415.008H407.297V421.922H392.414V415.008H398.391V413.18H390.164V410.812H409.617ZM391.875 403.805V401.414H407.883V403.805H405.094V407.062H407.742V409.453H392.016V407.062H394.641V403.805H391.875ZM395.367 419.531H404.367V417.328H395.367V419.531ZM397.641 407.062H402.094V403.805H397.641V407.062ZM434.883 400.828V422.156H432.047V400.828H434.883ZM415.992 415.922C419.133 413.988 420.305 410.168 420.305 406.547V405.398H416.812V403.008H426.422V405.398H423.188V406.547C423.176 410.086 424.289 413.672 427.406 415.453L425.648 417.656C423.738 416.531 422.496 414.633 421.77 412.336C421.043 414.82 419.754 416.93 417.797 418.125L415.992 415.922ZM424.898 410.555V408.141H427.711V401.18H430.523V421.172H427.711V410.555H424.898ZM456.703 417.258V419.672H437.18V417.258H445.43V412.5H448.43V417.258H456.703ZM437.977 411.07C442.406 410.355 445.055 407.684 445.312 404.859H438.797V402.445H454.992V404.859H448.5C448.734 407.672 451.406 410.285 455.977 410.953L454.805 413.32C451.066 412.664 448.301 410.848 446.918 408.316C445.57 410.883 442.828 412.77 439.148 413.438L437.977 411.07ZM481.312 400.852V416.18H478.312V400.852H481.312ZM463.781 407.578C463.781 404.449 466.336 402.199 469.617 402.211C472.887 402.199 475.441 404.449 475.453 407.578C475.441 410.754 472.887 412.992 469.617 412.992C466.336 412.992 463.781 410.754 463.781 407.578ZM466.711 407.578C466.688 409.359 467.941 410.391 469.617 410.391C471.234 410.391 472.488 409.359 472.5 407.578C472.488 405.844 471.234 404.801 469.617 404.812C467.941 404.801 466.688 405.844 466.711 407.578ZM467.016 421.781V414.633H470.039V419.391H481.875V421.781H467.016ZM496.781 404.016V406.406H484.242V404.016H489V401.156H491.977V404.016H496.781ZM485.344 412.688C485.344 409.746 487.547 407.59 490.5 407.602C493.441 407.59 495.609 409.746 495.633 412.688C495.609 415.594 493.441 417.762 490.5 417.773C487.547 417.762 485.344 415.594 485.344 412.688ZM488.133 412.688C488.121 414.293 489.141 415.242 490.5 415.219C491.859 415.242 492.879 414.293 492.867 412.688C492.879 411.105 491.859 410.121 490.5 410.109C489.141 410.121 488.121 411.105 488.133 412.688ZM496.336 411.68V409.266H499.242V400.828H502.195V422.156H499.242V411.68H496.336ZM521.766 400.828V409.008H524.789V411.469H521.766V422.109H518.766V400.828H521.766ZM504.703 416.133C509.754 413.602 512.473 410.203 513.035 405.445H505.922V403.008H516.07C516.047 409.383 513.562 414.902 506.391 418.43L504.703 416.133ZM539.508 405.656C539.496 409.57 541.277 413.496 544.898 415.031L543.141 417.422C540.703 416.32 539.016 414.188 538.043 411.551C537.082 414.434 535.336 416.754 532.734 417.938L530.93 415.453C534.656 413.883 536.473 409.793 536.484 405.656V402.469H539.508V405.656ZM546.047 422.203V400.828H549.07V422.203H546.047ZM569.93 400.828V411.68H566.953V406.383H562.945V404.016H566.953V400.828H569.93ZM551.789 409.477C555.328 408.434 556.91 405.832 556.922 403.078V401.531H559.945V403.078C559.934 405.621 561.422 408.094 564.82 409.102L563.25 411.398C560.965 410.672 559.371 409.242 558.445 407.414C557.508 409.465 555.832 411.059 553.336 411.844L551.789 409.477ZM555.75 414.867V412.57H569.93V418.266H558.727V419.578H570.539V421.922H555.773V416.086H566.977V414.867H555.75Z" fill="#0283FD"/>
<path d="M216.773 404.672V406.172H206.32V404.672H210.656V401.695H212.484V404.672H216.773ZM207.07 412.312C207.07 409.547 208.957 407.59 211.547 407.578C214.172 407.59 216.047 409.547 216.07 412.312C216.047 415.113 214.172 417.082 211.547 417.094C208.957 417.082 207.07 415.113 207.07 412.312ZM208.711 412.312C208.711 414.164 209.895 415.488 211.547 415.477C213.211 415.488 214.43 414.164 214.43 412.312C214.43 410.484 213.211 409.148 211.547 409.125C209.895 409.148 208.711 410.484 208.711 412.312ZM217.852 420.867V401.578H219.586V409.852H222.352V401.062H224.109V421.898H222.352V411.375H219.586V420.867H217.852ZM244.688 401.062V412.336H242.836V406.898H239.531V405.422H242.836V401.062H244.688ZM226.945 410.414C229.336 408.973 230.215 406.043 230.227 404.016V402.094H231.961V404.016C231.973 405.598 232.383 408.105 234 409.805C235.605 408.152 235.992 405.715 235.992 404.016V402.094H237.727V404.016C237.738 406.312 238.629 409.043 241.055 410.414L240 411.75C238.406 410.824 237.422 409.289 236.895 407.59C236.438 409.301 235.57 410.953 234 411.938C232.395 410.93 231.516 409.219 231.059 407.473C230.52 409.184 229.547 410.801 227.977 411.75L226.945 410.414ZM230.812 421.617V413.344H232.641V415.945H242.859V413.344H244.688V421.617H230.812ZM232.641 420.117H242.859V417.469H232.641V420.117ZM271.078 401.086V416.32H269.25V401.086H271.078ZM254.367 407.648C254.355 404.648 256.711 402.551 259.828 402.539C262.945 402.551 265.277 404.648 265.289 407.648C265.277 410.684 262.945 412.793 259.828 412.781C256.711 412.793 254.355 410.684 254.367 407.648ZM256.172 407.648C256.148 409.723 257.719 411.164 259.828 411.164C261.902 411.164 263.484 409.723 263.484 407.648C263.484 405.609 261.902 404.156 259.828 404.156C257.719 404.156 256.148 405.609 256.172 407.648ZM257.625 421.453V414.773H259.453V419.906H271.734V421.453H257.625ZM293.602 410.977V412.5H274.617V410.977H293.602ZM275.695 408.258C279.328 407.836 282.832 406.043 282.914 403.664H276.352V402.141H291.914V403.664H285.305C285.387 406.02 288.855 407.836 292.547 408.258L291.867 409.734C288.457 409.301 285.258 407.766 284.109 405.457C282.961 407.766 279.785 409.301 276.352 409.734L275.695 408.258ZM276.914 418.102C276.902 415.711 279.609 414.328 284.109 414.328C288.574 414.328 291.258 415.711 291.281 418.102C291.258 420.516 288.574 421.852 284.109 421.852C279.609 421.852 276.902 420.516 276.914 418.102ZM278.789 418.102C278.766 419.555 280.77 420.387 284.109 420.375C287.414 420.387 289.418 419.555 289.43 418.102C289.418 416.637 287.414 415.805 284.109 415.781C280.77 415.805 278.766 416.637 278.789 418.102ZM312.539 401.062V421.945H310.688V401.062H312.539ZM296.133 409.945C296.145 405.516 298.348 402.691 301.453 402.68C304.547 402.691 306.785 405.516 306.773 409.945C306.785 414.387 304.547 417.199 301.453 417.188C298.348 417.199 296.145 414.387 296.133 409.945ZM297.914 409.945C297.914 413.332 299.367 415.559 301.453 415.547C303.551 415.559 304.992 413.332 304.992 409.945C304.992 406.559 303.551 404.332 301.453 404.32C299.367 404.332 297.914 406.559 297.914 409.945ZM327.703 402.68C330.773 402.691 332.953 405.516 332.977 409.945C332.953 414.387 330.773 417.199 327.703 417.188C324.609 417.199 322.441 414.387 322.453 409.945C322.441 405.516 324.609 402.691 327.703 402.68ZM324.188 409.945C324.199 413.332 325.641 415.559 327.703 415.547C329.789 415.559 331.195 413.332 331.195 409.945C331.195 406.559 329.789 404.332 327.703 404.32C325.641 404.332 324.199 406.559 324.188 409.945ZM336.422 421.898V401.062H338.25V409.383H341.742V410.977H338.25V421.898H336.422ZM360.07 401.086V416.227H358.242V401.086H360.07ZM344.18 412.219V402.633H346.031V410.625C349.711 410.637 352.676 410.438 355.922 409.734L356.18 411.281C352.77 411.973 349.699 412.207 345.867 412.219H344.18ZM346.406 421.453V414.703H348.258V419.906H360.727V421.453H346.406ZM586.523 405.656C586.512 409.57 588.293 413.496 591.914 415.031L590.156 417.422C587.719 416.32 586.031 414.188 585.059 411.551C584.098 414.434 582.352 416.754 579.75 417.938L577.945 415.453C581.672 413.883 583.488 409.793 583.5 405.656V402.469H586.523V405.656ZM593.062 422.203V400.828H596.086V422.203H593.062ZM608.578 414.117C613.242 414.117 616.172 415.594 616.195 418.148C616.172 420.668 613.242 422.168 608.578 422.156C603.949 422.168 600.973 420.668 600.984 418.148C600.973 415.594 603.949 414.117 608.578 414.117ZM599.016 412.758V410.344H606.281V406.617H609.234V410.344H618.375V412.758H599.016ZM601.195 404.133V401.789H616.078V403.523C616.09 405.223 616.09 407.051 615.469 409.242L612.539 408.961C613.02 407.027 613.078 405.586 613.102 404.133H601.195ZM603.961 418.148C603.949 419.297 605.637 419.883 608.578 419.883C611.52 419.883 613.219 419.297 613.219 418.148C613.219 416.965 611.52 416.332 608.578 416.344C605.637 416.332 603.949 416.965 603.961 418.148ZM643.195 400.852V416.578H640.242V412.125H635.367V409.734H640.242V407.344H635.672C634.16 410.59 631.066 413.004 626.766 414.281L625.523 411.961C630.07 410.52 632.918 407.977 633.445 404.836H626.672V402.445H636.727C636.727 403.312 636.633 404.156 636.469 404.953H640.242V400.852H643.195ZM629.156 421.781V415.008H632.203V419.391H643.758V421.781H629.156ZM658.289 402.023V404.391H654.047C654.059 406.898 655.582 409.488 658.945 410.602L657.469 412.898C655.113 412.16 653.484 410.613 652.559 408.703C651.609 410.824 649.91 412.535 647.391 413.344L645.867 410.977C649.383 409.863 650.977 407.039 651 404.391H646.711V402.023H658.289ZM649.312 416.859V414.469H663.961V422.156H660.984V416.859H649.312ZM657.68 408.398V405.961H660.984V400.828H663.961V413.531H660.984V408.398H657.68ZM690.117 400.828V422.203H687.094V400.828H690.117ZM673.312 417.211V402.516H676.312V407.719H680.906V402.516H683.859V417.211H673.312ZM676.312 414.797H680.906V410.039H676.312V414.797ZM710.695 402.68V404.766C710.684 407.367 710.684 410.285 709.898 414.586L706.969 414.328C707.66 410.414 707.684 407.52 707.695 405.047H694.922V402.68H710.695ZM693 419.555V417.117H697.148V410.414H700.125V417.117H702.469V410.414H705.422V417.117H712.453V419.555H693ZM730.781 410.836V412.336H724.336V417.727H733.031V419.273H713.953V417.727H722.531V412.336H716.391V402.773H730.57V404.273H718.242V410.836H730.781ZM756.844 401.062V409.547H760.219V411.094H756.844V421.898H755.016V401.062H756.844ZM740.859 416.484C746.238 413.812 749.168 409.793 749.59 404.859H741.82V403.312H751.453C751.441 409.207 748.676 414.586 741.891 417.938L740.859 416.484ZM778.289 406.898V408.422H764.062V401.484H765.891V406.898H778.289ZM761.461 412.383V410.859H780.469V412.383H761.461ZM763.758 418.031C763.746 415.605 766.453 414.246 770.953 414.258C775.418 414.246 778.102 415.605 778.125 418.031C778.102 420.445 775.418 421.805 770.953 421.805C766.453 421.805 763.746 420.445 763.758 418.031ZM765.633 418.031C765.609 419.484 767.613 420.363 770.953 420.375C774.258 420.363 776.262 419.484 776.273 418.031C776.262 416.555 774.258 415.723 770.953 415.711C767.613 415.723 765.609 416.555 765.633 418.031ZM798.492 401.062V406.406H801.633V407.977H798.492V413.18H796.664V401.062H798.492ZM782.25 404.742V403.219H787.547V400.875H789.375V403.219H794.672V404.742H782.25ZM783.445 409.359C783.434 407.133 785.438 405.715 788.461 405.703C791.449 405.715 793.453 407.133 793.477 409.359C793.453 411.586 791.449 413.027 788.461 413.016C785.438 413.027 783.434 411.586 783.445 409.359ZM785.203 409.359C785.191 410.719 786.492 411.609 788.461 411.609C790.406 411.609 791.719 410.719 791.742 409.359C791.719 408.012 790.406 407.109 788.461 407.133C786.492 407.109 785.191 408.012 785.203 409.359ZM785.32 421.617V414.094H787.148V416.32H796.664V414.094H798.492V421.617H785.32ZM787.148 420.141H796.664V417.773H787.148V420.141ZM820.125 401.062V421.898H818.297V401.062H820.125ZM804.305 416.531V403.125H806.109V414.938C809.297 414.914 812.578 414.668 816.07 413.93L816.328 415.5C812.625 416.273 809.332 416.531 805.992 416.531H804.305ZM839.812 401.062V409.312H843.305V410.859H839.812V421.945H837.984V401.062H839.812ZM824.602 416.719V403.102H834.328V404.625H826.43V415.172C830.203 415.16 832.863 414.996 835.969 414.422L836.203 416.016C832.934 416.602 830.203 416.719 826.242 416.719H824.602ZM846.633 420.141C845.812 420.129 845.109 419.449 845.133 418.617C845.109 417.797 845.812 417.117 846.633 417.117C847.465 417.117 848.145 417.797 848.133 418.617C848.145 419.449 847.465 420.129 846.633 420.141Z" fill="black"/>
<g clip-path="url(#clip1_8890_12767)">
<path d="M847.961 211.916C846.866 213.889 845.182 215.42 844.07 216.396C844.035 216.528 843.964 216.793 844.264 216.731C845.665 216.257 847.833 215.564 850.089 215.602C853.736 215.729 855.479 216.621 858.662 214.784C861.845 212.946 860.748 209.113 861.383 208.858L860.512 207.35L859.642 205.843C859.642 205.843 856.332 203.398 853.149 205.236C849.967 207.073 849.868 209.029 848.155 212.251L847.961 211.916Z" fill="url(#paint3_linear_8890_12767)"/>
<g opacity="0.1">
<path d="M858.637 206.423L859.508 207.931C859.508 207.931 859.97 212.019 856.787 213.857C853.604 215.694 851.861 214.802 848.214 214.674C847.386 214.594 846.487 214.778 845.623 214.83C845.05 215.384 844.512 215.807 844.142 216.132C844.106 216.264 844.036 216.528 844.335 216.467C845.737 215.993 847.905 215.3 850.16 215.338C853.807 215.465 855.551 216.357 858.733 214.52C861.916 212.682 860.819 208.848 861.454 208.594L860.584 207.086L859.713 205.578C859.713 205.578 858.788 205.331 857.899 204.951L858.769 206.458L858.637 206.423Z" fill="#00495C"/>
</g>
<path opacity="0.3" d="M847.961 211.916C846.866 213.889 845.181 215.42 844.07 216.396C844.035 216.528 843.964 216.793 844.264 216.731C844.898 216.476 845.665 216.257 846.432 216.038C847.375 215.158 848.39 214.014 849.008 212.763C850.721 209.541 850.82 207.585 854.003 205.748C856.348 204.394 858.549 205.692 859.703 206.142L859.413 205.64C859.413 205.64 856.103 203.195 852.92 205.033C849.738 206.87 849.638 208.826 847.925 212.049L847.961 211.916Z" fill="white"/>
<path d="M844.071 216.396C844.071 216.396 843.965 216.793 844.264 216.731C844.564 216.67 844.899 216.477 845.366 216.319L854.077 211.29C854.077 211.29 854.315 210.929 854.218 210.761C854.121 210.594 853.857 210.523 853.69 210.62L844.979 215.649C844.979 215.649 844.406 216.203 844.071 216.396Z" fill="url(#paint4_linear_8890_12767)"/>
<path d="M862.579 202.807L864.223 205.654C864.223 205.654 864.803 206.659 865.383 207.664C885.147 198.376 914.761 181.39 932.651 169.051C933.321 168.664 936.488 165.831 935.424 163.988C934.07 161.643 930.323 163.471 929.653 163.858C910.022 173.182 880.505 190.335 862.579 202.807Z" fill="url(#paint5_linear_8890_12767)"/>
<path opacity="0.3" d="M934.693 164.075C935.757 165.918 932.591 168.751 931.921 169.138C914.198 181.38 884.751 198.27 865.155 207.462L865.287 207.497C885.148 198.376 914.761 181.39 932.652 169.051C933.322 168.664 936.488 165.831 935.425 163.988C934.748 162.815 933.488 162.761 932.289 163.006C933.285 162.99 934.21 163.238 934.693 164.075Z" fill="#FFF5A2"/>
<g style="mix-blend-mode:multiply" opacity="0.1">
<path d="M933.504 163.757C934.568 165.599 931.402 168.432 930.732 168.819C913.212 180.833 884.065 197.661 864.936 206.695C865.033 206.862 865.226 207.197 865.419 207.532C885.148 198.376 914.761 181.39 932.652 169.051C933.322 168.664 936.488 165.831 935.425 163.988C934.88 162.851 933.62 162.797 932.457 162.91C932.853 163.016 933.179 163.386 933.504 163.757Z" fill="#B94E00"/>
</g>
<path opacity="0.3" d="M875.653 202.628L872.075 196.431C872.075 196.431 871.572 196.721 871.405 196.817L874.983 203.015C874.983 203.015 875.486 202.725 875.653 202.628Z" fill="#A20000"/>
<path d="M874.852 202.98L871.273 196.782C868.725 198.365 863.426 201.759 860.137 203.993C859.264 204.609 858.981 205.666 859.429 206.635L860.396 208.31C860.88 209.148 862.034 209.599 863.039 209.018C866.618 207.287 872.11 204.228 874.852 202.98Z" fill="url(#paint6_linear_8890_12767)"/>
<path opacity="0.1" d="M860.045 207.508L860.528 208.346C861.012 209.183 862.165 209.634 863.17 209.054C866.75 207.322 872.242 204.263 874.983 203.015L874.5 202.178C871.855 203.593 866.266 206.485 862.687 208.216C861.717 208.664 860.66 208.381 860.045 207.508Z" fill="black"/>
</g>
<rect x="100" y="379" width="810" height="65" rx="32.5" fill="#EBF5FF"/>
<path d="M127.387 412.359L128.699 411.023L133.059 415.312L142.082 406.336L143.418 407.648L133.059 417.984L127.387 412.359ZM412.598 403.852C412.574 406.512 414.098 409.102 417.613 410.156L416.113 412.5C413.688 411.727 412 410.203 411.051 408.258C410.09 410.355 408.355 412.02 405.848 412.828L404.348 410.484C407.91 409.348 409.48 406.57 409.48 403.852V401.812H412.598V403.852ZM407.605 416.859V414.469H422.277V422.156H419.277V416.859H407.605ZM419.277 413.555V400.828H422.277V413.555H419.277ZM444.613 410.812V413.18H436.363V415.008H442.293V421.922H427.41V415.008H433.387V413.18H425.16V410.812H444.613ZM426.871 403.805V401.414H442.879V403.805H440.09V407.062H442.738V409.453H427.012V407.062H429.637V403.805H426.871ZM430.363 419.531H439.363V417.328H430.363V419.531ZM432.637 407.062H437.09V403.805H432.637V407.062ZM469.879 400.828V422.156H467.043V400.828H469.879ZM450.988 415.922C454.129 413.988 455.301 410.168 455.301 406.547V405.398H451.809V403.008H461.418V405.398H458.184V406.547C458.172 410.086 459.285 413.672 462.402 415.453L460.645 417.656C458.734 416.531 457.492 414.633 456.766 412.336C456.039 414.82 454.75 416.93 452.793 418.125L450.988 415.922ZM459.895 410.555V408.141H462.707V401.18H465.52V421.172H462.707V410.555H459.895ZM491.699 417.258V419.672H472.176V417.258H480.426V412.5H483.426V417.258H491.699ZM472.973 411.07C477.402 410.355 480.051 407.684 480.309 404.859H473.793V402.445H489.988V404.859H483.496C483.73 407.672 486.402 410.285 490.973 410.953L489.801 413.32C486.062 412.664 483.297 410.848 481.914 408.316C480.566 410.883 477.824 412.77 474.145 413.438L472.973 411.07ZM516.309 400.852V416.18H513.309V400.852H516.309ZM498.777 407.578C498.777 404.449 501.332 402.199 504.613 402.211C507.883 402.199 510.438 404.449 510.449 407.578C510.438 410.754 507.883 412.992 504.613 412.992C501.332 412.992 498.777 410.754 498.777 407.578ZM501.707 407.578C501.684 409.359 502.938 410.391 504.613 410.391C506.23 410.391 507.484 409.359 507.496 407.578C507.484 405.844 506.23 404.801 504.613 404.812C502.938 404.801 501.684 405.844 501.707 407.578ZM502.012 421.781V414.633H505.035V419.391H516.871V421.781H502.012ZM531.777 404.016V406.406H519.238V404.016H523.996V401.156H526.973V404.016H531.777ZM520.34 412.688C520.34 409.746 522.543 407.59 525.496 407.602C528.438 407.59 530.605 409.746 530.629 412.688C530.605 415.594 528.438 417.762 525.496 417.773C522.543 417.762 520.34 415.594 520.34 412.688ZM523.129 412.688C523.117 414.293 524.137 415.242 525.496 415.219C526.855 415.242 527.875 414.293 527.863 412.688C527.875 411.105 526.855 410.121 525.496 410.109C524.137 410.121 523.117 411.105 523.129 412.688ZM531.332 411.68V409.266H534.238V400.828H537.191V422.156H534.238V411.68H531.332ZM556.762 400.828V409.008H559.785V411.469H556.762V422.109H553.762V400.828H556.762ZM539.699 416.133C544.75 413.602 547.469 410.203 548.031 405.445H540.918V403.008H551.066C551.043 409.383 548.559 414.902 541.387 418.43L539.699 416.133ZM574.504 405.656C574.492 409.57 576.273 413.496 579.895 415.031L578.137 417.422C575.699 416.32 574.012 414.188 573.039 411.551C572.078 414.434 570.332 416.754 567.73 417.938L565.926 415.453C569.652 413.883 571.469 409.793 571.48 405.656V402.469H574.504V405.656ZM581.043 422.203V400.828H584.066V422.203H581.043ZM604.926 400.828V411.68H601.949V406.383H597.941V404.016H601.949V400.828H604.926ZM586.785 409.477C590.324 408.434 591.906 405.832 591.918 403.078V401.531H594.941V403.078C594.93 405.621 596.418 408.094 599.816 409.102L598.246 411.398C595.961 410.672 594.367 409.242 593.441 407.414C592.504 409.465 590.828 411.059 588.332 411.844L586.785 409.477ZM590.746 414.867V412.57H604.926V418.266H593.723V419.578H605.535V421.922H590.77V416.086H601.973V414.867H590.746Z" fill="#0283FD"/>
<path d="M162.777 404.672V406.172H152.324V404.672H156.66V401.695H158.488V404.672H162.777ZM153.074 412.312C153.074 409.547 154.961 407.59 157.551 407.578C160.176 407.59 162.051 409.547 162.074 412.312C162.051 415.113 160.176 417.082 157.551 417.094C154.961 417.082 153.074 415.113 153.074 412.312ZM154.715 412.312C154.715 414.164 155.898 415.488 157.551 415.477C159.215 415.488 160.434 414.164 160.434 412.312C160.434 410.484 159.215 409.148 157.551 409.125C155.898 409.148 154.715 410.484 154.715 412.312ZM163.855 420.867V401.578H165.59V409.852H168.355V401.062H170.113V421.898H168.355V411.375H165.59V420.867H163.855ZM190.691 401.062V412.336H188.84V406.898H185.535V405.422H188.84V401.062H190.691ZM172.949 410.414C175.34 408.973 176.219 406.043 176.23 404.016V402.094H177.965V404.016C177.977 405.598 178.387 408.105 180.004 409.805C181.609 408.152 181.996 405.715 181.996 404.016V402.094H183.73V404.016C183.742 406.312 184.633 409.043 187.059 410.414L186.004 411.75C184.41 410.824 183.426 409.289 182.898 407.59C182.441 409.301 181.574 410.953 180.004 411.938C178.398 410.93 177.52 409.219 177.062 407.473C176.523 409.184 175.551 410.801 173.98 411.75L172.949 410.414ZM176.816 421.617V413.344H178.645V415.945H188.863V413.344H190.691V421.617H176.816ZM178.645 420.117H188.863V417.469H178.645V420.117ZM217.082 401.086V416.32H215.254V401.086H217.082ZM200.371 407.648C200.359 404.648 202.715 402.551 205.832 402.539C208.949 402.551 211.281 404.648 211.293 407.648C211.281 410.684 208.949 412.793 205.832 412.781C202.715 412.793 200.359 410.684 200.371 407.648ZM202.176 407.648C202.152 409.723 203.723 411.164 205.832 411.164C207.906 411.164 209.488 409.723 209.488 407.648C209.488 405.609 207.906 404.156 205.832 404.156C203.723 404.156 202.152 405.609 202.176 407.648ZM203.629 421.453V414.773H205.457V419.906H217.738V421.453H203.629ZM239.605 410.977V412.5H220.621V410.977H239.605ZM221.699 408.258C225.332 407.836 228.836 406.043 228.918 403.664H222.355V402.141H237.918V403.664H231.309C231.391 406.02 234.859 407.836 238.551 408.258L237.871 409.734C234.461 409.301 231.262 407.766 230.113 405.457C228.965 407.766 225.789 409.301 222.355 409.734L221.699 408.258ZM222.918 418.102C222.906 415.711 225.613 414.328 230.113 414.328C234.578 414.328 237.262 415.711 237.285 418.102C237.262 420.516 234.578 421.852 230.113 421.852C225.613 421.852 222.906 420.516 222.918 418.102ZM224.793 418.102C224.77 419.555 226.773 420.387 230.113 420.375C233.418 420.387 235.422 419.555 235.434 418.102C235.422 416.637 233.418 415.805 230.113 415.781C226.773 415.805 224.77 416.637 224.793 418.102ZM258.543 401.062V421.945H256.691V401.062H258.543ZM242.137 409.945C242.148 405.516 244.352 402.691 247.457 402.68C250.551 402.691 252.789 405.516 252.777 409.945C252.789 414.387 250.551 417.199 247.457 417.188C244.352 417.199 242.148 414.387 242.137 409.945ZM243.918 409.945C243.918 413.332 245.371 415.559 247.457 415.547C249.555 415.559 250.996 413.332 250.996 409.945C250.996 406.559 249.555 404.332 247.457 404.32C245.371 404.332 243.918 406.559 243.918 409.945ZM275.535 406.664C275.523 410.473 278.113 414.293 281.184 415.688L280.059 417.141C277.68 415.992 275.629 413.52 274.633 410.555C273.672 413.695 271.621 416.332 269.184 417.562L268.012 416.016C271.117 414.598 273.684 410.613 273.707 406.664V402.867H275.535V406.664ZM283.457 421.945V401.062H285.309V421.945H283.457ZM298.293 414.234C302.758 414.234 305.594 415.641 305.605 418.055C305.594 420.445 302.758 421.852 298.293 421.852C293.828 421.852 290.992 420.445 291.004 418.055C290.992 415.641 293.828 414.234 298.293 414.234ZM288.895 412.289V410.789H296.746V406.758H298.551V410.789H307.855V412.289H288.895ZM291.145 403.641V402.141H305.441V403.898C305.43 405.586 305.43 407.273 304.855 409.43L303.051 409.219C303.613 407.074 303.613 405.527 303.613 403.898V403.641H291.145ZM292.832 418.055C292.82 419.508 294.977 420.398 298.293 420.398C301.621 420.398 303.754 419.508 303.777 418.055C303.754 416.566 301.621 415.652 298.293 415.641C294.977 415.652 292.82 416.566 292.832 418.055ZM313.152 401.742V404.391H316.551V401.742H318.309V410.086H311.395V401.742H313.152ZM309.59 413.672V412.172H328.668V413.672H320.184V417.773H318.355V413.672H309.59ZM312.027 421.57V415.922H313.855V420.07H326.535V421.57H312.027ZM313.152 408.586H316.551V405.82H313.152V408.586ZM319.926 410.086V401.742H321.707V404.391H325.082V401.742H326.84V410.086H319.926ZM321.707 408.586H325.082V405.82H321.707V408.586ZM340.879 402.961V412.547H331.246V402.961H340.879ZM333.051 411.07H339.098V404.461H333.051V411.07ZM333.613 421.453V414.891H335.418V419.906H347.605V421.453H333.613ZM344.816 416.344V401.062H346.645V407.414H349.785V408.961H346.645V416.344H344.816ZM362.699 402.68C365.77 402.691 367.949 405.516 367.973 409.945C367.949 414.387 365.77 417.199 362.699 417.188C359.605 417.199 357.438 414.387 357.449 409.945C357.438 405.516 359.605 402.691 362.699 402.68ZM359.184 409.945C359.195 413.332 360.637 415.559 362.699 415.547C364.785 415.559 366.191 413.332 366.191 409.945C366.191 406.559 364.785 404.332 362.699 404.32C360.637 404.332 359.195 406.559 359.184 409.945ZM371.418 421.898V401.062H373.246V409.383H376.738V410.977H373.246V421.898H371.418ZM395.066 401.086V416.227H393.238V401.086H395.066ZM379.176 412.219V402.633H381.027V410.625C384.707 410.637 387.672 410.438 390.918 409.734L391.176 411.281C387.766 411.973 384.695 412.207 380.863 412.219H379.176ZM381.402 421.453V414.703H383.254V419.906H395.723V421.453H381.402ZM621.52 405.656C621.508 409.57 623.289 413.496 626.91 415.031L625.152 417.422C622.715 416.32 621.027 414.188 620.055 411.551C619.094 414.434 617.348 416.754 614.746 417.938L612.941 415.453C616.668 413.883 618.484 409.793 618.496 405.656V402.469H621.52V405.656ZM628.059 422.203V400.828H631.082V422.203H628.059ZM643.574 414.117C648.238 414.117 651.168 415.594 651.191 418.148C651.168 420.668 648.238 422.168 643.574 422.156C638.945 422.168 635.969 420.668 635.98 418.148C635.969 415.594 638.945 414.117 643.574 414.117ZM634.012 412.758V410.344H641.277V406.617H644.23V410.344H653.371V412.758H634.012ZM636.191 404.133V401.789H651.074V403.523C651.086 405.223 651.086 407.051 650.465 409.242L647.535 408.961C648.016 407.027 648.074 405.586 648.098 404.133H636.191ZM638.957 418.148C638.945 419.297 640.633 419.883 643.574 419.883C646.516 419.883 648.215 419.297 648.215 418.148C648.215 416.965 646.516 416.332 643.574 416.344C640.633 416.332 638.945 416.965 638.957 418.148ZM678.191 400.852V416.578H675.238V412.125H670.363V409.734H675.238V407.344H670.668C669.156 410.59 666.062 413.004 661.762 414.281L660.52 411.961C665.066 410.52 667.914 407.977 668.441 404.836H661.668V402.445H671.723C671.723 403.312 671.629 404.156 671.465 404.953H675.238V400.852H678.191ZM664.152 421.781V415.008H667.199V419.391H678.754V421.781H664.152ZM693.285 402.023V404.391H689.043C689.055 406.898 690.578 409.488 693.941 410.602L692.465 412.898C690.109 412.16 688.48 410.613 687.555 408.703C686.605 410.824 684.906 412.535 682.387 413.344L680.863 410.977C684.379 409.863 685.973 407.039 685.996 404.391H681.707V402.023H693.285ZM684.309 416.859V414.469H698.957V422.156H695.98V416.859H684.309ZM692.676 408.398V405.961H695.98V400.828H698.957V413.531H695.98V408.398H692.676ZM725.113 400.828V422.203H722.09V400.828H725.113ZM708.309 417.211V402.516H711.309V407.719H715.902V402.516H718.855V417.211H708.309ZM711.309 414.797H715.902V410.039H711.309V414.797ZM745.691 402.68V404.766C745.68 407.367 745.68 410.285 744.895 414.586L741.965 414.328C742.656 410.414 742.68 407.52 742.691 405.047H729.918V402.68H745.691ZM727.996 419.555V417.117H732.145V410.414H735.121V417.117H737.465V410.414H740.418V417.117H747.449V419.555H727.996ZM765.777 410.836V412.336H759.332V417.727H768.027V419.273H748.949V417.727H757.527V412.336H751.387V402.773H765.566V404.273H753.238V410.836H765.777ZM791.84 401.062V409.547H795.215V411.094H791.84V421.898H790.012V401.062H791.84ZM775.855 416.484C781.234 413.812 784.164 409.793 784.586 404.859H776.816V403.312H786.449C786.438 409.207 783.672 414.586 776.887 417.938L775.855 416.484ZM813.285 406.898V408.422H799.059V401.484H800.887V406.898H813.285ZM796.457 412.383V410.859H815.465V412.383H796.457ZM798.754 418.031C798.742 415.605 801.449 414.246 805.949 414.258C810.414 414.246 813.098 415.605 813.121 418.031C813.098 420.445 810.414 421.805 805.949 421.805C801.449 421.805 798.742 420.445 798.754 418.031ZM800.629 418.031C800.605 419.484 802.609 420.363 805.949 420.375C809.254 420.363 811.258 419.484 811.27 418.031C811.258 416.555 809.254 415.723 805.949 415.711C802.609 415.723 800.605 416.555 800.629 418.031ZM833.488 401.062V406.406H836.629V407.977H833.488V413.18H831.66V401.062H833.488ZM817.246 404.742V403.219H822.543V400.875H824.371V403.219H829.668V404.742H817.246ZM818.441 409.359C818.43 407.133 820.434 405.715 823.457 405.703C826.445 405.715 828.449 407.133 828.473 409.359C828.449 411.586 826.445 413.027 823.457 413.016C820.434 413.027 818.43 411.586 818.441 409.359ZM820.199 409.359C820.188 410.719 821.488 411.609 823.457 411.609C825.402 411.609 826.715 410.719 826.738 409.359C826.715 408.012 825.402 407.109 823.457 407.133C821.488 407.109 820.188 408.012 820.199 409.359ZM820.316 421.617V414.094H822.145V416.32H831.66V414.094H833.488V421.617H820.316ZM822.145 420.141H831.66V417.773H822.145V420.141ZM855.121 401.062V421.898H853.293V401.062H855.121ZM839.301 416.531V403.125H841.105V414.938C844.293 414.914 847.574 414.668 851.066 413.93L851.324 415.5C847.621 416.273 844.328 416.531 840.988 416.531H839.301ZM874.809 401.062V409.312H878.301V410.859H874.809V421.945H872.98V401.062H874.809ZM859.598 416.719V403.102H869.324V404.625H861.426V415.172C865.199 415.16 867.859 414.996 870.965 414.422L871.199 416.016C867.93 416.602 865.199 416.719 861.238 416.719H859.598ZM881.629 420.141C880.809 420.129 880.105 419.449 880.129 418.617C880.105 417.797 880.809 417.117 881.629 417.117C882.461 417.117 883.141 417.797 883.129 418.617C883.141 419.449 882.461 420.129 881.629 420.141Z" fill="black"/>
<defs>
<filter id="filter0_d_8890_12767" x="576.862" y="47.8618" width="214.469" height="242.99" filterUnits="userSpaceOnUse" color-interpolation-filters="sRGB">
<feFlood flood-opacity="0" result="BackgroundImageFix"/>
<feColorMatrix in="SourceAlpha" type="matrix" values="0 0 0 0 0 0 0 0 0 0 0 0 0 0 0 0 0 0 127 0" result="hardAlpha"/>
<feOffset dy="4"/>
<feGaussianBlur stdDeviation="7.1"/>
<feComposite in2="hardAlpha" operator="out"/>
<feColorMatrix type="matrix" values="0 0 0 0 0.135876 0 0 0 0 0.204117 0 0 0 0 0.321989 0 0 0 0.13 0"/>
<feBlend mode="normal" in2="BackgroundImageFix" result="effect1_dropShadow_8890_12767"/>
<feBlend mode="normal" in="SourceGraphic" in2="effect1_dropShadow_8890_12767" result="shape"/>
</filter>
<filter id="filter1_d_8890_12767" x="704.8" y="38.8" width="169.4" height="215.4" filterUnits="userSpaceOnUse" color-interpolation-filters="sRGB">
<feFlood flood-opacity="0" result="BackgroundImageFix"/>
<feColorMatrix in="SourceAlpha" type="matrix" values="0 0 0 0 0 0 0 0 0 0 0 0 0 0 0 0 0 0 127 0" result="hardAlpha"/>
<feOffset dy="4"/>
<feGaussianBlur stdDeviation="7.1"/>
<feComposite in2="hardAlpha" operator="out"/>
<feColorMatrix type="matrix" values="0 0 0 0 0.135876 0 0 0 0 0.204117 0 0 0 0 0.321989 0 0 0 0.13 0"/>
<feBlend mode="normal" in2="BackgroundImageFix" result="effect1_dropShadow_8890_12767"/>
<feBlend mode="normal" in="SourceGraphic" in2="effect1_dropShadow_8890_12767" result="shape"/>
</filter>
<filter id="filter2_d_8890_12767" x="788.862" y="47.8623" width="214.475" height="242.993" filterUnits="userSpaceOnUse" color-interpolation-filters="sRGB">
<feFlood flood-opacity="0" result="BackgroundImageFix"/>
<feColorMatrix in="SourceAlpha" type="matrix" values="0 0 0 0 0 0 0 0 0 0 0 0 0 0 0 0 0 0 127 0" result="hardAlpha"/>
<feOffset dy="4"/>
<feGaussianBlur stdDeviation="7.1"/>
<feComposite in2="hardAlpha" operator="out"/>
<feColorMatrix type="matrix" values="0 0 0 0 0.135876 0 0 0 0 0.204117 0 0 0 0 0.321989 0 0 0 0.13 0"/>
<feBlend mode="normal" in2="BackgroundImageFix" result="effect1_dropShadow_8890_12767"/>
<feBlend mode="normal" in="SourceGraphic" in2="effect1_dropShadow_8890_12767" result="shape"/>
</filter>
<linearGradient id="paint0_linear_8890_12767" x1="657.5" y1="99.8984" x2="657.5" y2="286.898" gradientUnits="userSpaceOnUse">
<stop stop-color="white"/>
<stop offset="1" stop-color="#F0F8FF"/>
</linearGradient>
<linearGradient id="paint1_linear_8890_12767" x1="789.5" y1="49" x2="789.5" y2="236" gradientUnits="userSpaceOnUse">
<stop stop-color="white"/>
<stop offset="1" stop-color="#F0F8FF"/>
</linearGradient>
<linearGradient id="paint2_linear_8890_12767" x1="930.381" y1="54" x2="930.381" y2="241" gradientUnits="userSpaceOnUse">
<stop stop-color="white"/>
<stop offset="1" stop-color="#F0F8FF"/>
</linearGradient>
<linearGradient id="paint3_linear_8890_12767" x1="861.952" y1="216.026" x2="844.731" y2="207.807" gradientUnits="userSpaceOnUse">
<stop stop-color="#B7C8D6"/>
<stop offset="0.22" stop-color="#9BA9B5"/>
<stop offset="0.75" stop-color="#C7D9E8"/>
<stop offset="1" stop-color="#9BA9B5"/>
</linearGradient>
<linearGradient id="paint4_linear_8890_12767" x1="848.929" y1="213.438" x2="850.365" y2="215.925" gradientUnits="userSpaceOnUse">
<stop stop-color="#5A6269"/>
<stop offset="1" stop-color="#9BA9B5"/>
</linearGradient>
<linearGradient id="paint5_linear_8890_12767" x1="902.719" y1="189.804" x2="895.676" y2="177.604" gradientUnits="userSpaceOnUse">
<stop stop-color="#FFC452"/>
<stop offset="0.28" stop-color="#E88838"/>
<stop offset="1" stop-color="#F0C87B"/>
</linearGradient>
<linearGradient id="paint6_linear_8890_12767" x1="869.76" y1="209.307" x2="863.195" y2="197.936" gradientUnits="userSpaceOnUse">
<stop stop-color="#B7C8D6"/>
<stop offset="0.22" stop-color="#9BA9B5"/>
<stop offset="0.75" stop-color="#C7D9E8"/>
<stop offset="1" stop-color="#9BA9B5"/>
</linearGradient>
<clipPath id="clip0_8890_12767">
<rect width="56" height="56" fill="white" transform="translate(655.652 167.217) rotate(-18.9971)"/>
</clipPath>
<clipPath id="clip1_8890_12767">
<rect width="75.224" height="75.224" fill="white" transform="translate(916.66 236.13) rotate(-165)"/>
</clipPath>
</defs>
</svg>
