<svg width="32" height="32" viewBox="0 0 32 32" fill="none" xmlns="http://www.w3.org/2000/svg">
<path d="M23.6857 20.4003L23.6861 20.4011C23.7645 20.5354 23.806 20.6881 23.8066 20.8436C23.8071 20.9755 23.778 21.1056 23.7219 21.2244L23.356 20.5953C22.7473 19.5491 22.0391 16.9906 22.0391 13.9234C22.0391 12.3218 21.4029 10.7858 20.2704 9.65337C19.1379 8.52089 17.602 7.88468 16.0004 7.88468C14.3988 7.88468 12.8629 8.52089 11.7304 9.65337C10.5979 10.7858 9.96171 12.3218 9.96171 13.9234C9.96171 16.993 9.25183 19.5516 8.64481 20.5954L8.27845 21.2253C8.22211 21.1063 8.19291 20.976 8.19336 20.8437C8.1939 20.6882 8.23544 20.5355 8.31381 20.4011L8.3143 20.4003C8.85276 19.4727 9.57703 17.0374 9.57703 13.9234C9.57703 12.2198 10.2538 10.586 11.4584 9.38136C12.663 8.17675 14.2968 7.5 16.0004 7.5C17.704 7.5 19.3378 8.17675 20.5424 9.38136C21.747 10.586 22.4238 12.2198 22.4238 13.9234C22.4238 17.0364 23.1471 19.4726 23.6857 20.4003ZM22.9238 21.3468H23.6517C23.5775 21.4551 23.4799 21.5458 23.3659 21.612C23.2313 21.69 23.0786 21.7312 22.9231 21.7314H19.392H18.9838L18.9021 22.1313C18.7655 22.8 18.402 23.401 17.8733 23.8326C17.3445 24.2643 16.6829 24.5 16.0004 24.5C15.3179 24.5 14.6563 24.2643 14.1275 23.8326C13.5988 23.401 13.2354 22.8 13.0987 22.1313L13.017 21.7314H12.6088H9.07739C8.92183 21.7313 8.76905 21.6902 8.63445 21.6122C8.52021 21.546 8.4225 21.4552 8.3482 21.3468H9.07703H22.9238ZM14.0428 21.7314H13.3357L13.5714 22.3981C13.749 22.9004 14.0779 23.3353 14.5129 23.643C14.9478 23.9506 15.4675 24.1159 16.0003 24.1161H16.0006C16.5333 24.1159 17.053 23.9506 17.4879 23.643C17.9229 23.3353 18.2518 22.9004 18.4294 22.3981L18.6651 21.7314H17.958H14.0428ZM14.8016 23.2348C14.6057 23.0962 14.4365 22.9256 14.3004 22.7314L17.958 22.2314V22.7314H17.7004C17.5643 22.9256 17.3951 23.0962 17.1992 23.2348C16.8486 23.4827 16.4298 23.616 16.0004 23.6161C15.571 23.616 15.1522 23.4827 14.8016 23.2348Z" stroke="white"/>
</svg>
