<svg width="40" height="40" viewBox="0 0 40 40" fill="none" xmlns="http://www.w3.org/2000/svg">
<rect width="40" height="40" rx="20" fill="#E3EFFF"/>
<path d="M20.25 20C24.1164 20 27.25 16.8664 27.25 13C27.25 9.13359 24.1164 6 20.25 6C16.3836 6 13.25 9.13359 13.25 13C13.25 16.8664 16.3836 20 20.25 20ZM25.15 21.75H24.2367C23.0227 22.3078 21.6719 22.625 20.25 22.625C18.8281 22.625 17.4828 22.3078 16.2633 21.75H15.35C11.2922 21.75 8 25.0422 8 29.1V31.375C8 32.8242 9.17578 34 10.625 34H29.875C31.3242 34 32.5 32.8242 32.5 31.375V29.1C32.5 25.0422 29.2078 21.75 25.15 21.75Z" fill="#ADCCEB"/>
</svg>
