<svg width="24" height="24" viewBox="0 0 24 24" fill="none" xmlns="http://www.w3.org/2000/svg">
<path d="M15.5997 12.8093L15.1905 12.1808L15.1801 12.1876L15.1699 12.1947L15.5997 12.8093ZM15.5997 11.4332L15.155 12.0371L15.1885 12.0617L15.2244 12.0825L15.5997 11.4332ZM10.0843 7.37187L10.529 6.76793L10.5078 6.75235L10.4856 6.73829L10.0843 7.37187ZM8.92802 7.97847L9.67814 7.9763L9.67787 7.96317L8.92802 7.97847ZM8.95115 15.9562L8.20115 15.9584L8.20121 15.9796L8.20248 16.0008L8.95115 15.9562ZM10.1498 16.621L10.513 17.2772L10.5474 17.2581L10.5797 17.2356L10.1498 16.621ZM12.0004 20.8499C7.11267 20.8499 3.15039 16.8876 3.15039 11.9999H1.65039C1.65039 17.716 6.28424 22.3499 12.0004 22.3499V20.8499ZM20.8504 11.9999C20.8504 16.8876 16.8881 20.8499 12.0004 20.8499V22.3499C17.7165 22.3499 22.3504 17.716 22.3504 11.9999H20.8504ZM12.0004 3.1499C16.8881 3.1499 20.8504 7.11218 20.8504 11.9999H22.3504C22.3504 6.28376 17.7165 1.6499 12.0004 1.6499V3.1499ZM12.0004 1.6499C6.28424 1.6499 1.65039 6.28376 1.65039 11.9999H3.15039C3.15039 7.11218 7.11267 3.1499 12.0004 3.1499V1.6499ZM16.0089 13.4379C16.4228 13.1684 16.8786 12.7295 16.8777 12.1003C16.8769 11.4544 16.3999 11.0293 15.975 10.7838L15.2244 12.0825C15.2835 12.1166 15.3264 12.1469 15.3567 12.1715C15.387 12.1962 15.401 12.2125 15.4054 12.218C15.4094 12.2231 15.4021 12.2152 15.3938 12.1933C15.385 12.1702 15.3778 12.1387 15.3777 12.1024C15.3777 12.0663 15.3847 12.0376 15.3913 12.0197C15.3974 12.003 15.4014 12.0005 15.3933 12.0114C15.3851 12.0226 15.3669 12.0441 15.3328 12.0744C15.2989 12.1045 15.2525 12.1405 15.1905 12.1808L16.0089 13.4379ZM16.0444 10.8292L10.529 6.76793L9.63959 7.9758L15.155 12.0371L16.0444 10.8292ZM10.4856 6.73829C10.0612 6.46944 9.49233 6.33204 8.96868 6.57654C8.40361 6.84037 8.16635 7.41409 8.17818 7.99378L9.67787 7.96317C9.67601 7.87204 9.6938 7.8475 9.68649 7.86149C9.68268 7.86878 9.67392 7.88258 9.65794 7.89804C9.64188 7.91359 9.62295 7.9265 9.60329 7.93568C9.56292 7.95453 9.54144 7.94832 9.55617 7.95039C9.56353 7.95142 9.57847 7.95447 9.60055 7.96296C9.62256 7.97143 9.65043 7.98484 9.68295 8.00545L10.4856 6.73829ZM8.17803 7.98065L8.20115 15.9584L9.70115 15.954L9.67802 7.9763L8.17803 7.98065ZM8.20248 16.0008C8.23244 16.504 8.40387 17.1035 8.95868 17.3998C9.50575 17.6919 10.093 17.5096 10.513 17.2772L9.78665 15.9648C9.72997 15.9961 9.68339 16.0169 9.64694 16.0302C9.61034 16.0435 9.58755 16.048 9.5775 16.0494C9.56777 16.0508 9.57357 16.0487 9.59127 16.0513C9.61004 16.0541 9.63652 16.0613 9.66533 16.0766C9.69424 16.0921 9.71583 16.1106 9.72979 16.1262C9.74302 16.141 9.74535 16.1485 9.74173 16.1407C9.73793 16.1326 9.72929 16.1114 9.72056 16.0723C9.71185 16.0333 9.70392 15.9805 9.69982 15.9116L8.20248 16.0008ZM10.5797 17.2356L16.0296 13.4239L15.1699 12.1947L9.71997 16.0064L10.5797 17.2356Z" fill="white"/>
</svg>
