<svg width="24" height="24" viewBox="0 0 24 24" fill="none" xmlns="http://www.w3.org/2000/svg">
<path fill-rule="evenodd" clip-rule="evenodd" d="M20 12C20 16.4184 16.4184 20 12 20C7.5816 20 4 16.4184 4 12C4 7.5816 7.5816 4 12 4C16.4184 4 20 7.5816 20 12ZM15.96 8.04C16.11 8.19002 16.1942 8.39347 16.1942 8.6056C16.1942 8.81773 16.11 9.02118 15.96 9.1712L13.1312 12L15.96 14.8288C16.1057 14.9797 16.1864 15.1818 16.1845 15.3915C16.1827 15.6013 16.0986 15.8019 15.9503 15.9503C15.8019 16.0986 15.6013 16.1827 15.3915 16.1845C15.1818 16.1864 14.9797 16.1057 14.8288 15.96L12 13.1312L9.1712 15.96C9.0974 16.0364 9.00913 16.0974 8.91152 16.1393C8.81392 16.1812 8.70894 16.2033 8.60272 16.2042C8.4965 16.2051 8.39115 16.1849 8.29284 16.1447C8.19452 16.1044 8.1052 16.045 8.03008 15.9699C7.95497 15.8948 7.89557 15.8055 7.85534 15.7072C7.81512 15.6088 7.79488 15.5035 7.7958 15.3973C7.79672 15.2911 7.81879 15.1861 7.86072 15.0885C7.90265 14.9909 7.96359 14.9026 8.04 14.8288L10.8688 12L8.04 9.1712C7.96359 9.0974 7.90265 9.00913 7.86072 8.91152C7.81879 8.81392 7.79672 8.70894 7.7958 8.60272C7.79488 8.4965 7.81512 8.39115 7.85534 8.29284C7.89557 8.19452 7.95497 8.1052 8.03008 8.03008C8.1052 7.95497 8.19452 7.89557 8.29284 7.85534C8.39115 7.81512 8.4965 7.79488 8.60272 7.7958C8.70894 7.79672 8.81392 7.81879 8.91152 7.86072C9.00913 7.90265 9.0974 7.96359 9.1712 8.04L12 10.8688L14.8288 8.04C14.9788 7.89002 15.1823 7.80577 15.3944 7.80577C15.6065 7.80577 15.81 7.89002 15.96 8.04Z" fill="#9B9DA2"/>
</svg>
