<svg width="16" height="16" viewBox="0 0 16 16" fill="none" xmlns="http://www.w3.org/2000/svg">
<path d="M15.553 7.59221C15.9585 7.19718 16.1016 6.6174 15.9266 6.0794C15.7519 5.54118 15.2954 5.15628 14.7352 5.07487L11.2762 4.57228C11.1006 4.54665 10.9489 4.43643 10.8704 4.27743L9.32347 1.14281C9.073 0.635469 8.56584 0.320312 7.99997 0.320312C7.43409 0.320312 6.92694 0.635469 6.67647 1.14281L5.12956 4.2774C5.05106 4.43647 4.89935 4.54668 4.72403 4.57225L1.26485 5.07484C0.704598 5.15628 0.248067 5.54118 0.0734731 6.07912C-0.101621 6.6174 0.0414731 7.19721 0.446817 7.59212L2.94988 10.0322C3.07685 10.156 3.13478 10.3342 3.10488 10.5088L2.51388 13.9542C2.41838 14.512 2.64335 15.0651 3.101 15.3975C3.55875 15.7301 4.15438 15.7732 4.6555 15.51L7.74931 13.8834C7.90625 13.8009 8.09366 13.8009 8.25044 13.8833L11.3445 15.51C11.8456 15.7732 12.4412 15.7301 12.899 15.3975C13.3566 15.0651 13.5816 14.512 13.4861 13.9542L12.8951 10.5089C12.8652 10.3342 12.9231 10.156 13.0502 10.0322L15.553 7.59221Z" fill="#E8ECF5"/>
<mask id="mask0_8887_9754" style="mask-type:alpha" maskUnits="userSpaceOnUse" x="0" y="0" width="16" height="16">
<path d="M15.553 7.59221C15.9585 7.19718 16.1016 6.6174 15.9266 6.0794C15.7519 5.54118 15.2954 5.15628 14.7352 5.07487L11.2762 4.57228C11.1006 4.54665 10.9489 4.43643 10.8704 4.27743L9.32347 1.14281C9.073 0.635469 8.56584 0.320312 7.99997 0.320312C7.43409 0.320312 6.92694 0.635469 6.67647 1.14281L5.12956 4.2774C5.05106 4.43647 4.89935 4.54668 4.72403 4.57225L1.26485 5.07484C0.704598 5.15628 0.248067 5.54118 0.0734731 6.07912C-0.101621 6.6174 0.0414731 7.19721 0.446817 7.59212L2.94988 10.0322C3.07685 10.156 3.13478 10.3342 3.10488 10.5088L2.51388 13.9542C2.41838 14.512 2.64335 15.0651 3.101 15.3975C3.55875 15.7301 4.15438 15.7732 4.6555 15.51L7.74931 13.8834C7.90625 13.8009 8.09366 13.8009 8.25044 13.8833L11.3445 15.51C11.8456 15.7732 12.4412 15.7301 12.899 15.3975C13.3566 15.0651 13.5816 14.512 13.4861 13.9542L12.8951 10.5089C12.8652 10.3342 12.9231 10.156 13.0502 10.0322L15.553 7.59221Z" fill="#FFB845"/>
</mask>
<g mask="url(#mask0_8887_9754)">
<rect width="8" height="16" fill="#FFB845"/>
</g>
</svg>
