<svg width="16" height="16" viewBox="0 0 16 16" fill="none" xmlns="http://www.w3.org/2000/svg">
<path d="M15.553 7.7719C15.9585 7.37687 16.1016 6.79709 15.9266 6.25909C15.7519 5.72087 15.2954 5.33597 14.7352 5.25456L11.2762 4.75197C11.1006 4.72634 10.9489 4.61612 10.8704 4.45712L9.32347 1.3225C9.073 0.815156 8.56584 0.5 7.99997 0.5C7.43409 0.5 6.92694 0.815156 6.67647 1.3225L5.12956 4.45709C5.05106 4.61615 4.89935 4.72637 4.72403 4.75193L1.26485 5.25453C0.704598 5.33597 0.248067 5.72087 0.0734731 6.25881C-0.101621 6.79709 0.0414731 7.3769 0.446817 7.77181L2.94988 10.2119C3.07685 10.3356 3.13478 10.5139 3.10488 10.6885L2.51388 14.1339C2.41838 14.6917 2.64335 15.2448 3.101 15.5772C3.55875 15.9098 4.15438 15.9529 4.6555 15.6897L7.74931 14.0631C7.90625 13.9806 8.09366 13.9806 8.25044 14.063L11.3445 15.6897C11.8456 15.9529 12.4412 15.9098 12.899 15.5772C13.3566 15.2447 13.5816 14.6917 13.4861 14.1339L12.8951 10.6886C12.8652 10.5139 12.9231 10.3357 13.0502 10.2118L15.553 7.7719Z" fill="#FFB845"/>
</svg>
