<svg width="43" height="44" viewBox="0 0 43 44" fill="none" xmlns="http://www.w3.org/2000/svg">
<path d="M21.5 0.5C9.62712 0.5 0 10.1252 0 21.9991C0 33.8729 9.62617 43.4981 21.5 43.4981C33.3748 43.4981 43 33.8729 43 21.9991C43 10.1252 33.3748 0.5 21.5 0.5ZM21.5 6.92847C25.4287 6.92847 28.6122 10.113 28.6122 14.0397C28.6122 17.9675 25.4287 21.151 21.5 21.151C17.5732 21.151 14.3897 17.9675 14.3897 14.0397C14.3897 10.113 17.5732 6.92847 21.5 6.92847ZM21.4953 37.8771C17.577 37.8771 13.9883 36.4501 11.2203 34.0882C10.546 33.5131 10.1569 32.6697 10.1569 31.7848C10.1569 27.8023 13.3801 24.615 17.3636 24.615H25.6383C29.6227 24.615 32.8336 27.8023 32.8336 31.7848C32.8336 32.6707 32.4464 33.5121 31.7712 34.0873C29.0041 36.4501 25.4145 37.8771 21.4953 37.8771Z" fill="#D1E9FF"/>
</svg>
