<svg width="105" height="39" viewBox="0 0 105 39" fill="none" xmlns="http://www.w3.org/2000/svg">
<g opacity="0.2">
<path d="M23.9645 0H1.81638C1.29863 0 0.878906 0.40083 0.878906 0.89528V37.1494C0.878906 37.6438 1.29863 38.0447 1.81638 38.0447H23.9645C24.4822 38.0447 24.902 37.6438 24.902 37.1494V0.89528C24.902 0.40083 24.4822 0 23.9645 0Z" fill="#18355C"/>
<path d="M31.2265 4.28421H32.7734V5.01815H28.8281V4.28421H30.3751V3.16748H31.2231V4.28421H31.2265ZM32.5581 7.73562C32.5581 9.14023 31.8327 9.89948 30.8356 9.89948C29.8385 9.89948 29.1229 9.14023 29.1229 7.73562C29.1229 6.33101 29.8484 5.57177 30.8356 5.57177C31.8227 5.57177 32.5581 6.33101 32.5581 7.73562ZM31.7697 7.73562C31.7697 6.81187 31.3722 6.28989 30.8356 6.28989C30.2989 6.28989 29.918 6.80871 29.918 7.73562C29.918 8.66254 30.3055 9.18136 30.8356 9.18136C31.3656 9.18136 31.7697 8.65937 31.7697 7.73562ZM36.096 3.1833V10.238H35.301V6.79289H34.1151V10.1146H33.32V3.22442H34.1151V6.02415H35.301V3.1833H36.096Z" fill="#18355C"/>
<path d="M37.1299 6.82847V6.06922C37.9878 5.81298 38.4119 4.62349 38.4284 3.25368L39.2599 3.29481C39.25 3.94649 39.1572 4.54124 38.9916 5.03791L39.77 5.98065C40.4789 5.59153 40.8268 4.50328 40.8334 3.25368L41.6648 3.29481C41.6549 3.91486 41.5787 4.4748 41.423 4.95566L42.7978 6.27802L42.2346 6.7652L41.1282 5.64215C40.7738 6.27802 40.2371 6.69877 39.5448 6.83164L38.6636 5.73389C38.3092 6.31914 37.7891 6.70193 37.1332 6.83164L37.1299 6.82847ZM43.4537 7.19228H44.2917V10.1502H37.9845V7.19228H38.8226V7.9452H43.4503V7.19228H43.4537ZM43.4537 9.47951V8.60322H38.8259V9.47951H43.4537ZM44.2917 3.18408V6.80316H43.4537V5.06006H42.2777V4.32612H43.4537V3.18725H44.2917V3.18408Z" fill="#18355C"/>
<path d="M45.7163 5.30681C45.7163 4.12682 46.6173 3.25684 48.0616 3.25684C49.5059 3.25684 50.397 4.12365 50.397 5.30681C50.397 6.48997 49.5059 7.35678 48.0616 7.35678C46.6173 7.35678 45.7163 6.48997 45.7163 5.30681ZM46.3656 7.84397H47.2401V9.40675H52.7424V10.1502H46.3656V7.84397ZM49.5391 5.30681C49.5391 4.47164 48.9329 3.94333 48.0583 3.94333C47.1838 3.94333 46.571 4.47164 46.571 5.30681C46.571 6.14199 47.1772 6.66081 48.0583 6.66081C48.9395 6.66081 49.5391 6.13882 49.5391 5.30681ZM51.6856 3.18408H52.5436V8.42289H51.6856V3.18408Z" fill="#18355C"/>
<path d="M61.3512 6.41285V7.07403H53.9707V6.41285H61.3512ZM57.5351 4.9861C56.7831 5.56503 55.5475 5.84658 54.3517 5.86872V5.19806C55.6403 5.16642 57.1111 4.74251 57.3529 3.92632H54.4742V3.26514H60.8411V3.92632H58.2274C58.2009 4.11613 58.1313 4.29012 58.0287 4.44513L61.0398 5.255L60.8146 5.90036L57.5351 4.98294V4.9861ZM60.9007 8.96582C60.9007 9.93387 59.4199 10.2534 57.6576 10.2534C55.8953 10.2534 54.4146 9.9307 54.4146 8.96582C54.4146 8.00095 55.8953 7.69408 57.6576 7.69408C59.4199 7.69408 60.9007 8.00095 60.9007 8.96582ZM60.003 8.96582C60.003 8.48813 58.8535 8.33944 57.6576 8.33944C56.4618 8.33944 55.3222 8.48813 55.3222 8.96582C55.3222 9.44352 56.4651 9.61118 57.6576 9.61118C58.8502 9.61118 60.003 9.45301 60.003 8.96582Z" fill="#18355C"/>
<path d="M66.4065 7.0329V7.70357C67.98 7.75419 69.2255 8.0832 69.2255 8.96899C69.2255 9.93703 67.7448 10.2565 65.9825 10.2565C64.2201 10.2565 62.7394 9.93386 62.7394 8.96899C62.7394 8.08636 63.9849 7.75419 65.5584 7.70357V7.0329H62.2988V6.37173H69.6793V7.0329H66.4098H66.4065ZM65.8632 4.9861C65.1112 5.56503 63.8756 5.84658 62.6798 5.86872V5.19806C63.9684 5.16642 65.4392 4.74251 65.681 3.92632H62.8023V3.26514H69.1692V3.92632H66.5555C66.529 4.11613 66.4595 4.29012 66.3568 4.44513L69.3679 5.255L69.1427 5.90036L65.8632 4.98294V4.9861ZM65.9825 8.33944C64.7899 8.33944 63.6471 8.48813 63.6471 8.96582C63.6471 9.44352 64.7899 9.61118 65.9825 9.61118C67.175 9.61118 68.3278 9.45301 68.3278 8.96582C68.3278 8.47864 67.1783 8.33944 65.9825 8.33944Z" fill="#18355C"/>
<path d="M70.7891 3.44033H73.8764V5.34161C73.8764 8.06858 72.5977 9.78638 70.7891 9.80219V9.03346C72.1638 8.99233 73.045 7.56241 73.045 5.38274V4.18376H70.7891V3.44033ZM77.7257 3.18408V10.2388H76.9041V6.79367H75.642V10.1154H74.8205V3.22521H75.642V6.02494H76.9041V3.18408H77.7257Z" fill="#18355C"/>
<path d="M86.3287 6.25784V6.89371H78.9482V6.25784H86.3287ZM85.8981 5.66942H79.3756V5.04937H80.6807V3.88519H79.4518V3.26514H85.8186V3.88519H84.5896V5.04937H85.8948V5.66942H85.8981ZM80.2998 9.55424H85.9478V10.1585H79.4584V8.52293H84.9772V8.06738H79.4418V7.46315H85.8186V9.0892H80.2998V9.55108V9.55424ZM81.5387 5.04937H83.735V3.88519H81.5387V5.04937Z" fill="#18355C"/>
<path d="M88.9657 7.38039H87.5049V5.00141H89.8303V4.04286H87.5049V3.35638H90.6353V5.66892H88.2999V6.6939H89.0254C89.8469 6.6939 90.5657 6.62114 91.0494 6.43766V7.11465C90.5657 7.30447 89.8138 7.38039 88.9657 7.38039ZM94.3885 10.2371L91.0825 9.03808C90.2941 9.7657 89.0585 10.1358 87.8295 10.1453V9.44302C89.2407 9.4272 90.7115 8.81664 90.9864 7.65878L91.8345 7.83278C91.7748 8.06371 91.6788 8.27883 91.5496 8.47814L94.7164 9.56007L94.3885 10.2371ZM92.3645 7.51326H91.5496V3.22667H92.3645V4.87171H93.567V3.18555H94.3786V8.16811H93.567V5.62463H92.3645V7.51642V7.51326Z" fill="#18355C"/>
<path d="M102.981 6.62165V7.27333H95.6006V6.62165H98.8635V5.90985H96.0246V5.26449H97.3298V3.9105H96.1008V3.26514H102.468V3.9105H101.239V5.26449H102.544V5.90985H99.7082V6.62165H102.978H102.981ZM96.114 7.91869H102.464V10.1585H96.114V7.91869ZM96.9687 9.51311H101.613V8.55456H96.9687V9.51311ZM98.1911 5.26449H100.387V3.9105H98.1911V5.26449Z" fill="#18355C"/>
<path d="M35.241 16.2891H40.137V18.6143H27.665V16.2891H32.5611V12.7617H35.241V16.2891ZM39.4546 27.2064C39.4546 31.648 37.1557 34.0491 34.012 34.0491C30.8683 34.0491 28.5959 31.6448 28.5959 27.2064C28.5959 22.768 30.8948 20.3637 34.012 20.3637C37.1292 20.3637 39.4546 22.768 39.4546 27.2064ZM36.9635 27.2064C36.9635 24.2801 35.7047 22.6351 34.0087 22.6351C32.3126 22.6351 31.1102 24.2801 31.1102 27.2064C31.1102 30.1327 32.3391 31.7777 34.0087 31.7777C35.6782 31.7777 36.9635 30.1327 36.9635 27.2064ZM50.638 12.8155V35.1216H48.1204V24.2295H44.3739V34.7293H41.8563V12.9484H44.3739V21.8031H48.1204V12.8187H50.638V12.8155Z" fill="#231815"/>
<path d="M64.8654 31.4382C67.0815 31.4382 69.4865 31.0206 70.9109 30.3657V32.7162C69.4898 33.3964 66.9722 33.7887 64.7296 33.7887H55.5967V13.6243H69.079V15.9748H58.3594V31.4382H64.8687H64.8654ZM78.9241 24.3329H75.6413V35.1205H72.9349V12.8145H75.6413V21.8527H78.9241V24.3329Z" fill="#231815"/>
<path d="M104.143 24.2531V26.4454H93.8345V30.286H91.0983V26.4454H80.8159V24.2531H104.143ZM82.0979 17.4895C82.0979 14.1994 86.8018 12.6841 92.4631 12.6841C98.1243 12.6841 102.828 14.1994 102.828 17.4895C102.828 20.7796 98.1243 22.3202 92.4631 22.3202C86.8018 22.3202 82.0979 20.8049 82.0979 17.4895ZM85.1919 32.6396H102.941V34.8604H82.4292V28.5144H85.1919V32.6396ZM84.9699 17.4895C84.9699 19.318 88.3885 20.2323 92.4631 20.2323C96.5376 20.2323 99.9562 19.318 99.9562 17.4895C99.9562 15.661 96.5376 14.772 92.4631 14.772C88.3885 14.772 84.9699 15.6863 84.9699 17.4895Z" fill="#231815"/>
<path d="M20.0394 1.33251H19.9301V2.51883H20.0394C21.3877 2.51883 22.4842 3.56596 22.4842 4.85352L22.4709 15.8816H19.0722V9.8867V1.33251H14.1132V11.4621H15.3554V8.074C15.3554 7.42231 15.9119 6.89716 16.5943 6.89716C17.2767 6.89716 17.8266 7.42231 17.8266 8.074V9.8867V18.3903H9.55172C8.22668 18.3903 7.15008 17.3463 7.15008 16.0619V14.2302H15.3587V13.0439H5.92772V16.0651C5.92772 18.0075 7.5509 19.5861 9.55172 19.5861H17.8266V21.8544H12.9074C10.8503 21.8544 9.40265 23.1482 9.40265 24.9736C9.40265 26.799 10.8536 28.1023 12.9074 28.1023C14.9612 28.1023 16.4188 26.8084 16.4188 24.9736C16.4188 24.5592 16.2962 24.091 16.0809 23.8031H14.673C14.9248 24.1416 15.0407 24.5623 15.0407 24.9736C15.0407 26.1093 14.1695 26.9097 12.9074 26.9097C11.6453 26.9097 10.7807 26.1093 10.7807 24.9736C10.7807 23.8379 11.6519 23.0312 12.9074 23.0312H22.4643L22.4577 29.0799H3.31407L3.32732 11.4685H9.29996C11.0954 11.4685 12.3741 10.2505 12.3741 8.54853C12.3741 7.88102 12.1521 7.27995 11.748 6.81808H13.391V5.62542H10.0221V3.24328H8.64407V5.62542H5.22545V6.81808H6.86851C6.45774 7.27995 6.24242 7.87786 6.24242 8.54853C6.24242 8.89968 6.35174 9.15593 6.43124 9.38054H7.77285C7.7066 9.12429 7.62047 8.88386 7.62047 8.54853C7.62047 7.54252 8.32606 6.81808 9.29996 6.81808C10.2739 6.81808 10.9861 7.54252 10.9861 8.54853C10.9861 9.55453 10.2871 10.279 9.29996 10.279H3.32732L3.33395 2.522H14.1099V1.33567H2.09503L2.08841 10.2758V11.4685L2.06522 29.0799V30.2567L2.05859 33.4392C2.05859 35.3816 3.71821 36.9602 5.74553 36.9602H7.35546V35.7739H5.74553C4.39067 35.7739 3.30745 34.7268 3.30745 33.4392L3.31407 30.2567H12.5099V33.686H13.8813V30.2567H22.4577H22.451L22.4444 35.7707H10.2407V32.101H8.8627V36.2358C8.8627 36.7008 9.13433 36.9602 9.61797 36.9602H23.6866L23.6933 30.7312V29.0767L23.6999 23.028V21.8512L23.7065 17.0711L23.7131 15.8784L23.7198 4.85036C23.7198 2.90795 22.0668 1.32935 20.0328 1.32935L20.0394 1.33251ZM16.5877 5.71084C16.1405 5.71084 15.7165 5.82473 15.3554 6.02719V2.51883H17.8266V6.02403C17.4656 5.82156 17.0415 5.70768 16.5877 5.70768V5.71084ZM19.0722 21.8544V17.0774H22.461V21.8544H19.0722Z" fill="white"/>
</g>
</svg>
