<svg width="140" height="52" viewBox="0 0 140 52" fill="none" xmlns="http://www.w3.org/2000/svg">
<path d="M41.1428 5.80986H43.2401V6.80489H37.8912V5.80986H39.9886V4.29586H41.1383V5.80986H41.1428ZM42.9482 10.4891C42.9482 12.3934 41.9646 13.4227 40.6128 13.4227C39.261 13.4227 38.2909 12.3934 38.2909 10.4891C38.2909 8.58481 39.2745 7.55546 40.6128 7.55546C41.9512 7.55546 42.9482 8.58481 42.9482 10.4891ZM41.8793 10.4891C41.8793 9.23672 41.3404 8.52905 40.6128 8.52905C39.8853 8.52905 39.3688 9.23244 39.3688 10.4891C39.3688 11.7458 39.8943 12.4491 40.6128 12.4491C41.3314 12.4491 41.8793 11.7415 41.8793 10.4891ZM47.7446 4.3173V13.8817H46.6668V9.21099H45.059V13.7144H43.9811V4.37306H45.059V8.16878H46.6668V4.3173H47.7446Z" fill="white"/>
<path d="M49.1458 9.25829V8.22894C50.309 7.88154 50.8838 6.26889 50.9063 4.41178L52.0335 4.46754C52.0201 5.35106 51.8943 6.15738 51.6698 6.83075L52.7252 8.10885C53.6863 7.58131 54.1578 6.10591 54.1668 4.41178L55.2941 4.46754C55.2806 5.30817 55.1773 6.06731 54.9662 6.71923L56.83 8.51201L56.0665 9.17251L54.5665 7.64994C54.086 8.51201 53.3584 9.08244 52.4198 9.26258L51.2252 7.77431C50.7446 8.56777 50.0395 9.08673 49.1503 9.26258L49.1458 9.25829ZM57.7192 9.75152H58.8555V13.7617H50.3045V9.75152H51.4407V10.7723H57.7147V9.75152H57.7192ZM57.7192 12.8524V11.6644H51.4452V12.8524H57.7192ZM58.8555 4.31742V9.22398H57.7192V6.86077H56.1249V5.86573H57.7192V4.32171H58.8555V4.31742Z" fill="white"/>
<path d="M60.7867 7.19531C60.7867 5.59553 62.0083 4.41607 63.9664 4.41607C65.9245 4.41607 67.1326 5.59124 67.1326 7.19531C67.1326 8.79937 65.9245 9.97454 63.9664 9.97454C62.0083 9.97454 60.7867 8.79937 60.7867 7.19531ZM61.667 10.635H62.8526V12.7538H70.3123V13.7617H61.667V10.635ZM65.9694 7.19531C65.9694 6.06303 65.1475 5.34677 63.9619 5.34677C62.7763 5.34677 61.9454 6.06303 61.9454 7.19531C61.9454 8.32759 62.7673 9.03098 63.9619 9.03098C65.1565 9.03098 65.9694 8.3233 65.9694 7.19531ZM68.8796 4.31742H70.0428V11.4199H68.8796V4.31742Z" fill="white"/>
<path d="M81.9843 8.69645V9.59284H71.9783V8.69645H81.9843ZM76.8106 6.76213C75.7912 7.54701 74.116 7.92873 72.4947 7.95875V7.04949C74.2418 7.0066 76.2358 6.43188 76.5636 5.32534H72.6609V4.42895H81.2927V5.32534H77.7493C77.7133 5.58267 77.619 5.81857 77.4798 6.02872L81.5622 7.12669L81.2568 8.00164L76.8106 6.75784V6.76213ZM81.3736 12.1576C81.3736 13.47 79.3661 13.9032 76.9768 13.9032C74.5876 13.9032 72.5801 13.4658 72.5801 12.1576C72.5801 10.8495 74.5876 10.4335 76.9768 10.4335C79.3661 10.4335 81.3736 10.8495 81.3736 12.1576ZM80.1565 12.1576C80.1565 11.51 78.5981 11.3084 76.9768 11.3084C75.3555 11.3084 73.8106 11.51 73.8106 12.1576C73.8106 12.8053 75.36 13.0326 76.9768 13.0326C78.5936 13.0326 80.1565 12.8181 80.1565 12.1576Z" fill="white"/>
<path d="M88.8376 9.53708V10.4463C90.9709 10.515 92.6595 10.961 92.6595 12.1619C92.6595 13.4743 90.652 13.9075 88.2628 13.9075C85.8735 13.9075 83.866 13.47 83.866 12.1619C83.866 10.9653 85.5547 10.515 87.6879 10.4463V9.53708H83.2687V8.64069H93.2748V9.53708H88.8421H88.8376ZM88.1011 6.76213C87.0816 7.54701 85.4065 7.92873 83.7852 7.95875V7.04949C85.5322 7.0066 87.5263 6.43188 87.8541 5.32534H83.9514V4.42895H92.5832V5.32534H89.0397C89.0038 5.58267 88.9095 5.81857 88.7703 6.02872L92.8527 7.12669L92.5473 8.00164L88.1011 6.75784V6.76213ZM88.2628 11.3084C86.646 11.3084 85.0966 11.51 85.0966 12.1576C85.0966 12.8053 86.646 13.0326 88.2628 13.0326C89.8796 13.0326 91.4425 12.8181 91.4425 12.1576C91.4425 11.4971 89.8841 11.3084 88.2628 11.3084Z" fill="white"/>
<path d="M94.7796 4.66483H98.9653V7.24249C98.9653 10.9396 97.2317 13.2685 94.7796 13.2899V12.2477C96.6434 12.1919 97.838 10.2533 97.838 7.29824V5.67273H94.7796V4.66483ZM104.184 4.31742V13.8818H103.07V9.21111H101.359V13.7145H100.245V4.37318H101.359V8.1689H103.07V4.31742H104.184Z" fill="white"/>
<path d="M115.847 8.48629V9.34837H105.841V8.48629H115.847ZM115.263 7.68855H106.42V6.84791H108.19V5.26958H106.523V4.42895H115.155V5.26958H113.489V6.84791H115.259V7.68855H115.263ZM107.673 12.9554H115.33V13.7746H106.532V11.5572H114.015V10.9396H106.51V10.1204H115.155V12.3249H107.673V12.9511V12.9554ZM109.353 6.84791H112.33V5.26958H109.353V6.84791Z" fill="white"/>
<path d="M119.422 10.0086H117.441V6.78333H120.594V5.48378H117.441V4.55308H121.685V7.6883H118.519V9.07792H119.503C120.616 9.07792 121.591 8.97927 122.247 8.73052V9.64835C121.591 9.90569 120.571 10.0086 119.422 10.0086ZM126.774 13.8815L122.292 12.256C121.223 13.2425 119.548 13.7443 117.881 13.7572V12.805C119.795 12.7836 121.789 11.9558 122.161 10.386L123.311 10.6219C123.23 10.935 123.1 11.2267 122.925 11.4969L127.218 12.9637L126.774 13.8815ZM124.03 10.1888H122.925V4.37724H124.03V6.60749H125.66V4.32148H126.76V11.0766H125.66V7.62826H124.03V10.193V10.1888Z" fill="white"/>
<path d="M138.423 8.97952V9.86304H128.417V8.97952H132.841V8.01451H128.992V7.13956H130.762V5.30389H129.096V4.42895H137.727V5.30389H136.061V7.13956H137.831V8.01451H133.986V8.97952H138.419H138.423ZM129.113 10.738H137.723V13.7746H129.113V10.738ZM130.272 12.8996H136.569V11.6001H130.272V12.8996ZM131.929 7.13956H134.907V5.30389H131.929V7.13956Z" fill="white"/>
<path d="M46.586 22.0819H53.2237V25.2343H36.3149V22.0819H42.9527V17.2998H46.586V22.0819ZM52.2986 36.8831C52.2986 42.9048 49.1818 46.1601 44.9198 46.1601C40.6578 46.1601 37.5769 42.9005 37.5769 36.8831C37.5769 30.8657 40.6937 27.6061 44.9198 27.6061C49.1459 27.6061 52.2986 30.8657 52.2986 36.8831ZM48.9213 36.8831C48.9213 32.9158 47.2147 30.6856 44.9153 30.6856C42.6159 30.6856 40.9856 32.9158 40.9856 36.8831C40.9856 40.8504 42.6518 43.0806 44.9153 43.0806C47.1788 43.0806 48.9213 40.8504 48.9213 36.8831ZM67.4604 17.3727V47.614H64.0472V32.8472H58.9678V47.0822H55.5546V17.5528H58.9678V29.5576H64.0472V17.377H67.4604V17.3727Z" fill="white"/>
<path d="M86.7497 42.6216C89.7542 42.6216 93.0147 42.0555 94.9459 41.1677V44.3544C93.0192 45.2765 89.606 45.8083 86.5655 45.8083H74.1837V18.4706H92.4623V21.6573H77.9292V42.6216H86.7542H86.7497ZM105.81 32.9887H101.359V47.614H97.6899V17.3726H101.359V29.6261H105.81V32.9887Z" fill="white"/>
<path d="M140 32.8815V35.8537H126.024V41.0605H122.314V35.8537H108.374V32.8815H140ZM110.112 23.7117C110.112 19.2512 116.489 17.1968 124.165 17.1968C131.84 17.1968 138.217 19.2512 138.217 23.7117C138.217 28.1722 131.84 30.2609 124.165 30.2609C116.489 30.2609 110.112 28.2065 110.112 23.7117ZM114.307 44.2514H138.37V47.2623H110.561V38.6587H114.307V44.2514ZM114.006 23.7117C114.006 26.1907 118.641 27.4302 124.165 27.4302C129.689 27.4302 134.323 26.1907 134.323 23.7117C134.323 21.2327 129.689 20.0275 124.165 20.0275C118.641 20.0275 114.006 21.267 114.006 23.7117Z" fill="white"/>
<path fill-rule="evenodd" clip-rule="evenodd" d="M1.27097 0H31.2982C32.0001 0 32.5692 0.543424 32.5692 1.21377V50.3651C32.5692 51.0354 32.0001 51.5789 31.2982 51.5789H1.27097C0.569032 51.5789 0 51.0354 0 50.3651V1.21377C0 0.543424 0.569032 0 1.27097 0ZM25.8285 1.8068H25.9767L25.9677 1.80252C28.7252 1.80252 30.9662 3.9427 30.9662 6.57611L30.9573 21.5274L30.9483 23.1443L30.9393 29.6249V31.2204L30.9303 39.4209V41.664L30.9213 50.1089H11.8478C11.1921 50.1089 10.8238 49.7572 10.8238 49.1267V43.5211H12.6921V48.4963H29.2372L29.2462 41.0206H17.6278V45.6698H15.7685V41.0206H3.30133L3.29234 45.3353C3.29234 47.0809 4.76092 48.5006 6.59776 48.5006H8.78042V50.1089H6.59776C3.84923 50.1089 1.59922 47.9687 1.59922 45.3353L1.6082 41.0206V39.4251L1.63963 15.5486V13.9317L1.64862 1.81109H17.9377V3.41945H3.32827L3.31929 13.9359H11.4167C12.755 13.9359 13.7026 12.9538 13.7026 11.5899C13.7026 10.226 12.737 9.24383 11.4167 9.24383C10.0963 9.24383 9.1397 10.226 9.1397 11.5899C9.1397 11.9638 9.21869 12.2507 9.29671 12.534C9.31355 12.5952 9.33034 12.6562 9.34629 12.7179H7.52741C7.51523 12.6835 7.50253 12.6485 7.48958 12.6129C7.38801 12.3332 7.27142 12.0121 7.27142 11.5899C7.27142 10.6806 7.56334 9.87002 8.12023 9.24383H5.89267V7.6269H10.5274V4.39733H12.3957V7.6269H16.9631V9.24383H14.7356C15.2835 9.87002 15.5844 10.6849 15.5844 11.5899C15.5844 13.8973 13.8508 15.5486 11.4167 15.5486H3.31929L3.30133 39.4251H29.2551L29.2641 31.2247H16.3074C14.6053 31.2247 13.4242 32.3184 13.4242 33.8581C13.4242 35.3978 14.5963 36.4829 16.3074 36.4829C18.0185 36.4829 19.1997 35.3978 19.1997 33.8581C19.1997 33.3005 19.0425 32.7301 18.7012 32.2712H20.6099C20.9018 32.6615 21.0679 33.2962 21.0679 33.8581C21.0679 36.3457 19.0919 38.0999 16.3074 38.0999C13.523 38.0999 11.5559 36.3328 11.5559 33.8581C11.5559 31.3834 13.5185 29.6292 16.3074 29.6292H22.9766V26.554H11.758C9.04539 26.554 6.84477 24.4138 6.84477 21.7804V17.6845H19.6308V19.2928H8.50197V21.7761C8.50197 23.5174 9.96156 24.9328 11.758 24.9328H22.9766V13.4041V10.9465C22.9766 10.063 22.2311 9.35106 21.306 9.35106C20.3808 9.35106 19.6263 10.063 19.6263 10.9465V15.54H17.9422V1.8068H24.6653V13.4041V21.5317H29.2731L29.2911 6.5804C29.2911 4.8348 27.8045 3.41516 25.9767 3.41516H25.8285V1.8068ZM19.6263 8.1716C20.1158 7.89711 20.6907 7.7427 21.297 7.7427V7.73842C21.9123 7.73842 22.4871 7.89282 22.9766 8.16731V3.41516H19.6263V8.1716ZM24.6653 23.1529V29.6292H29.2596V23.1529H24.6653Z" fill="white"/>
</svg>
