<svg width="137" height="52" viewBox="0 0 137 52" fill="none" xmlns="http://www.w3.org/2000/svg">
<path d="M30.9883 0H1.76806C1.08499 0 0.53125 0.543425 0.53125 1.21377V50.3652C0.53125 51.0355 1.08499 51.579 1.76806 51.579H30.9883C31.6714 51.579 32.2251 51.0355 32.2251 50.3652V1.21377C32.2251 0.543425 31.6714 0 30.9883 0Z" fill="#18355C"/>
<path d="M40.5684 5.81063H42.6094V6.80567H37.4043V5.81063H39.4453V4.29663H40.5641V5.81063H40.5684ZM42.3253 10.4899C42.3253 12.3942 41.3682 13.4235 40.0527 13.4235C38.7373 13.4235 37.7933 12.3942 37.7933 10.4899C37.7933 8.58559 38.7504 7.55624 40.0527 7.55624C41.3551 7.55624 42.3253 8.58559 42.3253 10.4899ZM41.2852 10.4899C41.2852 9.23751 40.7607 8.52983 40.0527 8.52983C39.3447 8.52983 38.8421 9.23322 38.8421 10.4899C38.8421 11.7465 39.3535 12.4499 40.0527 12.4499C40.752 12.4499 41.2852 11.7423 41.2852 10.4899ZM46.9929 4.31808V13.8824H45.944V9.21177H44.3794V13.7152H43.3305V4.37383H44.3794V8.16956H45.944V4.31808H46.9929Z" fill="#18355C"/>
<path d="M48.3564 9.25899V8.22964C49.4884 7.88224 50.0478 6.26959 50.0696 4.41247L51.1666 4.46823C51.1535 5.35175 51.0311 6.15808 50.8126 6.83144L51.8396 8.10955C52.7749 7.58201 53.2338 6.10661 53.2425 4.41247L54.3395 4.46823C54.3264 5.30886 54.2258 6.06801 54.0204 6.71993L55.8341 8.51271L55.0912 9.17321L53.6315 7.65063C53.1638 8.51271 52.4558 9.08314 51.5424 9.26328L50.3799 7.77501C49.9123 8.56847 49.2261 9.08743 48.3608 9.26328L48.3564 9.25899ZM56.6995 9.75222H57.8052V13.7624H49.484V9.75222H50.5897V10.773H56.6951V9.75222H56.6995ZM56.6995 12.8531V11.6651H50.5941V12.8531H56.6995ZM57.8052 4.31812V9.22468H56.6995V6.86147H55.148V5.86643H56.6995V4.3224H57.8052V4.31812Z" fill="#18355C"/>
<path d="M59.6846 7.196C59.6846 5.59622 60.8733 4.41676 62.7788 4.41676C64.6843 4.41676 65.8599 5.59194 65.8599 7.196C65.8599 8.80007 64.6843 9.97525 62.7788 9.97525C60.8733 9.97525 59.6846 8.80007 59.6846 7.196ZM60.5412 10.6357H61.6949V12.7545H68.9541V13.7624H60.5412V10.6357ZM64.728 7.196C64.728 6.06372 63.9282 5.34746 62.7744 5.34746C61.6206 5.34746 60.8121 6.06372 60.8121 7.196C60.8121 8.32829 61.6119 9.03168 62.7744 9.03168C63.9369 9.03168 64.728 8.324 64.728 7.196ZM67.56 4.31812H68.6919V11.4206H67.56V4.31812Z" fill="#18355C"/>
<path d="M80.3124 8.69695V9.59334H70.5752V8.69695H80.3124ZM75.2777 6.76263C74.2856 7.54751 72.6555 7.92923 71.0778 7.95925V7.04999C72.7779 7.0071 74.7183 6.43238 75.0373 5.32583H71.2395V4.42944H79.6393V5.32583H76.1911C76.1561 5.58317 76.0644 5.81906 75.9289 6.02922L79.9016 7.1272L79.6044 8.00214L75.2777 6.75835V6.76263ZM79.718 12.1581C79.718 13.4706 77.7644 13.9037 75.4394 13.9037C73.1144 13.9037 71.1608 13.4663 71.1608 12.1581C71.1608 10.85 73.1144 10.434 75.4394 10.434C77.7644 10.434 79.718 10.85 79.718 12.1581ZM78.5336 12.1581C78.5336 11.5105 77.0171 11.3089 75.4394 11.3089C73.8617 11.3089 72.3583 11.5105 72.3583 12.1581C72.3583 12.8058 73.8661 13.0331 75.4394 13.0331C77.0127 13.0331 78.5336 12.8186 78.5336 12.1581Z" fill="#18355C"/>
<path d="M86.9817 9.53759V10.4468C89.0577 10.5155 90.7009 10.9615 90.7009 12.1624C90.7009 13.4748 88.7474 13.908 86.4223 13.908C84.0973 13.908 82.1438 13.4706 82.1438 12.1624C82.1438 10.9658 83.787 10.5155 85.8629 10.4468V9.53759H81.5625V8.6412H91.2997V9.53759H86.9861H86.9817ZM86.265 6.76263C85.2729 7.54751 83.6428 7.92923 82.0651 7.95925V7.04999C83.7652 7.0071 85.7056 6.43238 86.0246 5.32583H82.2268V4.42944H90.6266V5.32583H87.1784C87.1435 5.58317 87.0517 5.81906 86.9162 6.02922L90.8889 7.1272L90.5917 8.00214L86.265 6.75835V6.76263ZM86.4223 11.3089C84.849 11.3089 83.3412 11.5105 83.3412 12.1581C83.3412 12.8058 84.849 13.0331 86.4223 13.0331C87.9957 13.0331 89.5166 12.8186 89.5166 12.1581C89.5166 11.4976 88 11.3089 86.4223 11.3089Z" fill="#18355C"/>
<path d="M92.7637 4.66552H96.8369V7.24318C96.8369 10.9403 95.1499 13.2692 92.7637 13.2906V12.2484C94.5774 12.1926 95.7399 10.254 95.7399 7.29894V5.67342H92.7637V4.66552ZM101.915 4.31812V13.8825H100.831V9.21181H99.1663V13.7152H98.0824V4.37387H99.1663V8.1696H100.831V4.31812H101.915Z" fill="#18355C"/>
<path d="M113.265 8.48679V9.34887H103.528V8.48679H113.265ZM112.697 7.68905H104.092V6.84841H105.814V5.27008H104.193V4.42944H112.592V5.27008H110.971V6.84841H112.693V7.68905H112.697ZM105.311 12.9559H112.763V13.7751H104.201V11.5577H111.482V10.9401H104.18V10.1209H112.592V12.3254H105.311V12.9516V12.9559ZM106.946 6.84841H109.843V5.27008H106.946V6.84841Z" fill="#18355C"/>
<path d="M116.744 10.0084H114.816V6.78315H117.884V5.4836H114.816V4.55289H118.946V7.68812H115.865V9.07774H116.822C117.906 9.07774 118.855 8.97909 119.493 8.73033V9.64817C118.855 9.90551 117.863 10.0084 116.744 10.0084ZM123.898 13.8814L119.536 12.2559C118.496 13.2423 116.866 13.7441 115.245 13.757V12.8048C117.106 12.7834 119.047 11.9556 119.41 10.3859L120.528 10.6218C120.45 10.9349 120.323 11.2265 120.153 11.4967L124.331 12.9635L123.898 13.8814ZM121.228 10.1886H120.153V4.37705H121.228V6.6073H122.814V4.32129H123.885V11.0764H122.814V7.62807H121.228V10.1929V10.1886Z" fill="#18355C"/>
<path d="M135.235 8.98002V9.86355H125.498V8.98002H129.803V8.01501H126.057V7.14006H127.779V5.30439H126.158V4.42944H134.558V5.30439H132.936V7.14006H134.658V8.01501H130.917V8.98002H135.231H135.235ZM126.175 10.7385H134.553V13.7751H126.175V10.7385ZM127.303 12.9001H133.43V11.6006H127.303V12.9001ZM128.916 7.14006H131.813V5.30439H128.916V7.14006Z" fill="#18355C"/>
<path d="M45.8651 22.0835H52.3245V25.2358H35.8701V22.0835H42.3295V17.3013H45.8651V22.0835ZM51.4242 36.8846C51.4242 42.9063 48.3912 46.1616 44.2437 46.1616C40.0963 46.1616 37.0982 42.902 37.0982 36.8846C37.0982 30.8672 40.1312 27.6076 44.2437 27.6076C48.3562 27.6076 51.4242 30.8672 51.4242 36.8846ZM48.1377 36.8846C48.1377 32.9174 46.477 30.6871 44.2394 30.6871C42.0017 30.6871 40.4153 32.9174 40.4153 36.8846C40.4153 40.8519 42.0367 43.0822 44.2394 43.0822C46.442 43.0822 48.1377 40.8519 48.1377 36.8846ZM66.1786 17.3742V47.6156H62.8571V32.8487H57.9142V47.0838H54.5928V17.5543H57.9142V29.5591H62.8571V17.3785H66.1786V17.3742Z" fill="#231815"/>
<path d="M84.949 42.6226C87.8728 42.6226 91.0456 42.0565 92.9249 41.1687V44.3553C91.05 45.2775 87.7285 45.8093 84.7698 45.8093H72.7207V18.4715H90.5081V21.6582H76.3656V42.6226H84.9534H84.949ZM103.497 32.9896H99.1658V47.6149H95.5952V17.3735H99.1658V29.6271H103.497V32.9896Z" fill="#231815"/>
<path d="M136.768 32.8812V35.8535H123.168V41.0603H119.558V35.8535H105.992V32.8812H136.768ZM107.684 23.7115C107.684 19.2509 113.889 17.1965 121.358 17.1965C128.827 17.1965 135.033 19.2509 135.033 23.7115C135.033 28.172 128.827 30.2607 121.358 30.2607C113.889 30.2607 107.684 28.2063 107.684 23.7115ZM111.765 44.2513H135.182V47.2621H108.121V38.6585H111.765V44.2513ZM111.473 23.7115C111.473 26.1905 115.983 27.43 121.358 27.43C126.734 27.43 131.244 26.1905 131.244 23.7115C131.244 21.2324 126.734 20.0272 121.358 20.0272C115.983 20.0272 111.473 21.2668 111.473 23.7115Z" fill="#231815"/>
<path d="M25.8102 1.80702H25.666V3.41538H25.8102C27.589 3.41538 29.0356 4.83503 29.0356 6.58063L29.0181 21.5319H24.5341V13.4044V1.80702H17.9916V15.5403H19.6305V10.9468C19.6305 10.0633 20.3648 9.35129 21.265 9.35129C22.1653 9.35129 22.8908 10.0633 22.8908 10.9468V13.4044V24.9331H11.9737C10.2255 24.9331 8.80514 23.5177 8.80514 21.7764V19.2931H19.6349V17.6847H7.19248V21.7807C7.19248 24.4141 9.33395 26.5543 11.9737 26.5543H22.8908V29.6295H16.4008C13.6868 29.6295 11.777 31.3837 11.777 33.8584C11.777 36.3331 13.6912 38.1002 16.4008 38.1002C19.1105 38.1002 21.0334 36.346 21.0334 33.8584C21.0334 33.2965 20.8717 32.6618 20.5876 32.2715H18.7302C19.0624 32.7304 19.2153 33.3008 19.2153 33.8584C19.2153 35.3981 18.0659 36.4832 16.4008 36.4832C14.7357 36.4832 13.5951 35.3981 13.5951 33.8584C13.5951 32.3186 14.7445 31.225 16.4008 31.225H29.0093L29.0006 39.4254H3.74426L3.76174 15.5488H11.6415C14.0102 15.5488 15.6972 13.8976 15.6972 11.5901C15.6972 10.6852 15.4044 9.87026 14.8712 9.24407H17.0389V7.62713H12.5942V4.39755H10.7762V7.62713H6.26596V9.24407H8.43366C7.89173 9.87026 7.60766 10.6809 7.60766 11.5901C7.60766 12.0662 7.75188 12.4136 7.85677 12.7181H9.62677C9.53936 12.3707 9.42573 12.0448 9.42573 11.5901C9.42573 10.2262 10.3566 9.24407 11.6415 9.24407C12.9264 9.24407 13.866 10.2262 13.866 11.5901C13.866 12.954 12.9439 13.9362 11.6415 13.9362H3.76174L3.77048 3.41967H17.9873V1.81131H2.13596L2.12722 13.9319V15.5488L2.09663 39.4254V41.0209L2.08789 45.3356C2.08789 47.969 4.27744 50.1092 6.95211 50.1092H9.0761V48.5009H6.95211C5.16463 48.5009 3.73552 47.0812 3.73552 45.3356L3.74426 41.0209H15.8764V45.6702H17.6857V41.0209H29.0006H28.9919L28.9831 48.4966H12.8827V43.5214H11.0646V49.1271C11.0646 49.7575 11.423 50.1092 12.0611 50.1092H30.622L30.6307 41.6643V39.4212L30.6395 31.2207V29.6252L30.6482 23.1446L30.657 21.5276L30.6657 6.57634C30.6657 3.94292 28.4849 1.80273 25.8015 1.80273L25.8102 1.80702ZM21.2563 7.74294C20.6663 7.74294 20.1069 7.89734 19.6305 8.17183V3.41538H22.8908V8.16754C22.4145 7.89305 21.855 7.73865 21.2563 7.73865V7.74294ZM24.5341 29.6295V23.1531H29.005V29.6295H24.5341Z" fill="white"/>
</svg>
